<svg width="213" height="392" viewBox="0 0 213 392" fill="none" xmlns="http://www.w3.org/2000/svg">
<path d="M4.69436 12.5067C5.07726 12.5067 5.43556 12.4356 5.76923 12.2933C6.10291 12.1511 6.42838 11.9706 6.74564 11.7518L7.73026 13.1385C7.34735 13.4612 6.88513 13.7265 6.34359 13.9344C5.80205 14.1422 5.22222 14.2462 4.6041 14.2462C3.6906 14.2462 2.90838 14.0574 2.25744 13.68C1.61197 13.3026 1.11692 12.772 0.772308 12.0882C0.427692 11.4044 0.255385 10.6113 0.255385 9.70872C0.255385 8.81709 0.430427 8.0212 0.780513 7.32103C1.13607 6.62086 1.63932 6.07111 2.29026 5.67179C2.94667 5.26701 3.72889 5.06462 4.63692 5.06462C5.26051 5.06462 5.82393 5.15487 6.32718 5.33539C6.8359 5.51043 7.30085 5.77299 7.72205 6.12308L6.76205 7.45231C6.43932 7.2335 6.10564 7.06393 5.76103 6.94359C5.41641 6.82325 5.06359 6.76308 4.70256 6.76308C4.06256 6.76308 3.54017 6.99556 3.13538 7.46051C2.73607 7.92 2.53641 8.6694 2.53641 9.70872C2.53641 10.7371 2.74154 11.4619 3.15179 11.8831C3.56205 12.2988 4.07624 12.5067 4.69436 12.5067ZM13.775 5.06462C14.6393 5.06462 15.3723 5.25333 15.974 5.63077C16.5757 6.00821 17.0325 6.54154 17.3443 7.23077C17.6615 7.91453 17.8202 8.7159 17.8202 9.63487C17.8202 11.0462 17.4673 12.1675 16.7617 12.999C16.0561 13.8304 15.0578 14.2462 13.7668 14.2462C12.4759 14.2462 11.4776 13.8386 10.772 13.0236C10.0663 12.2031 9.71349 11.079 9.71349 9.65128C9.71349 8.74325 9.87213 7.94462 10.1894 7.25538C10.5067 6.56615 10.9661 6.03009 11.5679 5.64718C12.175 5.2588 12.9108 5.06462 13.775 5.06462ZM13.775 6.69744C13.1679 6.69744 12.7138 6.93538 12.413 7.41128C12.1176 7.88718 11.9699 8.63385 11.9699 9.65128C11.9699 10.6797 12.1176 11.4318 12.413 11.9077C12.7084 12.3781 13.1596 12.6133 13.7668 12.6133C14.374 12.6133 14.8253 12.3781 15.1207 11.9077C15.4161 11.4318 15.5637 10.6742 15.5637 9.63487C15.5637 8.62291 15.4161 7.88171 15.1207 7.41128C14.8253 6.93538 14.3767 6.69744 13.775 6.69744ZM20.0085 14V5.31077H21.8957L22.0516 6.38564C22.801 5.50496 23.72 5.06462 24.8085 5.06462C25.5853 5.06462 26.1788 5.29162 26.589 5.74564C27.0048 6.19419 27.2126 6.82598 27.2126 7.64103V14H25.0465V8.48615C25.0465 7.82974 24.9781 7.36479 24.8413 7.09128C24.7101 6.81778 24.4256 6.68103 23.988 6.68103C23.6325 6.68103 23.3015 6.79316 22.9952 7.01744C22.6889 7.24171 22.4154 7.51521 22.1747 7.83795V14H20.0085ZM33.1589 12.6462C33.6677 12.6462 34.0752 12.5586 34.3815 12.3836C34.6933 12.2085 34.8492 11.9569 34.8492 11.6287C34.8492 11.4209 34.7972 11.2431 34.6933 11.0954C34.5948 10.9422 34.3979 10.8027 34.1025 10.6769C33.8071 10.5456 33.3641 10.4007 32.7733 10.2421C32.2154 10.0998 31.7258 9.92479 31.3046 9.71692C30.8889 9.50359 30.5634 9.23009 30.3282 8.89641C30.0984 8.56274 29.9836 8.14154 29.9836 7.63282C29.9836 6.87795 30.3008 6.26256 30.9354 5.78667C31.5699 5.3053 32.456 5.06462 33.5938 5.06462C34.3377 5.06462 34.9887 5.16308 35.5466 5.36C36.1046 5.55145 36.5832 5.79214 36.9825 6.08205L36.0964 7.40308C35.7463 7.1788 35.3661 6.99829 34.9559 6.86154C34.5511 6.71932 34.1135 6.64821 33.643 6.64821C33.1343 6.64821 32.7624 6.72205 32.5271 6.86974C32.2974 7.01744 32.1825 7.22256 32.1825 7.48513C32.1825 7.67111 32.24 7.82974 32.3548 7.96103C32.4752 8.08684 32.6885 8.20991 32.9948 8.33026C33.3066 8.44513 33.7497 8.58462 34.3241 8.74872C34.8875 8.90735 35.3771 9.0906 35.7928 9.29846C36.214 9.50633 36.5395 9.78256 36.7692 10.1272C36.9989 10.4663 37.1138 10.9149 37.1138 11.4728C37.1138 12.1019 36.9306 12.6215 36.5641 13.0318C36.1976 13.4421 35.7135 13.7484 35.1118 13.9508C34.5101 14.1477 33.8618 14.2462 33.1671 14.2462C32.3466 14.2462 31.6301 14.1285 31.0174 13.8933C30.4048 13.6581 29.8851 13.3545 29.4584 12.9826L30.5825 11.719C30.9217 11.987 31.3073 12.2085 31.7395 12.3836C32.1771 12.5586 32.6502 12.6462 33.1589 12.6462ZM47.1955 13.5159C46.8728 13.7292 46.4817 13.9043 46.0222 14.041C45.5627 14.1778 45.0649 14.2462 44.5288 14.2462C43.4676 14.2462 42.669 13.9726 42.1329 13.4256C41.5969 12.8732 41.3288 12.1402 41.3288 11.2267V6.84513H39.4417V5.31077H41.3288V3.39897L43.495 3.13641V5.31077H46.3668L46.1453 6.84513H43.495V11.2185C43.495 11.667 43.6044 11.9952 43.8232 12.2031C44.042 12.4109 44.3948 12.5149 44.8817 12.5149C45.1935 12.5149 45.4779 12.4793 45.735 12.4082C45.9976 12.3316 46.2355 12.2359 46.4488 12.121L47.1955 13.5159Z" fill="#F625B8"/>
<path d="M164.959 6.36103V8.09231H157.887V6.36103H164.959ZM164.959 9.70051V11.4236H157.887V9.70051H164.959ZM183.753 0.240001V1.79077C183.217 1.79077 182.784 1.87009 182.456 2.02872C182.133 2.18735 181.994 2.48821 182.038 2.93128L182.325 5.68C182.412 6.52239 182.251 7.13504 181.841 7.51795C181.436 7.89538 180.867 8.14154 180.134 8.25641C180.905 8.37675 181.485 8.62291 181.874 8.99487C182.267 9.36137 182.418 9.97402 182.325 10.8328L182.038 13.5815C181.994 14.0301 182.136 14.3309 182.464 14.4841C182.793 14.6427 183.222 14.7221 183.753 14.7221V16.2728C182.451 16.2728 181.477 16.0622 180.832 15.641C180.192 15.2253 179.929 14.4814 180.044 13.4092L180.315 10.7918C180.38 10.1901 180.219 9.76342 179.831 9.5118C179.442 9.26017 178.827 9.13436 177.984 9.13436V7.37846C178.821 7.37846 179.434 7.25538 179.822 7.00923C180.216 6.75761 180.38 6.33094 180.315 5.72923L180.044 3.1118C179.924 2.02872 180.186 1.27932 180.832 0.86359C181.477 0.447864 182.451 0.240001 183.753 0.240001ZM39.696 39V30.3108H41.5832L41.7391 31.3856C42.4885 30.505 43.4075 30.0646 44.496 30.0646C45.2728 30.0646 45.8663 30.2916 46.2765 30.7456C46.6923 31.1942 46.9001 31.826 46.9001 32.641V39H44.734V33.4862C44.734 32.8297 44.6656 32.3648 44.5288 32.0913C44.3976 31.8178 44.1131 31.681 43.6755 31.681C43.32 31.681 42.989 31.7932 42.6827 32.0174C42.3764 32.2417 42.1029 32.5152 41.8622 32.8379V39H39.696ZM56.4731 36.7108C56.4731 37.0444 56.5223 37.2879 56.6208 37.441C56.7193 37.5942 56.8779 37.7063 57.0967 37.7774L56.629 39.2297C56.1695 39.1805 55.7757 39.0656 55.4475 38.8851C55.1193 38.6991 54.8676 38.4229 54.6926 38.0564C54.3644 38.4557 53.9487 38.7538 53.4454 38.9508C52.9476 39.1477 52.4252 39.2462 51.8782 39.2462C50.9921 39.2462 50.2892 38.9945 49.7695 38.4913C49.2499 37.988 48.99 37.3344 48.99 36.5303C48.99 35.6058 49.3511 34.8947 50.0731 34.3969C50.8006 33.8937 51.829 33.6421 53.1582 33.6421H54.3726V33.1744C54.3726 32.6602 54.2112 32.2882 53.8885 32.0585C53.5712 31.8232 53.1172 31.7056 52.5264 31.7056C52.2475 31.7056 51.8974 31.7439 51.4762 31.8205C51.055 31.8916 50.6256 32.0038 50.188 32.1569L49.6711 30.6718C50.2235 30.4639 50.7787 30.3108 51.3367 30.2123C51.9001 30.1138 52.4116 30.0646 52.8711 30.0646C54.0909 30.0646 54.9962 30.3244 55.587 30.8441C56.1777 31.3583 56.4731 32.0885 56.4731 33.0349V36.7108ZM52.5839 37.679C52.9121 37.679 53.243 37.5887 53.5767 37.4082C53.9104 37.2222 54.1757 36.9597 54.3726 36.6205V34.9303H53.5193C52.7152 34.9303 52.1326 35.0588 51.7716 35.3159C51.416 35.573 51.2382 35.9368 51.2382 36.4072C51.2382 37.255 51.6868 37.679 52.5839 37.679ZM65.562 30.0646C66.109 30.0646 66.5411 30.2479 66.8584 30.6144C67.1757 30.9754 67.3343 31.6236 67.3343 32.559V39H65.4471V32.8297C65.4471 32.4414 65.417 32.1651 65.3569 32.001C65.2967 31.8315 65.1545 31.7467 64.9302 31.7467C64.7497 31.7467 64.5664 31.8014 64.3804 31.9108C64.1945 32.0147 64.0057 32.2034 63.8143 32.4769V39H62.1815V32.8297C62.1815 32.4414 62.1514 32.1651 62.0912 32.001C62.031 31.8315 61.8888 31.7467 61.6646 31.7467C61.484 31.7467 61.3008 31.8014 61.1148 31.9108C60.9288 32.0147 60.7401 32.2034 60.5487 32.4769V39H58.6369V30.3108H60.2533L60.3928 31.2133C60.6499 30.8578 60.9206 30.5788 61.2051 30.3764C61.4895 30.1685 61.8314 30.0646 62.2307 30.0646C62.5589 30.0646 62.8488 30.1467 63.1004 30.3108C63.3575 30.4694 63.5408 30.7429 63.6502 31.1313C63.9018 30.814 64.1808 30.5569 64.4871 30.36C64.7989 30.1631 65.1572 30.0646 65.562 30.0646ZM71.0734 35.3159C71.1391 36.1309 71.3798 36.719 71.7955 37.08C72.2112 37.441 72.7172 37.6215 73.3134 37.6215C73.7292 37.6215 74.1203 37.5559 74.4868 37.4246C74.8533 37.2933 75.2143 37.1101 75.5698 36.8749L76.4724 38.1138C76.0676 38.453 75.5835 38.7265 75.0201 38.9344C74.4621 39.1422 73.8468 39.2462 73.1739 39.2462C72.2331 39.2462 71.4399 39.052 70.7945 38.6636C70.1545 38.2752 69.6704 37.7364 69.3421 37.0472C69.0139 36.3579 68.8498 35.5648 68.8498 34.6677C68.8498 33.8034 69.0085 33.0239 69.3257 32.3292C69.6485 31.6345 70.1134 31.0848 70.7206 30.68C71.3333 30.2697 72.069 30.0646 72.9278 30.0646C74.1203 30.0646 75.0666 30.453 75.7668 31.2297C76.4669 32.0065 76.817 33.0814 76.817 34.4544C76.817 34.7716 76.8033 35.0588 76.776 35.3159H71.0734ZM72.936 31.5908C72.4109 31.5908 71.9787 31.7795 71.6396 32.1569C71.3059 32.5344 71.109 33.1251 71.0488 33.9292H74.7083C74.6974 33.1962 74.5469 32.6246 74.257 32.2144C73.9671 31.7986 73.5268 31.5908 72.936 31.5908ZM81.0813 31.8944C81.0813 31.4677 81.2344 31.0985 81.5408 30.7867C81.8471 30.4749 82.2218 30.319 82.6649 30.319C83.1134 30.319 83.4881 30.4749 83.789 30.7867C84.0953 31.0985 84.2485 31.4677 84.2485 31.8944C84.2485 32.3265 84.0953 32.6985 83.789 33.0103C83.4881 33.3221 83.1134 33.4779 82.6649 33.4779C82.2218 33.4779 81.8471 33.3221 81.5408 33.0103C81.2344 32.6985 81.0813 32.3265 81.0813 31.8944ZM81.0813 37.6544C81.0813 37.2277 81.2344 36.8612 81.5408 36.5549C81.8471 36.2431 82.2218 36.0872 82.6649 36.0872C83.1134 36.0872 83.4881 36.2431 83.789 36.5549C84.0953 36.8612 84.2485 37.2277 84.2485 37.6544C84.2485 38.092 84.0953 38.4667 83.789 38.7785C83.4881 39.0903 83.1134 39.2462 82.6649 39.2462C82.2218 39.2462 81.8471 39.0903 81.5408 38.7785C81.2344 38.4667 81.0813 38.092 81.0813 37.6544ZM171.267 35.8574C171.732 35.8574 172.117 36.0133 172.424 36.3251C172.736 36.6369 172.891 37.0198 172.891 37.4738C172.891 37.7528 172.845 38.0318 172.752 38.3108C172.659 38.5897 172.517 38.9508 172.325 39.3938L171.086 42.2H169.527L170.348 38.8031C169.888 38.5022 169.659 38.0564 169.659 37.4656C169.659 37.0171 169.812 36.6369 170.118 36.3251C170.424 36.0133 170.807 35.8574 171.267 35.8574ZM43.0027 62.6462C43.5114 62.6462 43.9189 62.5586 44.2253 62.3836C44.5371 62.2085 44.6929 61.9569 44.6929 61.6287C44.6929 61.4209 44.641 61.2431 44.5371 61.0954C44.4386 60.9422 44.2417 60.8027 43.9463 60.6769C43.6509 60.5456 43.2078 60.4007 42.6171 60.2421C42.0591 60.0998 41.5695 59.9248 41.1483 59.7169C40.7326 59.5036 40.4071 59.2301 40.1719 58.8964C39.9422 58.5627 39.8273 58.1415 39.8273 57.6328C39.8273 56.8779 40.1446 56.2626 40.7791 55.7867C41.4136 55.3053 42.2998 55.0646 43.4376 55.0646C44.1815 55.0646 44.8324 55.1631 45.3904 55.36C45.9483 55.5515 46.427 55.7921 46.8263 56.0821L45.9401 57.4031C45.59 57.1788 45.2099 56.9983 44.7996 56.8615C44.3948 56.7193 43.9572 56.6482 43.4868 56.6482C42.9781 56.6482 42.6061 56.7221 42.3709 56.8697C42.1412 57.0174 42.0263 57.2226 42.0263 57.4851C42.0263 57.6711 42.0837 57.8297 42.1986 57.961C42.3189 58.0868 42.5323 58.2099 42.8386 58.3303C43.1504 58.4451 43.5935 58.5846 44.1678 58.7487C44.7312 58.9074 45.2208 59.0906 45.6365 59.2985C46.0577 59.5063 46.3832 59.7826 46.6129 60.1272C46.8427 60.4663 46.9576 60.9149 46.9576 61.4728C46.9576 62.1019 46.7743 62.6215 46.4078 63.0318C46.0413 63.4421 45.5572 63.7484 44.9555 63.9508C44.3538 64.1477 43.7056 64.2462 43.0109 64.2462C42.1904 64.2462 41.4738 64.1285 40.8612 63.8933C40.2485 63.6581 39.7288 63.3545 39.3022 62.9826L40.4263 61.719C40.7654 61.987 41.1511 62.2085 41.5832 62.3836C42.0208 62.5586 42.494 62.6462 43.0027 62.6462ZM51.7059 55.3108V61.3333C51.7059 61.8038 51.7989 62.1347 51.9849 62.3262C52.1709 62.5176 52.4417 62.6133 52.7972 62.6133C53.1364 62.6133 53.4673 62.5121 53.79 62.3097C54.1128 62.1019 54.3753 61.8393 54.5777 61.5221V55.3108H56.7439V64H54.8567L54.7418 62.9333C54.43 63.36 54.0307 63.6855 53.5439 63.9097C53.057 64.134 52.5538 64.2462 52.0341 64.2462C51.1972 64.2462 50.5709 64.0109 50.1552 63.5405C49.7449 63.0646 49.5398 62.4164 49.5398 61.5959V55.3108H51.7059ZM59.4656 64V62.4985H60.6881V56.8041H59.4656V55.3108H62.3374L62.7394 57.3046C63.0567 56.5716 63.456 56.0164 63.9374 55.639C64.4187 55.2615 65.0232 55.0728 65.7507 55.0728C66.0297 55.0728 66.2758 55.0947 66.4892 55.1385C66.7025 55.1822 66.9104 55.2397 67.1128 55.3108L66.7271 58.6995H65.283V57.001C64.7196 57.0503 64.2328 57.3074 63.8225 57.7723C63.4122 58.2318 63.0895 58.839 62.8543 59.5938V62.4985H64.5856V64H59.4656ZM69.2273 64V55.3108H71.1145L71.2704 56.3856C72.0198 55.505 72.9387 55.0646 74.0273 55.0646C74.804 55.0646 75.3975 55.2916 75.8078 55.7456C76.2235 56.1942 76.4314 56.826 76.4314 57.641V64H74.2652V58.4862C74.2652 57.8297 74.1968 57.3648 74.0601 57.0913C73.9288 56.8178 73.6444 56.681 73.2068 56.681C72.8512 56.681 72.5203 56.7932 72.2139 57.0174C71.9076 57.2417 71.6341 57.5152 71.3934 57.8379V64H69.2273ZM86.0044 61.7108C86.0044 62.0444 86.0536 62.2879 86.1521 62.441C86.2505 62.5942 86.4091 62.7063 86.6279 62.7774L86.1603 64.2297C85.7008 64.1805 85.3069 64.0656 84.9787 63.8851C84.6505 63.6991 84.3989 63.4229 84.2238 63.0564C83.8956 63.4557 83.4799 63.7538 82.9767 63.9508C82.4789 64.1477 81.9565 64.2462 81.4095 64.2462C80.5233 64.2462 79.8204 63.9945 79.3008 63.4913C78.7811 62.988 78.5213 62.3344 78.5213 61.5303C78.5213 60.6058 78.8823 59.8947 79.6044 59.3969C80.3319 58.8937 81.3603 58.6421 82.6895 58.6421H83.9038V58.1744C83.9038 57.6602 83.7425 57.2882 83.4197 57.0585C83.1025 56.8232 82.6485 56.7056 82.0577 56.7056C81.7787 56.7056 81.4286 56.7439 81.0074 56.8205C80.5862 56.8916 80.1568 57.0038 79.7192 57.1569L79.2023 55.6718C79.7548 55.4639 80.31 55.3108 80.8679 55.2123C81.4314 55.1138 81.9428 55.0646 82.4023 55.0646C83.6221 55.0646 84.5274 55.3244 85.1182 55.8441C85.709 56.3583 86.0044 57.0885 86.0044 58.0349V61.7108ZM82.1151 62.679C82.4433 62.679 82.7743 62.5887 83.1079 62.4082C83.4416 62.2222 83.7069 61.9597 83.9038 61.6205V59.9303H83.0505C82.2464 59.9303 81.6638 60.0588 81.3028 60.3159C80.9473 60.573 80.7695 60.9368 80.7695 61.4072C80.7695 62.255 81.218 62.679 82.1151 62.679ZM95.0932 55.0646C95.6402 55.0646 96.0724 55.2479 96.3896 55.6144C96.7069 55.9754 96.8655 56.6236 96.8655 57.559V64H94.9784V57.8297C94.9784 57.4414 94.9483 57.1651 94.8881 57.001C94.8279 56.8315 94.6857 56.7467 94.4614 56.7467C94.2809 56.7467 94.0977 56.8014 93.9117 56.9108C93.7257 57.0147 93.537 57.2034 93.3455 57.4769V64H91.7127V57.8297C91.7127 57.4414 91.6826 57.1651 91.6225 57.001C91.5623 56.8315 91.4201 56.7467 91.1958 56.7467C91.0153 56.7467 90.832 56.8014 90.6461 56.9108C90.4601 57.0147 90.2714 57.2034 90.0799 57.4769V64H88.1681V55.3108H89.7845L89.924 56.2133C90.1811 55.8578 90.4519 55.5788 90.7363 55.3764C91.0208 55.1685 91.3626 55.0646 91.762 55.0646C92.0902 55.0646 92.3801 55.1467 92.6317 55.3108C92.8888 55.4694 93.072 55.7429 93.1814 56.1313C93.4331 55.814 93.712 55.5569 94.0184 55.36C94.3302 55.1631 94.6885 55.0646 95.0932 55.0646ZM100.605 60.3159C100.67 61.1309 100.911 61.719 101.327 62.08C101.742 62.441 102.248 62.6215 102.845 62.6215C103.26 62.6215 103.652 62.5559 104.018 62.4246C104.385 62.2933 104.746 62.1101 105.101 61.8749L106.004 63.1138C105.599 63.453 105.115 63.7265 104.551 63.9344C103.993 64.1422 103.378 64.2462 102.705 64.2462C101.764 64.2462 100.971 64.052 100.326 63.6636C99.6857 63.2752 99.2016 62.7364 98.8734 62.0472C98.5452 61.3579 98.3811 60.5648 98.3811 59.6677C98.3811 58.8034 98.5397 58.0239 98.857 57.3292C99.1797 56.6345 99.6447 56.0848 100.252 55.68C100.865 55.2697 101.6 55.0646 102.459 55.0646C103.652 55.0646 104.598 55.453 105.298 56.2297C105.998 57.0065 106.348 58.0814 106.348 59.4544C106.348 59.7716 106.335 60.0588 106.307 60.3159H100.605ZM102.467 56.5908C101.942 56.5908 101.51 56.7795 101.171 57.1569C100.837 57.5344 100.64 58.1251 100.58 58.9292H104.24C104.229 58.1962 104.078 57.6246 103.788 57.2144C103.498 56.7986 103.058 56.5908 102.467 56.5908ZM110.613 56.8944C110.613 56.4677 110.766 56.0985 111.072 55.7867C111.378 55.4749 111.753 55.319 112.196 55.319C112.645 55.319 113.019 55.4749 113.32 55.7867C113.627 56.0985 113.78 56.4677 113.78 56.8944C113.78 57.3265 113.627 57.6985 113.32 58.0103C113.019 58.3221 112.645 58.4779 112.196 58.4779C111.753 58.4779 111.378 58.3221 111.072 58.0103C110.766 57.6985 110.613 57.3265 110.613 56.8944ZM110.613 62.6544C110.613 62.2277 110.766 61.8612 111.072 61.5549C111.378 61.2431 111.753 61.0872 112.196 61.0872C112.645 61.0872 113.019 61.2431 113.32 61.5549C113.627 61.8612 113.78 62.2277 113.78 62.6544C113.78 63.092 113.627 63.4667 113.32 63.7785C113.019 64.0903 112.645 64.2462 112.196 64.2462C111.753 64.2462 111.378 64.0903 111.072 63.7785C110.766 63.4667 110.613 63.092 110.613 62.6544ZM210.642 60.8574C211.107 60.8574 211.492 61.0133 211.799 61.3251C212.111 61.6369 212.266 62.0198 212.266 62.4738C212.266 62.7528 212.22 63.0318 212.127 63.3108C212.034 63.5897 211.892 63.9508 211.7 64.3938L210.461 67.2H208.902L209.723 63.8031C209.263 63.5022 209.034 63.0564 209.034 62.4656C209.034 62.0171 209.187 61.6369 209.493 61.3251C209.799 61.0133 210.182 60.8574 210.642 60.8574ZM43.0027 87.6462C43.5114 87.6462 43.9189 87.5586 44.2253 87.3836C44.5371 87.2085 44.6929 86.9569 44.6929 86.6287C44.6929 86.4209 44.641 86.2431 44.5371 86.0954C44.4386 85.9422 44.2417 85.8027 43.9463 85.6769C43.6509 85.5456 43.2078 85.4007 42.6171 85.2421C42.0591 85.0998 41.5695 84.9248 41.1483 84.7169C40.7326 84.5036 40.4071 84.2301 40.1719 83.8964C39.9422 83.5627 39.8273 83.1415 39.8273 82.6328C39.8273 81.8779 40.1446 81.2626 40.7791 80.7867C41.4136 80.3053 42.2998 80.0646 43.4376 80.0646C44.1815 80.0646 44.8324 80.1631 45.3904 80.36C45.9483 80.5515 46.427 80.7921 46.8263 81.0821L45.9401 82.4031C45.59 82.1788 45.2099 81.9983 44.7996 81.8615C44.3948 81.7193 43.9572 81.6482 43.4868 81.6482C42.9781 81.6482 42.6061 81.7221 42.3709 81.8697C42.1412 82.0174 42.0263 82.2226 42.0263 82.4851C42.0263 82.6711 42.0837 82.8297 42.1986 82.961C42.3189 83.0868 42.5323 83.2099 42.8386 83.3303C43.1504 83.4451 43.5935 83.5846 44.1678 83.7487C44.7312 83.9074 45.2208 84.0906 45.6365 84.2985C46.0577 84.5063 46.3832 84.7826 46.6129 85.1272C46.8427 85.4663 46.9576 85.9149 46.9576 86.4728C46.9576 87.1019 46.7743 87.6215 46.4078 88.0318C46.0413 88.4421 45.5572 88.7484 44.9555 88.9508C44.3538 89.1477 43.7056 89.2462 43.0109 89.2462C42.1904 89.2462 41.4738 89.1285 40.8612 88.8933C40.2485 88.6581 39.7288 88.3545 39.3022 87.9826L40.4263 86.719C40.7654 86.987 41.1511 87.2085 41.5832 87.3836C42.0208 87.5586 42.494 87.6462 43.0027 87.6462ZM51.7387 76.6103V89H49.5726V76.84L51.7387 76.6103ZM57.4495 80.3108L54.2249 84.1836L57.7613 89H55.2095L51.8618 84.241L55.0618 80.3108H57.4495ZM62.9774 75.9292C63.3712 75.9292 63.694 76.0523 63.9456 76.2985C64.1972 76.5446 64.323 76.8509 64.323 77.2174C64.323 77.5839 64.1972 77.893 63.9456 78.1446C63.694 78.3908 63.3712 78.5138 62.9774 78.5138C62.5781 78.5138 62.2526 78.3908 62.001 78.1446C61.7493 77.893 61.6235 77.5839 61.6235 77.2174C61.6235 76.8509 61.7493 76.5446 62.001 76.2985C62.2526 76.0523 62.5781 75.9292 62.9774 75.9292ZM64.3804 80.3108V87.4656H66.6697V89H59.6707V87.4656H62.2143V81.8451H59.7528V80.3108H64.3804ZM73.3627 76.84V86.4728C73.3627 86.8503 73.4748 87.1183 73.6991 87.2769C73.9233 87.4356 74.2215 87.5149 74.5934 87.5149C74.8286 87.5149 75.0557 87.4903 75.2745 87.441C75.4933 87.3863 75.7011 87.3207 75.898 87.2441L76.4314 88.721C76.1579 88.8632 75.8242 88.9863 75.4304 89.0903C75.042 89.1942 74.5907 89.2462 74.0765 89.2462C73.1302 89.2462 72.4136 88.9754 71.9268 88.4338C71.4399 87.8923 71.1965 87.1621 71.1965 86.2431V78.3744H68.5955V76.84H73.3627ZM83.2064 76.84V86.4728C83.2064 86.8503 83.3185 87.1183 83.5428 87.2769C83.7671 87.4356 84.0652 87.5149 84.4372 87.5149C84.6724 87.5149 84.8994 87.4903 85.1182 87.441C85.337 87.3863 85.5449 87.3207 85.7418 87.2441L86.2751 88.721C86.0016 88.8632 85.6679 88.9863 85.2741 89.0903C84.8857 89.1942 84.4344 89.2462 83.9203 89.2462C82.9739 89.2462 82.2574 88.9754 81.7705 88.4338C81.2837 87.8923 81.0403 87.1621 81.0403 86.2431V78.3744H78.4392V76.84H83.2064ZM92.2214 87.6462C92.7302 87.6462 93.1377 87.5586 93.444 87.3836C93.7558 87.2085 93.9117 86.9569 93.9117 86.6287C93.9117 86.4209 93.8597 86.2431 93.7558 86.0954C93.6573 85.9422 93.4604 85.8027 93.165 85.6769C92.8696 85.5456 92.4266 85.4007 91.8358 85.2421C91.2779 85.0998 90.7883 84.9248 90.3671 84.7169C89.9514 84.5036 89.6259 84.2301 89.3907 83.8964C89.1609 83.5627 89.0461 83.1415 89.0461 82.6328C89.0461 81.8779 89.3633 81.2626 89.9979 80.7867C90.6324 80.3053 91.5185 80.0646 92.6563 80.0646C93.4002 80.0646 94.0512 80.1631 94.6091 80.36C95.1671 80.5515 95.6457 80.7921 96.045 81.0821L95.1589 82.4031C94.8088 82.1788 94.4286 81.9983 94.0184 81.8615C93.6136 81.7193 93.176 81.6482 92.7055 81.6482C92.1968 81.6482 91.8249 81.7221 91.5896 81.8697C91.3599 82.0174 91.245 82.2226 91.245 82.4851C91.245 82.6711 91.3025 82.8297 91.4173 82.961C91.5377 83.0868 91.751 83.2099 92.0573 83.3303C92.3691 83.4451 92.8122 83.5846 93.3866 83.7487C93.95 83.9074 94.4396 84.0906 94.8553 84.2985C95.2765 84.5063 95.602 84.7826 95.8317 85.1272C96.0614 85.4663 96.1763 85.9149 96.1763 86.4728C96.1763 87.1019 95.9931 87.6215 95.6266 88.0318C95.2601 88.4421 94.776 88.7484 94.1743 88.9508C93.5726 89.1477 92.9243 89.2462 92.2296 89.2462C91.4091 89.2462 90.6926 89.1285 90.0799 88.8933C89.4673 88.6581 88.9476 88.3545 88.5209 87.9826L89.645 86.719C89.9842 86.987 90.3698 87.2085 90.802 87.3836C91.2396 87.5586 91.7127 87.6462 92.2214 87.6462ZM100.769 81.8944C100.769 81.4677 100.922 81.0985 101.228 80.7867C101.535 80.4749 101.909 80.319 102.352 80.319C102.801 80.319 103.176 80.4749 103.476 80.7867C103.783 81.0985 103.936 81.4677 103.936 81.8944C103.936 82.3265 103.783 82.6985 103.476 83.0103C103.176 83.3221 102.801 83.4779 102.352 83.4779C101.909 83.4779 101.535 83.3221 101.228 83.0103C100.922 82.6985 100.769 82.3265 100.769 81.8944ZM100.769 87.6544C100.769 87.2277 100.922 86.8612 101.228 86.5549C101.535 86.2431 101.909 86.0872 102.352 86.0872C102.801 86.0872 103.176 86.2431 103.476 86.5549C103.783 86.8612 103.936 87.2277 103.936 87.6544C103.936 88.092 103.783 88.4667 103.476 88.7785C103.176 89.0903 102.801 89.2462 102.352 89.2462C101.909 89.2462 101.535 89.0903 101.228 88.7785C100.922 88.4667 100.769 88.092 100.769 87.6544ZM41.0991 115.977V100.535H45.8171V102.209H43.1422V114.32H45.8171V115.977H41.0991ZM45.4971 350.535V365.977H40.7791V364.312H43.454V352.209H40.7791V350.535H45.4971ZM1.28103 375.24C2.58291 375.24 3.55385 375.451 4.19385 375.872C4.83932 376.288 5.10462 377.031 4.98974 378.104L4.71897 380.729C4.65333 381.331 4.82291 381.758 5.22769 382.009C5.63248 382.255 6.23966 382.378 7.04923 382.378V384.134C6.24513 384.134 5.63795 384.26 5.22769 384.512C4.82291 384.763 4.65333 385.19 4.71897 385.792L4.98974 388.401C5.11009 389.484 4.84752 390.234 4.20205 390.649C3.55658 391.065 2.58291 391.273 1.28103 391.273V389.722C1.81709 389.722 2.2465 389.643 2.56923 389.484C2.89744 389.331 3.03966 389.03 2.9959 388.582L2.70872 385.833C2.61573 384.974 2.77436 384.359 3.18462 383.987C3.60034 383.615 4.19658 383.374 4.97333 383.265C4.1747 383.139 3.57573 382.887 3.17641 382.51C2.77709 382.132 2.6212 381.522 2.70872 380.68L2.9959 377.931C3.03966 377.488 2.89744 377.187 2.56923 377.029C2.24103 376.87 1.81162 376.791 1.28103 376.791V375.24Z" fill="white"/>
<path d="M64.4215 1.61026L66.5876 1.84V14H64.6676L64.5363 12.9744C64.2683 13.3573 63.9319 13.6663 63.5271 13.9015C63.1223 14.1313 62.6519 14.2462 62.1158 14.2462C61.3828 14.2462 60.7757 14.0547 60.2943 13.6718C59.8184 13.2889 59.4628 12.7528 59.2276 12.0636C58.9979 11.3689 58.883 10.5621 58.883 9.64308C58.883 8.76239 59.0198 7.97744 59.2933 7.28821C59.5722 6.5935 59.9688 6.04923 60.483 5.65539C60.9972 5.26154 61.6099 5.06462 62.321 5.06462C63.1688 5.06462 63.869 5.35726 64.4215 5.94256V1.61026ZM62.9035 6.68103C62.3565 6.68103 61.9244 6.91897 61.6071 7.39487C61.2953 7.8653 61.1394 8.61744 61.1394 9.65128C61.1394 10.7453 61.2844 11.5138 61.5743 11.9569C61.8642 12.4 62.2553 12.6215 62.7476 12.6215C63.1087 12.6215 63.4259 12.5149 63.6994 12.3015C63.9729 12.0827 64.2136 11.812 64.4215 11.4892V7.53436C64.2191 7.26632 63.9921 7.05846 63.7404 6.91077C63.4943 6.75761 63.2153 6.68103 62.9035 6.68103ZM71.0734 10.3159C71.1391 11.1309 71.3798 11.719 71.7955 12.08C72.2112 12.441 72.7172 12.6215 73.3134 12.6215C73.7292 12.6215 74.1203 12.5559 74.4868 12.4246C74.8533 12.2933 75.2143 12.1101 75.5698 11.8749L76.4724 13.1138C76.0676 13.453 75.5835 13.7265 75.0201 13.9344C74.4621 14.1422 73.8468 14.2462 73.1739 14.2462C72.2331 14.2462 71.4399 14.052 70.7945 13.6636C70.1545 13.2752 69.6704 12.7364 69.3421 12.0472C69.0139 11.3579 68.8498 10.5648 68.8498 9.66769C68.8498 8.80342 69.0085 8.02393 69.3257 7.32923C69.6485 6.63453 70.1134 6.08479 70.7206 5.68C71.3333 5.26974 72.069 5.06462 72.9278 5.06462C74.1203 5.06462 75.0666 5.45299 75.7668 6.22974C76.4669 7.0065 76.817 8.08137 76.817 9.45436C76.817 9.77162 76.8033 10.0588 76.776 10.3159H71.0734ZM72.936 6.59077C72.4109 6.59077 71.9787 6.77949 71.6396 7.15692C71.3059 7.53436 71.109 8.12513 71.0488 8.92923H74.7083C74.6974 8.19624 74.5469 7.62462 74.257 7.21436C73.9671 6.79863 73.5268 6.59077 72.936 6.59077ZM86.9397 5.31077L83.9531 14H81.4095L78.4064 5.31077H80.7367L82.7141 12.2687L84.7326 5.31077H86.9397ZM90.7609 10.3159C90.8266 11.1309 91.0673 11.719 91.483 12.08C91.8987 12.441 92.4047 12.6215 93.0009 12.6215C93.4167 12.6215 93.8078 12.5559 94.1743 12.4246C94.5408 12.2933 94.9018 12.1101 95.2573 11.8749L96.1599 13.1138C95.7551 13.453 95.271 13.7265 94.7076 13.9344C94.1496 14.1422 93.5343 14.2462 92.8614 14.2462C91.9206 14.2462 91.1274 14.052 90.482 13.6636C89.842 13.2752 89.3579 12.7364 89.0296 12.0472C88.7014 11.3579 88.5373 10.5648 88.5373 9.66769C88.5373 8.80342 88.696 8.02393 89.0132 7.32923C89.336 6.63453 89.8009 6.08479 90.4081 5.68C91.0208 5.26974 91.7565 5.06462 92.6153 5.06462C93.8078 5.06462 94.7541 5.45299 95.4543 6.22974C96.1544 7.0065 96.5045 8.08137 96.5045 9.45436C96.5045 9.77162 96.4908 10.0588 96.4635 10.3159H90.7609ZM92.6235 6.59077C92.0984 6.59077 91.6662 6.77949 91.3271 7.15692C90.9934 7.53436 90.7965 8.12513 90.7363 8.92923H94.3958C94.3849 8.19624 94.2344 7.62462 93.9445 7.21436C93.6546 6.79863 93.2143 6.59077 92.6235 6.59077ZM102.894 1.84V11.4728C102.894 11.8503 103.006 12.1183 103.23 12.2769C103.455 12.4356 103.753 12.5149 104.125 12.5149C104.36 12.5149 104.587 12.4903 104.806 12.441C105.025 12.3863 105.232 12.3207 105.429 12.2441L105.963 13.721C105.689 13.8632 105.355 13.9863 104.962 14.0903C104.573 14.1942 104.122 14.2462 103.608 14.2462C102.661 14.2462 101.945 13.9754 101.458 13.4338C100.971 12.8923 100.728 12.1621 100.728 11.2431V3.37436H98.1267V1.84H102.894ZM112.213 5.06462C113.077 5.06462 113.81 5.25333 114.412 5.63077C115.013 6.00821 115.47 6.54154 115.782 7.23077C116.099 7.91453 116.258 8.7159 116.258 9.63487C116.258 11.0462 115.905 12.1675 115.199 12.999C114.494 13.8304 113.495 14.2462 112.204 14.2462C110.913 14.2462 109.915 13.8386 109.209 13.0236C108.504 12.2031 108.151 11.079 108.151 9.65128C108.151 8.74325 108.31 7.94462 108.627 7.25538C108.944 6.56615 109.404 6.03009 110.005 5.64718C110.613 5.2588 111.348 5.06462 112.213 5.06462ZM112.213 6.69744C111.605 6.69744 111.151 6.93538 110.85 7.41128C110.555 7.88718 110.407 8.63385 110.407 9.65128C110.407 10.6797 110.555 11.4318 110.85 11.9077C111.146 12.3781 111.597 12.6133 112.204 12.6133C112.812 12.6133 113.263 12.3781 113.558 11.9077C113.854 11.4318 114.001 10.6742 114.001 9.63487C114.001 8.62291 113.854 7.88171 113.558 7.41128C113.263 6.93538 112.814 6.69744 112.213 6.69744ZM122.934 5.06462C123.695 5.06462 124.307 5.25333 124.772 5.63077C125.237 6.00274 125.574 6.53333 125.781 7.22256C125.995 7.90632 126.101 8.71043 126.101 9.63487C126.101 10.5265 125.973 11.3197 125.716 12.0144C125.459 12.7091 125.081 13.2561 124.583 13.6554C124.091 14.0492 123.484 14.2462 122.762 14.2462C121.876 14.2462 121.159 13.9316 120.612 13.3026V17.3477L118.446 17.5774V5.31077H120.35L120.464 6.36923C120.804 5.92068 121.187 5.59248 121.613 5.38462C122.045 5.17128 122.486 5.06462 122.934 5.06462ZM122.302 6.68923C121.936 6.68923 121.613 6.79863 121.334 7.01744C121.061 7.23624 120.82 7.50701 120.612 7.82974V11.719C121.011 12.3097 121.52 12.6051 122.138 12.6051C122.691 12.6051 123.112 12.3754 123.402 11.9159C123.697 11.4509 123.845 10.6988 123.845 9.65949C123.845 8.56 123.714 7.79145 123.451 7.35385C123.189 6.91077 122.806 6.68923 122.302 6.68923ZM130.136 10.3159C130.202 11.1309 130.442 11.719 130.858 12.08C131.274 12.441 131.78 12.6215 132.376 12.6215C132.792 12.6215 133.183 12.5559 133.549 12.4246C133.916 12.2933 134.277 12.1101 134.632 11.8749L135.535 13.1138C135.13 13.453 134.646 13.7265 134.083 13.9344C133.525 14.1422 132.909 14.2462 132.236 14.2462C131.296 14.2462 130.502 14.052 129.857 13.6636C129.217 13.2752 128.733 12.7364 128.405 12.0472C128.076 11.3579 127.912 10.5648 127.912 9.66769C127.912 8.80342 128.071 8.02393 128.388 7.32923C128.711 6.63453 129.176 6.08479 129.783 5.68C130.396 5.26974 131.131 5.06462 131.99 5.06462C133.183 5.06462 134.129 5.45299 134.829 6.22974C135.529 7.0065 135.88 8.08137 135.88 9.45436C135.88 9.77162 135.866 10.0588 135.838 10.3159H130.136ZM131.998 6.59077C131.473 6.59077 131.041 6.77949 130.702 7.15692C130.368 7.53436 130.171 8.12513 130.111 8.92923H133.771C133.76 8.19624 133.609 7.62462 133.32 7.21436C133.03 6.79863 132.589 6.59077 131.998 6.59077ZM138.216 14V12.4985H139.438V6.8041H138.216V5.31077H141.087L141.489 7.30462C141.807 6.57162 142.206 6.01641 142.687 5.63898C143.169 5.26154 143.773 5.07282 144.501 5.07282C144.78 5.07282 145.026 5.0947 145.239 5.13846C145.452 5.18222 145.66 5.23966 145.863 5.31077L145.477 8.69949H144.033V7.00103C143.47 7.05026 142.983 7.30735 142.572 7.77231C142.162 8.2318 141.84 8.83897 141.604 9.59385V12.4985H143.336V14H138.216Z" fill="#81D6D6"/>
<path d="M103.731 30.1138C103.731 30.5022 103.591 30.8304 103.312 31.0985C103.033 31.3665 102.692 31.5005 102.287 31.5005C101.876 31.5005 101.535 31.3665 101.261 31.0985C100.993 30.8304 100.859 30.5022 100.859 30.1138C100.859 29.9169 100.889 29.7063 100.949 29.4821C101.009 29.2578 101.124 28.9733 101.294 28.6287L102.533 26.0523H103.854L103.156 28.9979C103.332 29.1183 103.471 29.2742 103.575 29.4656C103.679 29.6516 103.731 29.8677 103.731 30.1138ZM116.422 35.7426C116.422 36.4318 116.244 37.0417 115.888 37.5723C115.538 38.0974 115.03 38.5077 114.362 38.8031C113.7 39.0985 112.902 39.2462 111.966 39.2462C110.982 39.2462 110.137 39.1012 109.431 38.8113C108.725 38.5159 108.135 38.1385 107.659 37.679L108.84 36.3579C109.25 36.7299 109.71 37.0198 110.219 37.2277C110.727 37.4301 111.299 37.5313 111.934 37.5313C112.541 37.5313 113.049 37.3918 113.46 37.1128C113.875 36.8338 114.083 36.4263 114.083 35.8903C114.083 35.5839 114.018 35.3241 113.886 35.1108C113.755 34.892 113.528 34.6978 113.205 34.5282C112.888 34.3586 112.445 34.1891 111.876 34.0195C110.623 33.6366 109.699 33.1853 109.103 32.6656C108.507 32.1405 108.208 31.4403 108.208 30.5651C108.208 29.9142 108.389 29.3535 108.75 28.8831C109.111 28.4072 109.598 28.0434 110.21 27.7918C110.823 27.5347 111.512 27.4062 112.278 27.4062C113.121 27.4062 113.862 27.5292 114.502 27.7754C115.142 28.0161 115.705 28.3607 116.192 28.8092L115.068 30.081C114.68 29.7474 114.258 29.5012 113.804 29.3426C113.356 29.1839 112.899 29.1046 112.434 29.1046C111.882 29.1046 111.425 29.214 111.064 29.4328C110.708 29.6516 110.53 29.9798 110.53 30.4174C110.53 30.6855 110.604 30.9152 110.752 31.1067C110.905 31.2926 111.162 31.4677 111.523 31.6318C111.89 31.7959 112.396 31.9764 113.041 32.1733C113.714 32.3757 114.302 32.6191 114.805 32.9036C115.314 33.188 115.711 33.5573 115.995 34.0113C116.28 34.4598 116.422 35.0369 116.422 35.7426ZM122.04 25.9292C122.434 25.9292 122.756 26.0523 123.008 26.2985C123.26 26.5446 123.386 26.8509 123.386 27.2174C123.386 27.5839 123.26 27.893 123.008 28.1446C122.756 28.3908 122.434 28.5138 122.04 28.5138C121.641 28.5138 121.315 28.3908 121.063 28.1446C120.812 27.893 120.686 27.5839 120.686 27.2174C120.686 26.8509 120.812 26.5446 121.063 26.2985C121.315 26.0523 121.641 25.9292 122.04 25.9292ZM123.443 30.3108V37.4656H125.732V39H118.733V37.4656H121.277V31.8451H118.815V30.3108H123.443ZM134.468 30.0646C135.015 30.0646 135.447 30.2479 135.765 30.6144C136.082 30.9754 136.241 31.6236 136.241 32.559V39H134.353V32.8297C134.353 32.4414 134.323 32.1651 134.263 32.001C134.203 31.8315 134.061 31.7467 133.836 31.7467C133.656 31.7467 133.473 31.8014 133.287 31.9108C133.101 32.0147 132.912 32.2034 132.721 32.4769V39H131.088V32.8297C131.088 32.4414 131.058 32.1651 130.997 32.001C130.937 31.8315 130.795 31.7467 130.571 31.7467C130.39 31.7467 130.207 31.8014 130.021 31.9108C129.835 32.0147 129.646 32.2034 129.455 32.4769V39H127.543V30.3108H129.16L129.299 31.2133C129.556 30.8578 129.827 30.5788 130.111 30.3764C130.396 30.1685 130.738 30.0646 131.137 30.0646C131.465 30.0646 131.755 30.1467 132.007 30.3108C132.264 30.4694 132.447 30.7429 132.556 31.1313C132.808 30.814 133.087 30.5569 133.393 30.36C133.705 30.1631 134.063 30.0646 134.468 30.0646ZM140.3 31.2872C140.59 30.9097 140.931 30.6116 141.325 30.3928C141.725 30.174 142.154 30.0646 142.614 30.0646C143.746 30.0646 144.566 30.4803 145.075 31.3118C145.584 32.1378 145.838 33.2455 145.838 34.6349C145.838 35.5265 145.707 36.3197 145.444 37.0144C145.182 37.7091 144.791 38.2561 144.271 38.6554C143.757 39.0492 143.125 39.2462 142.376 39.2462C141.429 39.2462 140.688 38.8879 140.152 38.1713L140.054 39H138.134V26.84L140.3 26.6103V31.2872ZM141.818 37.6297C142.37 37.6297 142.802 37.3945 143.114 36.9241C143.426 36.4537 143.582 35.6988 143.582 34.6595C143.582 33.56 143.44 32.7915 143.155 32.3538C142.871 31.9108 142.48 31.6892 141.982 31.6892C141.621 31.6892 141.301 31.7986 141.022 32.0174C140.748 32.2362 140.508 32.507 140.3 32.8297V36.719C140.486 37.0089 140.704 37.2332 140.956 37.3918C141.208 37.5504 141.495 37.6297 141.818 37.6297ZM154.911 36.7108C154.911 37.0444 154.96 37.2879 155.058 37.441C155.157 37.5942 155.315 37.7063 155.534 37.7774L155.067 39.2297C154.607 39.1805 154.213 39.0656 153.885 38.8851C153.557 38.6991 153.305 38.4229 153.13 38.0564C152.802 38.4557 152.386 38.7538 151.883 38.9508C151.385 39.1477 150.863 39.2462 150.316 39.2462C149.43 39.2462 148.727 38.9945 148.207 38.4913C147.687 37.988 147.428 37.3344 147.428 36.5303C147.428 35.6058 147.789 34.8947 148.511 34.3969C149.238 33.8937 150.267 33.6421 151.596 33.6421H152.81V33.1744C152.81 32.6602 152.649 32.2882 152.326 32.0585C152.009 31.8232 151.555 31.7056 150.964 31.7056C150.685 31.7056 150.335 31.7439 149.914 31.8205C149.492 31.8916 149.063 32.0038 148.625 32.1569L148.109 30.6718C148.661 30.4639 149.216 30.3108 149.774 30.2123C150.338 30.1138 150.849 30.0646 151.309 30.0646C152.528 30.0646 153.434 30.3244 154.024 30.8441C154.615 31.3583 154.911 32.0885 154.911 33.0349V36.7108ZM151.021 37.679C151.35 37.679 151.681 37.5887 152.014 37.4082C152.348 37.2222 152.613 36.9597 152.81 36.6205V34.9303H151.957C151.153 34.9303 150.57 35.0588 150.209 35.3159C149.854 35.573 149.676 35.9368 149.676 36.4072C149.676 37.255 150.124 37.679 151.021 37.679ZM160.036 27.439C160.036 27.0506 160.176 26.7224 160.455 26.4544C160.739 26.1863 161.081 26.0523 161.481 26.0523C161.891 26.0523 162.233 26.1863 162.506 26.4544C162.78 26.7224 162.916 27.0506 162.916 27.439C162.916 27.6468 162.884 27.8602 162.818 28.079C162.758 28.2978 162.643 28.5795 162.473 28.9241L161.234 31.5005H159.913L160.611 28.5549C160.436 28.4345 160.296 28.2786 160.192 28.0872C160.088 27.8957 160.036 27.6797 160.036 27.439ZM133.262 55.1138C133.262 55.5022 133.123 55.8304 132.844 56.0985C132.565 56.3665 132.223 56.5005 131.818 56.5005C131.408 56.5005 131.066 56.3665 130.792 56.0985C130.524 55.8304 130.39 55.5022 130.39 55.1138C130.39 54.9169 130.42 54.7063 130.481 54.4821C130.541 54.2578 130.656 53.9733 130.825 53.6287L132.064 51.0523H133.385L132.688 53.9979C132.863 54.1183 133.002 54.2742 133.106 54.4656C133.21 54.6516 133.262 54.8677 133.262 55.1138ZM145.658 52.6523L146.298 64H144.296L144.082 58.7733C144.049 57.9091 144.041 57.1487 144.058 56.4923C144.074 55.8359 144.101 55.2041 144.14 54.5969L142.638 62.0308H140.817L139.208 54.5969C139.252 55.1713 139.282 55.8058 139.299 56.5005C139.321 57.1897 139.321 57.9528 139.299 58.7897L139.143 64H137.174L137.814 52.6523H140.308L141.768 60.1436L143.163 52.6523H145.658ZM154.911 61.7108C154.911 62.0444 154.96 62.2879 155.058 62.441C155.157 62.5942 155.315 62.7063 155.534 62.7774L155.067 64.2297C154.607 64.1805 154.213 64.0656 153.885 63.8851C153.557 63.6991 153.305 63.4229 153.13 63.0564C152.802 63.4557 152.386 63.7538 151.883 63.9508C151.385 64.1477 150.863 64.2462 150.316 64.2462C149.43 64.2462 148.727 63.9945 148.207 63.4913C147.687 62.988 147.428 62.3344 147.428 61.5303C147.428 60.6058 147.789 59.8947 148.511 59.3969C149.238 58.8937 150.267 58.6421 151.596 58.6421H152.81V58.1744C152.81 57.6602 152.649 57.2882 152.326 57.0585C152.009 56.8232 151.555 56.7056 150.964 56.7056C150.685 56.7056 150.335 56.7439 149.914 56.8205C149.492 56.8916 149.063 57.0038 148.625 57.1569L148.109 55.6718C148.661 55.4639 149.216 55.3108 149.774 55.2123C150.338 55.1138 150.849 55.0646 151.309 55.0646C152.528 55.0646 153.434 55.3244 154.024 55.8441C154.615 56.3583 154.911 57.0885 154.911 58.0349V61.7108ZM151.021 62.679C151.35 62.679 151.681 62.5887 152.014 62.4082C152.348 62.2222 152.613 61.9597 152.81 61.6205V59.9303H151.957C151.153 59.9303 150.57 60.0588 150.209 60.3159C149.854 60.573 149.676 60.9368 149.676 61.4072C149.676 62.255 150.124 62.679 151.021 62.679ZM162.309 55.0646C163.07 55.0646 163.682 55.2533 164.147 55.6308C164.612 56.0027 164.949 56.5333 165.156 57.2226C165.37 57.9063 165.476 58.7104 165.476 59.6349C165.476 60.5265 165.348 61.3197 165.091 62.0144C164.834 62.7091 164.456 63.2561 163.958 63.6554C163.466 64.0492 162.859 64.2462 162.137 64.2462C161.251 64.2462 160.534 63.9316 159.987 63.3026V67.3477L157.821 67.5774V55.3108H159.725L159.839 56.3692C160.179 55.9207 160.562 55.5925 160.988 55.3846C161.42 55.1713 161.861 55.0646 162.309 55.0646ZM161.677 56.6892C161.311 56.6892 160.988 56.7986 160.709 57.0174C160.436 57.2362 160.195 57.507 159.987 57.8297V61.719C160.386 62.3097 160.895 62.6051 161.513 62.6051C162.066 62.6051 162.487 62.3754 162.777 61.9159C163.072 61.4509 163.22 60.6988 163.22 59.6595C163.22 58.56 163.089 57.7915 162.826 57.3538C162.564 56.9108 162.181 56.6892 161.677 56.6892ZM171.259 50.9292C171.652 50.9292 171.975 51.0523 172.227 51.2985C172.478 51.5446 172.604 51.8509 172.604 52.2174C172.604 52.5839 172.478 52.893 172.227 53.1446C171.975 53.3908 171.652 53.5138 171.259 53.5138C170.859 53.5138 170.534 53.3908 170.282 53.1446C170.031 52.893 169.905 52.5839 169.905 52.2174C169.905 51.8509 170.031 51.5446 170.282 51.2985C170.534 51.0523 170.859 50.9292 171.259 50.9292ZM172.662 55.3108V62.4656H174.951V64H167.952V62.4656H170.496V56.8451H168.034V55.3108H172.662ZM180.815 62.6462C181.324 62.6462 181.731 62.5586 182.038 62.3836C182.35 62.2085 182.505 61.9569 182.505 61.6287C182.505 61.4209 182.453 61.2431 182.35 61.0954C182.251 60.9422 182.054 60.8027 181.759 60.6769C181.463 60.5456 181.02 60.4007 180.43 60.2421C179.872 60.0998 179.382 59.9248 178.961 59.7169C178.545 59.5036 178.22 59.2301 177.984 58.8964C177.755 58.5627 177.64 58.1415 177.64 57.6328C177.64 56.8779 177.957 56.2626 178.592 55.7867C179.226 55.3053 180.112 55.0646 181.25 55.0646C181.994 55.0646 182.645 55.1631 183.203 55.36C183.761 55.5515 184.239 55.7921 184.639 56.0821L183.753 57.4031C183.403 57.1788 183.022 56.9983 182.612 56.8615C182.207 56.7193 181.77 56.6482 181.299 56.6482C180.791 56.6482 180.419 56.7221 180.183 56.8697C179.954 57.0174 179.839 57.2226 179.839 57.4851C179.839 57.6711 179.896 57.8297 180.011 57.961C180.131 58.0868 180.345 58.2099 180.651 58.3303C180.963 58.4451 181.406 58.5846 181.98 58.7487C182.544 58.9074 183.033 59.0906 183.449 59.2985C183.87 59.5063 184.196 59.7826 184.425 60.1272C184.655 60.4663 184.77 60.9149 184.77 61.4728C184.77 62.1019 184.587 62.6215 184.22 63.0318C183.854 63.4421 183.37 63.7484 182.768 63.9508C182.166 64.1477 181.518 64.2462 180.823 64.2462C180.003 64.2462 179.286 64.1285 178.674 63.8933C178.061 63.6581 177.541 63.3545 177.115 62.9826L178.239 61.719C178.578 61.987 178.964 62.2085 179.396 62.3836C179.833 62.5586 180.306 62.6462 180.815 62.6462ZM194.286 61.7108C194.286 62.0444 194.335 62.2879 194.433 62.441C194.532 62.5942 194.69 62.7063 194.909 62.7774L194.442 64.2297C193.982 64.1805 193.588 64.0656 193.26 63.8851C192.932 63.6991 192.68 63.4229 192.505 63.0564C192.177 63.4557 191.761 63.7538 191.258 63.9508C190.76 64.1477 190.238 64.2462 189.691 64.2462C188.805 64.2462 188.102 63.9945 187.582 63.4913C187.062 62.988 186.803 62.3344 186.803 61.5303C186.803 60.6058 187.164 59.8947 187.886 59.3969C188.613 58.8937 189.642 58.6421 190.971 58.6421H192.185V58.1744C192.185 57.6602 192.024 57.2882 191.701 57.0585C191.384 56.8232 190.93 56.7056 190.339 56.7056C190.06 56.7056 189.71 56.7439 189.289 56.8205C188.867 56.8916 188.438 57.0038 188 57.1569L187.484 55.6718C188.036 55.4639 188.591 55.3108 189.149 55.2123C189.713 55.1138 190.224 55.0646 190.684 55.0646C191.903 55.0646 192.809 55.3244 193.399 55.8441C193.99 56.3583 194.286 57.0885 194.286 58.0349V61.7108ZM190.396 62.679C190.725 62.679 191.056 62.5887 191.389 62.4082C191.723 62.2222 191.988 61.9597 192.185 61.6205V59.9303H191.332C190.528 59.9303 189.945 60.0588 189.584 60.3159C189.229 60.573 189.051 60.9368 189.051 61.4072C189.051 62.255 189.499 62.679 190.396 62.679ZM199.411 52.439C199.411 52.0506 199.551 51.7224 199.83 51.4544C200.114 51.1863 200.456 51.0523 200.856 51.0523C201.266 51.0523 201.608 51.1863 201.881 51.4544C202.155 51.7224 202.291 52.0506 202.291 52.439C202.291 52.6468 202.259 52.8602 202.193 53.079C202.133 53.2978 202.018 53.5795 201.848 53.9241L200.609 56.5005H199.288L199.986 53.5549C199.811 53.4345 199.671 53.2786 199.567 53.0872C199.463 52.8957 199.411 52.6797 199.411 52.439ZM93.8871 130.114C93.8871 130.502 93.7476 130.83 93.4686 131.098C93.1896 131.366 92.8478 131.501 92.443 131.501C92.0327 131.501 91.6908 131.366 91.4173 131.098C91.1493 130.83 91.0153 130.502 91.0153 130.114C91.0153 129.917 91.0454 129.706 91.1055 129.482C91.1657 129.258 91.2806 128.973 91.4502 128.629L92.6891 126.052H94.0102L93.3127 128.998C93.4878 129.118 93.6273 129.274 93.7312 129.466C93.8351 129.652 93.8871 129.868 93.8871 130.114ZM104.002 139V134.011H100.72V139H98.4713V127.652H100.72V132.165H104.002V127.652H106.25V139H104.002ZM113.304 129.416V139H111.064V129.416H107.749V127.652H116.717L116.487 129.416H113.304ZM125.97 127.652L126.61 139H124.608L124.395 133.773C124.362 132.909 124.354 132.149 124.37 131.492C124.387 130.836 124.414 130.204 124.452 129.597L122.951 137.031H121.129L119.521 129.597C119.565 130.171 119.595 130.806 119.611 131.501C119.633 132.19 119.633 132.953 119.611 133.79L119.455 139H117.486L118.126 127.652H120.62L122.081 135.144L123.476 127.652H125.97ZM128.741 139V127.652H130.989V137.178H135.994L135.756 139H128.741ZM140.349 127.439C140.349 127.051 140.488 126.722 140.767 126.454C141.052 126.186 141.394 126.052 141.793 126.052C142.203 126.052 142.545 126.186 142.819 126.454C143.092 126.722 143.229 127.051 143.229 127.439C143.229 127.647 143.196 127.86 143.13 128.079C143.07 128.298 142.955 128.579 142.786 128.924L141.547 131.501H140.226L140.923 128.555C140.748 128.435 140.609 128.279 140.505 128.087C140.401 127.896 140.349 127.68 140.349 127.439ZM151.579 135.857C152.044 135.857 152.43 136.013 152.736 136.325C153.048 136.637 153.204 137.02 153.204 137.474C153.204 137.753 153.157 138.032 153.064 138.311C152.971 138.59 152.829 138.951 152.638 139.394L151.399 142.2H149.84L150.66 138.803C150.201 138.502 149.971 138.056 149.971 137.466C149.971 137.017 150.124 136.637 150.431 136.325C150.737 136.013 151.12 135.857 151.579 135.857ZM93.8871 155.114C93.8871 155.502 93.7476 155.83 93.4686 156.098C93.1896 156.366 92.8478 156.501 92.443 156.501C92.0327 156.501 91.6908 156.366 91.4173 156.098C91.1493 155.83 91.0153 155.502 91.0153 155.114C91.0153 154.917 91.0454 154.706 91.1055 154.482C91.1657 154.258 91.2806 153.973 91.4502 153.629L92.6891 151.052H94.0102L93.3127 153.998C93.4878 154.118 93.6273 154.274 93.7312 154.466C93.8351 154.652 93.8871 154.868 93.8871 155.114ZM103.312 152.406C104.1 152.406 104.767 152.51 105.314 152.718C105.861 152.92 106.367 153.213 106.832 153.596L105.692 154.95C105.364 154.682 105.008 154.477 104.625 154.334C104.242 154.187 103.832 154.113 103.394 154.113C102.864 154.113 102.377 154.252 101.934 154.531C101.496 154.81 101.146 155.259 100.884 155.877C100.621 156.49 100.49 157.299 100.49 158.306C100.49 159.296 100.616 160.097 100.867 160.71C101.124 161.317 101.472 161.763 101.909 162.047C102.352 162.332 102.853 162.474 103.411 162.474C104.002 162.474 104.491 162.373 104.88 162.17C105.273 161.962 105.623 161.733 105.93 161.481L106.988 162.818C106.589 163.212 106.088 163.549 105.487 163.828C104.89 164.107 104.166 164.246 103.312 164.246C102.322 164.246 101.439 164.022 100.662 163.573C99.8854 163.119 99.2754 162.452 98.8324 161.571C98.3893 160.685 98.1678 159.597 98.1678 158.306C98.1678 157.037 98.3948 155.964 98.8488 155.089C99.3083 154.209 99.9264 153.541 100.703 153.087C101.485 152.633 102.355 152.406 103.312 152.406ZM116.422 160.743C116.422 161.432 116.244 162.042 115.888 162.572C115.538 163.097 115.03 163.508 114.362 163.803C113.7 164.098 112.902 164.246 111.966 164.246C110.982 164.246 110.137 164.101 109.431 163.811C108.725 163.516 108.135 163.138 107.659 162.679L108.84 161.358C109.25 161.73 109.71 162.02 110.219 162.228C110.727 162.43 111.299 162.531 111.934 162.531C112.541 162.531 113.049 162.392 113.46 162.113C113.875 161.834 114.083 161.426 114.083 160.89C114.083 160.584 114.018 160.324 113.886 160.111C113.755 159.892 113.528 159.698 113.205 159.528C112.888 159.359 112.445 159.189 111.876 159.019C110.623 158.637 109.699 158.185 109.103 157.666C108.507 157.141 108.208 156.44 108.208 155.565C108.208 154.914 108.389 154.354 108.75 153.883C109.111 153.407 109.598 153.043 110.21 152.792C110.823 152.535 111.512 152.406 112.278 152.406C113.121 152.406 113.862 152.529 114.502 152.775C115.142 153.016 115.705 153.361 116.192 153.809L115.068 155.081C114.68 154.747 114.258 154.501 113.804 154.343C113.356 154.184 112.899 154.105 112.434 154.105C111.882 154.105 111.425 154.214 111.064 154.433C110.708 154.652 110.53 154.98 110.53 155.417C110.53 155.685 110.604 155.915 110.752 156.107C110.905 156.293 111.162 156.468 111.523 156.632C111.89 156.796 112.396 156.976 113.041 157.173C113.714 157.376 114.302 157.619 114.805 157.904C115.314 158.188 115.711 158.557 115.995 159.011C116.28 159.46 116.422 160.037 116.422 160.743ZM126.266 160.743C126.266 161.432 126.088 162.042 125.732 162.572C125.382 163.097 124.873 163.508 124.206 163.803C123.544 164.098 122.746 164.246 121.81 164.246C120.826 164.246 119.98 164.101 119.275 163.811C118.569 163.516 117.978 163.138 117.502 162.679L118.684 161.358C119.094 161.73 119.554 162.02 120.062 162.228C120.571 162.43 121.143 162.531 121.777 162.531C122.384 162.531 122.893 162.392 123.303 162.113C123.719 161.834 123.927 161.426 123.927 160.89C123.927 160.584 123.861 160.324 123.73 160.111C123.599 159.892 123.372 159.698 123.049 159.528C122.732 159.359 122.289 159.189 121.72 159.019C120.467 158.637 119.543 158.185 118.947 157.666C118.35 157.141 118.052 156.44 118.052 155.565C118.052 154.914 118.233 154.354 118.594 153.883C118.955 153.407 119.442 153.043 120.054 152.792C120.667 152.535 121.356 152.406 122.122 152.406C122.964 152.406 123.706 152.529 124.346 152.775C124.986 153.016 125.549 153.361 126.036 153.809L124.912 155.081C124.523 154.747 124.102 154.501 123.648 154.343C123.2 154.184 122.743 154.105 122.278 154.105C121.725 154.105 121.269 154.214 120.908 154.433C120.552 154.652 120.374 154.98 120.374 155.417C120.374 155.685 120.448 155.915 120.596 156.107C120.749 156.293 121.006 156.468 121.367 156.632C121.734 156.796 122.24 156.976 122.885 157.173C123.558 157.376 124.146 157.619 124.649 157.904C125.158 158.188 125.554 158.557 125.839 159.011C126.123 159.46 126.266 160.037 126.266 160.743ZM130.505 152.439C130.505 152.051 130.645 151.722 130.924 151.454C131.208 151.186 131.55 151.052 131.949 151.052C132.36 151.052 132.701 151.186 132.975 151.454C133.248 151.722 133.385 152.051 133.385 152.439C133.385 152.647 133.352 152.86 133.287 153.079C133.227 153.298 133.112 153.579 132.942 153.924L131.703 156.501H130.382L131.08 153.555C130.904 153.435 130.765 153.279 130.661 153.087C130.557 152.896 130.505 152.68 130.505 152.439ZM141.736 160.857C142.201 160.857 142.586 161.013 142.892 161.325C143.204 161.637 143.36 162.02 143.36 162.474C143.36 162.753 143.314 163.032 143.221 163.311C143.128 163.59 142.985 163.951 142.794 164.394L141.555 167.2H139.996L140.817 163.803C140.357 163.502 140.127 163.056 140.127 162.466C140.127 162.017 140.281 161.637 140.587 161.325C140.893 161.013 141.276 160.857 141.736 160.857ZM93.8871 180.114C93.8871 180.502 93.7476 180.83 93.4686 181.098C93.1896 181.366 92.8478 181.501 92.443 181.501C92.0327 181.501 91.6908 181.366 91.4173 181.098C91.1493 180.83 91.0153 180.502 91.0153 180.114C91.0153 179.917 91.0454 179.706 91.1055 179.482C91.1657 179.258 91.2806 178.973 91.4502 178.629L92.6891 176.052H94.0102L93.3127 178.998C93.4878 179.118 93.6273 179.274 93.7312 179.466C93.8351 179.652 93.8871 179.868 93.8871 180.114ZM105.913 177.652V185.029C105.913 185.822 105.755 186.536 105.437 187.17C105.126 187.805 104.65 188.308 104.01 188.68C103.375 189.046 102.568 189.23 101.589 189.23C100.916 189.23 100.315 189.139 99.7842 188.959C99.2536 188.773 98.7503 188.51 98.2744 188.171L99.1606 186.768C99.5818 187.047 99.9729 187.241 100.334 187.351C100.7 187.455 101.081 187.507 101.474 187.507C102.131 187.507 102.661 187.299 103.066 186.883C103.471 186.462 103.673 185.841 103.673 185.021V179.343H100.227V177.652H105.913ZM115.536 186.711C115.536 187.044 115.585 187.288 115.683 187.441C115.782 187.594 115.94 187.706 116.159 187.777L115.692 189.23C115.232 189.181 114.838 189.066 114.51 188.885C114.182 188.699 113.93 188.423 113.755 188.056C113.427 188.456 113.011 188.754 112.508 188.951C112.01 189.148 111.488 189.246 110.941 189.246C110.055 189.246 109.352 188.995 108.832 188.491C108.312 187.988 108.053 187.334 108.053 186.53C108.053 185.606 108.414 184.895 109.136 184.397C109.863 183.894 110.892 183.642 112.221 183.642H113.435V183.174C113.435 182.66 113.274 182.288 112.951 182.058C112.634 181.823 112.18 181.706 111.589 181.706C111.31 181.706 110.96 181.744 110.539 181.821C110.117 181.892 109.688 182.004 109.25 182.157L108.734 180.672C109.286 180.464 109.841 180.311 110.399 180.212C110.963 180.114 111.474 180.065 111.934 180.065C113.153 180.065 114.059 180.324 114.649 180.844C115.24 181.358 115.536 182.089 115.536 183.035V186.711ZM111.646 187.679C111.975 187.679 112.306 187.589 112.639 187.408C112.973 187.222 113.238 186.96 113.435 186.621V184.93H112.582C111.778 184.93 111.195 185.059 110.834 185.316C110.479 185.573 110.301 185.937 110.301 186.407C110.301 187.255 110.749 187.679 111.646 187.679ZM126.315 180.311L123.328 189H120.784L117.781 180.311H120.112L122.089 187.269L124.108 180.311H126.315ZM135.223 186.711C135.223 187.044 135.272 187.288 135.371 187.441C135.469 187.594 135.628 187.706 135.847 187.777L135.379 189.23C134.92 189.181 134.526 189.066 134.197 188.885C133.869 188.699 133.618 188.423 133.443 188.056C133.114 188.456 132.699 188.754 132.195 188.951C131.698 189.148 131.175 189.246 130.628 189.246C129.742 189.246 129.039 188.995 128.52 188.491C128 187.988 127.74 187.334 127.74 186.53C127.74 185.606 128.101 184.895 128.823 184.397C129.551 183.894 130.579 183.642 131.908 183.642H133.123V183.174C133.123 182.66 132.961 182.288 132.638 182.058C132.321 181.823 131.867 181.706 131.276 181.706C130.997 181.706 130.647 181.744 130.226 181.821C129.805 181.892 129.376 182.004 128.938 182.157L128.421 180.672C128.974 180.464 129.529 180.311 130.087 180.212C130.65 180.114 131.162 180.065 131.621 180.065C132.841 180.065 133.746 180.324 134.337 180.844C134.928 181.358 135.223 182.089 135.223 183.035V186.711ZM131.334 187.679C131.662 187.679 131.993 187.589 132.327 187.408C132.66 187.222 132.926 186.96 133.123 186.621V184.93H132.269C131.465 184.93 130.883 185.059 130.522 185.316C130.166 185.573 129.988 185.937 129.988 186.407C129.988 187.255 130.437 187.679 131.334 187.679ZM141.44 187.646C141.949 187.646 142.356 187.559 142.663 187.384C142.975 187.209 143.13 186.957 143.13 186.629C143.13 186.421 143.078 186.243 142.975 186.095C142.876 185.942 142.679 185.803 142.384 185.677C142.088 185.546 141.645 185.401 141.055 185.242C140.497 185.1 140.007 184.925 139.586 184.717C139.17 184.504 138.845 184.23 138.609 183.896C138.38 183.563 138.265 183.142 138.265 182.633C138.265 181.878 138.582 181.263 139.217 180.787C139.851 180.305 140.737 180.065 141.875 180.065C142.619 180.065 143.27 180.163 143.828 180.36C144.386 180.551 144.864 180.792 145.264 181.082L144.378 182.403C144.028 182.179 143.647 181.998 143.237 181.862C142.832 181.719 142.395 181.648 141.924 181.648C141.416 181.648 141.044 181.722 140.808 181.87C140.579 182.017 140.464 182.223 140.464 182.485C140.464 182.671 140.521 182.83 140.636 182.961C140.756 183.087 140.97 183.21 141.276 183.33C141.588 183.445 142.031 183.585 142.605 183.749C143.169 183.907 143.658 184.091 144.074 184.298C144.495 184.506 144.821 184.783 145.05 185.127C145.28 185.466 145.395 185.915 145.395 186.473C145.395 187.102 145.212 187.622 144.845 188.032C144.479 188.442 143.995 188.748 143.393 188.951C142.791 189.148 142.143 189.246 141.448 189.246C140.628 189.246 139.911 189.129 139.299 188.893C138.686 188.658 138.166 188.355 137.74 187.983L138.864 186.719C139.203 186.987 139.589 187.209 140.021 187.384C140.458 187.559 140.931 187.646 141.44 187.646ZM152.351 187.507C152.734 187.507 153.092 187.436 153.425 187.293C153.759 187.151 154.085 186.971 154.402 186.752L155.387 188.138C155.004 188.461 154.541 188.726 154 188.934C153.458 189.142 152.878 189.246 152.26 189.246C151.347 189.246 150.565 189.057 149.914 188.68C149.268 188.303 148.773 187.772 148.429 187.088C148.084 186.404 147.912 185.611 147.912 184.709C147.912 183.817 148.087 183.021 148.437 182.321C148.792 181.621 149.296 181.071 149.947 180.672C150.603 180.267 151.385 180.065 152.293 180.065C152.917 180.065 153.48 180.155 153.983 180.335C154.492 180.51 154.957 180.773 155.378 181.123L154.418 182.452C154.096 182.234 153.762 182.064 153.417 181.944C153.073 181.823 152.72 181.763 152.359 181.763C151.719 181.763 151.196 181.996 150.792 182.461C150.392 182.92 150.193 183.669 150.193 184.709C150.193 185.737 150.398 186.462 150.808 186.883C151.218 187.299 151.732 187.507 152.351 187.507ZM157.903 189V187.498H159.126V181.804H157.903V180.311H160.775L161.177 182.305C161.494 181.572 161.894 181.016 162.375 180.639C162.856 180.262 163.461 180.073 164.188 180.073C164.467 180.073 164.713 180.095 164.927 180.138C165.14 180.182 165.348 180.24 165.55 180.311L165.165 183.699H163.721V182.001C163.157 182.05 162.67 182.307 162.26 182.772C161.85 183.232 161.527 183.839 161.292 184.594V187.498H163.023V189H157.903ZM171.259 175.929C171.652 175.929 171.975 176.052 172.227 176.298C172.478 176.545 172.604 176.851 172.604 177.217C172.604 177.584 172.478 177.893 172.227 178.145C171.975 178.391 171.652 178.514 171.259 178.514C170.859 178.514 170.534 178.391 170.282 178.145C170.031 177.893 169.905 177.584 169.905 177.217C169.905 176.851 170.031 176.545 170.282 176.298C170.534 176.052 170.859 175.929 171.259 175.929ZM172.662 180.311V187.466H174.951V189H167.952V187.466H170.496V181.845H168.034V180.311H172.662ZM181.997 180.065C182.757 180.065 183.37 180.253 183.835 180.631C184.3 181.003 184.636 181.533 184.844 182.223C185.057 182.906 185.164 183.71 185.164 184.635C185.164 185.526 185.035 186.32 184.778 187.014C184.521 187.709 184.144 188.256 183.646 188.655C183.154 189.049 182.546 189.246 181.824 189.246C180.938 189.246 180.222 188.932 179.675 188.303V192.348L177.509 192.577V180.311H179.412L179.527 181.369C179.866 180.921 180.249 180.592 180.676 180.385C181.108 180.171 181.548 180.065 181.997 180.065ZM181.365 181.689C180.998 181.689 180.676 181.799 180.397 182.017C180.123 182.236 179.883 182.507 179.675 182.83V186.719C180.074 187.31 180.583 187.605 181.201 187.605C181.753 187.605 182.175 187.375 182.464 186.916C182.76 186.451 182.907 185.699 182.907 184.659C182.907 183.56 182.776 182.791 182.514 182.354C182.251 181.911 181.868 181.689 181.365 181.689ZM194.852 188.516C194.529 188.729 194.138 188.904 193.678 189.041C193.219 189.178 192.721 189.246 192.185 189.246C191.124 189.246 190.325 188.973 189.789 188.426C189.253 187.873 188.985 187.14 188.985 186.227V181.845H187.098V180.311H188.985V178.399L191.151 178.136V180.311H194.023L193.802 181.845H191.151V186.218C191.151 186.667 191.261 186.995 191.479 187.203C191.698 187.411 192.051 187.515 192.538 187.515C192.85 187.515 193.134 187.479 193.391 187.408C193.654 187.332 193.892 187.236 194.105 187.121L194.852 188.516ZM199.411 177.439C199.411 177.051 199.551 176.722 199.83 176.454C200.114 176.186 200.456 176.052 200.856 176.052C201.266 176.052 201.608 176.186 201.881 176.454C202.155 176.722 202.291 177.051 202.291 177.439C202.291 177.647 202.259 177.86 202.193 178.079C202.133 178.298 202.018 178.579 201.848 178.924L200.609 181.501H199.288L199.986 178.555C199.811 178.435 199.671 178.279 199.567 178.087C199.463 177.896 199.411 177.68 199.411 177.439ZM210.642 185.857C211.107 185.857 211.492 186.013 211.799 186.325C212.111 186.637 212.266 187.02 212.266 187.474C212.266 187.753 212.22 188.032 212.127 188.311C212.034 188.59 211.892 188.951 211.7 189.394L210.461 192.2H208.902L209.723 188.803C209.263 188.502 209.034 188.056 209.034 187.466C209.034 187.017 209.187 186.637 209.493 186.325C209.799 186.013 210.182 185.857 210.642 185.857ZM93.8871 205.114C93.8871 205.502 93.7476 205.83 93.4686 206.098C93.1896 206.366 92.8478 206.501 92.443 206.501C92.0327 206.501 91.6908 206.366 91.4173 206.098C91.1493 205.83 91.0153 205.502 91.0153 205.114C91.0153 204.917 91.0454 204.706 91.1055 204.482C91.1657 204.258 91.2806 203.973 91.4502 203.629L92.6891 201.052H94.0102L93.3127 203.998C93.4878 204.118 93.6273 204.274 93.7312 204.466C93.8351 204.652 93.8871 204.868 93.8871 205.114ZM106.512 206.008C106.512 206.834 106.274 207.504 105.799 208.018C105.328 208.527 104.751 208.896 104.067 209.126L107.177 214H104.601L101.918 209.479H100.884V214H98.6437V202.652H101.983C103.476 202.652 104.603 202.929 105.364 203.481C106.129 204.034 106.512 204.876 106.512 206.008ZM104.182 206.008C104.182 205.401 104.004 204.961 103.649 204.687C103.293 204.414 102.757 204.277 102.041 204.277H100.884V207.887H102.114C102.776 207.887 103.285 207.742 103.641 207.452C104.002 207.157 104.182 206.676 104.182 206.008ZM110.448 210.316C110.514 211.131 110.755 211.719 111.17 212.08C111.586 212.441 112.092 212.622 112.688 212.622C113.104 212.622 113.495 212.556 113.862 212.425C114.228 212.293 114.589 212.11 114.945 211.875L115.847 213.114C115.443 213.453 114.959 213.726 114.395 213.934C113.837 214.142 113.222 214.246 112.549 214.246C111.608 214.246 110.815 214.052 110.169 213.664C109.529 213.275 109.045 212.736 108.717 212.047C108.389 211.358 108.225 210.565 108.225 209.668C108.225 208.803 108.383 208.024 108.701 207.329C109.023 206.635 109.488 206.085 110.096 205.68C110.708 205.27 111.444 205.065 112.303 205.065C113.495 205.065 114.442 205.453 115.142 206.23C115.842 207.006 116.192 208.081 116.192 209.454C116.192 209.772 116.178 210.059 116.151 210.316H110.448ZM112.311 206.591C111.786 206.591 111.354 206.779 111.015 207.157C110.681 207.534 110.484 208.125 110.424 208.929H114.083C114.072 208.196 113.922 207.625 113.632 207.214C113.342 206.799 112.902 206.591 112.311 206.591ZM125.379 211.711C125.379 212.044 125.429 212.288 125.527 212.441C125.626 212.594 125.784 212.706 126.003 212.777L125.535 214.23C125.076 214.181 124.682 214.066 124.354 213.885C124.026 213.699 123.774 213.423 123.599 213.056C123.271 213.456 122.855 213.754 122.352 213.951C121.854 214.148 121.331 214.246 120.784 214.246C119.898 214.246 119.195 213.995 118.676 213.491C118.156 212.988 117.896 212.334 117.896 211.53C117.896 210.606 118.257 209.895 118.979 209.397C119.707 208.894 120.735 208.642 122.064 208.642H123.279V208.174C123.279 207.66 123.117 207.288 122.795 207.058C122.477 206.823 122.023 206.706 121.433 206.706C121.154 206.706 120.804 206.744 120.382 206.821C119.961 206.892 119.532 207.004 119.094 207.157L118.577 205.672C119.13 205.464 119.685 205.311 120.243 205.212C120.806 205.114 121.318 205.065 121.777 205.065C122.997 205.065 123.902 205.324 124.493 205.844C125.084 206.358 125.379 207.089 125.379 208.035V211.711ZM121.49 212.679C121.818 212.679 122.149 212.589 122.483 212.408C122.817 212.222 123.082 211.96 123.279 211.621V209.93H122.426C121.621 209.93 121.039 210.059 120.678 210.316C120.322 210.573 120.144 210.937 120.144 211.407C120.144 212.255 120.593 212.679 121.49 212.679ZM132.663 212.507C133.046 212.507 133.404 212.436 133.738 212.293C134.072 212.151 134.397 211.971 134.714 211.752L135.699 213.138C135.316 213.461 134.854 213.726 134.312 213.934C133.771 214.142 133.191 214.246 132.573 214.246C131.659 214.246 130.877 214.057 130.226 213.68C129.581 213.303 129.086 212.772 128.741 212.088C128.396 211.404 128.224 210.611 128.224 209.709C128.224 208.817 128.399 208.021 128.749 207.321C129.105 206.621 129.608 206.071 130.259 205.672C130.915 205.267 131.698 205.065 132.606 205.065C133.229 205.065 133.793 205.155 134.296 205.335C134.805 205.51 135.27 205.773 135.691 206.123L134.731 207.452C134.408 207.234 134.074 207.064 133.73 206.944C133.385 206.823 133.032 206.763 132.671 206.763C132.031 206.763 131.509 206.996 131.104 207.461C130.705 207.92 130.505 208.669 130.505 209.709C130.505 210.737 130.71 211.462 131.121 211.883C131.531 212.299 132.045 212.507 132.663 212.507ZM145.633 213.516C145.31 213.729 144.919 213.904 144.46 214.041C144 214.178 143.502 214.246 142.966 214.246C141.905 214.246 141.107 213.973 140.57 213.426C140.034 212.873 139.766 212.14 139.766 211.227V206.845H137.879V205.311H139.766V203.399L141.932 203.136V205.311H144.804L144.583 206.845H141.932V211.218C141.932 211.667 142.042 211.995 142.261 212.203C142.48 212.411 142.832 212.515 143.319 212.515C143.631 212.515 143.915 212.479 144.172 212.408C144.435 212.332 144.673 212.236 144.886 212.121L145.633 213.516ZM164.976 202.652V210.029C164.976 210.822 164.817 211.536 164.5 212.17C164.188 212.805 163.712 213.308 163.072 213.68C162.438 214.046 161.631 214.23 160.652 214.23C159.979 214.23 159.377 214.139 158.847 213.959C158.316 213.773 157.813 213.51 157.337 213.171L158.223 211.768C158.644 212.047 159.035 212.241 159.396 212.351C159.763 212.455 160.143 212.507 160.537 212.507C161.193 212.507 161.724 212.299 162.129 211.883C162.534 211.462 162.736 210.841 162.736 210.021V204.343H159.29V202.652H164.976ZM175.484 210.743C175.484 211.432 175.306 212.042 174.951 212.572C174.601 213.097 174.092 213.508 173.425 213.803C172.763 214.098 171.964 214.246 171.029 214.246C170.044 214.246 169.199 214.101 168.493 213.811C167.788 213.516 167.197 213.138 166.721 212.679L167.903 211.358C168.313 211.73 168.772 212.02 169.281 212.228C169.79 212.43 170.362 212.531 170.996 212.531C171.603 212.531 172.112 212.392 172.522 212.113C172.938 211.834 173.146 211.426 173.146 210.89C173.146 210.584 173.08 210.324 172.949 210.111C172.818 209.892 172.591 209.698 172.268 209.528C171.951 209.359 171.508 209.189 170.939 209.019C169.686 208.637 168.762 208.185 168.165 207.666C167.569 207.141 167.271 206.44 167.271 205.565C167.271 204.914 167.451 204.354 167.812 203.883C168.173 203.407 168.66 203.043 169.273 202.792C169.886 202.535 170.575 202.406 171.341 202.406C172.183 202.406 172.924 202.529 173.564 202.775C174.204 203.016 174.768 203.361 175.255 203.809L174.13 205.081C173.742 204.747 173.321 204.501 172.867 204.343C172.418 204.184 171.962 204.105 171.497 204.105C170.944 204.105 170.487 204.214 170.126 204.433C169.771 204.652 169.593 204.98 169.593 205.417C169.593 205.685 169.667 205.915 169.815 206.107C169.968 206.293 170.225 206.468 170.586 206.632C170.952 206.796 171.458 206.976 172.104 207.173C172.777 207.376 173.365 207.619 173.868 207.904C174.377 208.188 174.773 208.557 175.058 209.011C175.342 209.46 175.484 210.037 175.484 210.743ZM179.724 202.439C179.724 202.051 179.863 201.722 180.142 201.454C180.427 201.186 180.769 201.052 181.168 201.052C181.578 201.052 181.92 201.186 182.194 201.454C182.467 201.722 182.604 202.051 182.604 202.439C182.604 202.647 182.571 202.86 182.505 203.079C182.445 203.298 182.33 203.579 182.161 203.924L180.922 206.501H179.601L180.298 203.555C180.123 203.435 179.984 203.279 179.88 203.087C179.776 202.896 179.724 202.68 179.724 202.439ZM190.954 210.857C191.419 210.857 191.805 211.013 192.111 211.325C192.423 211.637 192.579 212.02 192.579 212.474C192.579 212.753 192.532 213.032 192.439 213.311C192.346 213.59 192.204 213.951 192.013 214.394L190.774 217.2H189.215L190.035 213.803C189.576 213.502 189.346 213.056 189.346 212.466C189.346 212.017 189.499 211.637 189.806 211.325C190.112 211.013 190.495 210.857 190.954 210.857ZM93.8871 230.114C93.8871 230.502 93.7476 230.83 93.4686 231.098C93.1896 231.366 92.8478 231.501 92.443 231.501C92.0327 231.501 91.6908 231.366 91.4173 231.098C91.1493 230.83 91.0153 230.502 91.0153 230.114C91.0153 229.917 91.0454 229.706 91.1055 229.482C91.1657 229.258 91.2806 228.973 91.4502 228.629L92.6891 226.052H94.0102L93.3127 228.998C93.4878 229.118 93.6273 229.274 93.7312 229.466C93.8351 229.652 93.8871 229.868 93.8871 230.114ZM103.427 239L100.088 229.572C100.121 229.84 100.164 230.221 100.219 230.713C100.274 231.2 100.32 231.749 100.359 232.362C100.402 232.969 100.424 233.59 100.424 234.225V239H98.4713V227.652H101.327L104.633 237.064C104.573 236.642 104.502 236.027 104.42 235.217C104.338 234.402 104.297 233.486 104.297 232.469V227.652H106.25V239H103.427ZM111.244 229.31V232.419H115.265V234.052H111.244V237.351H116.126V239H108.996V227.652H116.069L115.839 229.31H111.244ZM117.609 227.652H120.062L122.048 231.55L124.058 227.652H126.446L123.361 232.863L126.758 239H124.304L122.015 234.389L119.734 239H117.338L120.686 232.969L117.609 227.652ZM132.991 229.416V239H130.751V229.416H127.436V227.652H136.405L136.175 229.416H132.991ZM155.132 227.652V235.029C155.132 235.822 154.974 236.536 154.656 237.17C154.344 237.805 153.869 238.308 153.229 238.68C152.594 239.046 151.787 239.23 150.808 239.23C150.135 239.23 149.534 239.139 149.003 238.959C148.472 238.773 147.969 238.51 147.493 238.171L148.379 236.768C148.801 237.047 149.192 237.241 149.553 237.351C149.919 237.455 150.299 237.507 150.693 237.507C151.35 237.507 151.88 237.299 152.285 236.883C152.69 236.462 152.892 235.841 152.892 235.021V229.343H149.446V227.652H155.132ZM165.641 235.743C165.641 236.432 165.463 237.042 165.107 237.572C164.757 238.097 164.248 238.508 163.581 238.803C162.919 239.098 162.121 239.246 161.185 239.246C160.201 239.246 159.355 239.101 158.65 238.811C157.944 238.516 157.353 238.138 156.877 237.679L158.059 236.358C158.469 236.73 158.929 237.02 159.437 237.228C159.946 237.43 160.518 237.531 161.152 237.531C161.759 237.531 162.268 237.392 162.678 237.113C163.094 236.834 163.302 236.426 163.302 235.89C163.302 235.584 163.236 235.324 163.105 235.111C162.974 234.892 162.747 234.698 162.424 234.528C162.107 234.359 161.664 234.189 161.095 234.019C159.842 233.637 158.918 233.185 158.322 232.666C157.725 232.141 157.427 231.44 157.427 230.565C157.427 229.914 157.608 229.354 157.969 228.883C158.33 228.407 158.817 228.043 159.429 227.792C160.042 227.535 160.731 227.406 161.497 227.406C162.339 227.406 163.081 227.529 163.721 227.775C164.361 228.016 164.924 228.361 165.411 228.809L164.287 230.081C163.898 229.747 163.477 229.501 163.023 229.343C162.575 229.184 162.118 229.105 161.653 229.105C161.1 229.105 160.644 229.214 160.283 229.433C159.927 229.652 159.749 229.98 159.749 230.417C159.749 230.685 159.823 230.915 159.971 231.107C160.124 231.293 160.381 231.468 160.742 231.632C161.109 231.796 161.615 231.976 162.26 232.173C162.933 232.376 163.521 232.619 164.024 232.904C164.533 233.188 164.929 233.557 165.214 234.011C165.498 234.46 165.641 235.037 165.641 235.743ZM169.88 227.439C169.88 227.051 170.02 226.722 170.299 226.454C170.583 226.186 170.925 226.052 171.324 226.052C171.735 226.052 172.076 226.186 172.35 226.454C172.623 226.722 172.76 227.051 172.76 227.439C172.76 227.647 172.727 227.86 172.662 228.079C172.602 228.298 172.487 228.579 172.317 228.924L171.078 231.501H169.757L170.455 228.555C170.279 228.435 170.14 228.279 170.036 228.087C169.932 227.896 169.88 227.68 169.88 227.439ZM181.111 235.857C181.576 235.857 181.961 236.013 182.267 236.325C182.579 236.637 182.735 237.02 182.735 237.474C182.735 237.753 182.689 238.032 182.596 238.311C182.503 238.59 182.36 238.951 182.169 239.394L180.93 242.2H179.371L180.192 238.803C179.732 238.502 179.502 238.056 179.502 237.466C179.502 237.017 179.656 236.637 179.962 236.325C180.268 236.013 180.651 235.857 181.111 235.857ZM93.8871 255.114C93.8871 255.502 93.7476 255.83 93.4686 256.098C93.1896 256.366 92.8478 256.501 92.443 256.501C92.0327 256.501 91.6908 256.366 91.4173 256.098C91.1493 255.83 91.0153 255.502 91.0153 255.114C91.0153 254.917 91.0454 254.706 91.1055 254.482C91.1657 254.258 91.2806 253.973 91.4502 253.629L92.6891 251.052H94.0102L93.3127 253.998C93.4878 254.118 93.6273 254.274 93.7312 254.466C93.8351 254.652 93.8871 254.868 93.8871 255.114ZM106.783 256.271C106.783 257.151 106.594 257.874 106.217 258.437C105.84 258.995 105.314 259.408 104.642 259.676C103.974 259.938 103.2 260.07 102.32 260.07H101.015V264H98.7667V252.652H102.106C103.578 252.652 104.724 252.95 105.544 253.547C106.37 254.143 106.783 255.051 106.783 256.271ZM104.453 256.287C104.453 255.587 104.253 255.081 103.854 254.769C103.455 254.452 102.899 254.293 102.188 254.293H101.015V258.404H102.254C102.921 258.404 103.455 258.245 103.854 257.928C104.253 257.605 104.453 257.058 104.453 256.287ZM116.471 255.311L113.525 264.016C113.17 265.078 112.642 265.915 111.942 266.527C111.242 267.145 110.262 267.498 109.004 267.586L108.734 266.018C109.313 265.936 109.778 265.813 110.128 265.649C110.484 265.485 110.766 265.269 110.974 265.001C111.187 264.733 111.37 264.399 111.523 264H110.785L107.938 255.311H110.227L112.196 262.556L114.247 255.311H116.471ZM125.946 263.516C125.623 263.729 125.232 263.904 124.772 264.041C124.313 264.178 123.815 264.246 123.279 264.246C122.218 264.246 121.419 263.973 120.883 263.426C120.347 262.873 120.079 262.14 120.079 261.227V256.845H118.192V255.311H120.079V253.399L122.245 253.136V255.311H125.117L124.895 256.845H122.245V261.218C122.245 261.667 122.354 261.995 122.573 262.203C122.792 262.411 123.145 262.515 123.632 262.515C123.943 262.515 124.228 262.479 124.485 262.408C124.748 262.332 124.986 262.236 125.199 262.121L125.946 263.516ZM130.456 251.635V256.287C130.817 255.877 131.222 255.571 131.67 255.368C132.124 255.166 132.597 255.065 133.09 255.065C133.888 255.065 134.487 255.292 134.887 255.746C135.291 256.194 135.494 256.826 135.494 257.641V264H133.328V258.125C133.328 257.6 133.246 257.228 133.082 257.009C132.923 256.79 132.649 256.681 132.261 256.681C131.911 256.681 131.583 256.799 131.276 257.034C130.97 257.264 130.697 257.545 130.456 257.879V264H128.29V251.848L130.456 251.635ZM141.744 255.065C142.608 255.065 143.341 255.253 143.943 255.631C144.544 256.008 145.001 256.542 145.313 257.231C145.63 257.915 145.789 258.716 145.789 259.635C145.789 261.046 145.436 262.168 144.73 262.999C144.025 263.83 143.027 264.246 141.736 264.246C140.445 264.246 139.446 263.839 138.741 263.024C138.035 262.203 137.682 261.079 137.682 259.651C137.682 258.743 137.841 257.945 138.158 257.255C138.475 256.566 138.935 256.03 139.537 255.647C140.144 255.259 140.88 255.065 141.744 255.065ZM141.744 256.697C141.137 256.697 140.683 256.935 140.382 257.411C140.086 257.887 139.939 258.634 139.939 259.651C139.939 260.68 140.086 261.432 140.382 261.908C140.677 262.378 141.128 262.613 141.736 262.613C142.343 262.613 142.794 262.378 143.089 261.908C143.385 261.432 143.532 260.674 143.532 259.635C143.532 258.623 143.385 257.882 143.089 257.411C142.794 256.935 142.345 256.697 141.744 256.697ZM147.977 264V255.311H149.864L150.02 256.386C150.77 255.505 151.689 255.065 152.777 255.065C153.554 255.065 154.148 255.292 154.558 255.746C154.974 256.194 155.181 256.826 155.181 257.641V264H153.015V258.486C153.015 257.83 152.947 257.365 152.81 257.091C152.679 256.818 152.394 256.681 151.957 256.681C151.601 256.681 151.27 256.793 150.964 257.017C150.658 257.242 150.384 257.515 150.143 257.838V264H147.977ZM160.036 252.439C160.036 252.051 160.176 251.722 160.455 251.454C160.739 251.186 161.081 251.052 161.481 251.052C161.891 251.052 162.233 251.186 162.506 251.454C162.78 251.722 162.916 252.051 162.916 252.439C162.916 252.647 162.884 252.86 162.818 253.079C162.758 253.298 162.643 253.579 162.473 253.924L161.234 256.501H159.913L160.611 253.555C160.436 253.435 160.296 253.279 160.192 253.087C160.088 252.896 160.036 252.68 160.036 252.439ZM171.267 260.857C171.732 260.857 172.117 261.013 172.424 261.325C172.736 261.637 172.891 262.02 172.891 262.474C172.891 262.753 172.845 263.032 172.752 263.311C172.659 263.59 172.517 263.951 172.325 264.394L171.086 267.2H169.527L170.348 263.803C169.888 263.502 169.659 263.056 169.659 262.466C169.659 262.017 169.812 261.637 170.118 261.325C170.424 261.013 170.807 260.857 171.267 260.857ZM93.8871 280.114C93.8871 280.502 93.7476 280.83 93.4686 281.098C93.1896 281.366 92.8478 281.501 92.443 281.501C92.0327 281.501 91.6908 281.366 91.4173 281.098C91.1493 280.83 91.0153 280.502 91.0153 280.114C91.0153 279.917 91.0454 279.706 91.1055 279.482C91.1657 279.258 91.2806 278.973 91.4502 278.629L92.6891 276.052H94.0102L93.3127 278.998C93.4878 279.118 93.6273 279.274 93.7312 279.466C93.8351 279.652 93.8871 279.868 93.8871 280.114ZM103.427 289L100.088 279.572C100.121 279.84 100.164 280.221 100.219 280.713C100.274 281.2 100.32 281.749 100.359 282.362C100.402 282.969 100.424 283.59 100.424 284.225V289H98.4713V277.652H101.327L104.633 287.064C104.573 286.642 104.502 286.027 104.42 285.217C104.338 284.402 104.297 283.486 104.297 282.469V277.652H106.25V289H103.427ZM112.213 280.065C113.077 280.065 113.81 280.253 114.412 280.631C115.013 281.008 115.47 281.542 115.782 282.231C116.099 282.915 116.258 283.716 116.258 284.635C116.258 286.046 115.905 287.168 115.199 287.999C114.494 288.83 113.495 289.246 112.204 289.246C110.913 289.246 109.915 288.839 109.209 288.024C108.504 287.203 108.151 286.079 108.151 284.651C108.151 283.743 108.31 282.945 108.627 282.255C108.944 281.566 109.404 281.03 110.005 280.647C110.613 280.259 111.348 280.065 112.213 280.065ZM112.213 281.697C111.605 281.697 111.151 281.935 110.85 282.411C110.555 282.887 110.407 283.634 110.407 284.651C110.407 285.68 110.555 286.432 110.85 286.908C111.146 287.378 111.597 287.613 112.204 287.613C112.812 287.613 113.263 287.378 113.558 286.908C113.854 286.432 114.001 285.674 114.001 284.635C114.001 283.623 113.854 282.882 113.558 282.411C113.263 281.935 112.814 281.697 112.213 281.697ZM123.484 276.61L125.65 276.84V289H123.73L123.599 287.974C123.331 288.357 122.994 288.666 122.59 288.902C122.185 289.131 121.714 289.246 121.178 289.246C120.445 289.246 119.838 289.055 119.357 288.672C118.881 288.289 118.525 287.753 118.29 287.064C118.06 286.369 117.946 285.562 117.946 284.643C117.946 283.762 118.082 282.977 118.356 282.288C118.635 281.594 119.031 281.049 119.546 280.655C120.06 280.262 120.672 280.065 121.383 280.065C122.231 280.065 122.931 280.357 123.484 280.943V276.61ZM121.966 281.681C121.419 281.681 120.987 281.919 120.67 282.395C120.358 282.865 120.202 283.617 120.202 284.651C120.202 285.745 120.347 286.514 120.637 286.957C120.927 287.4 121.318 287.622 121.81 287.622C122.171 287.622 122.488 287.515 122.762 287.302C123.035 287.083 123.276 286.812 123.484 286.489V282.534C123.282 282.266 123.055 282.058 122.803 281.911C122.557 281.758 122.278 281.681 121.966 281.681ZM130.136 285.316C130.202 286.131 130.442 286.719 130.858 287.08C131.274 287.441 131.78 287.622 132.376 287.622C132.792 287.622 133.183 287.556 133.549 287.425C133.916 287.293 134.277 287.11 134.632 286.875L135.535 288.114C135.13 288.453 134.646 288.726 134.083 288.934C133.525 289.142 132.909 289.246 132.236 289.246C131.296 289.246 130.502 289.052 129.857 288.664C129.217 288.275 128.733 287.736 128.405 287.047C128.076 286.358 127.912 285.565 127.912 284.668C127.912 283.803 128.071 283.024 128.388 282.329C128.711 281.635 129.176 281.085 129.783 280.68C130.396 280.27 131.131 280.065 131.99 280.065C133.183 280.065 134.129 280.453 134.829 281.23C135.529 282.006 135.88 283.081 135.88 284.454C135.88 284.772 135.866 285.059 135.838 285.316H130.136ZM131.998 281.591C131.473 281.591 131.041 281.779 130.702 282.157C130.368 282.534 130.171 283.125 130.111 283.929H133.771C133.76 283.196 133.609 282.625 133.32 282.214C133.03 281.799 132.589 281.591 131.998 281.591ZM155.132 277.652V285.029C155.132 285.822 154.974 286.536 154.656 287.17C154.344 287.805 153.869 288.308 153.229 288.68C152.594 289.046 151.787 289.23 150.808 289.23C150.135 289.23 149.534 289.139 149.003 288.959C148.472 288.773 147.969 288.51 147.493 288.171L148.379 286.768C148.801 287.047 149.192 287.241 149.553 287.351C149.919 287.455 150.299 287.507 150.693 287.507C151.35 287.507 151.88 287.299 152.285 286.883C152.69 286.462 152.892 285.841 152.892 285.021V279.343H149.446V277.652H155.132ZM165.641 285.743C165.641 286.432 165.463 287.042 165.107 287.572C164.757 288.097 164.248 288.508 163.581 288.803C162.919 289.098 162.121 289.246 161.185 289.246C160.201 289.246 159.355 289.101 158.65 288.811C157.944 288.516 157.353 288.138 156.877 287.679L158.059 286.358C158.469 286.73 158.929 287.02 159.437 287.228C159.946 287.43 160.518 287.531 161.152 287.531C161.759 287.531 162.268 287.392 162.678 287.113C163.094 286.834 163.302 286.426 163.302 285.89C163.302 285.584 163.236 285.324 163.105 285.111C162.974 284.892 162.747 284.698 162.424 284.528C162.107 284.359 161.664 284.189 161.095 284.019C159.842 283.637 158.918 283.185 158.322 282.666C157.725 282.141 157.427 281.44 157.427 280.565C157.427 279.914 157.608 279.354 157.969 278.883C158.33 278.407 158.817 278.043 159.429 277.792C160.042 277.535 160.731 277.406 161.497 277.406C162.339 277.406 163.081 277.529 163.721 277.775C164.361 278.016 164.924 278.361 165.411 278.809L164.287 280.081C163.898 279.747 163.477 279.501 163.023 279.343C162.575 279.184 162.118 279.105 161.653 279.105C161.1 279.105 160.644 279.214 160.283 279.433C159.927 279.652 159.749 279.98 159.749 280.417C159.749 280.685 159.823 280.915 159.971 281.107C160.124 281.293 160.381 281.468 160.742 281.632C161.109 281.796 161.615 281.976 162.26 282.173C162.933 282.376 163.521 282.619 164.024 282.904C164.533 283.188 164.929 283.557 165.214 284.011C165.498 284.46 165.641 285.037 165.641 285.743ZM169.88 277.439C169.88 277.051 170.02 276.722 170.299 276.454C170.583 276.186 170.925 276.052 171.324 276.052C171.735 276.052 172.076 276.186 172.35 276.454C172.623 276.722 172.76 277.051 172.76 277.439C172.76 277.647 172.727 277.86 172.662 278.079C172.602 278.298 172.487 278.579 172.317 278.924L171.078 281.501H169.757L170.455 278.555C170.279 278.435 170.14 278.279 170.036 278.087C169.932 277.896 169.88 277.68 169.88 277.439ZM181.111 285.857C181.576 285.857 181.961 286.013 182.267 286.325C182.579 286.637 182.735 287.02 182.735 287.474C182.735 287.753 182.689 288.032 182.596 288.311C182.503 288.59 182.36 288.951 182.169 289.394L180.93 292.2H179.371L180.192 288.803C179.732 288.502 179.502 288.056 179.502 287.466C179.502 287.017 179.656 286.637 179.962 286.325C180.268 286.013 180.651 285.857 181.111 285.857ZM93.8871 305.114C93.8871 305.502 93.7476 305.83 93.4686 306.098C93.1896 306.366 92.8478 306.501 92.443 306.501C92.0327 306.501 91.6908 306.366 91.4173 306.098C91.1493 305.83 91.0153 305.502 91.0153 305.114C91.0153 304.917 91.0454 304.706 91.1055 304.482C91.1657 304.258 91.2806 303.973 91.4502 303.629L92.6891 301.052H94.0102L93.3127 303.998C93.4878 304.118 93.6273 304.274 93.7312 304.466C93.8351 304.652 93.8871 304.868 93.8871 305.114ZM101.401 304.31V307.419H105.421V309.052H101.401V312.351H106.283V314H99.1524V302.652H106.225L105.995 304.31H101.401ZM110.21 314H107.839L110.892 309.43L108.151 305.311H110.613L112.221 308.248L113.804 305.311H116.151L113.509 309.339L116.569 314H114.075L112.122 310.587L110.21 314ZM122.934 305.065C123.695 305.065 124.307 305.253 124.772 305.631C125.237 306.003 125.574 306.533 125.781 307.223C125.995 307.906 126.101 308.71 126.101 309.635C126.101 310.526 125.973 311.32 125.716 312.014C125.459 312.709 125.081 313.256 124.583 313.655C124.091 314.049 123.484 314.246 122.762 314.246C121.876 314.246 121.159 313.932 120.612 313.303V317.348L118.446 317.577V305.311H120.35L120.464 306.369C120.804 305.921 121.187 305.592 121.613 305.385C122.045 305.171 122.486 305.065 122.934 305.065ZM122.302 306.689C121.936 306.689 121.613 306.799 121.334 307.017C121.061 307.236 120.82 307.507 120.612 307.83V311.719C121.011 312.31 121.52 312.605 122.138 312.605C122.691 312.605 123.112 312.375 123.402 311.916C123.697 311.451 123.845 310.699 123.845 309.659C123.845 308.56 123.714 307.791 123.451 307.354C123.189 306.911 122.806 306.689 122.302 306.689ZM128.372 314V312.498H129.594V306.804H128.372V305.311H131.244L131.646 307.305C131.963 306.572 132.362 306.016 132.844 305.639C133.325 305.262 133.929 305.073 134.657 305.073C134.936 305.073 135.182 305.095 135.395 305.138C135.609 305.182 135.817 305.24 136.019 305.311L135.633 308.699H134.189V307.001C133.626 307.05 133.139 307.307 132.729 307.772C132.318 308.232 131.996 308.839 131.761 309.594V312.498H133.492V314H128.372ZM139.98 310.316C140.045 311.131 140.286 311.719 140.702 312.08C141.117 312.441 141.623 312.622 142.22 312.622C142.635 312.622 143.027 312.556 143.393 312.425C143.76 312.293 144.121 312.11 144.476 311.875L145.379 313.114C144.974 313.453 144.49 313.726 143.926 313.934C143.368 314.142 142.753 314.246 142.08 314.246C141.139 314.246 140.346 314.052 139.701 313.664C139.061 313.275 138.577 312.736 138.248 312.047C137.92 311.358 137.756 310.565 137.756 309.668C137.756 308.803 137.915 308.024 138.232 307.329C138.555 306.635 139.02 306.085 139.627 305.68C140.24 305.27 140.975 305.065 141.834 305.065C143.027 305.065 143.973 305.453 144.673 306.23C145.373 307.006 145.723 308.081 145.723 309.454C145.723 309.772 145.71 310.059 145.682 310.316H139.98ZM141.842 306.591C141.317 306.591 140.885 306.779 140.546 307.157C140.212 307.534 140.015 308.125 139.955 308.929H143.615C143.604 308.196 143.453 307.625 143.163 307.214C142.873 306.799 142.433 306.591 141.842 306.591ZM151.284 312.646C151.793 312.646 152.2 312.559 152.507 312.384C152.818 312.209 152.974 311.957 152.974 311.629C152.974 311.421 152.922 311.243 152.818 311.095C152.72 310.942 152.523 310.803 152.228 310.677C151.932 310.546 151.489 310.401 150.898 310.242C150.34 310.1 149.851 309.925 149.43 309.717C149.014 309.504 148.688 309.23 148.453 308.896C148.223 308.563 148.109 308.142 148.109 307.633C148.109 306.878 148.426 306.263 149.06 305.787C149.695 305.305 150.581 305.065 151.719 305.065C152.463 305.065 153.114 305.163 153.672 305.36C154.23 305.551 154.708 305.792 155.108 306.082L154.221 307.403C153.871 307.179 153.491 306.998 153.081 306.862C152.676 306.719 152.238 306.648 151.768 306.648C151.259 306.648 150.887 306.722 150.652 306.87C150.422 307.017 150.308 307.223 150.308 307.485C150.308 307.671 150.365 307.83 150.48 307.961C150.6 308.087 150.814 308.21 151.12 308.33C151.432 308.445 151.875 308.585 152.449 308.749C153.012 308.907 153.502 309.091 153.918 309.298C154.339 309.506 154.664 309.783 154.894 310.127C155.124 310.466 155.239 310.915 155.239 311.473C155.239 312.102 155.056 312.622 154.689 313.032C154.323 313.442 153.838 313.748 153.237 313.951C152.635 314.148 151.987 314.246 151.292 314.246C150.472 314.246 149.755 314.129 149.142 313.893C148.53 313.658 148.01 313.355 147.583 312.983L148.708 311.719C149.047 311.987 149.432 312.209 149.864 312.384C150.302 312.559 150.775 312.646 151.284 312.646ZM161.128 312.646C161.636 312.646 162.044 312.559 162.35 312.384C162.662 312.209 162.818 311.957 162.818 311.629C162.818 311.421 162.766 311.243 162.662 311.095C162.564 310.942 162.367 310.803 162.071 310.677C161.776 310.546 161.333 310.401 160.742 310.242C160.184 310.1 159.695 309.925 159.273 309.717C158.858 309.504 158.532 309.23 158.297 308.896C158.067 308.563 157.952 308.142 157.952 307.633C157.952 306.878 158.27 306.263 158.904 305.787C159.539 305.305 160.425 305.065 161.563 305.065C162.306 305.065 162.957 305.163 163.515 305.36C164.073 305.551 164.552 305.792 164.951 306.082L164.065 307.403C163.715 307.179 163.335 306.998 162.925 306.862C162.52 306.719 162.082 306.648 161.612 306.648C161.103 306.648 160.731 306.722 160.496 306.87C160.266 307.017 160.151 307.223 160.151 307.485C160.151 307.671 160.209 307.83 160.324 307.961C160.444 308.087 160.657 308.21 160.964 308.33C161.275 308.445 161.718 308.585 162.293 308.749C162.856 308.907 163.346 309.091 163.762 309.298C164.183 309.506 164.508 309.783 164.738 310.127C164.968 310.466 165.083 310.915 165.083 311.473C165.083 312.102 164.899 312.622 164.533 313.032C164.166 313.442 163.682 313.748 163.081 313.951C162.479 314.148 161.831 314.246 161.136 314.246C160.315 314.246 159.599 314.129 158.986 313.893C158.374 313.658 157.854 313.355 157.427 312.983L158.551 311.719C158.89 311.987 159.276 312.209 159.708 312.384C160.146 312.559 160.619 312.646 161.128 312.646ZM184.663 302.652V310.029C184.663 310.822 184.505 311.536 184.187 312.17C183.876 312.805 183.4 313.308 182.76 313.68C182.125 314.046 181.318 314.23 180.339 314.23C179.666 314.23 179.065 314.139 178.534 313.959C178.004 313.773 177.5 313.51 177.024 313.171L177.911 311.768C178.332 312.047 178.723 312.241 179.084 312.351C179.45 312.455 179.831 312.507 180.224 312.507C180.881 312.507 181.411 312.299 181.816 311.883C182.221 311.462 182.423 310.841 182.423 310.021V304.343H178.977V302.652H184.663ZM195.172 310.743C195.172 311.432 194.994 312.042 194.638 312.572C194.288 313.097 193.78 313.508 193.112 313.803C192.45 314.098 191.652 314.246 190.716 314.246C189.732 314.246 188.887 314.101 188.181 313.811C187.475 313.516 186.885 313.138 186.409 312.679L187.59 311.358C188 311.73 188.46 312.02 188.969 312.228C189.477 312.43 190.049 312.531 190.684 312.531C191.291 312.531 191.799 312.392 192.21 312.113C192.625 311.834 192.833 311.426 192.833 310.89C192.833 310.584 192.768 310.324 192.636 310.111C192.505 309.892 192.278 309.698 191.955 309.528C191.638 309.359 191.195 309.189 190.626 309.019C189.373 308.637 188.449 308.185 187.853 307.666C187.257 307.141 186.958 306.44 186.958 305.565C186.958 304.914 187.139 304.354 187.5 303.883C187.861 303.407 188.348 303.043 188.96 302.792C189.573 302.535 190.262 302.406 191.028 302.406C191.871 302.406 192.612 302.529 193.252 302.775C193.892 303.016 194.455 303.361 194.942 303.809L193.818 305.081C193.43 304.747 193.008 304.501 192.554 304.343C192.106 304.184 191.649 304.105 191.184 304.105C190.632 304.105 190.175 304.214 189.814 304.433C189.458 304.652 189.28 304.98 189.28 305.417C189.28 305.685 189.354 305.915 189.502 306.107C189.655 306.293 189.912 306.468 190.273 306.632C190.64 306.796 191.146 306.976 191.791 307.173C192.464 307.376 193.052 307.619 193.555 307.904C194.064 308.188 194.461 308.557 194.745 309.011C195.03 309.46 195.172 310.037 195.172 310.743ZM199.411 302.439C199.411 302.051 199.551 301.722 199.83 301.454C200.114 301.186 200.456 301.052 200.856 301.052C201.266 301.052 201.608 301.186 201.881 301.454C202.155 301.722 202.291 302.051 202.291 302.439C202.291 302.647 202.259 302.86 202.193 303.079C202.133 303.298 202.018 303.579 201.848 303.924L200.609 306.501H199.288L199.986 303.555C199.811 303.435 199.671 303.279 199.567 303.087C199.463 302.896 199.411 302.68 199.411 302.439ZM210.642 310.857C211.107 310.857 211.492 311.013 211.799 311.325C212.111 311.637 212.266 312.02 212.266 312.474C212.266 312.753 212.22 313.032 212.127 313.311C212.034 313.59 211.892 313.951 211.7 314.394L210.461 317.2H208.902L209.723 313.803C209.263 313.502 209.034 313.056 209.034 312.466C209.034 312.017 209.187 311.637 209.493 311.325C209.799 311.013 210.182 310.857 210.642 310.857ZM93.8871 330.114C93.8871 330.502 93.7476 330.83 93.4686 331.098C93.1896 331.366 92.8478 331.501 92.443 331.501C92.0327 331.501 91.6908 331.366 91.4173 331.098C91.1493 330.83 91.0153 330.502 91.0153 330.114C91.0153 329.917 91.0454 329.706 91.1055 329.482C91.1657 329.258 91.2806 328.973 91.4502 328.629L92.6891 326.052H94.0102L93.3127 328.998C93.4878 329.118 93.6273 329.274 93.7312 329.466C93.8351 329.652 93.8871 329.868 93.8871 330.114ZM106.422 327.652V335.242C106.422 336.013 106.266 336.703 105.954 337.31C105.643 337.911 105.183 338.385 104.576 338.729C103.974 339.074 103.233 339.246 102.352 339.246C101.466 339.246 100.722 339.079 100.121 338.746C99.5189 338.406 99.0649 337.936 98.7585 337.334C98.4522 336.733 98.299 336.035 98.299 335.242V327.652H100.547V334.61C100.547 335.578 100.679 336.306 100.941 336.793C101.204 337.274 101.674 337.515 102.352 337.515C103.036 337.515 103.509 337.274 103.772 336.793C104.034 336.306 104.166 335.578 104.166 334.61V327.652H106.422ZM115.733 327.652V329.334H113.328V337.318H115.733V339H108.676V337.318H111.08V329.334H108.676V327.652H115.733ZM136.273 333.273C136.273 334.438 136.12 335.395 135.814 336.145C135.508 336.889 135.097 337.468 134.583 337.884C134.069 338.3 133.492 338.59 132.852 338.754C132.217 338.918 131.569 339 130.907 339H128.003V327.652H130.71C131.416 327.652 132.1 327.729 132.762 327.882C133.423 328.03 134.017 328.303 134.542 328.703C135.073 329.102 135.494 329.671 135.806 330.409C136.117 331.142 136.273 332.097 136.273 333.273ZM133.927 333.273C133.927 332.43 133.847 331.749 133.689 331.23C133.536 330.71 133.325 330.314 133.057 330.04C132.789 329.761 132.485 329.572 132.146 329.474C131.807 329.375 131.454 329.326 131.088 329.326H130.251V337.334H131.096C131.61 337.334 132.081 337.222 132.507 336.998C132.934 336.774 133.276 336.369 133.533 335.784C133.795 335.193 133.927 334.356 133.927 333.273ZM139.98 335.316C140.045 336.131 140.286 336.719 140.702 337.08C141.117 337.441 141.623 337.622 142.22 337.622C142.635 337.622 143.027 337.556 143.393 337.425C143.76 337.293 144.121 337.11 144.476 336.875L145.379 338.114C144.974 338.453 144.49 338.726 143.926 338.934C143.368 339.142 142.753 339.246 142.08 339.246C141.139 339.246 140.346 339.052 139.701 338.664C139.061 338.275 138.577 337.736 138.248 337.047C137.92 336.358 137.756 335.565 137.756 334.668C137.756 333.803 137.915 333.024 138.232 332.329C138.555 331.635 139.02 331.085 139.627 330.68C140.24 330.27 140.975 330.065 141.834 330.065C143.027 330.065 143.973 330.453 144.673 331.23C145.373 332.006 145.723 333.081 145.723 334.454C145.723 334.772 145.71 335.059 145.682 335.316H139.98ZM141.842 331.591C141.317 331.591 140.885 331.779 140.546 332.157C140.212 332.534 140.015 333.125 139.955 333.929H143.615C143.604 333.196 143.453 332.625 143.163 332.214C142.873 331.799 142.433 331.591 141.842 331.591ZM151.284 337.646C151.793 337.646 152.2 337.559 152.507 337.384C152.818 337.209 152.974 336.957 152.974 336.629C152.974 336.421 152.922 336.243 152.818 336.095C152.72 335.942 152.523 335.803 152.228 335.677C151.932 335.546 151.489 335.401 150.898 335.242C150.34 335.1 149.851 334.925 149.43 334.717C149.014 334.504 148.688 334.23 148.453 333.896C148.223 333.563 148.109 333.142 148.109 332.633C148.109 331.878 148.426 331.263 149.06 330.787C149.695 330.305 150.581 330.065 151.719 330.065C152.463 330.065 153.114 330.163 153.672 330.36C154.23 330.551 154.708 330.792 155.108 331.082L154.221 332.403C153.871 332.179 153.491 331.998 153.081 331.862C152.676 331.719 152.238 331.648 151.768 331.648C151.259 331.648 150.887 331.722 150.652 331.87C150.422 332.017 150.308 332.223 150.308 332.485C150.308 332.671 150.365 332.83 150.48 332.961C150.6 333.087 150.814 333.21 151.12 333.33C151.432 333.445 151.875 333.585 152.449 333.749C153.012 333.907 153.502 334.091 153.918 334.298C154.339 334.506 154.664 334.783 154.894 335.127C155.124 335.466 155.239 335.915 155.239 336.473C155.239 337.102 155.056 337.622 154.689 338.032C154.323 338.442 153.838 338.748 153.237 338.951C152.635 339.148 151.987 339.246 151.292 339.246C150.472 339.246 149.755 339.129 149.142 338.893C148.53 338.658 148.01 338.355 147.583 337.983L148.708 336.719C149.047 336.987 149.432 337.209 149.864 337.384C150.302 337.559 150.775 337.646 151.284 337.646ZM161.415 325.929C161.809 325.929 162.131 326.052 162.383 326.298C162.635 326.545 162.761 326.851 162.761 327.217C162.761 327.584 162.635 327.893 162.383 328.145C162.131 328.391 161.809 328.514 161.415 328.514C161.016 328.514 160.69 328.391 160.438 328.145C160.187 327.893 160.061 327.584 160.061 327.217C160.061 326.851 160.187 326.545 160.438 326.298C160.69 326.052 161.016 325.929 161.415 325.929ZM162.818 330.311V337.466H165.107V339H158.108V337.466H160.652V331.845H158.19V330.311H162.818ZM175.156 329.088L175.698 330.778C175.369 330.893 174.997 330.975 174.582 331.025C174.171 331.068 173.704 331.09 173.179 331.09C173.709 331.32 174.111 331.613 174.385 331.968C174.664 332.324 174.803 332.77 174.803 333.306C174.803 333.869 174.658 334.372 174.368 334.815C174.084 335.253 173.676 335.6 173.146 335.857C172.621 336.109 171.994 336.235 171.267 336.235C170.851 336.235 170.482 336.194 170.159 336.112C169.929 336.249 169.815 336.454 169.815 336.727C169.815 336.886 169.877 337.025 170.003 337.146C170.135 337.266 170.413 337.326 170.84 337.326H172.317C172.957 337.326 173.518 337.436 173.999 337.654C174.486 337.868 174.863 338.16 175.131 338.532C175.405 338.899 175.542 339.317 175.542 339.788C175.542 340.663 175.162 341.347 174.401 341.839C173.641 342.331 172.53 342.577 171.07 342.577C170.025 342.577 169.21 342.471 168.625 342.257C168.045 342.044 167.637 341.732 167.402 341.322C167.167 340.917 167.049 340.428 167.049 339.853H168.978C168.978 340.132 169.032 340.362 169.142 340.543C169.257 340.729 169.467 340.863 169.773 340.945C170.08 341.032 170.526 341.076 171.111 341.076C171.981 341.076 172.577 340.972 172.9 340.764C173.222 340.562 173.384 340.285 173.384 339.935C173.384 339.624 173.252 339.38 172.99 339.205C172.727 339.03 172.355 338.943 171.874 338.943H170.438C169.563 338.943 168.926 338.773 168.526 338.434C168.127 338.095 167.927 337.698 167.927 337.244C167.927 336.938 168.009 336.645 168.173 336.366C168.343 336.082 168.584 335.841 168.896 335.644C168.359 335.36 167.971 335.021 167.73 334.627C167.495 334.227 167.378 333.746 167.378 333.183C167.378 332.554 167.536 332.006 167.853 331.542C168.171 331.077 168.611 330.716 169.175 330.458C169.738 330.201 170.386 330.073 171.119 330.073C171.792 330.078 172.364 330.037 172.834 329.95C173.31 329.862 173.728 329.742 174.089 329.589C174.456 329.436 174.811 329.269 175.156 329.088ZM171.16 331.517C170.646 331.517 170.252 331.667 169.979 331.968C169.711 332.269 169.577 332.668 169.577 333.166C169.577 333.68 169.713 334.088 169.987 334.389C170.266 334.69 170.66 334.84 171.168 334.84C172.186 334.84 172.695 334.274 172.695 333.142C172.695 332.058 172.183 331.517 171.16 331.517ZM177.509 339V330.311H179.396L179.552 331.386C180.301 330.505 181.22 330.065 182.309 330.065C183.085 330.065 183.679 330.292 184.089 330.746C184.505 331.194 184.713 331.826 184.713 332.641V339H182.546V333.486C182.546 332.83 182.478 332.365 182.341 332.091C182.21 331.818 181.926 331.681 181.488 331.681C181.132 331.681 180.802 331.793 180.495 332.017C180.189 332.242 179.915 332.515 179.675 332.838V339H177.509ZM189.568 327.439C189.568 327.051 189.707 326.722 189.986 326.454C190.271 326.186 190.612 326.052 191.012 326.052C191.422 326.052 191.764 326.186 192.037 326.454C192.311 326.722 192.448 327.051 192.448 327.439C192.448 327.647 192.415 327.86 192.349 328.079C192.289 328.298 192.174 328.579 192.005 328.924L190.766 331.501H189.445L190.142 328.555C189.967 328.435 189.827 328.279 189.724 328.087C189.62 327.896 189.568 327.68 189.568 327.439Z" fill="#A7FD39"/>
</svg>
