<svg width="1218" height="566" viewBox="0 0 1218 566" fill="none" xmlns="http://www.w3.org/2000/svg">
<circle cx="2.00988" cy="2.00988" r="2.00988" fill="#D9D9D9"/>
<circle cx="9.31603" cy="2.00988" r="2.00988" fill="#D9D9D9"/>
<circle cx="16.6222" cy="2.00988" r="2.00988" fill="#D9D9D9"/>
<circle cx="23.9283" cy="2.00988" r="2.00988" fill="#D9D9D9"/>
<circle cx="31.2345" cy="2.00988" r="2.00988" fill="#D9D9D9"/>
<circle cx="38.5408" cy="2.00988" r="2.00988" fill="#D9D9D9"/>
<circle cx="45.8469" cy="2.00988" r="2.00988" fill="#D9D9D9"/>
<circle cx="53.1531" cy="2.00988" r="2.00988" fill="#D9D9D9"/>
<circle cx="60.4592" cy="2.00988" r="2.00988" fill="#D9D9D9"/>
<circle cx="67.7654" cy="2.00988" r="2.00988" fill="#D9D9D9"/>
<circle cx="75.0715" cy="2.00988" r="2.00988" fill="#D9D9D9"/>
<circle cx="2.00988" cy="8.22058" r="2.00988" fill="#D9D9D9"/>
<circle cx="9.31603" cy="8.22058" r="2.00988" fill="#D9D9D9"/>
<circle cx="16.6222" cy="8.22058" r="2.00988" fill="#D9D9D9"/>
<circle cx="23.9283" cy="8.22058" r="2.00988" fill="#D9D9D9"/>
<circle cx="31.2345" cy="8.22058" r="2.00988" fill="#D9D9D9"/>
<circle cx="38.5408" cy="8.22058" r="2.00988" fill="#D9D9D9"/>
<circle cx="45.8469" cy="8.22058" r="2.00988" fill="#D9D9D9"/>
<circle cx="53.1531" cy="8.22058" r="2.00988" fill="#D9D9D9"/>
<circle cx="60.4592" cy="8.22058" r="2.00988" fill="#D9D9D9"/>
<circle cx="67.7654" cy="8.22058" r="2.00988" fill="#D9D9D9"/>
<circle cx="75.0715" cy="8.22058" r="2.00988" fill="#D9D9D9"/>
<circle cx="2.00988" cy="14.4313" r="2.00988" fill="#D9D9D9"/>
<circle cx="9.31603" cy="14.4313" r="2.00988" fill="#D9D9D9"/>
<circle cx="16.6222" cy="14.4313" r="2.00988" fill="#D9D9D9"/>
<circle cx="23.9283" cy="14.4313" r="2.00988" fill="#D9D9D9"/>
<circle cx="31.2345" cy="14.4313" r="2.00988" fill="#D9D9D9"/>
<circle cx="38.5408" cy="14.4313" r="2.00988" fill="#D9D9D9"/>
<circle cx="45.8469" cy="14.4313" r="2.00988" fill="#D9D9D9"/>
<circle cx="53.1531" cy="14.4313" r="2.00988" fill="#D9D9D9"/>
<circle cx="60.4592" cy="14.4313" r="2.00988" fill="#D9D9D9"/>
<circle cx="67.7654" cy="14.4313" r="2.00988" fill="#D9D9D9"/>
<circle cx="75.0715" cy="14.4313" r="2.00988" fill="#D9D9D9"/>
<circle cx="2.00988" cy="20.642" r="2.00988" fill="#D9D9D9"/>
<circle cx="9.31603" cy="20.642" r="2.00988" fill="#D9D9D9"/>
<circle cx="16.6222" cy="20.642" r="2.00988" fill="#D9D9D9"/>
<circle cx="23.9283" cy="20.642" r="2.00988" fill="#D9D9D9"/>
<circle cx="31.2345" cy="20.642" r="2.00988" fill="#D9D9D9"/>
<circle cx="38.5408" cy="20.642" r="2.00988" fill="#D9D9D9"/>
<circle cx="45.8469" cy="20.642" r="2.00988" fill="#D9D9D9"/>
<circle cx="53.1531" cy="20.642" r="2.00988" fill="#D9D9D9"/>
<circle cx="60.4592" cy="20.642" r="2.00988" fill="#D9D9D9"/>
<circle cx="67.7654" cy="20.642" r="2.00988" fill="#D9D9D9"/>
<circle cx="75.0715" cy="20.642" r="2.00988" fill="#D9D9D9"/>
<circle cx="2.00988" cy="26.8527" r="2.00988" fill="#D9D9D9"/>
<circle cx="9.31603" cy="26.8527" r="2.00988" fill="#D9D9D9"/>
<circle cx="16.6222" cy="26.8527" r="2.00988" fill="#D9D9D9"/>
<circle cx="23.9283" cy="26.8527" r="2.00988" fill="#D9D9D9"/>
<circle cx="31.2345" cy="26.8527" r="2.00988" fill="#D9D9D9"/>
<circle cx="38.5408" cy="26.8527" r="2.00988" fill="#D9D9D9"/>
<circle cx="45.8469" cy="26.8527" r="2.00988" fill="#D9D9D9"/>
<circle cx="53.1531" cy="26.8527" r="2.00988" fill="#D9D9D9"/>
<circle cx="60.4592" cy="26.8527" r="2.00988" fill="#D9D9D9"/>
<circle cx="67.7654" cy="26.8527" r="2.00988" fill="#D9D9D9"/>
<circle cx="75.0715" cy="26.8527" r="2.00988" fill="#D9D9D9"/>
<circle cx="2.00988" cy="33.0634" r="2.00988" fill="#D9D9D9"/>
<circle cx="9.31603" cy="33.0634" r="2.00988" fill="#D9D9D9"/>
<circle cx="16.6222" cy="33.0634" r="2.00988" fill="#D9D9D9"/>
<circle cx="23.9283" cy="33.0634" r="2.00988" fill="#D9D9D9"/>
<circle cx="31.2345" cy="33.0634" r="2.00988" fill="#D9D9D9"/>
<circle cx="38.5408" cy="33.0634" r="2.00988" fill="#D9D9D9"/>
<circle cx="45.8469" cy="33.0634" r="2.00988" fill="#D9D9D9"/>
<circle cx="53.1531" cy="33.0634" r="2.00988" fill="#D9D9D9"/>
<circle cx="60.4592" cy="33.0634" r="2.00988" fill="#D9D9D9"/>
<circle cx="67.7654" cy="33.0634" r="2.00988" fill="#D9D9D9"/>
<circle cx="75.0715" cy="33.0634" r="2.00988" fill="#D9D9D9"/>
<circle cx="2.00988" cy="39.2741" r="2.00988" fill="#D9D9D9"/>
<circle cx="9.31603" cy="39.2741" r="2.00988" fill="#D9D9D9"/>
<circle cx="16.6222" cy="39.2741" r="2.00988" fill="#D9D9D9"/>
<circle cx="23.9283" cy="39.2741" r="2.00988" fill="#D9D9D9"/>
<circle cx="31.2345" cy="39.2741" r="2.00988" fill="#D9D9D9"/>
<circle cx="38.5408" cy="39.2741" r="2.00988" fill="#D9D9D9"/>
<circle cx="45.8469" cy="39.2741" r="2.00988" fill="#D9D9D9"/>
<circle cx="53.1531" cy="39.2741" r="2.00988" fill="#D9D9D9"/>
<circle cx="60.4592" cy="39.2741" r="2.00988" fill="#D9D9D9"/>
<circle cx="67.7654" cy="39.2741" r="2.00988" fill="#D9D9D9"/>
<circle cx="75.0715" cy="39.2741" r="2.00988" fill="#D9D9D9"/>
<circle cx="2.00988" cy="45.4847" r="2.00988" fill="#D9D9D9"/>
<circle cx="9.31603" cy="45.4848" r="2.00988" fill="#D9D9D9"/>
<circle cx="16.6222" cy="45.4848" r="2.00988" fill="#D9D9D9"/>
<circle cx="23.9283" cy="45.4848" r="2.00988" fill="#D9D9D9"/>
<circle cx="31.2345" cy="45.4848" r="2.00988" fill="#D9D9D9"/>
<circle cx="38.5408" cy="45.4848" r="2.00988" fill="#D9D9D9"/>
<circle cx="45.8469" cy="45.4848" r="2.00988" fill="#D9D9D9"/>
<circle cx="53.1531" cy="45.4848" r="2.00988" fill="#D9D9D9"/>
<circle cx="60.4592" cy="45.4848" r="2.00988" fill="#D9D9D9"/>
<circle cx="67.7654" cy="45.4848" r="2.00988" fill="#D9D9D9"/>
<circle cx="75.0715" cy="45.4848" r="2.00988" fill="#D9D9D9"/>
<circle cx="2.00988" cy="51.6954" r="2.00988" fill="#D9D9D9"/>
<circle cx="9.31603" cy="51.6954" r="2.00988" fill="#D9D9D9"/>
<circle cx="16.6222" cy="51.6954" r="2.00988" fill="#D9D9D9"/>
<circle cx="23.9283" cy="51.6954" r="2.00988" fill="#D9D9D9"/>
<circle cx="31.2345" cy="51.6954" r="2.00988" fill="#D9D9D9"/>
<circle cx="38.5408" cy="51.6954" r="2.00988" fill="#D9D9D9"/>
<circle cx="45.8469" cy="51.6954" r="2.00988" fill="#D9D9D9"/>
<circle cx="53.1531" cy="51.6954" r="2.00988" fill="#D9D9D9"/>
<circle cx="60.4592" cy="51.6954" r="2.00988" fill="#D9D9D9"/>
<circle cx="67.7654" cy="51.6954" r="2.00988" fill="#D9D9D9"/>
<circle cx="75.0715" cy="51.6954" r="2.00988" fill="#D9D9D9"/>
<circle cx="2.00988" cy="57.9061" r="2.00988" fill="#D9D9D9"/>
<circle cx="9.31603" cy="57.9061" r="2.00988" fill="#D9D9D9"/>
<circle cx="16.6222" cy="57.9061" r="2.00988" fill="#D9D9D9"/>
<circle cx="23.9283" cy="57.9061" r="2.00988" fill="#D9D9D9"/>
<circle cx="31.2345" cy="57.9061" r="2.00988" fill="#D9D9D9"/>
<circle cx="38.5408" cy="57.9061" r="2.00988" fill="#D9D9D9"/>
<circle cx="45.8469" cy="57.9061" r="2.00988" fill="#D9D9D9"/>
<circle cx="53.1531" cy="57.9061" r="2.00988" fill="#D9D9D9"/>
<circle cx="60.4592" cy="57.9061" r="2.00988" fill="#D9D9D9"/>
<circle cx="67.7654" cy="57.9061" r="2.00988" fill="#D9D9D9"/>
<circle cx="75.0715" cy="57.9061" r="2.00988" fill="#D9D9D9"/>
<circle cx="2.00988" cy="64.1168" r="2.00988" fill="#D9D9D9"/>
<circle cx="9.31603" cy="64.1168" r="2.00988" fill="#D9D9D9"/>
<circle cx="16.6222" cy="64.1168" r="2.00988" fill="#D9D9D9"/>
<circle cx="23.9283" cy="64.1168" r="2.00988" fill="#D9D9D9"/>
<circle cx="31.2345" cy="64.1168" r="2.00988" fill="#D9D9D9"/>
<circle cx="38.5408" cy="64.1168" r="2.00988" fill="#D9D9D9"/>
<circle cx="45.8469" cy="64.1168" r="2.00988" fill="#D9D9D9"/>
<circle cx="53.1531" cy="64.1168" r="2.00988" fill="#D9D9D9"/>
<circle cx="60.4592" cy="64.1168" r="2.00988" fill="#D9D9D9"/>
<circle cx="67.7654" cy="64.1168" r="2.00988" fill="#D9D9D9"/>
<circle cx="75.0715" cy="64.1168" r="2.00988" fill="#D9D9D9"/>
<circle cx="387.928" cy="447.229" r="2.00988" fill="#D9D9D9"/>
<circle cx="395.235" cy="447.229" r="2.00988" fill="#D9D9D9"/>
<circle cx="402.541" cy="447.229" r="2.00988" fill="#D9D9D9"/>
<circle cx="409.847" cy="447.229" r="2.00988" fill="#D9D9D9"/>
<circle cx="417.153" cy="447.229" r="2.00988" fill="#D9D9D9"/>
<circle cx="424.459" cy="447.229" r="2.00988" fill="#D9D9D9"/>
<circle cx="431.766" cy="447.229" r="2.00988" fill="#D9D9D9"/>
<circle cx="439.072" cy="447.229" r="2.00988" fill="#D9D9D9"/>
<circle cx="446.378" cy="447.229" r="2.00988" fill="#D9D9D9"/>
<circle cx="453.684" cy="447.229" r="2.00988" fill="#D9D9D9"/>
<circle cx="460.99" cy="447.229" r="2.00988" fill="#D9D9D9"/>
<circle cx="387.928" cy="453.439" r="2.00988" fill="#D9D9D9"/>
<circle cx="395.235" cy="453.439" r="2.00988" fill="#D9D9D9"/>
<circle cx="402.541" cy="453.439" r="2.00988" fill="#D9D9D9"/>
<circle cx="409.847" cy="453.439" r="2.00988" fill="#D9D9D9"/>
<circle cx="417.153" cy="453.439" r="2.00988" fill="#D9D9D9"/>
<circle cx="424.459" cy="453.439" r="2.00988" fill="#D9D9D9"/>
<circle cx="431.766" cy="453.439" r="2.00988" fill="#D9D9D9"/>
<circle cx="439.072" cy="453.439" r="2.00988" fill="#D9D9D9"/>
<circle cx="446.378" cy="453.439" r="2.00988" fill="#D9D9D9"/>
<circle cx="453.684" cy="453.439" r="2.00988" fill="#D9D9D9"/>
<circle cx="460.99" cy="453.439" r="2.00988" fill="#D9D9D9"/>
<circle cx="387.928" cy="459.65" r="2.00988" fill="#D9D9D9"/>
<circle cx="395.235" cy="459.65" r="2.00988" fill="#D9D9D9"/>
<circle cx="402.541" cy="459.65" r="2.00988" fill="#D9D9D9"/>
<circle cx="409.847" cy="459.65" r="2.00988" fill="#D9D9D9"/>
<circle cx="417.153" cy="459.65" r="2.00988" fill="#D9D9D9"/>
<circle cx="424.459" cy="459.65" r="2.00988" fill="#D9D9D9"/>
<circle cx="431.766" cy="459.65" r="2.00988" fill="#D9D9D9"/>
<circle cx="439.072" cy="459.65" r="2.00988" fill="#D9D9D9"/>
<circle cx="446.378" cy="459.65" r="2.00988" fill="#D9D9D9"/>
<circle cx="453.684" cy="459.65" r="2.00988" fill="#D9D9D9"/>
<circle cx="460.99" cy="459.65" r="2.00988" fill="#D9D9D9"/>
<circle cx="387.928" cy="465.861" r="2.00988" fill="#D9D9D9"/>
<circle cx="395.235" cy="465.861" r="2.00988" fill="#D9D9D9"/>
<circle cx="402.541" cy="465.861" r="2.00988" fill="#D9D9D9"/>
<circle cx="409.847" cy="465.861" r="2.00988" fill="#D9D9D9"/>
<circle cx="417.153" cy="465.861" r="2.00988" fill="#D9D9D9"/>
<circle cx="424.459" cy="465.861" r="2.00988" fill="#D9D9D9"/>
<circle cx="431.766" cy="465.861" r="2.00988" fill="#D9D9D9"/>
<circle cx="439.072" cy="465.861" r="2.00988" fill="#D9D9D9"/>
<circle cx="446.378" cy="465.861" r="2.00988" fill="#D9D9D9"/>
<circle cx="453.684" cy="465.861" r="2.00988" fill="#D9D9D9"/>
<circle cx="460.99" cy="465.861" r="2.00988" fill="#D9D9D9"/>
<circle cx="387.928" cy="472.071" r="2.00988" fill="#D9D9D9"/>
<circle cx="395.235" cy="472.071" r="2.00988" fill="#D9D9D9"/>
<circle cx="402.541" cy="472.071" r="2.00988" fill="#D9D9D9"/>
<circle cx="409.847" cy="472.071" r="2.00988" fill="#D9D9D9"/>
<circle cx="417.153" cy="472.071" r="2.00988" fill="#D9D9D9"/>
<circle cx="424.459" cy="472.071" r="2.00988" fill="#D9D9D9"/>
<circle cx="431.766" cy="472.071" r="2.00988" fill="#D9D9D9"/>
<circle cx="439.072" cy="472.071" r="2.00988" fill="#D9D9D9"/>
<circle cx="446.378" cy="472.071" r="2.00988" fill="#D9D9D9"/>
<circle cx="453.684" cy="472.071" r="2.00988" fill="#D9D9D9"/>
<circle cx="460.99" cy="472.071" r="2.00988" fill="#D9D9D9"/>
<circle cx="387.928" cy="478.282" r="2.00988" fill="#D9D9D9"/>
<circle cx="395.235" cy="478.282" r="2.00988" fill="#D9D9D9"/>
<circle cx="402.541" cy="478.282" r="2.00988" fill="#D9D9D9"/>
<circle cx="409.847" cy="478.282" r="2.00988" fill="#D9D9D9"/>
<circle cx="417.153" cy="478.282" r="2.00988" fill="#D9D9D9"/>
<circle cx="424.459" cy="478.282" r="2.00988" fill="#D9D9D9"/>
<circle cx="431.766" cy="478.282" r="2.00988" fill="#D9D9D9"/>
<circle cx="439.072" cy="478.282" r="2.00988" fill="#D9D9D9"/>
<circle cx="446.378" cy="478.282" r="2.00988" fill="#D9D9D9"/>
<circle cx="453.684" cy="478.282" r="2.00988" fill="#D9D9D9"/>
<circle cx="460.99" cy="478.282" r="2.00988" fill="#D9D9D9"/>
<circle cx="387.928" cy="484.493" r="2.00988" fill="#D9D9D9"/>
<circle cx="395.235" cy="484.493" r="2.00988" fill="#D9D9D9"/>
<circle cx="402.541" cy="484.493" r="2.00988" fill="#D9D9D9"/>
<circle cx="409.847" cy="484.493" r="2.00988" fill="#D9D9D9"/>
<circle cx="417.153" cy="484.493" r="2.00988" fill="#D9D9D9"/>
<circle cx="424.459" cy="484.493" r="2.00988" fill="#D9D9D9"/>
<circle cx="431.766" cy="484.493" r="2.00988" fill="#D9D9D9"/>
<circle cx="439.072" cy="484.493" r="2.00988" fill="#D9D9D9"/>
<circle cx="446.378" cy="484.493" r="2.00988" fill="#D9D9D9"/>
<circle cx="453.684" cy="484.493" r="2.00988" fill="#D9D9D9"/>
<circle cx="460.99" cy="484.493" r="2.00988" fill="#D9D9D9"/>
<circle cx="387.928" cy="490.704" r="2.00988" fill="#D9D9D9"/>
<circle cx="395.235" cy="490.704" r="2.00988" fill="#D9D9D9"/>
<circle cx="402.541" cy="490.704" r="2.00988" fill="#D9D9D9"/>
<circle cx="409.847" cy="490.704" r="2.00988" fill="#D9D9D9"/>
<circle cx="417.153" cy="490.704" r="2.00988" fill="#D9D9D9"/>
<circle cx="424.459" cy="490.704" r="2.00988" fill="#D9D9D9"/>
<circle cx="431.766" cy="490.704" r="2.00988" fill="#D9D9D9"/>
<circle cx="439.072" cy="490.704" r="2.00988" fill="#D9D9D9"/>
<circle cx="446.378" cy="490.704" r="2.00988" fill="#D9D9D9"/>
<circle cx="453.684" cy="490.704" r="2.00988" fill="#D9D9D9"/>
<circle cx="460.99" cy="490.704" r="2.00988" fill="#D9D9D9"/>
<circle cx="387.928" cy="496.914" r="2.00988" fill="#D9D9D9"/>
<circle cx="395.235" cy="496.914" r="2.00988" fill="#D9D9D9"/>
<circle cx="402.541" cy="496.914" r="2.00988" fill="#D9D9D9"/>
<circle cx="409.847" cy="496.914" r="2.00988" fill="#D9D9D9"/>
<circle cx="417.153" cy="496.914" r="2.00988" fill="#D9D9D9"/>
<circle cx="424.459" cy="496.914" r="2.00988" fill="#D9D9D9"/>
<circle cx="431.766" cy="496.914" r="2.00988" fill="#D9D9D9"/>
<circle cx="439.072" cy="496.914" r="2.00988" fill="#D9D9D9"/>
<circle cx="446.378" cy="496.914" r="2.00988" fill="#D9D9D9"/>
<circle cx="453.684" cy="496.914" r="2.00988" fill="#D9D9D9"/>
<circle cx="460.99" cy="496.914" r="2.00988" fill="#D9D9D9"/>
<circle cx="387.928" cy="503.125" r="2.00988" fill="#D9D9D9"/>
<circle cx="395.235" cy="503.125" r="2.00988" fill="#D9D9D9"/>
<circle cx="402.541" cy="503.125" r="2.00988" fill="#D9D9D9"/>
<circle cx="409.847" cy="503.125" r="2.00988" fill="#D9D9D9"/>
<circle cx="417.153" cy="503.125" r="2.00988" fill="#D9D9D9"/>
<circle cx="424.459" cy="503.125" r="2.00988" fill="#D9D9D9"/>
<circle cx="431.766" cy="503.125" r="2.00988" fill="#D9D9D9"/>
<circle cx="439.072" cy="503.125" r="2.00988" fill="#D9D9D9"/>
<circle cx="446.378" cy="503.125" r="2.00988" fill="#D9D9D9"/>
<circle cx="453.684" cy="503.125" r="2.00988" fill="#D9D9D9"/>
<circle cx="460.99" cy="503.125" r="2.00988" fill="#D9D9D9"/>
<circle cx="387.928" cy="509.336" r="2.00988" fill="#D9D9D9"/>
<circle cx="395.235" cy="509.336" r="2.00988" fill="#D9D9D9"/>
<circle cx="402.541" cy="509.336" r="2.00988" fill="#D9D9D9"/>
<circle cx="409.847" cy="509.336" r="2.00988" fill="#D9D9D9"/>
<circle cx="417.153" cy="509.336" r="2.00988" fill="#D9D9D9"/>
<circle cx="424.459" cy="509.336" r="2.00988" fill="#D9D9D9"/>
<circle cx="431.766" cy="509.336" r="2.00988" fill="#D9D9D9"/>
<circle cx="439.072" cy="509.336" r="2.00988" fill="#D9D9D9"/>
<circle cx="446.378" cy="509.336" r="2.00988" fill="#D9D9D9"/>
<circle cx="453.684" cy="509.336" r="2.00988" fill="#D9D9D9"/>
<circle cx="460.99" cy="509.336" r="2.00988" fill="#D9D9D9"/>
<path d="M671.312 121.577L676.846 123.083L678.584 116.498L685.067 118.262L686.55 112.641L692.085 114.147L693.822 107.562L700.306 109.327L702.043 102.742L708.527 104.506L710.01 98.8851" stroke="#D9D9D9" stroke-width="2" stroke-linecap="round" stroke-linejoin="round"/>
<path d="M671.312 137.436L676.846 138.942L678.584 132.358L685.067 134.122L686.55 128.501L692.085 130.007L693.822 123.422L700.306 125.186L702.043 118.601L708.527 120.366L710.01 114.745" stroke="#D9D9D9" stroke-width="2" stroke-linecap="round" stroke-linejoin="round"/>
<path d="M1116.17 478.752L1121.71 480.258L1123.44 473.673L1129.93 475.438L1131.41 469.816L1136.94 471.322L1138.68 464.738L1145.17 466.502L1146.9 459.917L1153.39 461.681L1154.87 456.06" stroke="#D9D9D9" stroke-width="2" stroke-linecap="round" stroke-linejoin="round"/>
<path d="M1116.17 494.611L1121.71 496.118L1123.44 489.533L1129.93 491.297L1131.41 485.676L1136.94 487.182L1138.68 480.597L1145.17 482.361L1146.9 475.777L1153.39 477.541L1154.87 471.92" stroke="#D9D9D9" stroke-width="2" stroke-linecap="round" stroke-linejoin="round"/>
<path d="M18.0755 524.951L16.5693 530.486L23.1542 532.223L21.3898 538.707L27.011 540.19L25.5048 545.725L32.0897 547.462L30.3253 553.946L36.9102 555.683L35.1458 562.167L40.7671 563.65" stroke="#D9D9D9" stroke-width="2" stroke-linecap="round" stroke-linejoin="round"/>
<circle cx="636.194" cy="255" r="7.19373" stroke="#D9D9D9" stroke-width="2"/>
<circle cx="1209.15" cy="520.336" r="7.19373" stroke="#D9D9D9" stroke-width="2"/>
</svg>
