<?xml version="1.0" encoding="utf-8"?>
<!-- Generator: Adobe Illustrator 27.2.0, SVG Export Plug-In . SVG Version: 6.00 Build 0)  -->
<svg version="1.1"
	 id="Express" xmlns:svg="http://www.w3.org/2000/svg" xmlns:inkscape="http://www.inkscape.org/namespaces/inkscape" xmlns:sodipodi="http://sodipodi.sourceforge.net/DTD/sodipodi-0.dtd" xmlns:dc="http://purl.org/dc/elements/1.1/" xmlns:rdf="http://www.w3.org/1999/02/22-rdf-syntax-ns#" xmlns:cc="http://creativecommons.org/ns#"
	 xmlns="http://www.w3.org/2000/svg" xmlns:xlink="http://www.w3.org/1999/xlink" x="0px" y="0px" viewBox="0 0 283.5 141.7"
	 style="enable-background:new 0 0 283.5 141.7;" xml:space="preserve">
<sodipodi:namedview  bordercolor="#666666" borderopacity="1" gridtolerance="10" guidetolerance="10" id="namedview20" inkscape:current-layer="Express" inkscape:cx="-2.1694915" inkscape:cy="64" inkscape:pageopacity="0" inkscape:pageshadow="2" inkscape:window-height="1001" inkscape:window-maximized="1" inkscape:window-width="1920" inkscape:window-x="-9" inkscape:window-y="-9" inkscape:zoom="1.84375" objecttolerance="10" pagecolor="#ffffff" showgrid="false">
	</sodipodi:namedview>
<g id="original-wordmark" transform="matrix(0.85101532,0,0,0.85101532,5.5198422,-24.472693)">
	<path id="path4" inkscape:connector-curvature="0" d="M96.9,149.2V76.3h4v11.5c0.5-0.5,0.9-1,1.3-1.6c3.3-6.9,10.3-11.2,17.9-11.1
		c9-0.3,16.3,3.1,20.6,11.1c5.6,10.1,5.9,22.3,0.9,32.7c-4,9-13.9,13.5-24.5,11.8c-6.7-0.6-12.7-4.5-15.8-10.4v29H96.9z
		 M100.8,102.1c0.3,3.6,0.5,6.1,0.9,8.6c1.6,9.7,7.3,15.5,16.4,16.6c8.8,1.4,17.3-3.5,20.4-11.8c3.5-8.4,3.3-17.9-0.7-26
		c-3.3-7.4-11.1-11.7-19.2-10.6c-7.5,0.5-13.9,5.8-15.9,13.1C101.9,95.2,101.3,98.7,100.8,102.1z"/>
	<path id="path6" inkscape:connector-curvature="0" d="M225.7,112c-1.2,10.6-10.1,18.7-20.8,18.8c-16.6,0.8-24.4-10.2-25.6-22.9
		c-0.9-6.9,0.3-13.9,3.2-20.2c4.2-8.8,13.7-13.9,23.4-12.6c9.2,0.8,16.9,7.4,19.1,16.4c0.8,4,1.5,8,1.9,12.1h-43.6
		c-0.8,11.5,5.4,20.8,14.2,23c10.9,2.7,20.3-2,23.7-12.4C221.9,111.6,223.3,111.3,225.7,112z M183.3,100h38.9
		c-0.2-12.3-7.9-21.2-18.2-21.3C192.3,78.6,183.9,87.1,183.3,100z"/>
	<path id="path8" inkscape:connector-curvature="0" d="M233.7,112.3h3.8c0.3,5.7,3.8,10.8,9,13.2c6.5,2.9,14,2.7,20.4-0.5
		c3.5-1.6,5.7-5.2,5.4-9c0.2-3.7-2.1-7.1-5.6-8.3c-4.2-1.6-8.7-2.4-12.9-3.8c-4.5-1.3-8.8-2.9-13-4.8c-6.9-3.4-7.3-16.5,0.5-20.6
		c8.1-4.6,18-4.7,26.3-0.4c5,2.8,7.8,8.4,7,14.1h-3.3c0-0.2-0.3-0.3-0.3-0.5c-0.4-10.5-9.2-13.7-18.6-12.8c-2.8,0.3-5.5,1.2-8.1,2.4
		c-3.1,1.4-5,4.7-4.7,8.1c0,3.4,2.2,6.5,5.4,7.6c4.1,1.5,8.5,2.5,12.7,3.7c3.4,0.9,7,1.6,10.3,2.7c4.8,1.6,8.1,5.9,8.3,11
		c0.8,5.5-2,10.9-7,13.5c-9,5.1-23.8,3.7-30.4-2.7C235.6,121.7,233.7,117.1,233.7,112.3z"/>
	<path id="path10" inkscape:connector-curvature="0" d="M324.7,92.1h-3.6c0-0.5-0.2-0.9-0.2-1.3c-0.1-5.5-4.1-10.2-9.5-11.2
		c-5-1.4-10.3-1.2-15.1,0.7c-3.9,1.1-6.6,4.7-6.6,8.7c-0.1,4,2.6,7.6,6.5,8.5c5.4,1.7,10.9,2.7,16.4,4.2c1.8,0.4,3.5,1,5.2,1.6
		c7,2.5,10.6,10.2,8.1,17.2c-1.3,3.5-4,6.4-7.4,7.9c-7.7,3.5-16.5,3.6-24.2,0.2c-6.5-2.8-10.5-9.3-10.1-16.3h1.5h2
		c2.2,10.6,12.6,17.4,23.2,15.2c2.4-0.5,4.6-1.4,6.7-2.7c3.3-1.7,5.3-5.2,5.2-9c0.2-3.7-2.2-7.1-5.7-8.3c-4.2-1.6-8.7-2.4-12.9-3.8
		c-4.5-1.2-8.9-2.8-13.1-4.7c-6.7-3.3-7.3-16.3,0.4-20.5c8.2-4.8,18.4-4.9,26.7-0.3C322.8,81.2,325.4,86.6,324.7,92.1z"/>
	<path id="path12" inkscape:connector-curvature="0" d="M90.3,129.5c-2.9,1.1-6.2-0.1-7.6-2.9c-4.4-6.6-9.2-12.8-13.9-19.2l-2-2.7
		c-5.5,7.4-11.1,14.6-16.1,22c-1.4,2.6-4.5,3.9-7.3,2.9l20.8-27.9L44.8,76.4c2.9-1,6.1,0.1,7.7,2.7c4.5,6.6,9.5,12.8,14.4,19.5
		c5-6.6,9.9-12.9,14.5-19.4c1.4-2.6,4.5-3.8,7.2-2.7l-7.5,10c-3.4,4.4-6.7,8.9-10.2,13.2c-1.1,1-1.2,2.7-0.2,3.8
		c0.1,0.1,0.1,0.1,0.2,0.2C77.4,112.2,83.7,120.8,90.3,129.5z"/>
	<path id="path14" inkscape:connector-curvature="0" d="M178.6,76.1v3.8c-10.8-0.7-20,7.4-20.7,18.2c0,0.7-0.1,1.3,0,2
		c0,8.9,0,17.7,0,26.6c0,0.9,0,1.9,0,3H154V76.3h3.8v10.9C162.4,79.3,169.6,76.3,178.6,76.1z"/>
	<path id="path16" inkscape:connector-curvature="0" d="M-6.5,101.2c0.6-2.7,0.9-5.6,1.7-8.4c4.7-16.5,23.6-23.4,36.7-13.2
		c7.6,6,9.6,14.5,9.2,24.1H-2c-0.7,17.1,11.7,27.4,27.4,22.2c5.2-1.9,9.1-6.2,10.4-11.6c0.8-2.7,2.2-3.1,4.7-2.4
		c-0.9,6.6-4.7,12.5-10.4,16c-9.6,5.3-21.5,3.7-29.5-3.8c-3.8-4.3-6.2-9.8-6.6-15.6c0-0.9-0.3-1.8-0.5-2.7
		C-6.5,104.3-6.5,102.8-6.5,101.2z M-1.9,100.1H37c-0.2-12.4-8.1-21.2-18.5-21.3C6.9,78.6-1.5,87.2-1.9,100.1L-1.9,100.1z"/>
</g>
</svg>
