<?xml version="1.0" encoding="utf-8"?>
<!-- Generator: Adobe Illustrator 27.2.0, SVG Export Plug-In . SVG Version: 6.00 Build 0)  -->
<svg version="1.1" id="Layer_1" xmlns="http://www.w3.org/2000/svg" xmlns:xlink="http://www.w3.org/1999/xlink" x="0px" y="0px"
	 viewBox="0 0 283.5 283.5" style="enable-background:new 0 0 283.5 283.5;" xml:space="preserve">
<style type="text/css">
	.st0{fill:#F7DF1E;}
</style>
<g>
	<path class="st0" d="M0,0h283.5v283.5H0V0z"/>
	<path d="M74.5,236.9l21.7-13.1c4.2,7.4,8,13.7,17.1,13.7c8.8,0,14.3-3.4,14.3-16.7v-90.6h26.6v91c0,27.6-16.2,40.1-39.8,40.1
		C93.2,261.2,80.8,250.2,74.5,236.9"/>
	<path d="M168.7,234l21.7-12.6c5.7,9.3,13.1,16.2,26.3,16.2c11,0,18.1-5.5,18.1-13.1c0-9.1-7.2-12.4-19.4-17.7l-6.7-2.9
		c-19.2-8.2-32-18.5-32-40.1c0-20,15.2-35.2,39-35.2c16.9,0,29.1,5.9,37.9,21.3l-20.7,13.3c-4.6-8.2-9.5-11.4-17.1-11.4
		c-7.8,0-12.7,4.9-12.7,11.4c0,8,4.9,11.2,16.4,16.2l6.7,2.9c22.6,9.7,35.4,19.6,35.4,41.9c0,24-18.8,37.1-44.1,37.1
		C192.5,261.2,176.5,249.4,168.7,234"/>
</g>
</svg>
