<?xml version="1.0" encoding="utf-8"?>
<!-- Generator: Adobe Illustrator 27.2.0, SVG Export Plug-In . SVG Version: 6.00 Build 0)  -->
<svg version="1.1" id="Layer_1" xmlns="http://www.w3.org/2000/svg" xmlns:xlink="http://www.w3.org/1999/xlink" x="0px" y="0px"
	 viewBox="0 0 289.1 174.5" style="enable-background:new 0 0 289.1 174.5;" xml:space="preserve">
<g>
	<path d="M69.7,46.3h53.5v4.2H74.6v32h45.7v4.2H74.6v35.1h49.1v4.2h-54V46.3z M128,46.3h5.7l25.2,35.1l25.7-35.1l35-44.6l-57.5,83.4
		l29.6,41h-5.9l-27-37.3l-27.1,37.3H126l29.9-41L128,46.3z M193.8,50.5v-4.2h60.9v4.2h-28.1v75.6h-4.9V50.5H193.8z M2.8,46.3H9
		l84.5,126.4l-34.9-46.6L8,52.3l-0.2,73.8H2.8V46.3z M254.2,120.6c-1,0-1.8-0.8-1.8-1.8c0-1,0.8-1.8,1.8-1.8c1,0,1.8,0.8,1.8,1.8
		C256,119.8,255.2,120.6,254.2,120.6z M259.1,115.9h2.6c0,1.4,1.1,2.4,2.6,2.4c1.7,0,2.7-1,2.7-2.9v-12.2h2.7v12.2
		c0,3.5-2,5.5-5.3,5.5C261.2,120.8,259.1,118.9,259.1,115.9z M273.1,115.8h2.6c0.2,1.6,1.8,2.7,4.1,2.7c2.1,0,3.7-1.1,3.7-2.6
		c0-1.3-1-2.1-3.3-2.6l-2.2-0.5c-3.1-0.7-4.5-2.2-4.5-4.8c0-3.1,2.5-5.1,6.3-5.1c3.5,0,6,2,6.2,4.9h-2.6c-0.3-1.6-1.6-2.6-3.6-2.6
		c-2.1,0-3.5,1-3.5,2.6c0,1.2,0.9,1.9,3.1,2.5l1.9,0.5c3.5,0.8,5,2.3,5,4.8c0,3.3-2.6,5.4-6.6,5.4
		C275.9,120.8,273.3,118.8,273.1,115.8z"/>
</g>
</svg>
