<?xml version="1.0" encoding="utf-8"?>
<!-- Generator: Adobe Illustrator 27.2.0, SVG Export Plug-In . SVG Version: 6.00 Build 0)  -->
<svg version="1.1" id="Layer_1" xmlns="http://www.w3.org/2000/svg" xmlns:xlink="http://www.w3.org/1999/xlink" x="0px" y="0px"
	 viewBox="0 0 283.5 320" style="enable-background:new 0 0 283.5 320;" xml:space="preserve">
<style type="text/css">
	.st0{fill:#539E43;}
</style>
<g>
	<path class="st0" d="M141.7,319.4c-4.4,0-8.5-1.2-12.3-3.2l-39-23.2c-5.9-3.2-2.9-4.4-1.2-5c7.9-2.6,9.4-3.2,17.6-7.9
		c0.9-0.6,2.1-0.3,2.9,0.3l29.9,17.9c1.2,0.6,2.6,0.6,3.5,0l117.1-67.8c1.2-0.6,1.8-1.8,1.8-3.2V92c0-1.5-0.6-2.6-1.8-3.2
		L143.2,21.3c-1.2-0.6-2.6-0.6-3.5,0L22.6,88.8c-1.2,0.6-1.8,2.1-1.8,3.2v135.3c0,1.2,0.6,2.6,1.8,3.2l32,18.5
		c17.3,8.8,28.2-1.5,28.2-11.7V103.8c0-1.8,1.5-3.5,3.5-3.5h15c1.8,0,3.5,1.5,3.5,3.5v133.5c0,23.2-12.6,36.7-34.6,36.7
		c-6.7,0-12,0-27-7.3L12.3,249C4.7,244.6,0,236.4,0,227.6V92.3c0-8.8,4.7-17,12.3-21.4L129.4,3.1c7.3-4.1,17.3-4.1,24.6,0
		l117.1,67.8c7.6,4.4,12.3,12.6,12.3,21.4v135.3c0,8.8-4.7,17-12.3,21.4l-117.1,67.8C150.2,318.6,145.8,319.4,141.7,319.4
		L141.7,319.4z M177.8,226.4c-51.4,0-61.9-23.5-61.9-43.4c0-1.8,1.5-3.5,3.5-3.5h15.3c1.8,0,3.2,1.2,3.2,2.9
		c2.3,15.6,9.1,23.2,40.2,23.2c24.6,0,35.2-5.6,35.2-18.8c0-7.6-2.9-13.2-41.4-17c-32-3.2-51.9-10.3-51.9-35.8
		c0-23.8,20-37.9,53.4-37.9c37.6,0,56,12.9,58.4,41.1c0,0.9-0.3,1.8-0.9,2.6c-0.6,0.6-1.5,1.2-2.3,1.2h-15.3c-1.5,0-2.9-1.2-3.2-2.6
		c-3.5-16.1-12.6-21.4-36.7-21.4c-27,0-30.2,9.4-30.2,16.4c0,8.5,3.8,11.2,40.2,15.8c36.1,4.7,53.1,11.4,53.1,36.7
		C236.2,211.7,215.1,226.4,177.8,226.4L177.8,226.4z"/>
</g>
</svg>
