<svg width="234" height="156" viewBox="0 0 234 156" fill="none" xmlns="http://www.w3.org/2000/svg">
<path d="M178.817 22.0156L172.897 27.0156C166.23 32.6156 159.564 38.2256 152.897 43.8456C152.615 44.1245 152.257 44.3155 151.869 44.3954C151.48 44.4753 151.076 44.4406 150.707 44.2956C103.394 30.7823 56.0969 17.2823 8.81689 3.79559C8.42182 3.67528 8.00429 3.6479 7.59689 3.71559L124.537 65.1156L87.4069 117.016L0.816895 0.985591L0.916895 0.715591L178.817 22.0156Z" fill="#3100BC"/>
<path d="M140.477 89.7156L139.977 88.2556C136.977 79.2556 133.977 70.2556 131.057 61.1956C130.911 60.6731 130.648 60.1909 130.287 59.7854C129.927 59.38 129.479 59.062 128.977 58.8556C96.2036 43.6556 63.4603 28.4456 30.747 13.2256C30.2513 13.0223 29.7945 12.7347 29.397 12.3756C30.017 12.5656 30.647 12.7456 31.267 12.9556L146.267 50.5056C146.927 50.7156 147.347 50.8756 147.187 51.7656C145.007 64.2256 142.847 76.6922 140.707 89.1656C140.645 89.3549 140.569 89.5389 140.477 89.7156Z" fill="#3100BC"/>
<path d="M138.677 94.7156L118.227 81.0056L127.617 69.0056L138.897 94.5256L138.677 94.7156Z" fill="#3100BC"/>
<path d="M162.933 121.559L165.423 120.199C170.093 128.319 174.903 136.279 182.893 141.699C182.683 141.409 182.483 141.109 182.263 140.819C180.426 138.48 179.067 135.802 178.263 132.939C175.773 123.399 185.263 116.049 192.583 117.119C200.173 118.229 206.313 124.329 206.693 131.289C206.872 133.924 206.191 136.545 204.753 138.759C202.34 142.694 198.569 145.607 194.153 146.949C193.913 147.019 193.683 147.109 193.413 147.199C202.733 154.369 221.143 155.399 231.513 140.519L233.753 142.059C233.583 142.349 233.453 142.609 233.293 142.839C224.073 155.429 207.523 158.839 193.753 150.959C193.557 150.859 193.367 150.749 193.183 150.629C190.406 148.66 187.379 147.07 184.183 145.899C181.956 144.971 179.909 143.662 178.133 142.029C171.613 136.429 167.153 129.199 162.933 121.559ZM191.143 119.919C189.405 119.914 187.694 120.35 186.17 121.186C184.646 122.022 183.359 123.231 182.429 124.699C181.5 126.167 180.957 127.847 180.853 129.582C180.748 131.317 181.086 133.05 181.833 134.619C183.537 138.097 185.917 141.201 188.833 143.749C189.133 144.047 189.497 144.272 189.897 144.409C190.297 144.546 190.723 144.591 191.143 144.539C196.143 144.209 201.803 139.899 203.313 135.099C203.647 134.038 203.809 132.931 203.793 131.819C203.653 125.719 197.523 119.969 191.143 119.959L191.143 119.919Z" fill="#3100BC"/>
</svg>
