<?xml version="1.0" encoding="utf-8"?>
<!-- Generator: Adobe Illustrator 27.2.0, SVG Export Plug-In . SVG Version: 6.00 Build 0)  -->
<svg version="1.1" id="Layer_1" xmlns="http://www.w3.org/2000/svg" xmlns:xlink="http://www.w3.org/1999/xlink" x="0px" y="0px"
	 viewBox="0 0 283.5 282.4" style="enable-background:new 0 0 283.5 282.4;" xml:space="preserve">
<style type="text/css">
	.st0{fill:url(#SVGID_1_);}
	.st1{fill:url(#SVGID_00000119831602452172940190000005905351793063519363_);}
</style>
<g>
	
		<linearGradient id="SVGID_1_" gradientUnits="userSpaceOnUse" x1="-41.9059" y1="325.8239" x2="-41.1658" y2="325.0895" gradientTransform="matrix(189.3834 0 0 -189.8058 7962.6816 61869.082)">
		<stop  offset="0" style="stop-color:#387EB8"/>
		<stop  offset="1" style="stop-color:#366994"/>
	</linearGradient>
	<path class="st0" d="M140.5-0.2C68.6-0.2,73.1,31,73.1,31l0.1,32.3h68.7V73H45.9c0,0-46-5.2-46,67.4c0,72.6,40.2,70,40.2,70h24
		v-33.7c0,0-1.3-40.2,39.5-40.2h68.1c0,0,38.3,0.6,38.3-37V37.4C209.9,37.4,215.7-0.2,140.5-0.2L140.5-0.2L140.5-0.2z M102.7,21.5
		c6.8,0,12.4,5.5,12.4,12.4s-5.5,12.4-12.4,12.4c-6.8,0-12.4-5.5-12.4-12.4C90.3,27,95.8,21.5,102.7,21.5L102.7,21.5L102.7,21.5z"/>
	
		<linearGradient id="SVGID_00000163765685449379847770000004551159533175968694_" gradientUnits="userSpaceOnUse" x1="-41.7991" y1="325.6917" x2="-41.0042" y2="324.9386" gradientTransform="matrix(189.3834 0 0 -189.8058 8028.6821 61933.3438)">
		<stop  offset="0" style="stop-color:#FFE052"/>
		<stop  offset="1" style="stop-color:#FFC331"/>
	</linearGradient>
	<path style="fill:url(#SVGID_00000163765685449379847770000004551159533175968694_);" d="M142.6,281.8c72,0,67.5-31.2,67.5-31.2
		l-0.1-32.3h-68.7v-9.7h95.9c0,0,46,5.2,46-67.4c0-72.6-40.2-70-40.2-70h-24v33.7c0,0,1.3,40.2-39.5,40.2h-68.1
		c0,0-38.3-0.6-38.3,37v62.2C73.2,244.1,67.4,281.8,142.6,281.8L142.6,281.8L142.6,281.8z M180.5,260c-6.8,0-12.4-5.5-12.4-12.4
		c0-6.8,5.5-12.4,12.4-12.4c6.8,0,12.4,5.5,12.4,12.4C192.8,254.5,187.3,260,180.5,260L180.5,260L180.5,260z"/>
</g>
</svg>
