<?xml version="1.0" encoding="utf-8"?>
<!-- Generator: Adobe Illustrator 27.2.0, SVG Export Plug-In . SVG Version: 6.00 Build 0)  -->
<svg version="1.1" id="Layer_1" xmlns="http://www.w3.org/2000/svg" xmlns:xlink="http://www.w3.org/1999/xlink" x="0px" y="0px"
	 viewBox="0 0 283.5 254.7" style="enable-background:new 0 0 283.5 254.7;" xml:space="preserve">
<style type="text/css">
	.st0{fill:#FFFFFF;}
	.st1{fill:#53C1DE;}
</style>
<path class="st0" d="M0,127c0,21.4,20.9,41.4,53.9,52.7c-6.6,33.1-1.2,59.8,16.9,70.2c18.5,10.7,46.2,3.3,72.4-19.6
	c25.6,22,51.4,30.7,69.4,20.2c18.5-10.7,24.2-39.2,17.4-73.4c34.3-11.3,53.5-28.4,53.5-50.1c0-20.9-20.9-39-53.5-50.2
	c7.3-35.6,1.1-61.6-17.7-72.5C194.2-6.1,168.1,3,142.1,25.6c-27-24-52.9-31.3-71.6-20.4C52.4,15.7,47.2,42.9,53.8,76.6
	C22,87.7,0,106.2,0,127z"/>
<path class="st1" d="M223.1,88c-2.6-0.9-5.3-1.7-8.1-2.6c0.5-1.9,0.9-3.7,1.3-5.5c6.1-29.8,2.1-53.8-11.6-61.7
	c-13.1-7.6-34.6,0.3-56.3,19.2c-2.1,1.8-4.2,3.7-6.3,5.8c-1.4-1.3-2.8-2.6-4.2-3.9c-22.7-20.2-45.5-28.7-59.2-20.8
	c-13.1,7.6-17,30.1-11.5,58.4c0.5,2.7,1.2,5.5,1.9,8.3c-3.2,0.9-6.3,1.9-9.3,2.9c-26.7,9.3-43.7,23.9-43.7,39
	c0,15.6,18.3,31.2,46,40.7c2.2,0.7,4.5,1.5,6.8,2.1c-0.8,3.1-1.4,6.1-2,9c-5.3,27.7-1.2,49.7,11.9,57.3c13.5,7.8,36.2-0.2,58.3-19.5
	c1.7-1.5,3.5-3.1,5.3-4.8c2.3,2.2,4.5,4.3,6.8,6.2c21.4,18.4,42.5,25.8,55.6,18.3c13.5-7.8,17.9-31.5,12.2-60.2
	c-0.4-2.2-0.9-4.4-1.5-6.7c1.6-0.5,3.2-1,4.7-1.5c28.9-9.6,47.6-25,47.6-40.8C267.9,112,250.3,97.3,223.1,88L223.1,88L223.1,88z"/>
<path class="st0" d="M216.8,157.8c-1.4,0.5-2.8,0.9-4.2,1.3c-3.2-10.1-7.5-20.8-12.7-31.9c5-10.8,9.2-21.4,12.3-31.4
	c2.6,0.7,5.1,1.5,7.5,2.4c23.3,8,37.5,19.9,37.5,29C257.1,136.9,241.8,149.5,216.8,157.8L216.8,157.8L216.8,157.8z M206.5,178.3
	c2.5,12.7,2.9,24.2,1.2,33.2c-1.5,8.1-4.5,13.5-8.2,15.6c-7.9,4.6-24.9-1.4-43.2-17.1c-2.1-1.8-4.2-3.7-6.3-5.8
	c7.1-7.8,14.2-16.8,21.1-26.8c12.2-1.1,23.7-2.8,34.1-5.3C205.6,174.2,206.1,176.3,206.5,178.3L206.5,178.3L206.5,178.3z
	 M101.9,226.3c-7.8,2.7-13.9,2.8-17.7,0.7c-7.9-4.6-11.2-22.3-6.7-46c0.5-2.7,1.1-5.5,1.8-8.4c10.3,2.3,21.7,3.9,33.9,4.9
	c7,9.8,14.3,18.8,21.6,26.7c-1.6,1.6-3.2,3-4.8,4.4C120.3,217.2,110.6,223.3,101.9,226.3L101.9,226.3L101.9,226.3z M65.6,157.7
	c-12.3-4.2-22.4-9.6-29.4-15.6c-6.2-5.3-9.4-10.7-9.4-15c0-9.2,13.7-20.9,36.5-28.8c2.8-1,5.7-1.9,8.7-2.7
	c3.2,10.2,7.3,21,12.3,31.8c-5.1,11-9.2,21.9-12.4,32.2C69.7,159,67.6,158.4,65.6,157.7L65.6,157.7L65.6,157.7z M77.8,74.8
	c-4.7-24.2-1.6-42.4,6.3-47c8.4-4.9,27,2.1,46.7,19.5c1.3,1.1,2.5,2.3,3.8,3.5c-7.3,7.9-14.5,16.8-21.4,26.5
	c-11.8,1.1-23.2,2.9-33.6,5.2C78.9,80,78.3,77.4,77.8,74.8L77.8,74.8L77.8,74.8z M186.4,101.7c-2.5-4.3-5-8.5-7.7-12.6
	c8,1,15.7,2.4,23,4c-2.2,7-4.9,14.2-8.1,21.7C191.3,110.4,188.9,106.1,186.4,101.7L186.4,101.7L186.4,101.7z M142.1,58.5
	c5,5.4,9.9,11.4,14.8,17.9c-4.9-0.2-9.9-0.4-14.9-0.4c-5,0-9.9,0.1-14.8,0.3C132.1,70,137.1,64,142.1,58.5L142.1,58.5L142.1,58.5z
	 M97.5,101.7c-2.5,4.3-4.9,8.7-7.1,13c-3.1-7.4-5.8-14.7-8-21.8c7.2-1.6,14.8-2.9,22.8-3.9C102.6,93.2,100,97.4,97.5,101.7
	L97.5,101.7L97.5,101.7z M105.5,166c-8.2-0.9-16-2.2-23.2-3.7c2.2-7.2,5-14.6,8.2-22.2c2.3,4.4,4.6,8.7,7.1,13h0
	C100.1,157.5,102.8,161.8,105.5,166L105.5,166L105.5,166z M142.4,196.5c-5.1-5.5-10.2-11.6-15.1-18.1c4.8,0.2,9.7,0.3,14.7,0.3
	c5.1,0,10.2-0.1,15.2-0.3C152.3,185,147.3,191.1,142.4,196.5L142.4,196.5L142.4,196.5z M193.7,139.7c3.4,7.7,6.2,15.1,8.5,22.1
	c-7.3,1.7-15.2,3-23.5,4c2.6-4.1,5.2-8.4,7.7-12.8C189,148.6,191.4,144.1,193.7,139.7L193.7,139.7L193.7,139.7z M177.1,147.6
	c-3.9,6.8-8,13.3-12.1,19.5c-7.5,0.5-15.2,0.8-23.1,0.8c-7.8,0-15.5-0.2-22.8-0.7c-4.3-6.2-8.4-12.8-12.3-19.5h0
	c-3.9-6.7-7.5-13.5-10.7-20.3c3.3-6.8,6.8-13.6,10.7-20.3l0,0c3.9-6.7,8-13.2,12.2-19.4c7.5-0.6,15.2-0.9,22.9-0.9h0
	c7.8,0,15.5,0.3,23,0.9c4.2,6.1,8.2,12.6,12.1,19.4c3.9,6.8,7.6,13.6,10.9,20.2C184.7,134,181,140.8,177.1,147.6L177.1,147.6
	L177.1,147.6z M199.3,27.5c8.4,4.9,11.7,24.5,6.4,50.2c-0.3,1.6-0.7,3.3-1.1,5c-10.4-2.4-21.8-4.2-33.7-5.3
	c-6.9-9.9-14.1-18.8-21.3-26.6c1.9-1.9,3.9-3.6,5.8-5.3C174,29.4,191.4,23,199.3,27.5L199.3,27.5L199.3,27.5z"/>
<path class="st1" d="M142,104.7c12.4,0,22.5,10.1,22.5,22.5c0,12.4-10.1,22.5-22.5,22.5s-22.5-10.1-22.5-22.5
	C119.5,114.7,129.6,104.7,142,104.7"/>
</svg>
