<?xml version="1.0" standalone="no"?>
<!DOCTYPE svg PUBLIC "-//W3C//DTD SVG 20010904//EN"
 "http://www.w3.org/TR/2001/REC-SVG-20010904/DTD/svg10.dtd">
<svg version="1.0" xmlns="http://www.w3.org/2000/svg"
 width="252.000000pt" height="252.000000pt" viewBox="0 0 252.000000 252.000000"
 preserveAspectRatio="xMidYMid meet">
<metadata>
Created by potrace 1.14, written by Peter Selinger 2001-2017
</metadata>
<g transform="translate(0.000000,252.000000) scale(0.100000,-0.100000)"
fill="#000000" stroke="none">
<path d="M1063 2504 c-469 -73 -868 -420 -1007 -876 -178 -582 89 -1209 630
-1485 112 -57 212 -93 334 -119 115 -24 352 -25 472 -1 391 78 718 327 896
682 46 94 94 239 113 345 19 106 17 335 -4 442 -133 672 -761 1116 -1434 1012z
m25 -270 c47 -23 88 -61 110 -101 7 -12 18 -6 58 37 75 81 142 104 219 77 37
-13 40 -17 37 -47 l-4 -33 39 9 c60 14 164 10 203 -8 24 -10 30 -17 20 -21
-134 -46 -184 -67 -237 -104 l-63 -43 0 30 0 31 -30 -34 c-47 -54 -119 -81
-220 -81 -108 -1 -175 21 -229 76 l-41 40 0 -31 0 -32 -37 30 c-43 34 -167 93
-233 111 l-44 12 34 15 c39 18 143 22 207 9 l41 -8 -1 33 c-2 30 2 35 33 46
53 18 81 16 138 -13z m-341 -194 c37 -17 62 -34 57 -39 -5 -4 -33 -24 -61 -45
l-53 -38 -42 37 c-34 29 -50 35 -77 33 -52 -5 -74 -41 -81 -136 l-6 -77 -22
69 c-14 43 -22 93 -22 137 l0 68 48 16 c73 23 178 14 259 -25z m1207 17 l39
-17 -6 -74 c-4 -41 -17 -100 -29 -133 l-23 -58 -5 81 c-9 137 -61 170 -154 99
l-46 -35 -53 37 c-28 20 -56 40 -61 44 -10 9 79 56 131 69 54 13 162 6 207
-13z m-919 -156 c33 -15 86 -51 117 -80 l58 -53 57 52 c65 57 157 105 220 115
56 9 140 -16 194 -58 64 -49 101 -123 107 -213 2 -41 1 -74 -4 -74 -5 0 -29
23 -53 51 -85 99 -138 111 -249 55 -37 -18 -79 -36 -93 -39 l-26 -7 29 -57
c32 -64 44 -79 35 -45 -5 23 -4 23 36 15 74 -14 151 -9 189 14 l36 21 30 -31
c69 -73 90 -173 57 -268 -15 -42 -89 -149 -103 -149 -4 0 -5 27 -4 61 4 67
-16 135 -47 163 -18 16 -18 15 -5 -41 31 -130 7 -235 -60 -267 -132 -63 -328
87 -301 230 7 39 43 85 89 113 37 23 60 65 48 87 -7 12 -11 12 -27 -6 -21 -23
-38 -25 -99 -8 -36 9 -59 9 -111 -1 -57 -12 -68 -11 -90 3 -32 21 -35 20 -35
-6 0 -16 21 -43 66 -83 62 -57 67 -64 71 -111 19 -189 -268 -320 -354 -162
-21 40 -24 163 -4 221 18 54 7 56 -26 6 -25 -37 -28 -52 -28 -120 l0 -78 -33
32 c-43 42 -81 121 -88 184 -8 65 15 137 61 190 l34 41 47 -24 c54 -27 97 -30
172 -10 l52 13 0 -26 c0 -20 7 -12 29 34 28 60 28 60 7 69 -11 5 -53 24 -91
43 -119 56 -184 39 -269 -72 l-35 -46 -7 35 c-12 67 23 175 74 229 93 99 198
117 327 58z m-582 -248 c19 -32 47 -69 61 -82 32 -30 32 -30 2 -106 -33 -80
-47 -196 -35 -288 8 -64 23 -128 36 -150 3 -5 20 18 39 50 19 32 48 74 64 93
l29 35 1 -50 c1 -53 16 -150 45 -278 l17 -78 27 25 c15 14 32 26 38 26 16 0
29 -47 53 -190 24 -140 67 -279 111 -358 16 -28 25 -52 20 -52 -17 0 -127 88
-182 146 -64 68 -169 200 -195 244 -10 16 -22 30 -25 30 -4 0 -13 -26 -19 -57
-24 -116 -22 -114 -60 -63 -49 67 -115 214 -140 310 -13 52 -24 133 -27 208
-3 67 -9 122 -13 122 -5 0 -22 -13 -39 -29 -16 -15 -33 -26 -36 -23 -11 12 -4
191 10 247 21 82 73 188 129 263 25 34 48 62 50 62 2 0 19 -26 39 -57z m1629
-37 c96 -141 144 -315 122 -448 l-7 -38 -36 32 -36 32 -11 -125 c-14 -148 -42
-274 -84 -366 -31 -69 -109 -193 -122 -193 -4 0 -10 21 -14 48 -4 26 -12 62
-18 81 l-12 33 -64 -88 c-102 -141 -299 -334 -341 -334 -3 0 8 28 26 63 50 93
82 198 111 363 32 183 41 199 89 148 l24 -26 10 39 c23 88 43 204 49 283 l7
85 41 -55 c23 -30 50 -70 60 -87 10 -18 22 -33 26 -33 10 0 26 61 39 148 14
87 1 187 -35 288 l-25 67 44 56 c23 31 50 71 60 89 16 33 17 33 37 15 11 -10
38 -44 60 -77z m-1154 29 c28 -13 52 -28 52 -33 0 -9 -31 -24 -78 -37 -36 -10
-81 4 -99 32 -16 25 -16 26 6 44 31 25 55 24 119 -6z m676 15 c16 -6 26 -17
26 -29 0 -24 -45 -61 -75 -61 -31 0 -115 30 -115 41 0 12 98 59 122 59 9 0 28
-4 42 -10z m-298 -589 c194 -97 243 -199 146 -303 -14 -16 -28 -28 -31 -28 -3
0 -5 28 -4 62 2 62 2 62 -7 17 -16 -89 -67 -151 -153 -184 -54 -20 -91 -12
-156 35 -43 32 -67 69 -87 140 l-14 45 3 -57 c3 -52 2 -56 -14 -47 -24 12 -69
90 -69 118 0 40 40 100 93 140 55 42 171 101 198 101 9 0 52 -18 95 -39z"/>
</g>
</svg>
