<svg width="664" height="538" viewBox="0 0 664 538" fill="none" xmlns="http://www.w3.org/2000/svg">
<g filter="url(#filter0_d_848_3844)">
<rect x="233" y="12" width="415" height="238" rx="8" fill="white"/>
</g>
<g filter="url(#filter1_d_848_3844)">
<rect x="16" y="280" width="415" height="238" rx="8" fill="white"/>
</g>
<path d="M285.943 43.5317V44.9697C285.471 44.9697 285.047 45.0157 284.673 45.1076C284.305 45.1995 284.019 45.3571 283.816 45.5804C283.612 45.7971 283.53 46.0991 283.57 46.4865L283.964 50.3475C284.023 50.9254 283.98 51.4047 283.836 51.7855C283.691 52.1598 283.458 52.452 283.136 52.6621C282.814 52.8723 282.411 53.02 281.925 53.1054C282.424 53.1907 282.834 53.3352 283.156 53.5388C283.484 53.7357 283.714 54.0214 283.845 54.3957C283.983 54.7634 284.023 55.2526 283.964 55.8632L283.57 59.7242C283.53 60.1116 283.609 60.417 283.806 60.6402C284.01 60.8635 284.298 61.0178 284.673 61.1031C285.054 61.1951 285.477 61.241 285.943 61.241V62.6791C285.333 62.6791 284.765 62.6265 284.239 62.5215C283.714 62.423 283.258 62.2555 282.87 62.0191C282.483 61.7828 282.194 61.461 282.004 61.0539C281.82 60.6468 281.761 60.1346 281.826 59.5174L282.21 55.9223C282.256 55.4692 282.204 55.0917 282.053 54.7896C281.908 54.481 281.616 54.2512 281.176 54.1002C280.736 53.9426 280.103 53.8638 279.275 53.8638V52.347C280.103 52.347 280.736 52.2715 281.176 52.1204C281.623 51.9694 281.918 51.7429 282.063 51.4408C282.207 51.1388 282.256 50.7579 282.21 50.2983L281.826 46.6934C281.761 46.0761 281.82 45.564 282.004 45.1569C282.194 44.7497 282.48 44.428 282.86 44.1916C283.248 43.9487 283.704 43.7779 284.23 43.6794C284.761 43.5809 285.333 43.5317 285.943 43.5317Z" fill="#04A4FE"/>
<path d="M363.907 90.562C363.907 90.1155 364.068 89.7281 364.39 89.3997C364.711 89.0714 365.105 88.9073 365.572 88.9073C366.051 88.9073 366.451 89.0714 366.773 89.3997C367.095 89.7281 367.256 90.1155 367.256 90.562C367.256 91.0282 367.095 91.4254 366.773 91.7538C366.451 92.0821 366.051 92.2462 365.572 92.2462C365.105 92.2462 364.711 92.0821 364.39 91.7538C364.068 91.4254 363.907 91.0282 363.907 90.562ZM363.907 83.5098C363.907 83.1946 363.979 82.9122 364.124 82.6627C364.275 82.4132 364.475 82.2162 364.725 82.0717C364.981 81.9207 365.263 81.8452 365.572 81.8452C366.051 81.8452 366.451 82.0094 366.773 82.3377C367.095 82.6594 367.256 83.0501 367.256 83.5098C367.256 83.9628 367.095 84.3568 366.773 84.6917C366.451 85.02 366.051 85.1842 365.572 85.1842C365.105 85.1842 364.711 85.02 364.39 84.6917C364.068 84.3568 363.907 83.9628 363.907 83.5098ZM376.674 81.205C376.674 81.6187 376.52 81.97 376.211 82.2589C375.909 82.5478 375.545 82.6923 375.118 82.6923C374.678 82.6923 374.31 82.5478 374.015 82.2589C373.726 81.97 373.581 81.6187 373.581 81.205C373.581 81.0211 373.604 80.8241 373.65 80.614C373.703 80.3973 373.808 80.1183 373.965 79.7768L375.532 76.4575H376.91L376.103 80.0526C376.274 80.1774 376.411 80.3415 376.517 80.5451C376.622 80.7421 376.674 80.962 376.674 81.205ZM380.978 81.205C380.978 81.6187 380.824 81.97 380.515 82.2589C380.213 82.5478 379.849 82.6923 379.422 82.6923C378.995 82.6923 378.631 82.5478 378.329 82.2589C378.033 81.97 377.886 81.6187 377.886 81.205C377.886 81.0211 377.909 80.8241 377.955 80.614C378.007 80.3973 378.115 80.1183 378.28 79.7768L379.865 76.4575H381.225L380.417 80.0526C380.588 80.1774 380.722 80.3415 380.821 80.5451C380.926 80.7421 380.978 80.962 380.978 81.205ZM393.972 88.208C393.972 88.9959 393.772 89.6952 393.371 90.3059C392.977 90.91 392.406 91.3861 391.657 91.7341C390.909 92.0755 389.996 92.2462 388.919 92.2462C387.882 92.2462 386.956 92.0886 386.142 91.7735C385.327 91.4583 384.635 91.0249 384.063 90.4733L385.176 89.2225C385.649 89.6624 386.191 90.0104 386.801 90.2665C387.412 90.5226 388.125 90.6506 388.939 90.6506C389.471 90.6506 389.963 90.5653 390.416 90.3945C390.876 90.2172 391.244 89.9546 391.519 89.6066C391.802 89.252 391.943 88.8088 391.943 88.2769C391.943 87.8501 391.858 87.4889 391.687 87.1935C391.523 86.898 391.23 86.6353 390.81 86.4055C390.39 86.1757 389.802 85.9491 389.047 85.7259C388.128 85.4501 387.34 85.1448 386.683 84.8099C386.033 84.4684 385.534 84.0515 385.186 83.559C384.845 83.0665 384.674 82.4624 384.674 81.7467C384.674 81.0441 384.868 80.4269 385.255 79.895C385.643 79.3566 386.174 78.9363 386.851 78.6343C387.534 78.3322 388.312 78.1812 389.185 78.1812C390.137 78.1812 390.968 78.3191 391.677 78.5949C392.393 78.8641 393.036 79.2548 393.607 79.767L392.524 80.9883C392.045 80.5615 391.526 80.2529 390.968 80.0625C390.41 79.8655 389.845 79.767 389.274 79.767C388.794 79.767 388.358 79.8392 387.964 79.9837C387.57 80.1215 387.255 80.3284 387.018 80.6042C386.788 80.88 386.673 81.2313 386.673 81.6581C386.673 82.0323 386.775 82.3541 386.979 82.6233C387.182 82.886 387.527 83.1322 388.013 83.362C388.499 83.5853 389.159 83.8217 389.993 84.0712C390.722 84.2813 391.388 84.544 391.992 84.8591C392.596 85.1743 393.076 85.5978 393.43 86.1297C393.791 86.655 393.972 87.3478 393.972 88.208ZM402.435 81.6187V90.562H405.321V92H397.382V90.562H400.544V83.0567H397.48V81.6187H402.435ZM401.026 76.6545C401.42 76.6545 401.735 76.776 401.972 77.019C402.215 77.2619 402.336 77.5574 402.336 77.9054C402.336 78.2666 402.215 78.5719 401.972 78.8214C401.735 79.0644 401.42 79.1858 401.026 79.1858C400.639 79.1858 400.324 79.0644 400.081 78.8214C399.844 78.5719 399.726 78.2666 399.726 77.9054C399.726 77.5574 399.844 77.2619 400.081 77.019C400.324 76.776 400.639 76.6545 401.026 76.6545ZM415.793 81.3724C416.154 81.3724 416.489 81.4512 416.797 81.6088C417.106 81.7664 417.356 82.0553 417.546 82.4756C417.736 82.8892 417.832 83.4901 417.832 84.278V92H416.108V84.5538C416.108 83.9497 416.069 83.5163 415.99 83.2537C415.918 82.9845 415.707 82.8498 415.359 82.8498C415.07 82.8498 414.785 82.9385 414.502 83.1158C414.22 83.2931 413.941 83.5886 413.665 84.0022V92H412.011V84.5538C412.011 83.9497 411.971 83.5163 411.892 83.2537C411.82 82.9845 411.61 82.8498 411.262 82.8498C410.967 82.8498 410.678 82.9385 410.395 83.1158C410.119 83.2931 409.844 83.5886 409.568 84.0022V92H407.844V81.6187H409.302L409.42 82.7809C409.709 82.3738 410.028 82.0389 410.376 81.7763C410.73 81.507 411.16 81.3724 411.666 81.3724C412.06 81.3724 412.424 81.4676 412.759 81.6581C413.101 81.8485 413.35 82.2031 413.508 82.7218C413.79 82.3213 414.112 81.9962 414.473 81.7467C414.834 81.4972 415.274 81.3724 415.793 81.3724ZM422.512 82.9188C422.88 82.4329 423.31 82.0553 423.803 81.7861C424.302 81.5103 424.843 81.3724 425.428 81.3724C426.347 81.3724 427.092 81.599 427.664 82.052C428.235 82.4986 428.652 83.1289 428.914 83.9431C429.177 84.7508 429.308 85.7029 429.308 86.7995C429.308 87.8501 429.151 88.7858 428.836 89.6066C428.52 90.4274 428.058 91.0742 427.447 91.5469C426.836 92.0131 426.084 92.2462 425.191 92.2462C424.003 92.2462 423.074 91.8129 422.404 90.9461L422.286 92H420.621V77.4425L422.512 77.216V82.9188ZM424.728 90.759C425.543 90.759 426.17 90.4372 426.61 89.7937C427.056 89.1437 427.279 88.1456 427.279 86.7995C427.279 85.8999 427.191 85.1612 427.013 84.5834C426.836 83.999 426.574 83.5656 426.226 83.2832C425.884 83.0009 425.464 82.8597 424.965 82.8597C424.426 82.8597 423.95 83.0239 423.537 83.3522C423.123 83.6739 422.781 84.0416 422.512 84.4553V89.4785C422.775 89.8725 423.097 90.1844 423.478 90.4142C423.858 90.6441 424.275 90.759 424.728 90.759ZM440.086 89.6164C440.086 90.0301 440.152 90.3322 440.283 90.5226C440.414 90.7064 440.621 90.8443 440.903 90.9363L440.46 92.2364C439.987 92.1773 439.577 92.0361 439.229 91.8129C438.881 91.5896 438.622 91.2482 438.451 90.7885C438.077 91.2679 437.604 91.6323 437.033 91.8818C436.461 92.1248 435.841 92.2462 435.171 92.2462C434.127 92.2462 433.303 91.9508 432.699 91.3598C432.095 90.7688 431.793 89.9907 431.793 89.0255C431.793 87.942 432.213 87.1114 433.053 86.5335C433.9 85.9557 435.115 85.6668 436.698 85.6668H438.205V84.8788C438.205 84.1631 437.991 83.6542 437.564 83.3522C437.144 83.0501 436.556 82.8991 435.801 82.8991C435.46 82.8991 435.053 82.9418 434.58 83.0271C434.107 83.1125 433.605 83.2471 433.073 83.431L432.59 82.052C433.234 81.8091 433.848 81.6351 434.432 81.53C435.023 81.425 435.575 81.3724 436.087 81.3724C437.426 81.3724 438.428 81.6778 439.091 82.2884C439.754 82.8925 440.086 83.7232 440.086 84.7803V89.6164ZM435.703 90.8279C436.189 90.8279 436.655 90.7032 437.101 90.4536C437.548 90.2041 437.916 89.8561 438.205 89.4096V86.898H436.826C435.729 86.898 434.951 87.0851 434.491 87.4594C434.032 87.8271 433.802 88.3327 433.802 88.9762C433.802 89.5803 433.959 90.04 434.275 90.3551C434.59 90.6703 435.066 90.8279 435.703 90.8279ZM444.343 92V90.6014H445.919V83.0173H444.343V81.6187H447.367L447.711 84.0515C448.105 83.1913 448.588 82.5314 449.159 82.0717C449.737 81.6055 450.486 81.3724 451.405 81.3724C451.707 81.3724 451.973 81.3954 452.203 81.4414C452.439 81.4873 452.679 81.5464 452.922 81.6187L452.36 83.2734C452.144 83.2077 451.947 83.1617 451.769 83.1355C451.592 83.1092 451.389 83.0961 451.159 83.0961C450.377 83.0961 449.708 83.3784 449.15 83.9431C448.591 84.5078 448.145 85.3385 447.81 86.4351V90.6014H449.918V92H444.343ZM451.169 85.263V82.8794L451.385 81.6187H452.922L452.626 85.263H451.169ZM463.709 89.6164C463.709 90.0301 463.775 90.3322 463.906 90.5226C464.037 90.7064 464.244 90.8443 464.527 90.9363L464.083 92.2364C463.611 92.1773 463.2 92.0361 462.852 91.8129C462.504 91.5896 462.245 91.2482 462.074 90.7885C461.7 91.2679 461.227 91.6323 460.656 91.8818C460.085 92.1248 459.464 92.2462 458.794 92.2462C457.75 92.2462 456.926 91.9508 456.322 91.3598C455.718 90.7688 455.416 89.9907 455.416 89.0255C455.416 87.942 455.836 87.1114 456.677 86.5335C457.524 85.9557 458.738 85.6668 460.321 85.6668H461.828V84.8788C461.828 84.1631 461.615 83.6542 461.188 83.3522C460.767 83.0501 460.18 82.8991 459.425 82.8991C459.083 82.8991 458.676 82.9418 458.203 83.0271C457.731 83.1125 457.228 83.2471 456.696 83.431L456.214 82.052C456.857 81.8091 457.471 81.6351 458.056 81.53C458.647 81.425 459.198 81.3724 459.71 81.3724C461.05 81.3724 462.051 81.6778 462.714 82.2884C463.378 82.8925 463.709 83.7232 463.709 84.7803V89.6164ZM459.326 90.8279C459.812 90.8279 460.278 90.7032 460.725 90.4536C461.171 90.2041 461.539 89.8561 461.828 89.4096V86.898H460.449C459.352 86.898 458.574 87.0851 458.115 87.4594C457.655 87.8271 457.425 88.3327 457.425 88.9762C457.425 89.5803 457.583 90.04 457.898 90.3551C458.213 90.6703 458.689 90.8279 459.326 90.8279ZM471.502 90.7393C472.257 90.7393 472.852 90.6014 473.285 90.3256C473.725 90.0498 473.945 89.6755 473.945 89.2028C473.945 88.9007 473.886 88.6413 473.768 88.4246C473.656 88.208 473.42 88.011 473.058 87.8337C472.704 87.6564 472.165 87.4758 471.443 87.292C470.741 87.1147 470.127 86.9078 469.601 86.6714C469.076 86.4351 468.669 86.1264 468.38 85.7456C468.098 85.3647 467.956 84.8723 467.956 84.2682C467.956 83.6772 468.121 83.165 468.449 82.7317C468.784 82.2983 469.253 81.9634 469.857 81.727C470.468 81.4906 471.177 81.3724 471.985 81.3724C472.838 81.3724 473.58 81.4873 474.211 81.7172C474.848 81.9404 475.386 82.2162 475.826 82.5445L475.019 83.7757C474.618 83.5065 474.178 83.2865 473.699 83.1158C473.226 82.9451 472.668 82.8597 472.024 82.8597C471.256 82.8597 470.708 82.9779 470.379 83.2143C470.058 83.4441 469.897 83.7494 469.897 84.1303C469.897 84.4126 469.976 84.649 470.133 84.8394C470.297 85.0233 470.576 85.194 470.97 85.3516C471.364 85.5092 471.909 85.6832 472.605 85.8736C473.282 86.0575 473.873 86.2742 474.378 86.5237C474.884 86.7732 475.275 87.1015 475.55 87.5086C475.833 87.9092 475.974 88.4378 475.974 89.0944C475.974 89.8364 475.761 90.4405 475.334 90.9067C474.907 91.3664 474.352 91.7045 473.669 91.9212C472.993 92.1379 472.271 92.2462 471.502 92.2462C470.557 92.2462 469.742 92.1083 469.06 91.8326C468.383 91.5568 467.815 91.2186 467.356 90.8181L468.4 89.6164C468.807 89.9513 469.273 90.2238 469.798 90.4339C470.324 90.6375 470.892 90.7393 471.502 90.7393ZM481.571 77.2554V82.968C481.984 82.4362 482.48 82.0389 483.058 81.7763C483.642 81.507 484.236 81.3724 484.841 81.3724C485.839 81.3724 486.574 81.6449 487.047 82.1899C487.52 82.7284 487.756 83.4802 487.756 84.4455V92H485.865V84.6129C485.865 83.9891 485.73 83.5393 485.461 83.2635C485.198 82.9812 484.778 82.84 484.2 82.84C483.833 82.84 483.481 82.9221 483.146 83.0862C482.818 83.2504 482.519 83.4605 482.25 83.7166C481.981 83.9661 481.754 84.2255 481.571 84.4947V92H479.679V77.4622L481.571 77.2554ZM493.018 87.4495C493.057 88.2112 493.211 88.835 493.481 89.3209C493.75 89.8003 494.101 90.1549 494.535 90.3847C494.968 90.6079 495.447 90.7196 495.973 90.7196C496.491 90.7196 496.967 90.6408 497.401 90.4832C497.834 90.3256 498.274 90.0958 498.721 89.7937L499.578 90.9855C499.092 91.3729 498.53 91.6815 497.893 91.9114C497.256 92.1346 496.596 92.2462 495.914 92.2462C494.876 92.2462 493.993 92.0197 493.264 91.5666C492.542 91.107 491.99 90.4701 491.609 89.6558C491.235 88.8416 491.048 87.8961 491.048 86.8192C491.048 85.7751 491.235 84.8427 491.609 84.0219C491.99 83.2011 492.525 82.5544 493.215 82.0816C493.904 81.6088 494.725 81.3724 495.677 81.3724C496.57 81.3724 497.338 81.5793 497.982 81.9929C498.632 82.4066 499.131 82.9976 499.479 83.7658C499.827 84.5275 500.001 85.4403 500.001 86.504C500.001 86.6813 499.998 86.852 499.991 87.0162C499.985 87.1803 499.975 87.3248 499.962 87.4495H493.018ZM495.697 82.8498C494.961 82.8498 494.347 83.1125 493.855 83.6378C493.369 84.1631 493.09 84.974 493.018 86.0706H498.179C498.159 85.02 497.929 84.2222 497.489 83.6772C497.056 83.1256 496.459 82.8498 495.697 82.8498ZM503.736 77.9448C503.736 77.5246 503.89 77.17 504.199 76.8811C504.508 76.5922 504.872 76.4477 505.292 76.4477C505.719 76.4477 506.084 76.5922 506.386 76.8811C506.694 77.17 506.849 77.5246 506.849 77.9448C506.849 78.1484 506.816 78.3519 506.75 78.5555C506.691 78.7525 506.579 79.0217 506.415 79.3631L504.849 82.6824H503.49L504.278 79.0874C504.114 78.9626 503.982 78.8017 503.884 78.6047C503.785 78.4077 503.736 78.1878 503.736 77.9448ZM508.04 77.9448C508.04 77.5246 508.195 77.17 508.503 76.8811C508.818 76.5922 509.183 76.4477 509.597 76.4477C510.03 76.4477 510.398 76.5922 510.7 76.8811C511.002 77.17 511.153 77.5246 511.153 77.9448C511.153 78.1484 511.127 78.3519 511.074 78.5555C511.021 78.7525 510.913 79.0217 510.749 79.3631L509.163 82.6824H507.804L508.612 79.0874C508.441 78.9626 508.303 78.8017 508.198 78.6047C508.093 78.4077 508.04 78.1878 508.04 77.9448ZM519.143 88.6315C519.622 88.6315 520.023 88.7924 520.345 89.1141C520.666 89.4359 520.827 89.8298 520.827 90.296C520.827 90.5587 520.791 90.8246 520.719 91.0938C520.653 91.3565 520.535 91.6684 520.364 92.0295L518.798 95.6148H517.212L518.168 91.675C517.958 91.5239 517.79 91.327 517.665 91.084C517.541 90.8345 517.478 90.5685 517.478 90.2862C517.478 89.8266 517.636 89.4359 517.951 89.1141C518.273 88.7924 518.67 88.6315 519.143 88.6315ZM399.342 122.562C399.342 122.115 399.503 121.728 399.825 121.4C400.146 121.071 400.54 120.907 401.007 120.907C401.486 120.907 401.886 121.071 402.208 121.4C402.53 121.728 402.691 122.115 402.691 122.562C402.691 123.028 402.53 123.425 402.208 123.754C401.886 124.082 401.486 124.246 401.007 124.246C400.54 124.246 400.146 124.082 399.825 123.754C399.503 123.425 399.342 123.028 399.342 122.562ZM399.342 115.51C399.342 115.195 399.414 114.912 399.559 114.663C399.71 114.413 399.91 114.216 400.16 114.072C400.416 113.921 400.698 113.845 401.007 113.845C401.486 113.845 401.886 114.009 402.208 114.338C402.53 114.659 402.691 115.05 402.691 115.51C402.691 115.963 402.53 116.357 402.208 116.692C401.886 117.02 401.486 117.184 401.007 117.184C400.54 117.184 400.146 117.02 399.825 116.692C399.503 116.357 399.342 115.963 399.342 115.51ZM423.921 113.205C423.921 113.619 423.766 113.97 423.458 114.259C423.156 114.548 422.791 114.692 422.365 114.692C421.925 114.692 421.557 114.548 421.261 114.259C420.972 113.97 420.828 113.619 420.828 113.205C420.828 113.021 420.851 112.824 420.897 112.614C420.949 112.397 421.055 112.118 421.212 111.777L422.778 108.458H424.157L423.349 112.053C423.52 112.177 423.658 112.342 423.763 112.545C423.868 112.742 423.921 112.962 423.921 113.205ZM428.225 113.205C428.225 113.619 428.071 113.97 427.762 114.259C427.46 114.548 427.096 114.692 426.669 114.692C426.242 114.692 425.877 114.548 425.575 114.259C425.28 113.97 425.132 113.619 425.132 113.205C425.132 113.021 425.155 112.824 425.201 112.614C425.254 112.397 425.362 112.118 425.526 111.777L427.112 108.458H428.471L427.664 112.053C427.834 112.177 427.969 112.342 428.067 112.545C428.172 112.742 428.225 112.962 428.225 113.205ZM441.041 110.427L441.81 124H439.978L439.593 117.115C439.574 116.629 439.557 116.147 439.544 115.667C439.531 115.181 439.521 114.719 439.515 114.279C439.515 113.839 439.515 113.438 439.515 113.077C439.521 112.716 439.528 112.417 439.534 112.181L437.367 121.587H435.535L433.211 112.181C433.224 112.41 433.234 112.713 433.24 113.087C433.254 113.461 433.26 113.875 433.26 114.328C433.267 114.781 433.267 115.247 433.26 115.726C433.254 116.206 433.244 116.669 433.231 117.115L432.906 124H431.113L431.881 110.427H434.413L436.501 119.637L438.49 110.427H441.041ZM451.898 121.616C451.898 122.03 451.963 122.332 452.095 122.523C452.226 122.706 452.433 122.844 452.715 122.936L452.272 124.236C451.799 124.177 451.389 124.036 451.041 123.813C450.693 123.59 450.433 123.248 450.263 122.789C449.888 123.268 449.415 123.632 448.844 123.882C448.273 124.125 447.652 124.246 446.983 124.246C445.939 124.246 445.115 123.951 444.51 123.36C443.906 122.769 443.604 121.991 443.604 121.025C443.604 119.942 444.025 119.111 444.865 118.534C445.712 117.956 446.927 117.667 448.509 117.667H450.016V116.879C450.016 116.163 449.803 115.654 449.376 115.352C448.956 115.05 448.368 114.899 447.613 114.899C447.272 114.899 446.864 114.942 446.392 115.027C445.919 115.113 445.417 115.247 444.885 115.431L444.402 114.052C445.046 113.809 445.66 113.635 446.244 113.53C446.835 113.425 447.386 113.372 447.899 113.372C449.238 113.372 450.24 113.678 450.903 114.288C451.566 114.893 451.898 115.723 451.898 116.78V121.616ZM447.515 122.828C448 122.828 448.467 122.703 448.913 122.454C449.36 122.204 449.727 121.856 450.016 121.41V118.898H448.637C447.541 118.898 446.763 119.085 446.303 119.459C445.843 119.827 445.614 120.333 445.614 120.976C445.614 121.58 445.771 122.04 446.086 122.355C446.402 122.67 446.878 122.828 447.515 122.828ZM460.882 113.372C461.802 113.372 462.537 113.599 463.089 114.052C463.64 114.499 464.037 115.129 464.28 115.943C464.523 116.751 464.645 117.703 464.645 118.799C464.645 119.85 464.497 120.786 464.202 121.607C463.906 122.427 463.463 123.074 462.872 123.547C462.281 124.013 461.539 124.246 460.646 124.246C459.523 124.246 458.624 123.852 457.947 123.064V127.979L456.056 128.206V113.619H457.681L457.819 115.017C458.207 114.485 458.663 114.078 459.188 113.796C459.714 113.514 460.278 113.372 460.882 113.372ZM460.4 114.86C459.861 114.86 459.385 115.024 458.972 115.352C458.558 115.674 458.216 116.042 457.947 116.455V121.479C458.21 121.866 458.532 122.171 458.912 122.395C459.293 122.611 459.717 122.72 460.183 122.72C460.997 122.72 461.611 122.404 462.025 121.774C462.439 121.137 462.645 120.146 462.645 118.799C462.645 117.9 462.563 117.161 462.399 116.583C462.235 115.999 461.986 115.566 461.651 115.283C461.322 115.001 460.905 114.86 460.4 114.86ZM473.305 113.619V122.562H476.191V124H468.252V122.562H471.414V115.057H468.35V113.619H473.305ZM471.896 108.655C472.29 108.655 472.605 108.776 472.842 109.019C473.085 109.262 473.206 109.557 473.206 109.905C473.206 110.267 473.085 110.572 472.842 110.821C472.605 111.064 472.29 111.186 471.896 111.186C471.509 111.186 471.194 111.064 470.951 110.821C470.714 110.572 470.596 110.267 470.596 109.905C470.596 109.557 470.714 109.262 470.951 109.019C471.194 108.776 471.509 108.655 471.896 108.655ZM483.314 122.739C484.069 122.739 484.663 122.601 485.097 122.326C485.537 122.05 485.757 121.676 485.757 121.203C485.757 120.901 485.697 120.641 485.579 120.425C485.468 120.208 485.231 120.011 484.87 119.834C484.516 119.656 483.977 119.476 483.255 119.292C482.552 119.115 481.938 118.908 481.413 118.671C480.888 118.435 480.481 118.126 480.192 117.746C479.909 117.365 479.768 116.872 479.768 116.268C479.768 115.677 479.932 115.165 480.261 114.732C480.595 114.298 481.065 113.963 481.669 113.727C482.28 113.491 482.989 113.372 483.797 113.372C484.65 113.372 485.392 113.487 486.023 113.717C486.659 113.94 487.198 114.216 487.638 114.545L486.83 115.776C486.43 115.506 485.99 115.287 485.51 115.116C485.038 114.945 484.479 114.86 483.836 114.86C483.068 114.86 482.519 114.978 482.191 115.214C481.869 115.444 481.708 115.749 481.708 116.13C481.708 116.413 481.787 116.649 481.945 116.839C482.109 117.023 482.388 117.194 482.782 117.352C483.176 117.509 483.721 117.683 484.417 117.874C485.093 118.057 485.684 118.274 486.19 118.524C486.696 118.773 487.086 119.102 487.362 119.509C487.644 119.909 487.786 120.438 487.786 121.094C487.786 121.836 487.572 122.441 487.145 122.907C486.719 123.366 486.164 123.705 485.481 123.921C484.804 124.138 484.082 124.246 483.314 124.246C482.368 124.246 481.554 124.108 480.871 123.833C480.195 123.557 479.627 123.219 479.167 122.818L480.211 121.616C480.618 121.951 481.085 122.224 481.61 122.434C482.135 122.637 482.703 122.739 483.314 122.739ZM499.144 121.616C499.144 122.03 499.21 122.332 499.341 122.523C499.472 122.706 499.679 122.844 499.962 122.936L499.518 124.236C499.046 124.177 498.635 124.036 498.287 123.813C497.939 123.59 497.68 123.248 497.509 122.789C497.135 123.268 496.662 123.632 496.091 123.882C495.52 124.125 494.899 124.246 494.229 124.246C493.185 124.246 492.361 123.951 491.757 123.36C491.153 122.769 490.851 121.991 490.851 121.025C490.851 119.942 491.271 119.111 492.112 118.534C492.959 117.956 494.173 117.667 495.756 117.667H497.263V116.879C497.263 116.163 497.05 115.654 496.623 115.352C496.202 115.05 495.615 114.899 494.86 114.899C494.518 114.899 494.111 114.942 493.638 115.027C493.166 115.113 492.663 115.247 492.131 115.431L491.649 114.052C492.292 113.809 492.906 113.635 493.491 113.53C494.082 113.425 494.633 113.372 495.145 113.372C496.485 113.372 497.486 113.678 498.149 114.288C498.813 114.893 499.144 115.723 499.144 116.78V121.616ZM494.761 122.828C495.247 122.828 495.713 122.703 496.16 122.454C496.606 122.204 496.974 121.856 497.263 121.41V118.898H495.884C494.787 118.898 494.009 119.085 493.55 119.459C493.09 119.827 492.86 120.333 492.86 120.976C492.86 121.58 493.018 122.04 493.333 122.355C493.648 122.67 494.124 122.828 494.761 122.828ZM503.736 109.945C503.736 109.525 503.89 109.17 504.199 108.881C504.508 108.592 504.872 108.448 505.292 108.448C505.719 108.448 506.084 108.592 506.386 108.881C506.694 109.17 506.849 109.525 506.849 109.945C506.849 110.148 506.816 110.352 506.75 110.555C506.691 110.752 506.579 111.022 506.415 111.363L504.849 114.682H503.49L504.278 111.087C504.114 110.963 503.982 110.802 503.884 110.605C503.785 110.408 503.736 110.188 503.736 109.945ZM508.04 109.945C508.04 109.525 508.195 109.17 508.503 108.881C508.818 108.592 509.183 108.448 509.597 108.448C510.03 108.448 510.398 108.592 510.7 108.881C511.002 109.17 511.153 109.525 511.153 109.945C511.153 110.148 511.127 110.352 511.074 110.555C511.021 110.752 510.913 111.022 510.749 111.363L509.163 114.682H507.804L508.612 111.087C508.441 110.963 508.303 110.802 508.198 110.605C508.093 110.408 508.04 110.188 508.04 109.945ZM519.143 120.631C519.622 120.631 520.023 120.792 520.345 121.114C520.666 121.436 520.827 121.83 520.827 122.296C520.827 122.559 520.791 122.825 520.719 123.094C520.653 123.357 520.535 123.668 520.364 124.03L518.798 127.615H517.212L518.168 123.675C517.958 123.524 517.79 123.327 517.665 123.084C517.541 122.834 517.478 122.569 517.478 122.286C517.478 121.827 517.636 121.436 517.951 121.114C518.273 120.792 518.67 120.631 519.143 120.631ZM446.589 154.562C446.589 154.115 446.75 153.728 447.071 153.4C447.393 153.071 447.787 152.907 448.253 152.907C448.733 152.907 449.133 153.071 449.455 153.4C449.777 153.728 449.937 154.115 449.937 154.562C449.937 155.028 449.777 155.425 449.455 155.754C449.133 156.082 448.733 156.246 448.253 156.246C447.787 156.246 447.393 156.082 447.071 155.754C446.75 155.425 446.589 155.028 446.589 154.562ZM446.589 147.51C446.589 147.195 446.661 146.912 446.805 146.663C446.956 146.413 447.157 146.216 447.406 146.072C447.662 145.921 447.945 145.845 448.253 145.845C448.733 145.845 449.133 146.009 449.455 146.338C449.777 146.659 449.937 147.05 449.937 147.51C449.937 147.963 449.777 148.357 449.455 148.692C449.133 149.02 448.733 149.184 448.253 149.184C447.787 149.184 447.393 149.02 447.071 148.692C446.75 148.357 446.589 147.963 446.589 147.51ZM472.842 144.053V156H470.892V144.053H466.715V142.427H477.087L476.88 144.053H472.842ZM479.778 156V154.601H481.354V147.017H479.778V145.619H482.802L483.146 148.051C483.54 147.191 484.023 146.531 484.594 146.072C485.172 145.606 485.921 145.372 486.84 145.372C487.142 145.372 487.408 145.395 487.638 145.441C487.874 145.487 488.114 145.546 488.357 145.619L487.795 147.273C487.579 147.208 487.382 147.162 487.204 147.135C487.027 147.109 486.824 147.096 486.594 147.096C485.812 147.096 485.143 147.378 484.584 147.943C484.026 148.508 483.58 149.338 483.245 150.435V154.601H485.353V156H479.778ZM486.604 149.263V146.879L486.82 145.619H488.357L488.061 149.263H486.604ZM493.382 145.619V152.927C493.382 153.584 493.517 154.056 493.786 154.345C494.055 154.628 494.466 154.769 495.017 154.769C495.549 154.769 496.055 154.615 496.534 154.306C497.013 153.997 497.388 153.63 497.657 153.203V145.619H499.548V156H497.923L497.785 154.631C497.391 155.15 496.895 155.55 496.298 155.833C495.7 156.108 495.096 156.246 494.485 156.246C493.481 156.246 492.729 155.974 492.23 155.429C491.737 154.884 491.491 154.129 491.491 153.163V145.619H493.382ZM504.829 151.45C504.869 152.211 505.023 152.835 505.292 153.321C505.562 153.8 505.913 154.155 506.346 154.385C506.78 154.608 507.259 154.72 507.784 154.72C508.303 154.72 508.779 154.641 509.212 154.483C509.646 154.326 510.086 154.096 510.532 153.794L511.389 154.986C510.903 155.373 510.342 155.682 509.705 155.911C509.068 156.135 508.408 156.246 507.725 156.246C506.688 156.246 505.805 156.02 505.076 155.567C504.353 155.107 503.802 154.47 503.421 153.656C503.047 152.842 502.86 151.896 502.86 150.819C502.86 149.775 503.047 148.843 503.421 148.022C503.802 147.201 504.337 146.554 505.026 146.082C505.716 145.609 506.537 145.372 507.489 145.372C508.382 145.372 509.15 145.579 509.794 145.993C510.444 146.407 510.943 146.998 511.291 147.766C511.639 148.528 511.813 149.44 511.813 150.504C511.813 150.681 511.809 150.852 511.803 151.016C511.796 151.18 511.786 151.325 511.773 151.45H504.829ZM507.509 146.85C506.773 146.85 506.159 147.113 505.667 147.638C505.181 148.163 504.902 148.974 504.829 150.071H509.991C509.971 149.02 509.741 148.222 509.301 147.677C508.868 147.126 508.27 146.85 507.509 146.85ZM519.143 152.631C519.622 152.631 520.023 152.792 520.345 153.114C520.666 153.436 520.827 153.83 520.827 154.296C520.827 154.559 520.791 154.825 520.719 155.094C520.653 155.357 520.535 155.668 520.364 156.03L518.798 159.615H517.212L518.168 155.675C517.958 155.524 517.79 155.327 517.665 155.084C517.541 154.834 517.478 154.569 517.478 154.286C517.478 153.827 517.636 153.436 517.951 153.114C518.273 152.792 518.67 152.631 519.143 152.631ZM434.777 186.562C434.777 186.115 434.938 185.728 435.26 185.4C435.581 185.071 435.975 184.907 436.442 184.907C436.921 184.907 437.321 185.071 437.643 185.4C437.965 185.728 438.126 186.115 438.126 186.562C438.126 187.028 437.965 187.425 437.643 187.754C437.321 188.082 436.921 188.246 436.442 188.246C435.975 188.246 435.581 188.082 435.26 187.754C434.938 187.425 434.777 187.028 434.777 186.562ZM434.777 179.51C434.777 179.195 434.849 178.912 434.994 178.663C435.145 178.413 435.345 178.216 435.594 178.072C435.851 177.921 436.133 177.845 436.442 177.845C436.921 177.845 437.321 178.009 437.643 178.338C437.965 178.659 438.126 179.05 438.126 179.51C438.126 179.963 437.965 180.357 437.643 180.692C437.321 181.02 436.921 181.184 436.442 181.184C435.975 181.184 435.581 181.02 435.26 180.692C434.938 180.357 434.777 179.963 434.777 179.51ZM461.03 176.053V188H459.08V176.053H454.904V174.427H465.275L465.068 176.053H461.03ZM467.966 188V186.601H469.542V179.017H467.966V177.619H470.99L471.335 180.051C471.729 179.191 472.211 178.531 472.783 178.072C473.361 177.606 474.109 177.372 475.028 177.372C475.33 177.372 475.596 177.395 475.826 177.441C476.063 177.487 476.302 177.546 476.545 177.619L475.984 179.273C475.767 179.208 475.57 179.162 475.393 179.135C475.216 179.109 475.012 179.096 474.782 179.096C474.001 179.096 473.331 179.378 472.773 179.943C472.215 180.508 471.768 181.338 471.433 182.435V186.601H473.541V188H467.966ZM474.792 181.263V178.879L475.009 177.619H476.545L476.25 181.263H474.792ZM481.571 177.619V184.927C481.571 185.584 481.705 186.056 481.974 186.345C482.244 186.628 482.654 186.769 483.206 186.769C483.737 186.769 484.243 186.615 484.722 186.306C485.202 185.997 485.576 185.63 485.845 185.203V177.619H487.736V188H486.111L485.973 186.631C485.579 187.15 485.084 187.55 484.486 187.833C483.888 188.108 483.284 188.246 482.674 188.246C481.669 188.246 480.917 187.974 480.418 187.429C479.926 186.884 479.679 186.129 479.679 185.163V177.619H481.571ZM493.018 183.45C493.057 184.211 493.211 184.835 493.481 185.321C493.75 185.8 494.101 186.155 494.535 186.385C494.968 186.608 495.447 186.72 495.973 186.72C496.491 186.72 496.967 186.641 497.401 186.483C497.834 186.326 498.274 186.096 498.721 185.794L499.578 186.986C499.092 187.373 498.53 187.682 497.893 187.911C497.256 188.135 496.596 188.246 495.914 188.246C494.876 188.246 493.993 188.02 493.264 187.567C492.542 187.107 491.99 186.47 491.609 185.656C491.235 184.842 491.048 183.896 491.048 182.819C491.048 181.775 491.235 180.843 491.609 180.022C491.99 179.201 492.525 178.554 493.215 178.082C493.904 177.609 494.725 177.372 495.677 177.372C496.57 177.372 497.338 177.579 497.982 177.993C498.632 178.407 499.131 178.998 499.479 179.766C499.827 180.528 500.001 181.44 500.001 182.504C500.001 182.681 499.998 182.852 499.991 183.016C499.985 183.18 499.975 183.325 499.962 183.45H493.018ZM495.697 178.85C494.961 178.85 494.347 179.113 493.855 179.638C493.369 180.163 493.09 180.974 493.018 182.071H498.179C498.159 181.02 497.929 180.222 497.489 179.677C497.056 179.126 496.459 178.85 495.697 178.85Z" fill="black"/>
<path d="M314.316 92V81.6187H315.941L316.079 83.0173C316.506 82.4854 317.025 82.0783 317.635 81.796C318.253 81.5136 318.867 81.3724 319.477 81.3724C320.475 81.3724 321.211 81.6449 321.684 82.1899C322.156 82.7284 322.393 83.4802 322.393 84.4455V92H320.502V85.6077C320.502 84.9511 320.462 84.4192 320.383 84.0121C320.311 83.5984 320.157 83.2996 319.921 83.1158C319.684 82.9319 319.326 82.84 318.847 82.84C318.473 82.84 318.118 82.9221 317.783 83.0862C317.448 83.2504 317.146 83.4572 316.877 83.7068C316.614 83.9563 316.391 84.2156 316.207 84.4849V92H314.316ZM333.781 89.6164C333.781 90.0301 333.847 90.3322 333.978 90.5226C334.109 90.7064 334.316 90.8443 334.598 90.9363L334.155 92.2364C333.682 92.1773 333.272 92.0361 332.924 91.8129C332.576 91.5896 332.317 91.2482 332.146 90.7885C331.772 91.2679 331.299 91.6323 330.728 91.8818C330.156 92.1248 329.536 92.2462 328.866 92.2462C327.822 92.2462 326.998 91.9508 326.394 91.3598C325.79 90.7688 325.488 89.9907 325.488 89.0255C325.488 87.942 325.908 87.1114 326.748 86.5335C327.595 85.9557 328.81 85.6668 330.393 85.6668H331.9V84.8788C331.9 84.1631 331.686 83.6542 331.259 83.3522C330.839 83.0501 330.252 82.8991 329.496 82.8991C329.155 82.8991 328.748 82.9418 328.275 83.0271C327.802 83.1125 327.3 83.2471 326.768 83.431L326.285 82.052C326.929 81.8091 327.543 81.6351 328.127 81.53C328.718 81.425 329.27 81.3724 329.782 81.3724C331.122 81.3724 332.123 81.6778 332.786 82.2884C333.449 82.8925 333.781 83.7232 333.781 84.7803V89.6164ZM329.398 90.8279C329.884 90.8279 330.35 90.7032 330.797 90.4536C331.243 90.2041 331.611 89.8561 331.9 89.4096V86.898H330.521C329.424 86.898 328.646 87.0851 328.186 87.4594C327.727 87.8271 327.497 88.3327 327.497 88.9762C327.497 89.5803 327.655 90.04 327.97 90.3551C328.285 90.6703 328.761 90.8279 329.398 90.8279ZM344.923 81.3724C345.284 81.3724 345.619 81.4512 345.927 81.6088C346.236 81.7664 346.486 82.0553 346.676 82.4756C346.866 82.8892 346.962 83.4901 346.962 84.278V92H345.238V84.5538C345.238 83.9497 345.199 83.5163 345.12 83.2537C345.048 82.9845 344.837 82.8498 344.489 82.8498C344.201 82.8498 343.915 82.9385 343.633 83.1158C343.35 83.2931 343.071 83.5886 342.795 84.0022V92H341.141V84.5538C341.141 83.9497 341.101 83.5163 341.022 83.2537C340.95 82.9845 340.74 82.8498 340.392 82.8498C340.097 82.8498 339.808 82.9385 339.525 83.1158C339.25 83.2931 338.974 83.5886 338.698 84.0022V92H336.974V81.6187H338.432L338.55 82.7809C338.839 82.3738 339.158 82.0389 339.506 81.7763C339.86 81.507 340.29 81.3724 340.796 81.3724C341.19 81.3724 341.554 81.4676 341.889 81.6581C342.231 81.8485 342.48 82.2031 342.638 82.7218C342.92 82.3213 343.242 81.9962 343.603 81.7467C343.964 81.4972 344.404 81.3724 344.923 81.3724ZM351.278 87.4495C351.317 88.2112 351.472 88.835 351.741 89.3209C352.01 89.8003 352.361 90.1549 352.795 90.3847C353.228 90.6079 353.707 90.7196 354.233 90.7196C354.751 90.7196 355.228 90.6408 355.661 90.4832C356.094 90.3256 356.534 90.0958 356.981 89.7937L357.838 90.9855C357.352 91.3729 356.79 91.6815 356.153 91.9114C355.516 92.1346 354.857 92.2462 354.174 92.2462C353.136 92.2462 352.253 92.0197 351.524 91.5666C350.802 91.107 350.25 90.4701 349.869 89.6558C349.495 88.8416 349.308 87.8961 349.308 86.8192C349.308 85.7751 349.495 84.8427 349.869 84.0219C350.25 83.2011 350.785 82.5544 351.475 82.0816C352.164 81.6088 352.985 81.3724 353.937 81.3724C354.83 81.3724 355.599 81.5793 356.242 81.9929C356.892 82.4066 357.391 82.9976 357.739 83.7658C358.087 84.5275 358.261 85.4403 358.261 86.504C358.261 86.6813 358.258 86.852 358.251 87.0162C358.245 87.1803 358.235 87.3248 358.222 87.4495H351.278ZM353.957 82.8498C353.221 82.8498 352.608 83.1125 352.115 83.6378C351.629 84.1631 351.35 84.974 351.278 86.0706H356.439C356.419 85.02 356.189 84.2222 355.75 83.6772C355.316 83.1256 354.719 82.8498 353.957 82.8498ZM317.951 122.739C318.706 122.739 319.3 122.601 319.733 122.326C320.173 122.05 320.393 121.676 320.393 121.203C320.393 120.901 320.334 120.641 320.216 120.425C320.104 120.208 319.868 120.011 319.507 119.834C319.152 119.656 318.614 119.476 317.892 119.292C317.189 119.115 316.575 118.908 316.05 118.671C315.524 118.435 315.117 118.126 314.828 117.746C314.546 117.365 314.405 116.872 314.405 116.268C314.405 115.677 314.569 115.165 314.897 114.732C315.232 114.298 315.702 113.963 316.306 113.727C316.916 113.491 317.626 113.372 318.433 113.372C319.287 113.372 320.029 113.487 320.659 113.717C321.296 113.94 321.835 114.216 322.275 114.545L321.467 115.776C321.066 115.506 320.626 115.287 320.147 115.116C319.674 114.945 319.116 114.86 318.473 114.86C317.704 114.86 317.156 114.978 316.828 115.214C316.506 115.444 316.345 115.749 316.345 116.13C316.345 116.413 316.424 116.649 316.582 116.839C316.746 117.023 317.025 117.194 317.419 117.352C317.813 117.509 318.358 117.683 319.054 117.874C319.73 118.057 320.321 118.274 320.827 118.524C321.332 118.773 321.723 119.102 321.999 119.509C322.281 119.909 322.422 120.438 322.422 121.094C322.422 121.836 322.209 122.441 321.782 122.907C321.355 123.366 320.8 123.705 320.118 123.921C319.441 124.138 318.719 124.246 317.951 124.246C317.005 124.246 316.191 124.108 315.508 123.833C314.832 123.557 314.264 123.219 313.804 122.818L314.848 121.616C315.255 121.951 315.721 122.224 316.247 122.434C316.772 122.637 317.34 122.739 317.951 122.739ZM328.019 113.619V120.927C328.019 121.584 328.154 122.056 328.423 122.345C328.692 122.628 329.102 122.769 329.654 122.769C330.186 122.769 330.691 122.615 331.171 122.306C331.65 121.997 332.024 121.63 332.294 121.203V113.619H334.185V124H332.56L332.422 122.631C332.028 123.15 331.532 123.55 330.934 123.833C330.337 124.108 329.733 124.246 329.122 124.246C328.117 124.246 327.366 123.974 326.867 123.429C326.374 122.884 326.128 122.129 326.128 121.163V113.619H328.019ZM338.038 124V122.601H339.614V115.017H338.038V113.619H341.062L341.407 116.051C341.801 115.191 342.283 114.531 342.854 114.072C343.432 113.606 344.181 113.372 345.1 113.372C345.402 113.372 345.668 113.395 345.898 113.441C346.134 113.487 346.374 113.546 346.617 113.619L346.056 115.273C345.839 115.208 345.642 115.162 345.465 115.135C345.287 115.109 345.084 115.096 344.854 115.096C344.072 115.096 343.403 115.378 342.845 115.943C342.286 116.508 341.84 117.338 341.505 118.435V122.601H343.613V124H338.038ZM344.864 117.263V114.879L345.08 113.619H346.617L346.321 117.263H344.864ZM349.751 124V113.619H351.376L351.514 115.017C351.941 114.485 352.46 114.078 353.07 113.796C353.688 113.514 354.302 113.372 354.912 113.372C355.91 113.372 356.646 113.645 357.119 114.19C357.591 114.728 357.828 115.48 357.828 116.445V124H355.937V117.608C355.937 116.951 355.897 116.419 355.818 116.012C355.746 115.598 355.592 115.3 355.356 115.116C355.119 114.932 354.761 114.84 354.282 114.84C353.908 114.84 353.553 114.922 353.218 115.086C352.883 115.25 352.581 115.457 352.312 115.707C352.049 115.956 351.826 116.216 351.642 116.485V124H349.751ZM369.216 121.616C369.216 122.03 369.282 122.332 369.413 122.523C369.544 122.706 369.751 122.844 370.033 122.936L369.59 124.236C369.117 124.177 368.707 124.036 368.359 123.813C368.011 123.59 367.752 123.248 367.581 122.789C367.207 123.268 366.734 123.632 366.163 123.882C365.591 124.125 364.971 124.246 364.301 124.246C363.257 124.246 362.433 123.951 361.829 123.36C361.225 122.769 360.923 121.991 360.923 121.025C360.923 119.942 361.343 119.111 362.183 118.534C363.03 117.956 364.245 117.667 365.828 117.667H367.335V116.879C367.335 116.163 367.121 115.654 366.694 115.352C366.274 115.05 365.687 114.899 364.931 114.899C364.59 114.899 364.183 114.942 363.71 115.027C363.237 115.113 362.735 115.247 362.203 115.431L361.72 114.052C362.364 113.809 362.978 113.635 363.562 113.53C364.153 113.425 364.705 113.372 365.217 113.372C366.557 113.372 367.558 113.678 368.221 114.288C368.884 114.893 369.216 115.723 369.216 116.78V121.616ZM364.833 122.828C365.319 122.828 365.785 122.703 366.232 122.454C366.678 122.204 367.046 121.856 367.335 121.41V118.898H365.956C364.859 118.898 364.081 119.085 363.621 119.459C363.162 119.827 362.932 120.333 362.932 120.976C362.932 121.58 363.09 122.04 363.405 122.355C363.72 122.67 364.196 122.828 364.833 122.828ZM380.358 113.372C380.719 113.372 381.054 113.451 381.362 113.609C381.671 113.766 381.921 114.055 382.111 114.476C382.301 114.889 382.397 115.49 382.397 116.278V124H380.673V116.554C380.673 115.95 380.634 115.516 380.555 115.254C380.483 114.984 380.272 114.85 379.924 114.85C379.636 114.85 379.35 114.938 379.068 115.116C378.785 115.293 378.506 115.589 378.23 116.002V124H376.576V116.554C376.576 115.95 376.536 115.516 376.457 115.254C376.385 114.984 376.175 114.85 375.827 114.85C375.532 114.85 375.243 114.938 374.96 115.116C374.685 115.293 374.409 115.589 374.133 116.002V124H372.409V113.619H373.867L373.985 114.781C374.274 114.374 374.593 114.039 374.941 113.776C375.295 113.507 375.725 113.372 376.231 113.372C376.625 113.372 376.989 113.468 377.324 113.658C377.666 113.848 377.915 114.203 378.073 114.722C378.355 114.321 378.677 113.996 379.038 113.747C379.399 113.497 379.839 113.372 380.358 113.372ZM386.713 119.45C386.752 120.211 386.907 120.835 387.176 121.321C387.445 121.8 387.796 122.155 388.23 122.385C388.663 122.608 389.142 122.72 389.668 122.72C390.186 122.72 390.662 122.641 391.096 122.483C391.529 122.326 391.969 122.096 392.416 121.794L393.273 122.986C392.787 123.373 392.225 123.682 391.588 123.911C390.951 124.135 390.291 124.246 389.609 124.246C388.571 124.246 387.688 124.02 386.959 123.567C386.237 123.107 385.685 122.47 385.304 121.656C384.93 120.842 384.743 119.896 384.743 118.819C384.743 117.775 384.93 116.843 385.304 116.022C385.685 115.201 386.22 114.554 386.91 114.082C387.599 113.609 388.42 113.372 389.372 113.372C390.265 113.372 391.033 113.579 391.677 113.993C392.327 114.407 392.826 114.998 393.174 115.766C393.522 116.528 393.696 117.44 393.696 118.504C393.696 118.681 393.693 118.852 393.686 119.016C393.68 119.18 393.67 119.325 393.657 119.45H386.713ZM389.392 114.85C388.656 114.85 388.043 115.113 387.55 115.638C387.064 116.163 386.785 116.974 386.713 118.071H391.874C391.854 117.02 391.624 116.222 391.185 115.677C390.751 115.126 390.154 114.85 389.392 114.85ZM319.753 145.619V154.562H322.639V156H314.7V154.562H317.862V147.057H314.799V145.619H319.753ZM318.345 140.655C318.739 140.655 319.054 140.776 319.29 141.019C319.533 141.262 319.655 141.557 319.655 141.905C319.655 142.267 319.533 142.572 319.29 142.821C319.054 143.064 318.739 143.186 318.345 143.186C317.957 143.186 317.642 143.064 317.399 142.821C317.163 142.572 317.045 142.267 317.045 141.905C317.045 141.557 317.163 141.262 317.399 141.019C317.642 140.776 317.957 140.655 318.345 140.655ZM329.762 154.739C330.517 154.739 331.112 154.601 331.545 154.326C331.985 154.05 332.205 153.676 332.205 153.203C332.205 152.901 332.146 152.641 332.028 152.425C331.916 152.208 331.68 152.011 331.319 151.834C330.964 151.656 330.426 151.476 329.703 151.292C329.001 151.115 328.387 150.908 327.861 150.671C327.336 150.435 326.929 150.126 326.64 149.746C326.358 149.365 326.217 148.872 326.217 148.268C326.217 147.677 326.381 147.165 326.709 146.732C327.044 146.298 327.513 145.963 328.117 145.727C328.728 145.491 329.437 145.372 330.245 145.372C331.099 145.372 331.841 145.487 332.471 145.717C333.108 145.94 333.646 146.216 334.086 146.545L333.279 147.776C332.878 147.506 332.438 147.287 331.959 147.116C331.486 146.945 330.928 146.86 330.284 146.86C329.516 146.86 328.968 146.978 328.639 147.214C328.318 147.444 328.157 147.749 328.157 148.13C328.157 148.413 328.236 148.649 328.393 148.839C328.557 149.023 328.836 149.194 329.23 149.352C329.624 149.509 330.169 149.683 330.865 149.874C331.542 150.057 332.133 150.274 332.638 150.524C333.144 150.773 333.535 151.102 333.81 151.509C334.093 151.909 334.234 152.438 334.234 153.094C334.234 153.836 334.021 154.441 333.594 154.907C333.167 155.366 332.612 155.705 331.929 155.921C331.253 156.138 330.531 156.246 329.762 156.246C328.817 156.246 328.003 156.108 327.32 155.833C326.643 155.557 326.075 155.219 325.616 154.818L326.66 153.616C327.067 153.951 327.533 154.224 328.058 154.434C328.584 154.637 329.152 154.739 329.762 154.739ZM344.943 149.145C344.943 148.002 344.824 147.09 344.588 146.407C344.352 145.717 344.04 145.198 343.652 144.85C343.271 144.502 342.848 144.269 342.382 144.151C341.922 144.033 341.462 143.974 341.003 143.974H339.555V154.473H341.022C341.502 154.473 341.975 154.398 342.441 154.247C342.907 154.096 343.327 153.827 343.701 153.439C344.076 153.052 344.375 152.51 344.598 151.814C344.828 151.118 344.943 150.228 344.943 149.145ZM347.011 149.145C347.011 150.274 346.889 151.236 346.646 152.031C346.41 152.825 346.082 153.482 345.662 154.001C345.248 154.519 344.775 154.926 344.243 155.222C343.711 155.511 343.15 155.714 342.559 155.833C341.968 155.944 341.384 156 340.806 156H337.605V142.427H340.589C341.39 142.427 342.172 142.516 342.933 142.693C343.701 142.864 344.391 143.189 345.002 143.668C345.619 144.148 346.108 144.827 346.469 145.707C346.83 146.587 347.011 147.733 347.011 149.145ZM351.278 151.45C351.317 152.211 351.472 152.835 351.741 153.321C352.01 153.8 352.361 154.155 352.795 154.385C353.228 154.608 353.707 154.72 354.233 154.72C354.751 154.72 355.228 154.641 355.661 154.483C356.094 154.326 356.534 154.096 356.981 153.794L357.838 154.986C357.352 155.373 356.79 155.682 356.153 155.911C355.516 156.135 354.857 156.246 354.174 156.246C353.136 156.246 352.253 156.02 351.524 155.567C350.802 155.107 350.25 154.47 349.869 153.656C349.495 152.842 349.308 151.896 349.308 150.819C349.308 149.775 349.495 148.843 349.869 148.022C350.25 147.201 350.785 146.554 351.475 146.082C352.164 145.609 352.985 145.372 353.937 145.372C354.83 145.372 355.599 145.579 356.242 145.993C356.892 146.407 357.391 146.998 357.739 147.766C358.087 148.528 358.261 149.44 358.261 150.504C358.261 150.681 358.258 150.852 358.251 151.016C358.245 151.18 358.235 151.325 358.222 151.45H351.278ZM353.957 146.85C353.221 146.85 352.608 147.113 352.115 147.638C351.629 148.163 351.35 148.974 351.278 150.071H356.439C356.419 149.02 356.189 148.222 355.75 147.677C355.316 147.126 354.719 146.85 353.957 146.85ZM370.408 145.619L366.685 156H364.478L360.775 145.619H362.784L365.631 154.355L368.467 145.619H370.408ZM374.901 151.45C374.941 152.211 375.095 152.835 375.364 153.321C375.633 153.8 375.985 154.155 376.418 154.385C376.851 154.608 377.331 154.72 377.856 154.72C378.375 154.72 378.851 154.641 379.284 154.483C379.718 154.326 380.158 154.096 380.604 153.794L381.461 154.986C380.975 155.373 380.414 155.682 379.777 155.911C379.14 156.135 378.48 156.246 377.797 156.246C376.759 156.246 375.876 156.02 375.147 155.567C374.425 155.107 373.874 154.47 373.493 153.656C373.118 152.842 372.931 151.896 372.931 150.819C372.931 149.775 373.118 148.843 373.493 148.022C373.874 147.201 374.409 146.554 375.098 146.082C375.788 145.609 376.608 145.372 377.561 145.372C378.454 145.372 379.222 145.579 379.865 145.993C380.515 146.407 381.014 146.998 381.362 147.766C381.71 148.528 381.884 149.44 381.884 150.504C381.884 150.681 381.881 150.852 381.875 151.016C381.868 151.18 381.858 151.325 381.845 151.45H374.901ZM377.58 146.85C376.845 146.85 376.231 147.113 375.738 147.638C375.252 148.163 374.973 148.974 374.901 150.071H380.062C380.043 149.02 379.813 148.222 379.373 147.677C378.939 147.126 378.342 146.85 377.58 146.85ZM389.451 141.442V153.321C389.451 153.82 389.605 154.175 389.914 154.385C390.223 154.588 390.62 154.69 391.106 154.69C391.414 154.69 391.707 154.657 391.982 154.592C392.258 154.526 392.534 154.441 392.81 154.335L393.302 155.685C393.013 155.829 392.652 155.957 392.219 156.069C391.785 156.187 391.296 156.246 390.751 156.246C389.779 156.246 389.004 155.974 388.427 155.429C387.849 154.884 387.56 154.135 387.56 153.183V142.881H384.398V141.442H389.451ZM401.046 145.372C402.037 145.372 402.868 145.596 403.538 146.042C404.214 146.489 404.723 147.119 405.065 147.933C405.413 148.741 405.587 149.696 405.587 150.799C405.587 151.87 405.409 152.815 405.055 153.636C404.707 154.45 404.195 155.091 403.518 155.557C402.842 156.016 402.011 156.246 401.026 156.246C400.041 156.246 399.207 156.023 398.525 155.576C397.848 155.13 397.336 154.5 396.988 153.685C396.64 152.871 396.466 151.916 396.466 150.819C396.466 149.742 396.64 148.797 396.988 147.983C397.343 147.162 397.861 146.522 398.544 146.062C399.227 145.602 400.061 145.372 401.046 145.372ZM401.046 146.879C400.192 146.879 399.549 147.201 399.115 147.845C398.682 148.482 398.465 149.473 398.465 150.819C398.465 152.152 398.679 153.14 399.106 153.784C399.532 154.421 400.173 154.739 401.026 154.739C401.88 154.739 402.52 154.421 402.947 153.784C403.374 153.14 403.587 152.146 403.587 150.799C403.587 149.46 403.374 148.472 402.947 147.835C402.527 147.198 401.893 146.879 401.046 146.879ZM413.636 145.372C414.555 145.372 415.29 145.599 415.842 146.052C416.394 146.499 416.791 147.129 417.034 147.943C417.277 148.751 417.398 149.703 417.398 150.799C417.398 151.85 417.25 152.786 416.955 153.607C416.66 154.427 416.216 155.074 415.625 155.547C415.034 156.013 414.292 156.246 413.399 156.246C412.277 156.246 411.377 155.852 410.701 155.064V159.979L408.81 160.206V145.619H410.435L410.573 147.017C410.96 146.485 411.416 146.078 411.942 145.796C412.467 145.514 413.032 145.372 413.636 145.372ZM413.153 146.86C412.615 146.86 412.139 147.024 411.725 147.352C411.311 147.674 410.97 148.042 410.701 148.455V153.479C410.963 153.866 411.285 154.171 411.666 154.395C412.047 154.611 412.47 154.72 412.936 154.72C413.751 154.72 414.365 154.404 414.778 153.774C415.192 153.137 415.399 152.146 415.399 150.799C415.399 149.9 415.317 149.161 415.153 148.583C414.988 147.999 414.739 147.566 414.404 147.283C414.076 147.001 413.659 146.86 413.153 146.86ZM422.148 151.45C422.187 152.211 422.342 152.835 422.611 153.321C422.88 153.8 423.231 154.155 423.665 154.385C424.098 154.608 424.577 154.72 425.103 154.72C425.621 154.72 426.097 154.641 426.531 154.483C426.964 154.326 427.404 154.096 427.851 153.794L428.708 154.986C428.222 155.373 427.66 155.682 427.023 155.911C426.386 156.135 425.726 156.246 425.044 156.246C424.006 156.246 423.123 156.02 422.394 155.567C421.672 155.107 421.12 154.47 420.739 153.656C420.365 152.842 420.178 151.896 420.178 150.819C420.178 149.775 420.365 148.843 420.739 148.022C421.12 147.201 421.655 146.554 422.345 146.082C423.034 145.609 423.855 145.372 424.807 145.372C425.7 145.372 426.468 145.579 427.112 145.993C427.762 146.407 428.261 146.998 428.609 147.766C428.957 148.528 429.131 149.44 429.131 150.504C429.131 150.681 429.128 150.852 429.121 151.016C429.115 151.18 429.105 151.325 429.092 151.45H422.148ZM424.827 146.85C424.091 146.85 423.478 147.113 422.985 147.638C422.499 148.163 422.22 148.974 422.148 150.071H427.309C427.289 149.02 427.059 148.222 426.619 147.677C426.186 147.126 425.589 146.85 424.827 146.85ZM432.531 156V154.601H434.107V147.017H432.531V145.619H435.555L435.9 148.051C436.294 147.191 436.776 146.531 437.348 146.072C437.926 145.606 438.674 145.372 439.593 145.372C439.895 145.372 440.161 145.395 440.391 145.441C440.628 145.487 440.867 145.546 441.11 145.619L440.549 147.273C440.332 147.208 440.135 147.162 439.958 147.135C439.781 147.109 439.577 147.096 439.347 147.096C438.566 147.096 437.896 147.378 437.338 147.943C436.78 148.508 436.333 149.338 435.998 150.435V154.601H438.106V156H432.531ZM439.357 149.263V146.879L439.574 145.619H441.11L440.815 149.263H439.357ZM319.753 177.619V186.562H322.639V188H314.7V186.562H317.862V179.057H314.799V177.619H319.753ZM318.345 172.655C318.739 172.655 319.054 172.776 319.29 173.019C319.533 173.262 319.655 173.557 319.655 173.905C319.655 174.267 319.533 174.572 319.29 174.821C319.054 175.064 318.739 175.186 318.345 175.186C317.957 175.186 317.642 175.064 317.399 174.821C317.163 174.572 317.045 174.267 317.045 173.905C317.045 173.557 317.163 173.262 317.399 173.019C317.642 172.776 317.957 172.655 318.345 172.655ZM329.762 186.739C330.517 186.739 331.112 186.601 331.545 186.326C331.985 186.05 332.205 185.676 332.205 185.203C332.205 184.901 332.146 184.641 332.028 184.425C331.916 184.208 331.68 184.011 331.319 183.834C330.964 183.656 330.426 183.476 329.703 183.292C329.001 183.115 328.387 182.908 327.861 182.671C327.336 182.435 326.929 182.126 326.64 181.746C326.358 181.365 326.217 180.872 326.217 180.268C326.217 179.677 326.381 179.165 326.709 178.732C327.044 178.298 327.513 177.963 328.117 177.727C328.728 177.491 329.437 177.372 330.245 177.372C331.099 177.372 331.841 177.487 332.471 177.717C333.108 177.94 333.646 178.216 334.086 178.545L333.279 179.776C332.878 179.506 332.438 179.287 331.959 179.116C331.486 178.945 330.928 178.86 330.284 178.86C329.516 178.86 328.968 178.978 328.639 179.214C328.318 179.444 328.157 179.749 328.157 180.13C328.157 180.413 328.236 180.649 328.393 180.839C328.557 181.023 328.836 181.194 329.23 181.352C329.624 181.509 330.169 181.683 330.865 181.874C331.542 182.057 332.133 182.274 332.638 182.524C333.144 182.773 333.535 183.102 333.81 183.509C334.093 183.909 334.234 184.438 334.234 185.094C334.234 185.836 334.021 186.441 333.594 186.907C333.167 187.366 332.612 187.705 331.929 187.921C331.253 188.138 330.531 188.246 329.762 188.246C328.817 188.246 328.003 188.108 327.32 187.833C326.643 187.557 326.075 187.219 325.616 186.818L326.66 185.616C327.067 185.951 327.533 186.224 328.058 186.434C328.584 186.637 329.152 186.739 329.762 186.739ZM344.943 181.145C344.943 180.002 344.824 179.09 344.588 178.407C344.352 177.717 344.04 177.198 343.652 176.85C343.271 176.502 342.848 176.269 342.382 176.151C341.922 176.033 341.462 175.974 341.003 175.974H339.555V186.473H341.022C341.502 186.473 341.975 186.398 342.441 186.247C342.907 186.096 343.327 185.827 343.701 185.439C344.076 185.052 344.375 184.51 344.598 183.814C344.828 183.118 344.943 182.228 344.943 181.145ZM347.011 181.145C347.011 182.274 346.889 183.236 346.646 184.031C346.41 184.825 346.082 185.482 345.662 186.001C345.248 186.519 344.775 186.926 344.243 187.222C343.711 187.511 343.15 187.714 342.559 187.833C341.968 187.944 341.384 188 340.806 188H337.605V174.427H340.589C341.39 174.427 342.172 174.516 342.933 174.693C343.701 174.864 344.391 175.189 345.002 175.668C345.619 176.148 346.108 176.827 346.469 177.707C346.83 178.587 347.011 179.733 347.011 181.145ZM351.278 183.45C351.317 184.211 351.472 184.835 351.741 185.321C352.01 185.8 352.361 186.155 352.795 186.385C353.228 186.608 353.707 186.72 354.233 186.72C354.751 186.72 355.228 186.641 355.661 186.483C356.094 186.326 356.534 186.096 356.981 185.794L357.838 186.986C357.352 187.373 356.79 187.682 356.153 187.911C355.516 188.135 354.857 188.246 354.174 188.246C353.136 188.246 352.253 188.02 351.524 187.567C350.802 187.107 350.25 186.47 349.869 185.656C349.495 184.842 349.308 183.896 349.308 182.819C349.308 181.775 349.495 180.843 349.869 180.022C350.25 179.201 350.785 178.554 351.475 178.082C352.164 177.609 352.985 177.372 353.937 177.372C354.83 177.372 355.599 177.579 356.242 177.993C356.892 178.407 357.391 178.998 357.739 179.766C358.087 180.528 358.261 181.44 358.261 182.504C358.261 182.681 358.258 182.852 358.251 183.016C358.245 183.18 358.235 183.325 358.222 183.45H351.278ZM353.957 178.85C353.221 178.85 352.608 179.113 352.115 179.638C351.629 180.163 351.35 180.974 351.278 182.071H356.439C356.419 181.02 356.189 180.222 355.75 179.677C355.316 179.126 354.719 178.85 353.957 178.85ZM365.197 186.739C365.952 186.739 366.547 186.601 366.98 186.326C367.42 186.05 367.64 185.676 367.64 185.203C367.64 184.901 367.581 184.641 367.463 184.425C367.351 184.208 367.115 184.011 366.754 183.834C366.399 183.656 365.861 183.476 365.138 183.292C364.436 183.115 363.822 182.908 363.296 182.671C362.771 182.435 362.364 182.126 362.075 181.746C361.793 181.365 361.652 180.872 361.652 180.268C361.652 179.677 361.816 179.165 362.144 178.732C362.479 178.298 362.948 177.963 363.552 177.727C364.163 177.491 364.872 177.372 365.68 177.372C366.534 177.372 367.276 177.487 367.906 177.717C368.543 177.94 369.081 178.216 369.521 178.545L368.714 179.776C368.313 179.506 367.873 179.287 367.394 179.116C366.921 178.945 366.363 178.86 365.719 178.86C364.951 178.86 364.403 178.978 364.074 179.214C363.753 179.444 363.592 179.749 363.592 180.13C363.592 180.413 363.671 180.649 363.828 180.839C363.992 181.023 364.271 181.194 364.665 181.352C365.059 181.509 365.604 181.683 366.3 181.874C366.977 182.057 367.568 182.274 368.073 182.524C368.579 182.773 368.97 183.102 369.245 183.509C369.528 183.909 369.669 184.438 369.669 185.094C369.669 185.836 369.456 186.441 369.029 186.907C368.602 187.366 368.047 187.705 367.364 187.921C366.688 188.138 365.966 188.246 365.197 188.246C364.252 188.246 363.438 188.108 362.755 187.833C362.078 187.557 361.51 187.219 361.051 186.818L362.095 185.616C362.502 185.951 362.968 186.224 363.493 186.434C364.019 186.637 364.587 186.739 365.197 186.739ZM378.811 177.619V186.562H381.697V188H373.759V186.562H376.92V179.057H373.857V177.619H378.811ZM377.403 172.655C377.797 172.655 378.112 172.776 378.349 173.019C378.591 173.262 378.713 173.557 378.713 173.905C378.713 174.267 378.591 174.572 378.349 174.821C378.112 175.064 377.797 175.186 377.403 175.186C377.016 175.186 376.7 175.064 376.457 174.821C376.221 174.572 376.103 174.267 376.103 173.905C376.103 173.557 376.221 173.262 376.457 173.019C376.7 172.776 377.016 172.655 377.403 172.655ZM393.755 176.417L394.307 178.091C393.873 178.229 393.407 178.318 392.908 178.357C392.416 178.397 391.871 178.416 391.273 178.416C391.884 178.692 392.343 179.047 392.652 179.48C392.961 179.914 393.115 180.432 393.115 181.036C393.115 181.719 392.954 182.327 392.632 182.859C392.317 183.39 391.861 183.807 391.263 184.109C390.672 184.412 389.96 184.563 389.126 184.563C388.798 184.563 388.519 184.549 388.289 184.523C388.066 184.49 387.846 184.441 387.629 184.375C387.484 184.474 387.363 184.609 387.264 184.779C387.172 184.95 387.127 185.131 387.127 185.321C387.127 185.551 387.218 185.748 387.402 185.912C387.586 186.07 387.944 186.148 388.476 186.148H390.318C391.033 186.148 391.67 186.273 392.229 186.523C392.793 186.772 393.236 187.11 393.558 187.537C393.88 187.964 394.041 188.45 394.041 188.995C394.041 190.026 393.601 190.817 392.721 191.369C391.841 191.927 390.594 192.206 388.978 192.206C387.836 192.206 386.936 192.088 386.279 191.851C385.629 191.615 385.166 191.263 384.891 190.797C384.621 190.331 384.487 189.747 384.487 189.044H386.191C386.191 189.431 386.266 189.75 386.417 189.999C386.568 190.249 386.844 190.436 387.245 190.561C387.645 190.686 388.223 190.748 388.978 190.748C389.727 190.748 390.331 190.686 390.791 190.561C391.25 190.436 391.588 190.252 391.805 190.009C392.022 189.766 392.13 189.471 392.13 189.123C392.13 188.663 391.923 188.312 391.51 188.069C391.096 187.826 390.567 187.705 389.924 187.705H388.102C387.169 187.705 386.483 187.508 386.043 187.114C385.61 186.713 385.393 186.253 385.393 185.735C385.393 185.393 385.488 185.062 385.679 184.74C385.876 184.418 386.161 184.136 386.536 183.893C385.931 183.571 385.485 183.177 385.196 182.711C384.914 182.245 384.773 181.677 384.773 181.007C384.773 180.291 384.95 179.661 385.304 179.116C385.666 178.571 386.165 178.144 386.801 177.835C387.438 177.527 388.171 177.372 388.998 177.372C389.858 177.372 390.561 177.333 391.106 177.254C391.657 177.169 392.133 177.057 392.534 176.919C392.941 176.775 393.348 176.607 393.755 176.417ZM389.008 178.712C388.233 178.712 387.655 178.929 387.274 179.362C386.893 179.789 386.703 180.337 386.703 181.007C386.703 181.683 386.897 182.238 387.284 182.671C387.672 183.098 388.259 183.312 389.047 183.312C389.743 183.312 390.275 183.111 390.643 182.711C391.011 182.304 391.194 181.729 391.194 180.987C391.194 180.239 391.011 179.674 390.643 179.293C390.275 178.906 389.73 178.712 389.008 178.712ZM396.998 188V177.619H398.623L398.761 179.017C399.188 178.485 399.706 178.078 400.317 177.796C400.934 177.514 401.548 177.372 402.159 177.372C403.157 177.372 403.892 177.645 404.365 178.19C404.838 178.728 405.074 179.48 405.074 180.445V188H403.183V181.608C403.183 180.951 403.144 180.419 403.065 180.012C402.993 179.598 402.839 179.3 402.602 179.116C402.366 178.932 402.008 178.84 401.529 178.84C401.154 178.84 400.8 178.922 400.465 179.086C400.13 179.25 399.828 179.457 399.559 179.707C399.296 179.956 399.073 180.216 398.889 180.485V188H396.998ZM410.336 183.45C410.376 184.211 410.53 184.835 410.799 185.321C411.068 185.8 411.42 186.155 411.853 186.385C412.286 186.608 412.766 186.72 413.291 186.72C413.81 186.72 414.286 186.641 414.719 186.483C415.153 186.326 415.592 186.096 416.039 185.794L416.896 186.986C416.41 187.373 415.849 187.682 415.212 187.911C414.575 188.135 413.915 188.246 413.232 188.246C412.194 188.246 411.311 188.02 410.582 187.567C409.86 187.107 409.309 186.47 408.928 185.656C408.553 184.842 408.366 183.896 408.366 182.819C408.366 181.775 408.553 180.843 408.928 180.022C409.309 179.201 409.844 178.554 410.533 178.082C411.223 177.609 412.043 177.372 412.996 177.372C413.889 177.372 414.657 177.579 415.3 177.993C415.95 178.407 416.449 178.998 416.797 179.766C417.145 180.528 417.319 181.44 417.319 182.504C417.319 182.681 417.316 182.852 417.31 183.016C417.303 183.18 417.293 183.325 417.28 183.45H410.336ZM413.015 178.85C412.28 178.85 411.666 179.113 411.173 179.638C410.687 180.163 410.408 180.974 410.336 182.071H415.497C415.478 181.02 415.248 180.222 414.808 179.677C414.374 179.126 413.777 178.85 413.015 178.85ZM420.72 188V186.601H422.296V179.017H420.72V177.619H423.743L424.088 180.051C424.482 179.191 424.965 178.531 425.536 178.072C426.114 177.606 426.862 177.372 427.782 177.372C428.084 177.372 428.35 177.395 428.58 177.441C428.816 177.487 429.056 177.546 429.299 177.619L428.737 179.273C428.52 179.208 428.323 179.162 428.146 179.135C427.969 179.109 427.765 179.096 427.535 179.096C426.754 179.096 426.084 179.378 425.526 179.943C424.968 180.508 424.522 181.338 424.187 182.435V186.601H426.294V188H420.72ZM427.545 181.263V178.879L427.762 177.619H429.299L429.003 181.263H427.545Z" fill="#A50665"/>
<path d="M279.876 203.532C280.487 203.532 281.055 203.584 281.58 203.689C282.105 203.788 282.562 203.955 282.949 204.192C283.336 204.428 283.622 204.75 283.806 205.157C283.996 205.564 284.059 206.076 283.993 206.693L283.609 210.298C283.563 210.758 283.625 211.139 283.796 211.441C283.973 211.743 284.282 211.969 284.722 212.12C285.168 212.271 285.776 212.347 286.544 212.347V213.864C285.782 213.864 285.178 213.943 284.732 214.1C284.285 214.251 283.973 214.481 283.796 214.79C283.625 215.092 283.563 215.469 283.609 215.922L283.993 219.517C284.059 220.135 283.996 220.647 283.806 221.054C283.622 221.461 283.336 221.783 282.949 222.019C282.568 222.262 282.112 222.433 281.58 222.531C281.055 222.63 280.487 222.679 279.876 222.679V221.241C280.349 221.241 280.769 221.195 281.137 221.103C281.511 221.018 281.8 220.863 282.004 220.64C282.207 220.417 282.289 220.112 282.25 219.724L281.856 215.863C281.797 215.253 281.839 214.763 281.984 214.396C282.128 214.021 282.375 213.736 282.723 213.539C283.071 213.342 283.524 213.204 284.082 213.125C283.537 213.033 283.087 212.882 282.732 212.672C282.384 212.455 282.135 212.16 281.984 211.786C281.839 211.411 281.797 210.932 281.856 210.348L282.25 206.487C282.289 206.099 282.207 205.797 282.004 205.58C281.8 205.357 281.511 205.2 281.137 205.108C280.769 205.016 280.349 204.97 279.876 204.97V203.532Z" fill="#0A9EF1"/>
<path d="M67.7075 347.651C68.2131 347.651 68.6826 347.565 69.116 347.395C69.5559 347.224 69.9663 347.007 70.3471 346.744L71.2533 347.976C70.8002 348.363 70.2519 348.672 69.6084 348.902C68.9649 349.131 68.3214 349.246 67.6779 349.246C66.6339 349.246 65.7409 349.023 64.9989 348.576C64.2635 348.13 63.702 347.503 63.3146 346.695C62.9272 345.888 62.7335 344.942 62.7335 343.859C62.7335 342.808 62.9272 341.869 63.3146 341.042C63.7086 340.214 64.2766 339.564 65.0186 339.091C65.7606 338.612 66.6569 338.372 67.7075 338.372C68.3904 338.372 69.024 338.477 69.6084 338.688C70.1994 338.891 70.7411 339.193 71.2336 339.594L70.3373 340.825C69.9105 340.529 69.4804 340.306 69.047 340.155C68.6136 339.998 68.1704 339.919 67.7173 339.919C66.8506 339.919 66.1414 340.241 65.5898 340.884C65.0383 341.528 64.7625 342.519 64.7625 343.859C64.7625 344.752 64.8873 345.477 65.1368 346.035C65.3929 346.593 65.7442 347.004 66.1907 347.266C66.6372 347.523 67.1428 347.651 67.7075 347.651ZM78.741 338.372C79.7325 338.372 80.5632 338.596 81.233 339.042C81.9093 339.489 82.4182 340.119 82.7596 340.933C83.1076 341.741 83.2816 342.696 83.2816 343.799C83.2816 344.87 83.1043 345.815 82.7498 346.636C82.4018 347.45 81.8896 348.091 81.2133 348.557C80.5369 349.016 79.7063 349.246 78.7213 349.246C77.7364 349.246 76.9025 349.023 76.2196 348.576C75.5432 348.13 75.0311 347.5 74.6831 346.685C74.335 345.871 74.161 344.916 74.161 343.819C74.161 342.742 74.335 341.797 74.6831 340.983C75.0376 340.162 75.5564 339.522 76.2393 339.062C76.9222 338.602 77.7561 338.372 78.741 338.372ZM78.741 339.879C77.8874 339.879 77.2439 340.201 76.8105 340.845C76.3772 341.482 76.1605 342.473 76.1605 343.819C76.1605 345.152 76.3739 346.14 76.8007 346.784C77.2275 347.421 77.8677 347.739 78.7213 347.739C79.575 347.739 80.2152 347.421 80.642 346.784C81.0688 346.14 81.2822 345.146 81.2822 343.799C81.2822 342.46 81.0688 341.472 80.642 340.835C80.2217 340.198 79.5881 339.879 78.741 339.879ZM86.5046 349V338.619H88.1297L88.2676 340.017C88.6944 339.485 89.2132 339.078 89.8238 338.796C90.4411 338.514 91.055 338.372 91.6657 338.372C92.6638 338.372 93.3992 338.645 93.872 339.19C94.3447 339.728 94.5811 340.48 94.5811 341.445V349H92.69V342.608C92.69 341.951 92.6506 341.419 92.5718 341.012C92.4996 340.598 92.3453 340.3 92.1089 340.116C91.8725 339.932 91.5147 339.84 91.0353 339.84C90.661 339.84 90.3065 339.922 89.9716 340.086C89.6367 340.25 89.3346 340.457 89.0654 340.707C88.8028 340.956 88.5795 341.216 88.3957 341.485V349H86.5046ZM101.951 347.739C102.706 347.739 103.3 347.601 103.733 347.326C104.173 347.05 104.393 346.676 104.393 346.203C104.393 345.901 104.334 345.641 104.216 345.425C104.104 345.208 103.868 345.011 103.507 344.834C103.152 344.656 102.614 344.476 101.892 344.292C101.189 344.115 100.575 343.908 100.05 343.671C99.5244 343.435 99.1173 343.126 98.8284 342.746C98.546 342.365 98.4049 341.872 98.4049 341.268C98.4049 340.677 98.569 340.165 98.8973 339.732C99.2322 339.298 99.7017 338.963 100.306 338.727C100.916 338.491 101.626 338.372 102.433 338.372C103.287 338.372 104.029 338.487 104.659 338.717C105.296 338.94 105.835 339.216 106.275 339.545L105.467 340.776C105.066 340.506 104.626 340.287 104.147 340.116C103.674 339.945 103.116 339.86 102.473 339.86C101.704 339.86 101.156 339.978 100.828 340.214C100.506 340.444 100.345 340.749 100.345 341.13C100.345 341.413 100.424 341.649 100.582 341.839C100.746 342.023 101.025 342.194 101.419 342.352C101.813 342.509 102.358 342.683 103.054 342.874C103.73 343.057 104.321 343.274 104.827 343.524C105.332 343.773 105.723 344.102 105.999 344.509C106.281 344.909 106.422 345.438 106.422 346.094C106.422 346.836 106.209 347.441 105.782 347.907C105.355 348.366 104.8 348.705 104.118 348.921C103.441 349.138 102.719 349.246 101.951 349.246C101.005 349.246 100.191 349.108 99.508 348.833C98.8317 348.557 98.2637 348.219 97.8041 347.818L98.8481 346.616C99.2552 346.951 99.7214 347.224 100.247 347.434C100.772 347.637 101.34 347.739 101.951 347.739ZM118.559 348.468C118.191 348.705 117.748 348.892 117.229 349.03C116.711 349.174 116.192 349.246 115.673 349.246C114.517 349.246 113.631 348.944 113.014 348.34C112.403 347.736 112.098 346.951 112.098 345.986V340.037H109.744V338.619H112.098V336.274L113.989 336.048V338.619H117.535L117.318 340.037H113.989V345.966C113.989 346.538 114.133 346.968 114.422 347.257C114.718 347.546 115.207 347.69 115.89 347.69C116.277 347.69 116.632 347.644 116.954 347.552C117.275 347.46 117.574 347.342 117.85 347.198L118.559 348.468Z" fill="#A50665"/>
<path d="M248.024 340.175V341.77H240.145V340.175H248.024ZM248.024 343.977V345.572H240.145V343.977H248.024ZM106.925 399.427V408.578C106.925 409.497 106.738 410.308 106.363 411.01C105.996 411.706 105.467 412.255 104.777 412.655C104.095 413.049 103.277 413.246 102.325 413.246C101.366 413.246 100.545 413.049 99.8626 412.655C99.1797 412.261 98.6577 411.713 98.2965 411.01C97.9419 410.308 97.7647 409.497 97.7647 408.578V399.427H99.7148V408.43C99.7148 409.494 99.9348 410.291 100.375 410.823C100.815 411.355 101.465 411.621 102.325 411.621C103.198 411.621 103.855 411.355 104.295 410.823C104.735 410.291 104.955 409.494 104.955 408.43V399.427H106.925ZM118.126 399.427V400.954H115.141V411.463H118.126V413H110.187V411.463H113.171V400.954H110.187V399.427H118.126ZM140.754 406.145C140.754 405.002 140.636 404.09 140.4 403.407C140.163 402.717 139.851 402.198 139.464 401.85C139.083 401.502 138.66 401.269 138.193 401.151C137.734 401.033 137.274 400.974 136.814 400.974H135.367V411.473H136.834C137.313 411.473 137.786 411.398 138.252 411.247C138.719 411.096 139.139 410.827 139.513 410.439C139.887 410.052 140.186 409.51 140.409 408.814C140.639 408.118 140.754 407.228 140.754 406.145ZM142.823 406.145C142.823 407.274 142.701 408.236 142.458 409.031C142.222 409.825 141.893 410.482 141.473 411.001C141.06 411.519 140.587 411.926 140.055 412.222C139.523 412.511 138.962 412.714 138.371 412.833C137.78 412.944 137.195 413 136.617 413H133.416V399.427H136.401C137.202 399.427 137.983 399.516 138.745 399.693C139.513 399.864 140.203 400.189 140.813 400.668C141.431 401.148 141.92 401.827 142.281 402.707C142.642 403.587 142.823 404.733 142.823 406.145ZM147.09 408.45C147.129 409.211 147.283 409.835 147.552 410.321C147.822 410.8 148.173 411.155 148.606 411.385C149.04 411.608 149.519 411.72 150.044 411.72C150.563 411.72 151.039 411.641 151.473 411.483C151.906 411.326 152.346 411.096 152.792 410.794L153.649 411.986C153.163 412.373 152.602 412.682 151.965 412.911C151.328 413.135 150.668 413.246 149.985 413.246C148.948 413.246 148.065 413.02 147.336 412.567C146.613 412.107 146.062 411.47 145.681 410.656C145.307 409.842 145.12 408.896 145.12 407.819C145.12 406.775 145.307 405.843 145.681 405.022C146.062 404.201 146.597 403.554 147.287 403.082C147.976 402.609 148.797 402.372 149.749 402.372C150.642 402.372 151.41 402.579 152.054 402.993C152.704 403.407 153.203 403.998 153.551 404.766C153.899 405.528 154.073 406.44 154.073 407.504C154.073 407.681 154.07 407.852 154.063 408.016C154.056 408.18 154.047 408.325 154.033 408.45H147.09ZM149.769 403.85C149.033 403.85 148.419 404.113 147.927 404.638C147.441 405.163 147.162 405.974 147.09 407.071H152.251C152.231 406.02 152.001 405.222 151.561 404.677C151.128 404.126 150.53 403.85 149.769 403.85ZM161.009 411.739C161.764 411.739 162.358 411.601 162.792 411.326C163.232 411.05 163.452 410.676 163.452 410.203C163.452 409.901 163.393 409.641 163.274 409.425C163.163 409.208 162.926 409.011 162.565 408.834C162.211 408.656 161.672 408.476 160.95 408.292C160.247 408.115 159.633 407.908 159.108 407.671C158.583 407.435 158.176 407.126 157.887 406.746C157.604 406.365 157.463 405.872 157.463 405.268C157.463 404.677 157.627 404.165 157.956 403.732C158.291 403.298 158.76 402.963 159.364 402.727C159.975 402.491 160.684 402.372 161.492 402.372C162.345 402.372 163.087 402.487 163.718 402.717C164.355 402.94 164.893 403.216 165.333 403.545L164.525 404.776C164.125 404.506 163.685 404.287 163.205 404.116C162.733 403.945 162.174 403.86 161.531 403.86C160.763 403.86 160.214 403.978 159.886 404.214C159.564 404.444 159.404 404.749 159.404 405.13C159.404 405.413 159.482 405.649 159.64 405.839C159.804 406.023 160.083 406.194 160.477 406.352C160.871 406.509 161.416 406.683 162.112 406.874C162.788 407.057 163.379 407.274 163.885 407.524C164.391 407.773 164.781 408.102 165.057 408.509C165.339 408.909 165.481 409.438 165.481 410.094C165.481 410.836 165.267 411.441 164.84 411.907C164.414 412.366 163.859 412.705 163.176 412.921C162.5 413.138 161.777 413.246 161.009 413.246C160.063 413.246 159.249 413.108 158.566 412.833C157.89 412.557 157.322 412.219 156.862 411.818L157.906 410.616C158.314 410.951 158.78 411.224 159.305 411.434C159.83 411.637 160.398 411.739 161.009 411.739ZM174.623 402.619V411.562H177.509V413H169.57V411.562H172.732V404.057H169.669V402.619H174.623ZM173.215 397.655C173.609 397.655 173.924 397.776 174.16 398.019C174.403 398.262 174.525 398.557 174.525 398.905C174.525 399.267 174.403 399.572 174.16 399.821C173.924 400.064 173.609 400.186 173.215 400.186C172.827 400.186 172.512 400.064 172.269 399.821C172.033 399.572 171.914 399.267 171.914 398.905C171.914 398.557 172.033 398.262 172.269 398.019C172.512 397.776 172.827 397.655 173.215 397.655ZM189.567 401.417L190.118 403.091C189.685 403.229 189.219 403.318 188.72 403.357C188.227 403.397 187.682 403.416 187.085 403.416C187.695 403.692 188.155 404.047 188.464 404.48C188.772 404.914 188.927 405.432 188.927 406.036C188.927 406.719 188.766 407.327 188.444 407.859C188.129 408.39 187.673 408.807 187.075 409.109C186.484 409.412 185.772 409.563 184.938 409.563C184.609 409.563 184.33 409.549 184.1 409.523C183.877 409.49 183.657 409.441 183.441 409.375C183.296 409.474 183.175 409.609 183.076 409.779C182.984 409.95 182.938 410.131 182.938 410.321C182.938 410.551 183.03 410.748 183.214 410.912C183.398 411.07 183.756 411.148 184.288 411.148H186.129C186.845 411.148 187.482 411.273 188.04 411.523C188.605 411.772 189.048 412.11 189.37 412.537C189.692 412.964 189.853 413.45 189.853 413.995C189.853 415.026 189.413 415.817 188.533 416.369C187.653 416.927 186.405 417.206 184.79 417.206C183.647 417.206 182.748 417.088 182.091 416.851C181.441 416.615 180.978 416.263 180.702 415.797C180.433 415.331 180.299 414.747 180.299 414.044H182.002C182.002 414.431 182.078 414.75 182.229 414.999C182.38 415.249 182.656 415.436 183.056 415.561C183.457 415.686 184.035 415.748 184.79 415.748C185.538 415.748 186.143 415.686 186.602 415.561C187.062 415.436 187.4 415.252 187.617 415.009C187.833 414.766 187.942 414.471 187.942 414.123C187.942 413.663 187.735 413.312 187.321 413.069C186.908 412.826 186.379 412.705 185.735 412.705H183.913C182.981 412.705 182.295 412.508 181.855 412.114C181.421 411.713 181.205 411.253 181.205 410.735C181.205 410.393 181.3 410.062 181.49 409.74C181.687 409.418 181.973 409.136 182.347 408.893C181.743 408.571 181.297 408.177 181.008 407.711C180.725 407.245 180.584 406.677 180.584 406.007C180.584 405.291 180.761 404.661 181.116 404.116C181.477 403.571 181.976 403.144 182.613 402.835C183.25 402.527 183.982 402.372 184.81 402.372C185.67 402.372 186.372 402.333 186.917 402.254C187.469 402.169 187.945 402.057 188.346 401.919C188.753 401.775 189.16 401.607 189.567 401.417ZM184.819 403.712C184.045 403.712 183.467 403.929 183.086 404.362C182.705 404.789 182.515 405.337 182.515 406.007C182.515 406.683 182.708 407.238 183.096 407.671C183.483 408.098 184.071 408.312 184.859 408.312C185.555 408.312 186.087 408.111 186.454 407.711C186.822 407.304 187.006 406.729 187.006 405.987C187.006 405.239 186.822 404.674 186.454 404.293C186.087 403.906 185.542 403.712 184.819 403.712ZM192.81 413V402.619H194.435L194.573 404.017C194.999 403.485 195.518 403.078 196.129 402.796C196.746 402.514 197.36 402.372 197.971 402.372C198.969 402.372 199.704 402.645 200.177 403.19C200.65 403.728 200.886 404.48 200.886 405.445V413H198.995V406.608C198.995 405.951 198.956 405.419 198.877 405.012C198.805 404.598 198.65 404.3 198.414 404.116C198.177 403.932 197.82 403.84 197.34 403.84C196.966 403.84 196.611 403.922 196.277 404.086C195.942 404.25 195.64 404.457 195.37 404.707C195.108 404.956 194.884 405.216 194.701 405.485V413H192.81ZM208.65 409.631C209.129 409.631 209.529 409.792 209.851 410.114C210.173 410.436 210.334 410.83 210.334 411.296C210.334 411.559 210.298 411.825 210.226 412.094C210.16 412.357 210.042 412.668 209.871 413.03L208.305 416.615H206.719L207.674 412.675C207.464 412.524 207.297 412.327 207.172 412.084C207.047 411.834 206.985 411.569 206.985 411.286C206.985 410.827 207.143 410.436 207.458 410.114C207.78 409.792 208.177 409.631 208.65 409.631ZM105.398 435.653C105.398 434.983 105.267 434.451 105.004 434.057C104.741 433.657 104.38 433.371 103.921 433.2C103.461 433.023 102.929 432.934 102.325 432.934H100.503V438.509H102.295C102.9 438.509 103.435 438.424 103.901 438.253C104.367 438.082 104.732 437.79 104.994 437.377C105.263 436.956 105.398 436.382 105.398 435.653ZM107.466 435.633C107.466 436.69 107.24 437.544 106.787 438.194C106.34 438.838 105.72 439.307 104.925 439.602C104.137 439.898 103.228 440.046 102.197 440.046H100.503V445H98.5428V431.427H102.138C103.793 431.427 105.093 431.772 106.038 432.462C106.99 433.145 107.466 434.202 107.466 435.633ZM110.226 445V443.601H111.802V436.017H110.226V434.619H113.25L113.595 437.051C113.989 436.191 114.472 435.531 115.043 435.072C115.621 434.606 116.369 434.372 117.288 434.372C117.59 434.372 117.856 434.395 118.086 434.441C118.323 434.487 118.562 434.546 118.805 434.619L118.244 436.273C118.027 436.208 117.83 436.162 117.653 436.135C117.476 436.109 117.272 436.096 117.042 436.096C116.261 436.096 115.591 436.378 115.033 436.943C114.475 437.508 114.028 438.338 113.693 439.435V443.601H115.801V445H110.226ZM117.052 438.263V435.879L117.269 434.619H118.805L118.51 438.263H117.052ZM125.988 434.372C126.979 434.372 127.81 434.596 128.48 435.042C129.156 435.489 129.665 436.119 130.006 436.933C130.354 437.741 130.528 438.696 130.528 439.799C130.528 440.87 130.351 441.815 129.996 442.636C129.648 443.45 129.136 444.091 128.46 444.557C127.784 445.016 126.953 445.246 125.968 445.246C124.983 445.246 124.149 445.023 123.466 444.576C122.79 444.13 122.278 443.5 121.93 442.685C121.582 441.871 121.408 440.916 121.408 439.819C121.408 438.742 121.582 437.797 121.93 436.983C122.284 436.162 122.803 435.522 123.486 435.062C124.169 434.602 125.003 434.372 125.988 434.372ZM125.988 435.879C125.134 435.879 124.491 436.201 124.057 436.845C123.624 437.482 123.407 438.473 123.407 439.819C123.407 441.152 123.621 442.14 124.047 442.784C124.474 443.421 125.114 443.739 125.968 443.739C126.822 443.739 127.462 443.421 127.889 442.784C128.315 442.14 128.529 441.146 128.529 439.799C128.529 438.46 128.315 437.472 127.889 436.835C127.468 436.198 126.835 435.879 125.988 435.879ZM142.32 433.417L142.872 435.091C142.438 435.229 141.972 435.318 141.473 435.357C140.981 435.397 140.436 435.416 139.838 435.416C140.449 435.692 140.908 436.047 141.217 436.48C141.526 436.914 141.68 437.432 141.68 438.036C141.68 438.719 141.519 439.327 141.197 439.859C140.882 440.39 140.426 440.807 139.828 441.109C139.237 441.412 138.525 441.563 137.691 441.563C137.363 441.563 137.084 441.549 136.854 441.523C136.631 441.49 136.411 441.441 136.194 441.375C136.049 441.474 135.928 441.609 135.829 441.779C135.738 441.95 135.692 442.131 135.692 442.321C135.692 442.551 135.783 442.748 135.967 442.912C136.151 443.07 136.509 443.148 137.041 443.148H138.883C139.599 443.148 140.235 443.273 140.794 443.523C141.358 443.772 141.801 444.11 142.123 444.537C142.445 444.964 142.606 445.45 142.606 445.995C142.606 447.026 142.166 447.817 141.286 448.369C140.406 448.927 139.159 449.206 137.543 449.206C136.401 449.206 135.501 449.088 134.844 448.851C134.194 448.615 133.732 448.263 133.456 447.797C133.187 447.331 133.052 446.747 133.052 446.044H134.756C134.756 446.431 134.831 446.75 134.982 446.999C135.133 447.249 135.409 447.436 135.81 447.561C136.21 447.686 136.788 447.748 137.543 447.748C138.292 447.748 138.896 447.686 139.356 447.561C139.815 447.436 140.153 447.252 140.37 447.009C140.587 446.766 140.695 446.471 140.695 446.123C140.695 445.663 140.488 445.312 140.075 445.069C139.661 444.826 139.132 444.705 138.489 444.705H136.667C135.734 444.705 135.048 444.508 134.608 444.114C134.175 443.713 133.958 443.253 133.958 442.735C133.958 442.393 134.053 442.062 134.244 441.74C134.441 441.418 134.726 441.136 135.101 440.893C134.496 440.571 134.05 440.177 133.761 439.711C133.479 439.245 133.338 438.677 133.338 438.007C133.338 437.291 133.515 436.661 133.869 436.116C134.231 435.571 134.73 435.144 135.367 434.835C136.003 434.527 136.736 434.372 137.563 434.372C138.423 434.372 139.126 434.333 139.671 434.254C140.222 434.169 140.698 434.057 141.099 433.919C141.506 433.775 141.913 433.607 142.32 433.417ZM137.573 435.712C136.798 435.712 136.22 435.929 135.839 436.362C135.458 436.789 135.268 437.337 135.268 438.007C135.268 438.683 135.462 439.238 135.849 439.671C136.237 440.098 136.824 440.312 137.612 440.312C138.308 440.312 138.84 440.111 139.208 439.711C139.576 439.304 139.759 438.729 139.759 437.987C139.759 437.239 139.576 436.674 139.208 436.293C138.84 435.906 138.295 435.712 137.573 435.712ZM145.661 445V443.601H147.237V436.017H145.661V434.619H148.685L149.03 437.051C149.424 436.191 149.906 435.531 150.478 435.072C151.056 434.606 151.804 434.372 152.723 434.372C153.025 434.372 153.291 434.395 153.521 434.441C153.758 434.487 153.997 434.546 154.24 434.619L153.679 436.273C153.462 436.208 153.265 436.162 153.088 436.135C152.911 436.109 152.707 436.096 152.477 436.096C151.696 436.096 151.026 436.378 150.468 436.943C149.91 437.508 149.463 438.338 149.128 439.435V443.601H151.236V445H145.661ZM152.487 438.263V435.879L152.704 434.619H154.24L153.945 438.263H152.487ZM165.028 442.616C165.028 443.03 165.093 443.332 165.225 443.523C165.356 443.706 165.563 443.844 165.845 443.936L165.402 445.236C164.929 445.177 164.519 445.036 164.171 444.813C163.823 444.59 163.563 444.248 163.393 443.789C163.018 444.268 162.545 444.632 161.974 444.882C161.403 445.125 160.782 445.246 160.113 445.246C159.069 445.246 158.245 444.951 157.64 444.36C157.036 443.769 156.734 442.991 156.734 442.025C156.734 440.942 157.155 440.111 157.995 439.534C158.842 438.956 160.057 438.667 161.639 438.667H163.146V437.879C163.146 437.163 162.933 436.654 162.506 436.352C162.086 436.05 161.498 435.899 160.743 435.899C160.402 435.899 159.994 435.942 159.522 436.027C159.049 436.113 158.547 436.247 158.015 436.431L157.532 435.052C158.176 434.809 158.79 434.635 159.374 434.53C159.965 434.425 160.517 434.372 161.029 434.372C162.368 434.372 163.37 434.678 164.033 435.288C164.696 435.893 165.028 436.723 165.028 437.78V442.616ZM160.645 443.828C161.13 443.828 161.597 443.703 162.043 443.454C162.49 443.204 162.857 442.856 163.146 442.41V439.898H161.767C160.671 439.898 159.893 440.085 159.433 440.459C158.973 440.827 158.744 441.333 158.744 441.976C158.744 442.58 158.901 443.04 159.216 443.355C159.532 443.67 160.008 443.828 160.645 443.828ZM176.169 434.372C176.531 434.372 176.865 434.451 177.174 434.609C177.483 434.766 177.732 435.055 177.923 435.476C178.113 435.889 178.208 436.49 178.208 437.278V445H176.485V437.554C176.485 436.95 176.445 436.516 176.366 436.254C176.294 435.984 176.084 435.85 175.736 435.85C175.447 435.85 175.162 435.938 174.879 436.116C174.597 436.293 174.318 436.589 174.042 437.002V445H172.387V437.554C172.387 436.95 172.348 436.516 172.269 436.254C172.197 435.984 171.987 435.85 171.639 435.85C171.343 435.85 171.054 435.938 170.772 436.116C170.496 436.293 170.22 436.589 169.945 437.002V445H168.221V434.619H169.679L169.797 435.781C170.086 435.374 170.404 435.039 170.752 434.776C171.107 434.507 171.537 434.372 172.043 434.372C172.437 434.372 172.801 434.468 173.136 434.658C173.477 434.848 173.727 435.203 173.884 435.722C174.167 435.321 174.488 434.996 174.85 434.747C175.211 434.497 175.651 434.372 176.169 434.372ZM187.981 434.372C188.342 434.372 188.677 434.451 188.986 434.609C189.294 434.766 189.544 435.055 189.734 435.476C189.925 435.889 190.02 436.49 190.02 437.278V445H188.296V437.554C188.296 436.95 188.257 436.516 188.178 436.254C188.106 435.984 187.896 435.85 187.548 435.85C187.259 435.85 186.973 435.938 186.691 436.116C186.408 436.293 186.129 436.589 185.854 437.002V445H184.199V437.554C184.199 436.95 184.16 436.516 184.081 436.254C184.008 435.984 183.798 435.85 183.45 435.85C183.155 435.85 182.866 435.938 182.584 436.116C182.308 436.293 182.032 436.589 181.756 437.002V445H180.033V434.619H181.49L181.609 435.781C181.897 435.374 182.216 435.039 182.564 434.776C182.918 434.507 183.349 434.372 183.854 434.372C184.248 434.372 184.613 434.468 184.947 434.658C185.289 434.848 185.538 435.203 185.696 435.722C185.978 435.321 186.3 434.996 186.661 434.747C187.022 434.497 187.462 434.372 187.981 434.372ZM198.246 434.619V443.562H201.132V445H193.194V443.562H196.355V436.057H193.292V434.619H198.246ZM196.838 429.655C197.232 429.655 197.547 429.776 197.783 430.019C198.026 430.262 198.148 430.557 198.148 430.905C198.148 431.267 198.026 431.572 197.783 431.821C197.547 432.064 197.232 432.186 196.838 432.186C196.451 432.186 196.135 432.064 195.892 431.821C195.656 431.572 195.538 431.267 195.538 430.905C195.538 430.557 195.656 430.262 195.892 430.019C196.135 429.776 196.451 429.655 196.838 429.655ZM204.621 445V434.619H206.246L206.384 436.017C206.811 435.485 207.33 435.078 207.94 434.796C208.558 434.514 209.172 434.372 209.782 434.372C210.78 434.372 211.516 434.645 211.989 435.19C212.461 435.728 212.698 436.48 212.698 437.445V445H210.807V438.608C210.807 437.951 210.767 437.419 210.688 437.012C210.616 436.598 210.462 436.3 210.226 436.116C209.989 435.932 209.631 435.84 209.152 435.84C208.778 435.84 208.423 435.922 208.088 436.086C207.753 436.25 207.451 436.457 207.182 436.707C206.919 436.956 206.696 437.216 206.512 437.485V445H204.621ZM225.002 433.417L225.553 435.091C225.12 435.229 224.654 435.318 224.155 435.357C223.662 435.397 223.117 435.416 222.52 435.416C223.13 435.692 223.59 436.047 223.899 436.48C224.207 436.914 224.362 437.432 224.362 438.036C224.362 438.719 224.201 439.327 223.879 439.859C223.564 440.39 223.107 440.807 222.51 441.109C221.919 441.412 221.207 441.563 220.373 441.563C220.044 441.563 219.765 441.549 219.535 441.523C219.312 441.49 219.092 441.441 218.875 441.375C218.731 441.474 218.61 441.609 218.511 441.779C218.419 441.95 218.373 442.131 218.373 442.321C218.373 442.551 218.465 442.748 218.649 442.912C218.833 443.07 219.191 443.148 219.723 443.148H221.564C222.28 443.148 222.917 443.273 223.475 443.523C224.04 443.772 224.483 444.11 224.805 444.537C225.127 444.964 225.287 445.45 225.287 445.995C225.287 447.026 224.848 447.817 223.968 448.369C223.088 448.927 221.84 449.206 220.225 449.206C219.082 449.206 218.183 449.088 217.526 448.851C216.876 448.615 216.413 448.263 216.137 447.797C215.868 447.331 215.734 446.747 215.734 446.044H217.437C217.437 446.431 217.513 446.75 217.664 446.999C217.815 447.249 218.091 447.436 218.491 447.561C218.892 447.686 219.47 447.748 220.225 447.748C220.973 447.748 221.578 447.686 222.037 447.561C222.497 447.436 222.835 447.252 223.052 447.009C223.268 446.766 223.377 446.471 223.377 446.123C223.377 445.663 223.17 445.312 222.756 445.069C222.343 444.826 221.814 444.705 221.17 444.705H219.348C218.416 444.705 217.73 444.508 217.29 444.114C216.856 443.713 216.64 443.253 216.64 442.735C216.64 442.393 216.735 442.062 216.925 441.74C217.122 441.418 217.408 441.136 217.782 440.893C217.178 440.571 216.732 440.177 216.443 439.711C216.16 439.245 216.019 438.677 216.019 438.007C216.019 437.291 216.196 436.661 216.551 436.116C216.912 435.571 217.411 435.144 218.048 434.835C218.685 434.527 219.417 434.372 220.245 434.372C221.105 434.372 221.807 434.333 222.352 434.254C222.904 434.169 223.38 434.057 223.781 433.919C224.188 433.775 224.595 433.607 225.002 433.417ZM220.254 435.712C219.48 435.712 218.902 435.929 218.521 436.362C218.14 436.789 217.95 437.337 217.95 438.007C217.95 438.683 218.143 439.238 218.531 439.671C218.918 440.098 219.506 440.312 220.294 440.312C220.99 440.312 221.522 440.111 221.889 439.711C222.257 439.304 222.441 438.729 222.441 437.987C222.441 437.239 222.257 436.674 221.889 436.293C221.522 435.906 220.977 435.712 220.254 435.712ZM232.273 441.631C232.752 441.631 233.153 441.792 233.475 442.114C233.796 442.436 233.957 442.83 233.957 443.296C233.957 443.559 233.921 443.825 233.849 444.094C233.783 444.357 233.665 444.668 233.494 445.03L231.928 448.615H230.342L231.298 444.675C231.088 444.524 230.92 444.327 230.795 444.084C230.671 443.834 230.608 443.569 230.608 443.286C230.608 442.827 230.766 442.436 231.081 442.114C231.403 441.792 231.8 441.631 232.273 441.631Z" fill="black"/>
<path d="M142.537 345.208C142.537 345.996 142.337 346.695 141.936 347.306C141.542 347.91 140.971 348.386 140.222 348.734C139.474 349.076 138.561 349.246 137.484 349.246C136.447 349.246 135.521 349.089 134.707 348.773C133.892 348.458 133.2 348.025 132.628 347.473L133.741 346.222C134.214 346.662 134.756 347.01 135.367 347.266C135.977 347.523 136.69 347.651 137.504 347.651C138.036 347.651 138.528 347.565 138.981 347.395C139.441 347.217 139.809 346.955 140.084 346.607C140.367 346.252 140.508 345.809 140.508 345.277C140.508 344.85 140.423 344.489 140.252 344.193C140.088 343.898 139.795 343.635 139.375 343.406C138.955 343.176 138.367 342.949 137.612 342.726C136.693 342.45 135.905 342.145 135.248 341.81C134.598 341.468 134.099 341.051 133.751 340.559C133.41 340.067 133.239 339.462 133.239 338.747C133.239 338.044 133.433 337.427 133.82 336.895C134.208 336.357 134.739 335.936 135.416 335.634C136.099 335.332 136.877 335.181 137.75 335.181C138.702 335.181 139.533 335.319 140.242 335.595C140.958 335.864 141.601 336.255 142.172 336.767L141.089 337.988C140.61 337.561 140.091 337.253 139.533 337.062C138.975 336.865 138.41 336.767 137.839 336.767C137.359 336.767 136.923 336.839 136.529 336.984C136.135 337.122 135.82 337.328 135.583 337.604C135.353 337.88 135.238 338.231 135.238 338.658C135.238 339.032 135.34 339.354 135.544 339.623C135.747 339.886 136.092 340.132 136.578 340.362C137.064 340.585 137.724 340.822 138.558 341.071C139.287 341.281 139.953 341.544 140.557 341.859C141.161 342.174 141.641 342.598 141.995 343.13C142.356 343.655 142.537 344.348 142.537 345.208ZM147.09 344.45C147.129 345.211 147.283 345.835 147.552 346.321C147.822 346.8 148.173 347.155 148.606 347.385C149.04 347.608 149.519 347.72 150.044 347.72C150.563 347.72 151.039 347.641 151.473 347.483C151.906 347.326 152.346 347.096 152.792 346.794L153.649 347.986C153.163 348.373 152.602 348.682 151.965 348.911C151.328 349.135 150.668 349.246 149.985 349.246C148.948 349.246 148.065 349.02 147.336 348.567C146.613 348.107 146.062 347.47 145.681 346.656C145.307 345.842 145.12 344.896 145.12 343.819C145.12 342.775 145.307 341.843 145.681 341.022C146.062 340.201 146.597 339.554 147.287 339.082C147.976 338.609 148.797 338.372 149.749 338.372C150.642 338.372 151.41 338.579 152.054 338.993C152.704 339.407 153.203 339.998 153.551 340.766C153.899 341.528 154.073 342.44 154.073 343.504C154.073 343.681 154.07 343.852 154.063 344.016C154.056 344.18 154.047 344.325 154.033 344.45H147.09ZM149.769 339.85C149.033 339.85 148.419 340.113 147.927 340.638C147.441 341.163 147.162 341.974 147.09 343.071H152.251C152.231 342.02 152.001 341.222 151.561 340.677C151.128 340.126 150.53 339.85 149.769 339.85ZM157.473 349V347.601H159.049V340.017H157.473V338.619H160.497L160.842 341.051C161.236 340.191 161.718 339.531 162.289 339.072C162.867 338.606 163.616 338.372 164.535 338.372C164.837 338.372 165.103 338.395 165.333 338.441C165.569 338.487 165.809 338.546 166.052 338.619L165.49 340.273C165.274 340.208 165.077 340.162 164.9 340.135C164.722 340.109 164.519 340.096 164.289 340.096C163.507 340.096 162.838 340.378 162.28 340.943C161.721 341.508 161.275 342.338 160.94 343.435V347.601H163.048V349H157.473ZM164.299 342.263V339.879L164.515 338.619H166.052L165.756 342.263H164.299ZM178.031 338.619L174.308 349H172.102L168.398 338.619H170.408L173.254 347.355L176.091 338.619H178.031ZM186.435 338.619V347.562H189.321V349H181.382V347.562H184.544V340.057H181.48V338.619H186.435ZM185.026 333.655C185.42 333.655 185.735 333.776 185.972 334.019C186.215 334.262 186.336 334.557 186.336 334.905C186.336 335.267 186.215 335.572 185.972 335.821C185.735 336.064 185.42 336.186 185.026 336.186C184.639 336.186 184.324 336.064 184.081 335.821C183.844 335.572 183.726 335.267 183.726 334.905C183.726 334.557 183.844 334.262 184.081 334.019C184.324 333.776 184.639 333.655 185.026 333.655ZM197.636 347.651C198.141 347.651 198.611 347.565 199.044 347.395C199.484 347.224 199.895 347.007 200.275 346.744L201.182 347.976C200.728 348.363 200.18 348.672 199.537 348.902C198.893 349.131 198.25 349.246 197.606 349.246C196.562 349.246 195.669 349.023 194.927 348.576C194.192 348.13 193.63 347.503 193.243 346.695C192.855 345.888 192.662 344.942 192.662 343.859C192.662 342.808 192.855 341.869 193.243 341.042C193.637 340.214 194.205 339.564 194.947 339.091C195.689 338.612 196.585 338.372 197.636 338.372C198.319 338.372 198.952 338.477 199.537 338.688C200.128 338.891 200.669 339.193 201.162 339.594L200.266 340.825C199.839 340.529 199.409 340.306 198.975 340.155C198.542 339.998 198.099 339.919 197.646 339.919C196.779 339.919 196.07 340.241 195.518 340.884C194.967 341.528 194.691 342.519 194.691 343.859C194.691 344.752 194.816 345.477 195.065 346.035C195.321 346.593 195.672 347.004 196.119 347.266C196.565 347.523 197.071 347.651 197.636 347.651ZM206.148 344.45C206.187 345.211 206.342 345.835 206.611 346.321C206.88 346.8 207.231 347.155 207.665 347.385C208.098 347.608 208.577 347.72 209.103 347.72C209.621 347.72 210.097 347.641 210.531 347.483C210.964 347.326 211.404 347.096 211.851 346.794L212.708 347.986C212.222 348.373 211.66 348.682 211.023 348.911C210.386 349.135 209.726 349.246 209.044 349.246C208.006 349.246 207.123 349.02 206.394 348.567C205.672 348.107 205.12 347.47 204.739 346.656C204.365 345.842 204.178 344.896 204.178 343.819C204.178 342.775 204.365 341.843 204.739 341.022C205.12 340.201 205.655 339.554 206.345 339.082C207.034 338.609 207.855 338.372 208.807 338.372C209.7 338.372 210.468 338.579 211.112 338.993C211.762 339.407 212.261 339.998 212.609 340.766C212.957 341.528 213.131 342.44 213.131 343.504C213.131 343.681 213.128 343.852 213.121 344.016C213.115 344.18 213.105 344.325 213.092 344.45H206.148ZM208.827 339.85C208.091 339.85 207.478 340.113 206.985 340.638C206.499 341.163 206.22 341.974 206.148 343.071H211.309C211.289 342.02 211.059 341.222 210.619 340.677C210.186 340.126 209.589 339.85 208.827 339.85ZM220.067 347.739C220.822 347.739 221.417 347.601 221.85 347.326C222.29 347.05 222.51 346.676 222.51 346.203C222.51 345.901 222.451 345.641 222.333 345.425C222.221 345.208 221.985 345.011 221.623 344.834C221.269 344.656 220.73 344.476 220.008 344.292C219.306 344.115 218.692 343.908 218.166 343.671C217.641 343.435 217.234 343.126 216.945 342.746C216.663 342.365 216.521 341.872 216.521 341.268C216.521 340.677 216.686 340.165 217.014 339.732C217.349 339.298 217.818 338.963 218.422 338.727C219.033 338.491 219.742 338.372 220.55 338.372C221.404 338.372 222.146 338.487 222.776 338.717C223.413 338.94 223.951 339.216 224.391 339.545L223.584 340.776C223.183 340.506 222.743 340.287 222.264 340.116C221.791 339.945 221.233 339.86 220.589 339.86C219.821 339.86 219.273 339.978 218.944 340.214C218.623 340.444 218.462 340.749 218.462 341.13C218.462 341.413 218.541 341.649 218.698 341.839C218.862 342.023 219.141 342.194 219.535 342.352C219.929 342.509 220.474 342.683 221.17 342.874C221.847 343.057 222.438 343.274 222.943 343.524C223.449 343.773 223.84 344.102 224.115 344.509C224.398 344.909 224.539 345.438 224.539 346.094C224.539 346.836 224.326 347.441 223.899 347.907C223.472 348.366 222.917 348.705 222.234 348.921C221.558 349.138 220.836 349.246 220.067 349.246C219.122 349.246 218.308 349.108 217.625 348.833C216.948 348.557 216.38 348.219 215.921 347.818L216.965 346.616C217.372 346.951 217.838 347.224 218.363 347.434C218.889 347.637 219.457 347.739 220.067 347.739Z" fill="#0090F9"/>
<path d="M265.334 351.295V332.916H270.456V334.482H267.117V349.749H270.456V351.295H265.334ZM112.356 379.424C112.356 379.089 112.435 378.787 112.592 378.518C112.75 378.242 112.967 378.025 113.242 377.868C113.512 377.71 113.814 377.631 114.149 377.631C114.497 377.631 114.809 377.71 115.084 377.868C115.36 378.025 115.577 378.242 115.734 378.518C115.892 378.787 115.971 379.089 115.971 379.424C115.971 379.759 115.892 380.068 115.734 380.35C115.577 380.626 115.36 380.842 115.084 381C114.809 381.164 114.497 381.246 114.149 381.246C113.814 381.246 113.512 381.164 113.242 381C112.967 380.842 112.75 380.626 112.592 380.35C112.435 380.068 112.356 379.759 112.356 379.424ZM120.236 379.424C120.236 379.089 120.314 378.787 120.472 378.518C120.63 378.242 120.843 378.025 121.112 377.868C121.388 377.71 121.693 377.631 122.028 377.631C122.376 377.631 122.688 377.71 122.964 377.868C123.24 378.025 123.456 378.242 123.614 378.518C123.772 378.787 123.85 379.089 123.85 379.424C123.85 379.759 123.772 380.068 123.614 380.35C123.456 380.626 123.24 380.842 122.964 381C122.688 381.164 122.376 381.246 122.028 381.246C121.693 381.246 121.388 381.164 121.112 381C120.843 380.842 120.63 380.626 120.472 380.35C120.314 380.068 120.236 379.759 120.236 379.424ZM104.476 379.424C104.476 379.089 104.555 378.787 104.713 378.518C104.87 378.242 105.087 378.025 105.363 377.868C105.632 377.71 105.934 377.631 106.269 377.631C106.617 377.631 106.929 377.71 107.205 377.868C107.481 378.025 107.697 378.242 107.855 378.518C108.012 378.787 108.091 379.089 108.091 379.424C108.091 379.759 108.012 380.068 107.855 380.35C107.697 380.626 107.481 380.842 107.205 381C106.929 381.164 106.617 381.246 106.269 381.246C105.934 381.246 105.632 381.164 105.363 381C105.087 380.842 104.87 380.626 104.713 380.35C104.555 380.068 104.476 379.759 104.476 379.424ZM137.78 377.631C138.259 377.631 138.66 377.792 138.981 378.114C139.303 378.436 139.464 378.83 139.464 379.296C139.464 379.559 139.428 379.825 139.356 380.094C139.29 380.357 139.172 380.668 139.001 381.03L137.435 384.615H135.849L136.805 380.675C136.594 380.524 136.427 380.327 136.302 380.084C136.177 379.834 136.115 379.569 136.115 379.286C136.115 378.827 136.273 378.436 136.588 378.114C136.91 377.792 137.307 377.631 137.78 377.631Z" fill="#FB0303"/>
<path d="M69.2834 460.916V479.295H64.1617V477.749H67.5006V462.482H64.1617V460.916H69.2834Z" fill="#FF0000"/>
<defs>
<filter id="filter0_d_848_3844" x="217" y="0" width="447" height="270" filterUnits="userSpaceOnUse" color-interpolation-filters="sRGB">
<feFlood flood-opacity="0" result="BackgroundImageFix"/>
<feColorMatrix in="SourceAlpha" type="matrix" values="0 0 0 0 0 0 0 0 0 0 0 0 0 0 0 0 0 0 127 0" result="hardAlpha"/>
<feOffset dy="4"/>
<feGaussianBlur stdDeviation="8"/>
<feComposite in2="hardAlpha" operator="out"/>
<feColorMatrix type="matrix" values="0 0 0 0 0.845833 0 0 0 0 0.845833 0 0 0 0 0.845833 0 0 0 1 0"/>
<feBlend mode="normal" in2="BackgroundImageFix" result="effect1_dropShadow_848_3844"/>
<feBlend mode="normal" in="SourceGraphic" in2="effect1_dropShadow_848_3844" result="shape"/>
</filter>
<filter id="filter1_d_848_3844" x="0" y="268" width="447" height="270" filterUnits="userSpaceOnUse" color-interpolation-filters="sRGB">
<feFlood flood-opacity="0" result="BackgroundImageFix"/>
<feColorMatrix in="SourceAlpha" type="matrix" values="0 0 0 0 0 0 0 0 0 0 0 0 0 0 0 0 0 0 127 0" result="hardAlpha"/>
<feOffset dy="4"/>
<feGaussianBlur stdDeviation="8"/>
<feComposite in2="hardAlpha" operator="out"/>
<feColorMatrix type="matrix" values="0 0 0 0 0.845833 0 0 0 0 0.845833 0 0 0 0 0.845833 0 0 0 1 0"/>
<feBlend mode="normal" in2="BackgroundImageFix" result="effect1_dropShadow_848_3844"/>
<feBlend mode="normal" in="SourceGraphic" in2="effect1_dropShadow_848_3844" result="shape"/>
</filter>
</defs>
</svg>
