<svg width="632" height="506" viewBox="0 0 632 506" fill="none" xmlns="http://www.w3.org/2000/svg">
<rect x="217" width="415" height="238" rx="8" fill="white"/>
<rect y="268" width="415" height="238" rx="8" fill="white"/>
<path d="M269.943 31.5317V32.9697C269.471 32.9697 269.047 33.0157 268.673 33.1076C268.305 33.1995 268.019 33.3571 267.816 33.5804C267.612 33.7971 267.53 34.0991 267.57 34.4865L267.964 38.3475C268.023 38.9254 267.98 39.4047 267.836 39.7855C267.691 40.1598 267.458 40.452 267.136 40.6621C266.814 40.8723 266.411 41.02 265.925 41.1054C266.424 41.1907 266.834 41.3352 267.156 41.5388C267.484 41.7357 267.714 42.0214 267.845 42.3957C267.983 42.7634 268.023 43.2526 267.964 43.8632L267.57 47.7242C267.53 48.1116 267.609 48.417 267.806 48.6402C268.01 48.8635 268.298 49.0178 268.673 49.1031C269.054 49.1951 269.477 49.241 269.943 49.241V50.6791C269.333 50.6791 268.765 50.6265 268.239 50.5215C267.714 50.423 267.258 50.2555 266.87 50.0191C266.483 49.7828 266.194 49.461 266.004 49.0539C265.82 48.6468 265.761 48.1346 265.826 47.5174L266.21 43.9223C266.256 43.4692 266.204 43.0917 266.053 42.7896C265.908 42.481 265.616 42.2512 265.176 42.1002C264.736 41.9426 264.103 41.8638 263.275 41.8638V40.347C264.103 40.347 264.736 40.2715 265.176 40.1204C265.623 39.9694 265.918 39.7429 266.063 39.4408C266.207 39.1388 266.256 38.7579 266.21 38.2983L265.826 34.6934C265.761 34.0761 265.82 33.564 266.004 33.1569C266.194 32.7497 266.48 32.428 266.86 32.1916C267.248 31.9487 267.704 31.7779 268.23 31.6794C268.761 31.5809 269.333 31.5317 269.943 31.5317Z" fill="#04A4FE"/>
<path d="M347.907 78.562C347.907 78.1155 348.068 77.7281 348.39 77.3997C348.711 77.0714 349.105 76.9073 349.572 76.9073C350.051 76.9073 350.451 77.0714 350.773 77.3997C351.095 77.7281 351.256 78.1155 351.256 78.562C351.256 79.0282 351.095 79.4254 350.773 79.7538C350.451 80.0821 350.051 80.2462 349.572 80.2462C349.105 80.2462 348.711 80.0821 348.39 79.7538C348.068 79.4254 347.907 79.0282 347.907 78.562ZM347.907 71.5098C347.907 71.1946 347.979 70.9122 348.124 70.6627C348.275 70.4132 348.475 70.2162 348.725 70.0717C348.981 69.9207 349.263 69.8452 349.572 69.8452C350.051 69.8452 350.451 70.0094 350.773 70.3377C351.095 70.6594 351.256 71.0501 351.256 71.5098C351.256 71.9628 351.095 72.3568 350.773 72.6917C350.451 73.02 350.051 73.1842 349.572 73.1842C349.105 73.1842 348.711 73.02 348.39 72.6917C348.068 72.3568 347.907 71.9628 347.907 71.5098ZM360.674 69.205C360.674 69.6187 360.52 69.97 360.211 70.2589C359.909 70.5478 359.545 70.6923 359.118 70.6923C358.678 70.6923 358.31 70.5478 358.015 70.2589C357.726 69.97 357.581 69.6187 357.581 69.205C357.581 69.0211 357.604 68.8241 357.65 68.614C357.703 68.3973 357.808 68.1183 357.965 67.7768L359.532 64.4575H360.91L360.103 68.0526C360.274 68.1774 360.411 68.3415 360.517 68.5451C360.622 68.7421 360.674 68.962 360.674 69.205ZM364.978 69.205C364.978 69.6187 364.824 69.97 364.515 70.2589C364.213 70.5478 363.849 70.6923 363.422 70.6923C362.995 70.6923 362.631 70.5478 362.329 70.2589C362.033 69.97 361.886 69.6187 361.886 69.205C361.886 69.0211 361.909 68.8241 361.955 68.614C362.007 68.3973 362.115 68.1183 362.28 67.7768L363.865 64.4575H365.225L364.417 68.0526C364.588 68.1774 364.722 68.3415 364.821 68.5451C364.926 68.7421 364.978 68.962 364.978 69.205ZM377.972 76.208C377.972 76.9959 377.772 77.6952 377.371 78.3059C376.977 78.91 376.406 79.3861 375.657 79.7341C374.909 80.0755 373.996 80.2462 372.919 80.2462C371.882 80.2462 370.956 80.0886 370.142 79.7735C369.327 79.4583 368.635 79.0249 368.063 78.4733L369.176 77.2225C369.649 77.6624 370.191 78.0104 370.801 78.2665C371.412 78.5226 372.125 78.6506 372.939 78.6506C373.471 78.6506 373.963 78.5653 374.416 78.3945C374.876 78.2172 375.244 77.9546 375.519 77.6066C375.802 77.252 375.943 76.8088 375.943 76.2769C375.943 75.8501 375.858 75.4889 375.687 75.1935C375.523 74.898 375.23 74.6353 374.81 74.4055C374.39 74.1757 373.802 73.9491 373.047 73.7259C372.128 73.4501 371.34 73.1448 370.683 72.8099C370.033 72.4684 369.534 72.0515 369.186 71.559C368.845 71.0665 368.674 70.4624 368.674 69.7467C368.674 69.0441 368.868 68.4269 369.255 67.895C369.643 67.3566 370.174 66.9363 370.851 66.6343C371.534 66.3322 372.312 66.1812 373.185 66.1812C374.137 66.1812 374.968 66.3191 375.677 66.5949C376.393 66.8641 377.036 67.2548 377.607 67.767L376.524 68.9883C376.045 68.5615 375.526 68.2529 374.968 68.0625C374.41 67.8655 373.845 67.767 373.274 67.767C372.794 67.767 372.358 67.8392 371.964 67.9837C371.57 68.1215 371.255 68.3284 371.018 68.6042C370.788 68.88 370.673 69.2313 370.673 69.6581C370.673 70.0323 370.775 70.3541 370.979 70.6233C371.182 70.886 371.527 71.1322 372.013 71.362C372.499 71.5853 373.159 71.8217 373.993 72.0712C374.722 72.2813 375.388 72.544 375.992 72.8591C376.596 73.1743 377.076 73.5978 377.43 74.1297C377.791 74.655 377.972 75.3478 377.972 76.208ZM386.435 69.6187V78.562H389.321V80H381.382V78.562H384.544V71.0567H381.48V69.6187H386.435ZM385.026 64.6545C385.42 64.6545 385.735 64.776 385.972 65.019C386.215 65.2619 386.336 65.5574 386.336 65.9054C386.336 66.2666 386.215 66.5719 385.972 66.8214C385.735 67.0644 385.42 67.1858 385.026 67.1858C384.639 67.1858 384.324 67.0644 384.081 66.8214C383.844 66.5719 383.726 66.2666 383.726 65.9054C383.726 65.5574 383.844 65.2619 384.081 65.019C384.324 64.776 384.639 64.6545 385.026 64.6545ZM399.793 69.3724C400.154 69.3724 400.489 69.4512 400.797 69.6088C401.106 69.7664 401.356 70.0553 401.546 70.4756C401.736 70.8892 401.832 71.4901 401.832 72.278V80H400.108V72.5538C400.108 71.9497 400.069 71.5163 399.99 71.2537C399.918 70.9845 399.707 70.8498 399.359 70.8498C399.07 70.8498 398.785 70.9385 398.502 71.1158C398.22 71.2931 397.941 71.5886 397.665 72.0022V80H396.011V72.5538C396.011 71.9497 395.971 71.5163 395.892 71.2537C395.82 70.9845 395.61 70.8498 395.262 70.8498C394.967 70.8498 394.678 70.9385 394.395 71.1158C394.119 71.2931 393.844 71.5886 393.568 72.0022V80H391.844V69.6187H393.302L393.42 70.7809C393.709 70.3738 394.028 70.0389 394.376 69.7763C394.73 69.507 395.16 69.3724 395.666 69.3724C396.06 69.3724 396.424 69.4676 396.759 69.6581C397.101 69.8485 397.35 70.2031 397.508 70.7218C397.79 70.3213 398.112 69.9962 398.473 69.7467C398.834 69.4972 399.274 69.3724 399.793 69.3724ZM406.512 70.9188C406.88 70.4329 407.31 70.0553 407.803 69.7861C408.302 69.5103 408.843 69.3724 409.428 69.3724C410.347 69.3724 411.092 69.599 411.664 70.052C412.235 70.4986 412.652 71.1289 412.914 71.9431C413.177 72.7508 413.308 73.7029 413.308 74.7995C413.308 75.8501 413.151 76.7858 412.836 77.6066C412.52 78.4274 412.058 79.0742 411.447 79.5469C410.836 80.0131 410.084 80.2462 409.191 80.2462C408.003 80.2462 407.074 79.8129 406.404 78.9461L406.286 80H404.621V65.4425L406.512 65.216V70.9188ZM408.728 78.759C409.543 78.759 410.17 78.4372 410.61 77.7937C411.056 77.1437 411.279 76.1456 411.279 74.7995C411.279 73.8999 411.191 73.1612 411.013 72.5834C410.836 71.999 410.574 71.5656 410.226 71.2832C409.884 71.0009 409.464 70.8597 408.965 70.8597C408.426 70.8597 407.95 71.0239 407.537 71.3522C407.123 71.6739 406.781 72.0416 406.512 72.4553V77.4785C406.775 77.8725 407.097 78.1844 407.478 78.4142C407.858 78.6441 408.275 78.759 408.728 78.759ZM424.086 77.6164C424.086 78.0301 424.152 78.3322 424.283 78.5226C424.414 78.7064 424.621 78.8443 424.903 78.9363L424.46 80.2364C423.987 80.1773 423.577 80.0361 423.229 79.8129C422.881 79.5896 422.622 79.2482 422.451 78.7885C422.077 79.2679 421.604 79.6323 421.033 79.8818C420.461 80.1248 419.841 80.2462 419.171 80.2462C418.127 80.2462 417.303 79.9508 416.699 79.3598C416.095 78.7688 415.793 77.9907 415.793 77.0255C415.793 75.942 416.213 75.1114 417.053 74.5335C417.9 73.9557 419.115 73.6668 420.698 73.6668H422.205V72.8788C422.205 72.1631 421.991 71.6542 421.564 71.3522C421.144 71.0501 420.556 70.8991 419.801 70.8991C419.46 70.8991 419.053 70.9418 418.58 71.0271C418.107 71.1125 417.605 71.2471 417.073 71.431L416.59 70.052C417.234 69.8091 417.848 69.6351 418.432 69.53C419.023 69.425 419.575 69.3724 420.087 69.3724C421.426 69.3724 422.428 69.6778 423.091 70.2884C423.754 70.8925 424.086 71.7232 424.086 72.7803V77.6164ZM419.703 78.8279C420.189 78.8279 420.655 78.7032 421.101 78.4536C421.548 78.2041 421.916 77.8561 422.205 77.4096V74.898H420.826C419.729 74.898 418.951 75.0851 418.491 75.4594C418.032 75.8271 417.802 76.3327 417.802 76.9762C417.802 77.5803 417.959 78.04 418.275 78.3551C418.59 78.6703 419.066 78.8279 419.703 78.8279ZM428.343 80V78.6014H429.919V71.0173H428.343V69.6187H431.367L431.711 72.0515C432.105 71.1913 432.588 70.5314 433.159 70.0717C433.737 69.6055 434.486 69.3724 435.405 69.3724C435.707 69.3724 435.973 69.3954 436.203 69.4414C436.439 69.4873 436.679 69.5464 436.922 69.6187L436.36 71.2734C436.144 71.2077 435.947 71.1617 435.769 71.1355C435.592 71.1092 435.389 71.0961 435.159 71.0961C434.377 71.0961 433.708 71.3784 433.15 71.9431C432.591 72.5078 432.145 73.3385 431.81 74.4351V78.6014H433.918V80H428.343ZM435.169 73.263V70.8794L435.385 69.6187H436.922L436.626 73.263H435.169ZM447.709 77.6164C447.709 78.0301 447.775 78.3322 447.906 78.5226C448.037 78.7064 448.244 78.8443 448.527 78.9363L448.083 80.2364C447.611 80.1773 447.2 80.0361 446.852 79.8129C446.504 79.5896 446.245 79.2482 446.074 78.7885C445.7 79.2679 445.227 79.6323 444.656 79.8818C444.085 80.1248 443.464 80.2462 442.794 80.2462C441.75 80.2462 440.926 79.9508 440.322 79.3598C439.718 78.7688 439.416 77.9907 439.416 77.0255C439.416 75.942 439.836 75.1114 440.677 74.5335C441.524 73.9557 442.738 73.6668 444.321 73.6668H445.828V72.8788C445.828 72.1631 445.615 71.6542 445.188 71.3522C444.767 71.0501 444.18 70.8991 443.425 70.8991C443.083 70.8991 442.676 70.9418 442.203 71.0271C441.731 71.1125 441.228 71.2471 440.696 71.431L440.214 70.052C440.857 69.8091 441.471 69.6351 442.056 69.53C442.647 69.425 443.198 69.3724 443.71 69.3724C445.05 69.3724 446.051 69.6778 446.714 70.2884C447.378 70.8925 447.709 71.7232 447.709 72.7803V77.6164ZM443.326 78.8279C443.812 78.8279 444.278 78.7032 444.725 78.4536C445.171 78.2041 445.539 77.8561 445.828 77.4096V74.898H444.449C443.352 74.898 442.574 75.0851 442.115 75.4594C441.655 75.8271 441.425 76.3327 441.425 76.9762C441.425 77.5803 441.583 78.04 441.898 78.3551C442.213 78.6703 442.689 78.8279 443.326 78.8279ZM455.502 78.7393C456.257 78.7393 456.852 78.6014 457.285 78.3256C457.725 78.0498 457.945 77.6755 457.945 77.2028C457.945 76.9007 457.886 76.6413 457.768 76.4246C457.656 76.208 457.42 76.011 457.058 75.8337C456.704 75.6564 456.165 75.4758 455.443 75.292C454.741 75.1147 454.127 74.9078 453.601 74.6714C453.076 74.4351 452.669 74.1264 452.38 73.7456C452.098 73.3647 451.956 72.8723 451.956 72.2682C451.956 71.6772 452.121 71.165 452.449 70.7317C452.784 70.2983 453.253 69.9634 453.857 69.727C454.468 69.4906 455.177 69.3724 455.985 69.3724C456.838 69.3724 457.58 69.4873 458.211 69.7172C458.848 69.9404 459.386 70.2162 459.826 70.5445L459.019 71.7757C458.618 71.5065 458.178 71.2865 457.699 71.1158C457.226 70.9451 456.668 70.8597 456.024 70.8597C455.256 70.8597 454.708 70.9779 454.379 71.2143C454.058 71.4441 453.897 71.7494 453.897 72.1303C453.897 72.4126 453.976 72.649 454.133 72.8394C454.297 73.0233 454.576 73.194 454.97 73.3516C455.364 73.5092 455.909 73.6832 456.605 73.8736C457.282 74.0575 457.873 74.2742 458.378 74.5237C458.884 74.7732 459.275 75.1015 459.55 75.5086C459.833 75.9092 459.974 76.4378 459.974 77.0944C459.974 77.8364 459.761 78.4405 459.334 78.9067C458.907 79.3664 458.352 79.7045 457.669 79.9212C456.993 80.1379 456.271 80.2462 455.502 80.2462C454.557 80.2462 453.742 80.1083 453.06 79.8326C452.383 79.5568 451.815 79.2186 451.356 78.8181L452.4 77.6164C452.807 77.9513 453.273 78.2238 453.798 78.4339C454.324 78.6375 454.892 78.7393 455.502 78.7393ZM465.571 65.2554V70.968C465.984 70.4362 466.48 70.0389 467.058 69.7763C467.642 69.507 468.236 69.3724 468.841 69.3724C469.839 69.3724 470.574 69.6449 471.047 70.1899C471.52 70.7284 471.756 71.4802 471.756 72.4455V80H469.865V72.6129C469.865 71.9891 469.73 71.5393 469.461 71.2635C469.198 70.9812 468.778 70.84 468.2 70.84C467.833 70.84 467.481 70.9221 467.146 71.0862C466.818 71.2504 466.519 71.4605 466.25 71.7166C465.981 71.9661 465.754 72.2255 465.571 72.4947V80H463.679V65.4622L465.571 65.2554ZM477.018 75.4495C477.057 76.2112 477.211 76.835 477.481 77.3209C477.75 77.8003 478.101 78.1549 478.535 78.3847C478.968 78.6079 479.447 78.7196 479.973 78.7196C480.491 78.7196 480.967 78.6408 481.401 78.4832C481.834 78.3256 482.274 78.0958 482.721 77.7937L483.578 78.9855C483.092 79.3729 482.53 79.6815 481.893 79.9114C481.256 80.1346 480.596 80.2462 479.914 80.2462C478.876 80.2462 477.993 80.0197 477.264 79.5666C476.542 79.107 475.99 78.4701 475.609 77.6558C475.235 76.8416 475.048 75.8961 475.048 74.8192C475.048 73.7751 475.235 72.8427 475.609 72.0219C475.99 71.2011 476.525 70.5544 477.215 70.0816C477.904 69.6088 478.725 69.3724 479.677 69.3724C480.57 69.3724 481.338 69.5793 481.982 69.9929C482.632 70.4066 483.131 70.9976 483.479 71.7658C483.827 72.5275 484.001 73.4403 484.001 74.504C484.001 74.6813 483.998 74.852 483.991 75.0162C483.985 75.1803 483.975 75.3248 483.962 75.4495H477.018ZM479.697 70.8498C478.961 70.8498 478.347 71.1125 477.855 71.6378C477.369 72.1631 477.09 72.974 477.018 74.0706H482.179C482.159 73.02 481.929 72.2222 481.489 71.6772C481.056 71.1256 480.459 70.8498 479.697 70.8498ZM487.736 65.9448C487.736 65.5246 487.89 65.17 488.199 64.8811C488.508 64.5922 488.872 64.4477 489.292 64.4477C489.719 64.4477 490.084 64.5922 490.386 64.8811C490.694 65.17 490.849 65.5246 490.849 65.9448C490.849 66.1484 490.816 66.3519 490.75 66.5555C490.691 66.7525 490.579 67.0217 490.415 67.3631L488.849 70.6824H487.49L488.278 67.0874C488.114 66.9626 487.982 66.8017 487.884 66.6047C487.785 66.4077 487.736 66.1878 487.736 65.9448ZM492.04 65.9448C492.04 65.5246 492.195 65.17 492.503 64.8811C492.818 64.5922 493.183 64.4477 493.597 64.4477C494.03 64.4477 494.398 64.5922 494.7 64.8811C495.002 65.17 495.153 65.5246 495.153 65.9448C495.153 66.1484 495.127 66.3519 495.074 66.5555C495.021 66.7525 494.913 67.0217 494.749 67.3631L493.163 70.6824H491.804L492.612 67.0874C492.441 66.9626 492.303 66.8017 492.198 66.6047C492.093 66.4077 492.04 66.1878 492.04 65.9448ZM503.143 76.6315C503.622 76.6315 504.023 76.7924 504.345 77.1141C504.666 77.4359 504.827 77.8298 504.827 78.296C504.827 78.5587 504.791 78.8246 504.719 79.0938C504.653 79.3565 504.535 79.6684 504.364 80.0295L502.798 83.6148H501.212L502.168 79.675C501.958 79.5239 501.79 79.327 501.665 79.084C501.541 78.8345 501.478 78.5685 501.478 78.2862C501.478 77.8266 501.636 77.4359 501.951 77.1141C502.273 76.7924 502.67 76.6315 503.143 76.6315ZM383.342 110.562C383.342 110.115 383.503 109.728 383.825 109.4C384.146 109.071 384.54 108.907 385.007 108.907C385.486 108.907 385.886 109.071 386.208 109.4C386.53 109.728 386.691 110.115 386.691 110.562C386.691 111.028 386.53 111.425 386.208 111.754C385.886 112.082 385.486 112.246 385.007 112.246C384.54 112.246 384.146 112.082 383.825 111.754C383.503 111.425 383.342 111.028 383.342 110.562ZM383.342 103.51C383.342 103.195 383.414 102.912 383.559 102.663C383.71 102.413 383.91 102.216 384.16 102.072C384.416 101.921 384.698 101.845 385.007 101.845C385.486 101.845 385.886 102.009 386.208 102.338C386.53 102.659 386.691 103.05 386.691 103.51C386.691 103.963 386.53 104.357 386.208 104.692C385.886 105.02 385.486 105.184 385.007 105.184C384.54 105.184 384.146 105.02 383.825 104.692C383.503 104.357 383.342 103.963 383.342 103.51ZM407.921 101.205C407.921 101.619 407.766 101.97 407.458 102.259C407.156 102.548 406.791 102.692 406.365 102.692C405.925 102.692 405.557 102.548 405.261 102.259C404.972 101.97 404.828 101.619 404.828 101.205C404.828 101.021 404.851 100.824 404.897 100.614C404.949 100.397 405.055 100.118 405.212 99.7768L406.778 96.4575H408.157L407.349 100.053C407.52 100.177 407.658 100.342 407.763 100.545C407.868 100.742 407.921 100.962 407.921 101.205ZM412.225 101.205C412.225 101.619 412.071 101.97 411.762 102.259C411.46 102.548 411.096 102.692 410.669 102.692C410.242 102.692 409.877 102.548 409.575 102.259C409.28 101.97 409.132 101.619 409.132 101.205C409.132 101.021 409.155 100.824 409.201 100.614C409.254 100.397 409.362 100.118 409.526 99.7768L411.112 96.4575H412.471L411.664 100.053C411.834 100.177 411.969 100.342 412.067 100.545C412.172 100.742 412.225 100.962 412.225 101.205ZM425.041 98.4274L425.81 112H423.978L423.593 105.115C423.574 104.629 423.557 104.147 423.544 103.667C423.531 103.181 423.521 102.719 423.515 102.279C423.515 101.839 423.515 101.438 423.515 101.077C423.521 100.716 423.528 100.417 423.534 100.181L421.367 109.587H419.535L417.211 100.181C417.224 100.41 417.234 100.713 417.24 101.087C417.254 101.461 417.26 101.875 417.26 102.328C417.267 102.781 417.267 103.247 417.26 103.726C417.254 104.206 417.244 104.669 417.231 105.115L416.906 112H415.113L415.881 98.4274H418.413L420.501 107.637L422.49 98.4274H425.041ZM435.898 109.616C435.898 110.03 435.963 110.332 436.095 110.523C436.226 110.706 436.433 110.844 436.715 110.936L436.272 112.236C435.799 112.177 435.389 112.036 435.041 111.813C434.693 111.59 434.433 111.248 434.263 110.789C433.888 111.268 433.415 111.632 432.844 111.882C432.273 112.125 431.652 112.246 430.983 112.246C429.939 112.246 429.115 111.951 428.51 111.36C427.906 110.769 427.604 109.991 427.604 109.025C427.604 107.942 428.025 107.111 428.865 106.534C429.712 105.956 430.927 105.667 432.509 105.667H434.016V104.879C434.016 104.163 433.803 103.654 433.376 103.352C432.956 103.05 432.368 102.899 431.613 102.899C431.272 102.899 430.864 102.942 430.392 103.027C429.919 103.113 429.417 103.247 428.885 103.431L428.402 102.052C429.046 101.809 429.66 101.635 430.244 101.53C430.835 101.425 431.386 101.372 431.899 101.372C433.238 101.372 434.24 101.678 434.903 102.288C435.566 102.893 435.898 103.723 435.898 104.78V109.616ZM431.515 110.828C432 110.828 432.467 110.703 432.913 110.454C433.36 110.204 433.727 109.856 434.016 109.41V106.898H432.637C431.541 106.898 430.763 107.085 430.303 107.459C429.843 107.827 429.614 108.333 429.614 108.976C429.614 109.58 429.771 110.04 430.086 110.355C430.402 110.67 430.878 110.828 431.515 110.828ZM444.882 101.372C445.802 101.372 446.537 101.599 447.089 102.052C447.64 102.499 448.037 103.129 448.28 103.943C448.523 104.751 448.645 105.703 448.645 106.799C448.645 107.85 448.497 108.786 448.202 109.607C447.906 110.427 447.463 111.074 446.872 111.547C446.281 112.013 445.539 112.246 444.646 112.246C443.523 112.246 442.624 111.852 441.947 111.064V115.979L440.056 116.206V101.619H441.681L441.819 103.017C442.207 102.485 442.663 102.078 443.188 101.796C443.714 101.514 444.278 101.372 444.882 101.372ZM444.4 102.86C443.861 102.86 443.385 103.024 442.972 103.352C442.558 103.674 442.216 104.042 441.947 104.455V109.479C442.21 109.866 442.532 110.171 442.912 110.395C443.293 110.611 443.717 110.72 444.183 110.72C444.997 110.72 445.611 110.404 446.025 109.774C446.439 109.137 446.645 108.146 446.645 106.799C446.645 105.9 446.563 105.161 446.399 104.583C446.235 103.999 445.986 103.566 445.651 103.283C445.322 103.001 444.905 102.86 444.4 102.86ZM457.305 101.619V110.562H460.191V112H452.252V110.562H455.414V103.057H452.35V101.619H457.305ZM455.896 96.6545C456.29 96.6545 456.605 96.776 456.842 97.019C457.085 97.2619 457.206 97.5574 457.206 97.9054C457.206 98.2666 457.085 98.5719 456.842 98.8214C456.605 99.0644 456.29 99.1858 455.896 99.1858C455.509 99.1858 455.194 99.0644 454.951 98.8214C454.714 98.5719 454.596 98.2666 454.596 97.9054C454.596 97.5574 454.714 97.2619 454.951 97.019C455.194 96.776 455.509 96.6545 455.896 96.6545ZM467.314 110.739C468.069 110.739 468.663 110.601 469.097 110.326C469.537 110.05 469.757 109.676 469.757 109.203C469.757 108.901 469.697 108.641 469.579 108.425C469.468 108.208 469.231 108.011 468.87 107.834C468.516 107.656 467.977 107.476 467.255 107.292C466.552 107.115 465.938 106.908 465.413 106.671C464.888 106.435 464.481 106.126 464.192 105.746C463.909 105.365 463.768 104.872 463.768 104.268C463.768 103.677 463.932 103.165 464.261 102.732C464.595 102.298 465.065 101.963 465.669 101.727C466.28 101.491 466.989 101.372 467.797 101.372C468.65 101.372 469.392 101.487 470.023 101.717C470.659 101.94 471.198 102.216 471.638 102.545L470.83 103.776C470.43 103.506 469.99 103.287 469.51 103.116C469.038 102.945 468.479 102.86 467.836 102.86C467.068 102.86 466.519 102.978 466.191 103.214C465.869 103.444 465.708 103.749 465.708 104.13C465.708 104.413 465.787 104.649 465.945 104.839C466.109 105.023 466.388 105.194 466.782 105.352C467.176 105.509 467.721 105.683 468.417 105.874C469.093 106.057 469.684 106.274 470.19 106.524C470.696 106.773 471.086 107.102 471.362 107.509C471.644 107.909 471.786 108.438 471.786 109.094C471.786 109.836 471.572 110.441 471.145 110.907C470.719 111.366 470.164 111.705 469.481 111.921C468.804 112.138 468.082 112.246 467.314 112.246C466.368 112.246 465.554 112.108 464.871 111.833C464.195 111.557 463.627 111.219 463.167 110.818L464.211 109.616C464.618 109.951 465.085 110.224 465.61 110.434C466.135 110.637 466.703 110.739 467.314 110.739ZM483.144 109.616C483.144 110.03 483.21 110.332 483.341 110.523C483.472 110.706 483.679 110.844 483.962 110.936L483.518 112.236C483.046 112.177 482.635 112.036 482.287 111.813C481.939 111.59 481.68 111.248 481.509 110.789C481.135 111.268 480.662 111.632 480.091 111.882C479.52 112.125 478.899 112.246 478.229 112.246C477.185 112.246 476.361 111.951 475.757 111.36C475.153 110.769 474.851 109.991 474.851 109.025C474.851 107.942 475.271 107.111 476.112 106.534C476.959 105.956 478.173 105.667 479.756 105.667H481.263V104.879C481.263 104.163 481.05 103.654 480.623 103.352C480.202 103.05 479.615 102.899 478.86 102.899C478.518 102.899 478.111 102.942 477.638 103.027C477.166 103.113 476.663 103.247 476.131 103.431L475.649 102.052C476.292 101.809 476.906 101.635 477.491 101.53C478.082 101.425 478.633 101.372 479.145 101.372C480.485 101.372 481.486 101.678 482.149 102.288C482.813 102.893 483.144 103.723 483.144 104.78V109.616ZM478.761 110.828C479.247 110.828 479.713 110.703 480.16 110.454C480.606 110.204 480.974 109.856 481.263 109.41V106.898H479.884C478.787 106.898 478.009 107.085 477.55 107.459C477.09 107.827 476.86 108.333 476.86 108.976C476.86 109.58 477.018 110.04 477.333 110.355C477.648 110.67 478.124 110.828 478.761 110.828ZM487.736 97.9448C487.736 97.5246 487.89 97.17 488.199 96.8811C488.508 96.5922 488.872 96.4477 489.292 96.4477C489.719 96.4477 490.084 96.5922 490.386 96.8811C490.694 97.17 490.849 97.5246 490.849 97.9448C490.849 98.1484 490.816 98.3519 490.75 98.5555C490.691 98.7525 490.579 99.0217 490.415 99.3631L488.849 102.682H487.49L488.278 99.0874C488.114 98.9626 487.982 98.8017 487.884 98.6047C487.785 98.4077 487.736 98.1878 487.736 97.9448ZM492.04 97.9448C492.04 97.5246 492.195 97.17 492.503 96.8811C492.818 96.5922 493.183 96.4477 493.597 96.4477C494.03 96.4477 494.398 96.5922 494.7 96.8811C495.002 97.17 495.153 97.5246 495.153 97.9448C495.153 98.1484 495.127 98.3519 495.074 98.5555C495.021 98.7525 494.913 99.0217 494.749 99.3631L493.163 102.682H491.804L492.612 99.0874C492.441 98.9626 492.303 98.8017 492.198 98.6047C492.093 98.4077 492.04 98.1878 492.04 97.9448ZM503.143 108.631C503.622 108.631 504.023 108.792 504.345 109.114C504.666 109.436 504.827 109.83 504.827 110.296C504.827 110.559 504.791 110.825 504.719 111.094C504.653 111.357 504.535 111.668 504.364 112.03L502.798 115.615H501.212L502.168 111.675C501.958 111.524 501.79 111.327 501.665 111.084C501.541 110.834 501.478 110.569 501.478 110.286C501.478 109.827 501.636 109.436 501.951 109.114C502.273 108.792 502.67 108.631 503.143 108.631ZM430.589 142.562C430.589 142.115 430.75 141.728 431.071 141.4C431.393 141.071 431.787 140.907 432.253 140.907C432.733 140.907 433.133 141.071 433.455 141.4C433.777 141.728 433.937 142.115 433.937 142.562C433.937 143.028 433.777 143.425 433.455 143.754C433.133 144.082 432.733 144.246 432.253 144.246C431.787 144.246 431.393 144.082 431.071 143.754C430.75 143.425 430.589 143.028 430.589 142.562ZM430.589 135.51C430.589 135.195 430.661 134.912 430.805 134.663C430.956 134.413 431.157 134.216 431.406 134.072C431.662 133.921 431.945 133.845 432.253 133.845C432.733 133.845 433.133 134.009 433.455 134.338C433.777 134.659 433.937 135.05 433.937 135.51C433.937 135.963 433.777 136.357 433.455 136.692C433.133 137.02 432.733 137.184 432.253 137.184C431.787 137.184 431.393 137.02 431.071 136.692C430.75 136.357 430.589 135.963 430.589 135.51ZM456.842 132.053V144H454.892V132.053H450.715V130.427H461.087L460.88 132.053H456.842ZM463.778 144V142.601H465.354V135.017H463.778V133.619H466.802L467.146 136.051C467.54 135.191 468.023 134.531 468.594 134.072C469.172 133.606 469.921 133.372 470.84 133.372C471.142 133.372 471.408 133.395 471.638 133.441C471.874 133.487 472.114 133.546 472.357 133.619L471.795 135.273C471.579 135.208 471.382 135.162 471.204 135.135C471.027 135.109 470.824 135.096 470.594 135.096C469.812 135.096 469.143 135.378 468.584 135.943C468.026 136.508 467.58 137.338 467.245 138.435V142.601H469.353V144H463.778ZM470.604 137.263V134.879L470.82 133.619H472.357L472.061 137.263H470.604ZM477.382 133.619V140.927C477.382 141.584 477.517 142.056 477.786 142.345C478.055 142.628 478.466 142.769 479.017 142.769C479.549 142.769 480.055 142.615 480.534 142.306C481.013 141.997 481.388 141.63 481.657 141.203V133.619H483.548V144H481.923L481.785 142.631C481.391 143.15 480.895 143.55 480.298 143.833C479.7 144.108 479.096 144.246 478.485 144.246C477.481 144.246 476.729 143.974 476.23 143.429C475.737 142.884 475.491 142.129 475.491 141.163V133.619H477.382ZM488.829 139.45C488.869 140.211 489.023 140.835 489.292 141.321C489.562 141.8 489.913 142.155 490.346 142.385C490.78 142.608 491.259 142.72 491.784 142.72C492.303 142.72 492.779 142.641 493.212 142.483C493.646 142.326 494.086 142.096 494.532 141.794L495.389 142.986C494.903 143.373 494.342 143.682 493.705 143.911C493.068 144.135 492.408 144.246 491.725 144.246C490.688 144.246 489.805 144.02 489.076 143.567C488.353 143.107 487.802 142.47 487.421 141.656C487.047 140.842 486.86 139.896 486.86 138.819C486.86 137.775 487.047 136.843 487.421 136.022C487.802 135.201 488.337 134.554 489.026 134.082C489.716 133.609 490.537 133.372 491.489 133.372C492.382 133.372 493.15 133.579 493.794 133.993C494.444 134.407 494.943 134.998 495.291 135.766C495.639 136.528 495.813 137.44 495.813 138.504C495.813 138.681 495.809 138.852 495.803 139.016C495.796 139.18 495.786 139.325 495.773 139.45H488.829ZM491.509 134.85C490.773 134.85 490.159 135.113 489.667 135.638C489.181 136.163 488.902 136.974 488.829 138.071H493.991C493.971 137.02 493.741 136.222 493.301 135.677C492.868 135.126 492.27 134.85 491.509 134.85ZM503.143 140.631C503.622 140.631 504.023 140.792 504.345 141.114C504.666 141.436 504.827 141.83 504.827 142.296C504.827 142.559 504.791 142.825 504.719 143.094C504.653 143.357 504.535 143.668 504.364 144.03L502.798 147.615H501.212L502.168 143.675C501.958 143.524 501.79 143.327 501.665 143.084C501.541 142.834 501.478 142.569 501.478 142.286C501.478 141.827 501.636 141.436 501.951 141.114C502.273 140.792 502.67 140.631 503.143 140.631ZM418.777 174.562C418.777 174.115 418.938 173.728 419.26 173.4C419.581 173.071 419.975 172.907 420.442 172.907C420.921 172.907 421.321 173.071 421.643 173.4C421.965 173.728 422.126 174.115 422.126 174.562C422.126 175.028 421.965 175.425 421.643 175.754C421.321 176.082 420.921 176.246 420.442 176.246C419.975 176.246 419.581 176.082 419.26 175.754C418.938 175.425 418.777 175.028 418.777 174.562ZM418.777 167.51C418.777 167.195 418.849 166.912 418.994 166.663C419.145 166.413 419.345 166.216 419.594 166.072C419.851 165.921 420.133 165.845 420.442 165.845C420.921 165.845 421.321 166.009 421.643 166.338C421.965 166.659 422.126 167.05 422.126 167.51C422.126 167.963 421.965 168.357 421.643 168.692C421.321 169.02 420.921 169.184 420.442 169.184C419.975 169.184 419.581 169.02 419.26 168.692C418.938 168.357 418.777 167.963 418.777 167.51ZM445.03 164.053V176H443.08V164.053H438.904V162.427H449.275L449.068 164.053H445.03ZM451.966 176V174.601H453.542V167.017H451.966V165.619H454.99L455.335 168.051C455.729 167.191 456.211 166.531 456.783 166.072C457.361 165.606 458.109 165.372 459.028 165.372C459.33 165.372 459.596 165.395 459.826 165.441C460.063 165.487 460.302 165.546 460.545 165.619L459.984 167.273C459.767 167.208 459.57 167.162 459.393 167.135C459.216 167.109 459.012 167.096 458.782 167.096C458.001 167.096 457.331 167.378 456.773 167.943C456.215 168.508 455.768 169.338 455.433 170.435V174.601H457.541V176H451.966ZM458.792 169.263V166.879L459.009 165.619H460.545L460.25 169.263H458.792ZM465.571 165.619V172.927C465.571 173.584 465.705 174.056 465.974 174.345C466.244 174.628 466.654 174.769 467.206 174.769C467.737 174.769 468.243 174.615 468.722 174.306C469.202 173.997 469.576 173.63 469.845 173.203V165.619H471.736V176H470.111L469.973 174.631C469.579 175.15 469.084 175.55 468.486 175.833C467.888 176.108 467.284 176.246 466.674 176.246C465.669 176.246 464.917 175.974 464.418 175.429C463.926 174.884 463.679 174.129 463.679 173.163V165.619H465.571ZM477.018 171.45C477.057 172.211 477.211 172.835 477.481 173.321C477.75 173.8 478.101 174.155 478.535 174.385C478.968 174.608 479.447 174.72 479.973 174.72C480.491 174.72 480.967 174.641 481.401 174.483C481.834 174.326 482.274 174.096 482.721 173.794L483.578 174.986C483.092 175.373 482.53 175.682 481.893 175.911C481.256 176.135 480.596 176.246 479.914 176.246C478.876 176.246 477.993 176.02 477.264 175.567C476.542 175.107 475.99 174.47 475.609 173.656C475.235 172.842 475.048 171.896 475.048 170.819C475.048 169.775 475.235 168.843 475.609 168.022C475.99 167.201 476.525 166.554 477.215 166.082C477.904 165.609 478.725 165.372 479.677 165.372C480.57 165.372 481.338 165.579 481.982 165.993C482.632 166.407 483.131 166.998 483.479 167.766C483.827 168.528 484.001 169.44 484.001 170.504C484.001 170.681 483.998 170.852 483.991 171.016C483.985 171.18 483.975 171.325 483.962 171.45H477.018ZM479.697 166.85C478.961 166.85 478.347 167.113 477.855 167.638C477.369 168.163 477.09 168.974 477.018 170.071H482.179C482.159 169.02 481.929 168.222 481.489 167.677C481.056 167.126 480.459 166.85 479.697 166.85Z" fill="black"/>
<path d="M298.316 80V69.6187H299.941L300.079 71.0173C300.506 70.4854 301.025 70.0783 301.635 69.796C302.253 69.5136 302.867 69.3724 303.477 69.3724C304.475 69.3724 305.211 69.6449 305.684 70.1899C306.156 70.7284 306.393 71.4802 306.393 72.4455V80H304.502V73.6077C304.502 72.9511 304.462 72.4192 304.383 72.0121C304.311 71.5984 304.157 71.2996 303.921 71.1158C303.684 70.9319 303.326 70.84 302.847 70.84C302.473 70.84 302.118 70.9221 301.783 71.0862C301.448 71.2504 301.146 71.4572 300.877 71.7068C300.614 71.9563 300.391 72.2156 300.207 72.4849V80H298.316ZM317.781 77.6164C317.781 78.0301 317.847 78.3322 317.978 78.5226C318.109 78.7064 318.316 78.8443 318.598 78.9363L318.155 80.2364C317.682 80.1773 317.272 80.0361 316.924 79.8129C316.576 79.5896 316.317 79.2482 316.146 78.7885C315.772 79.2679 315.299 79.6323 314.728 79.8818C314.156 80.1248 313.536 80.2462 312.866 80.2462C311.822 80.2462 310.998 79.9508 310.394 79.3598C309.79 78.7688 309.488 77.9907 309.488 77.0255C309.488 75.942 309.908 75.1114 310.748 74.5335C311.595 73.9557 312.81 73.6668 314.393 73.6668H315.9V72.8788C315.9 72.1631 315.686 71.6542 315.259 71.3522C314.839 71.0501 314.252 70.8991 313.496 70.8991C313.155 70.8991 312.748 70.9418 312.275 71.0271C311.802 71.1125 311.3 71.2471 310.768 71.431L310.285 70.052C310.929 69.8091 311.543 69.6351 312.127 69.53C312.718 69.425 313.27 69.3724 313.782 69.3724C315.122 69.3724 316.123 69.6778 316.786 70.2884C317.449 70.8925 317.781 71.7232 317.781 72.7803V77.6164ZM313.398 78.8279C313.884 78.8279 314.35 78.7032 314.797 78.4536C315.243 78.2041 315.611 77.8561 315.9 77.4096V74.898H314.521C313.424 74.898 312.646 75.0851 312.186 75.4594C311.727 75.8271 311.497 76.3327 311.497 76.9762C311.497 77.5803 311.655 78.04 311.97 78.3551C312.285 78.6703 312.761 78.8279 313.398 78.8279ZM328.923 69.3724C329.284 69.3724 329.619 69.4512 329.927 69.6088C330.236 69.7664 330.486 70.0553 330.676 70.4756C330.866 70.8892 330.962 71.4901 330.962 72.278V80H329.238V72.5538C329.238 71.9497 329.199 71.5163 329.12 71.2537C329.048 70.9845 328.837 70.8498 328.489 70.8498C328.201 70.8498 327.915 70.9385 327.633 71.1158C327.35 71.2931 327.071 71.5886 326.795 72.0022V80H325.141V72.5538C325.141 71.9497 325.101 71.5163 325.022 71.2537C324.95 70.9845 324.74 70.8498 324.392 70.8498C324.097 70.8498 323.808 70.9385 323.525 71.1158C323.25 71.2931 322.974 71.5886 322.698 72.0022V80H320.974V69.6187H322.432L322.55 70.7809C322.839 70.3738 323.158 70.0389 323.506 69.7763C323.86 69.507 324.29 69.3724 324.796 69.3724C325.19 69.3724 325.554 69.4676 325.889 69.6581C326.231 69.8485 326.48 70.2031 326.638 70.7218C326.92 70.3213 327.242 69.9962 327.603 69.7467C327.964 69.4972 328.404 69.3724 328.923 69.3724ZM335.278 75.4495C335.317 76.2112 335.472 76.835 335.741 77.3209C336.01 77.8003 336.361 78.1549 336.795 78.3847C337.228 78.6079 337.707 78.7196 338.233 78.7196C338.751 78.7196 339.228 78.6408 339.661 78.4832C340.094 78.3256 340.534 78.0958 340.981 77.7937L341.838 78.9855C341.352 79.3729 340.79 79.6815 340.153 79.9114C339.516 80.1346 338.857 80.2462 338.174 80.2462C337.136 80.2462 336.253 80.0197 335.524 79.5666C334.802 79.107 334.25 78.4701 333.869 77.6558C333.495 76.8416 333.308 75.8961 333.308 74.8192C333.308 73.7751 333.495 72.8427 333.869 72.0219C334.25 71.2011 334.785 70.5544 335.475 70.0816C336.164 69.6088 336.985 69.3724 337.937 69.3724C338.83 69.3724 339.599 69.5793 340.242 69.9929C340.892 70.4066 341.391 70.9976 341.739 71.7658C342.087 72.5275 342.261 73.4403 342.261 74.504C342.261 74.6813 342.258 74.852 342.251 75.0162C342.245 75.1803 342.235 75.3248 342.222 75.4495H335.278ZM337.957 70.8498C337.221 70.8498 336.608 71.1125 336.115 71.6378C335.629 72.1631 335.35 72.974 335.278 74.0706H340.439C340.419 73.02 340.189 72.2222 339.75 71.6772C339.316 71.1256 338.719 70.8498 337.957 70.8498ZM301.951 110.739C302.706 110.739 303.3 110.601 303.733 110.326C304.173 110.05 304.393 109.676 304.393 109.203C304.393 108.901 304.334 108.641 304.216 108.425C304.104 108.208 303.868 108.011 303.507 107.834C303.152 107.656 302.614 107.476 301.892 107.292C301.189 107.115 300.575 106.908 300.05 106.671C299.524 106.435 299.117 106.126 298.828 105.746C298.546 105.365 298.405 104.872 298.405 104.268C298.405 103.677 298.569 103.165 298.897 102.732C299.232 102.298 299.702 101.963 300.306 101.727C300.916 101.491 301.626 101.372 302.433 101.372C303.287 101.372 304.029 101.487 304.659 101.717C305.296 101.94 305.835 102.216 306.275 102.545L305.467 103.776C305.066 103.506 304.626 103.287 304.147 103.116C303.674 102.945 303.116 102.86 302.473 102.86C301.704 102.86 301.156 102.978 300.828 103.214C300.506 103.444 300.345 103.749 300.345 104.13C300.345 104.413 300.424 104.649 300.582 104.839C300.746 105.023 301.025 105.194 301.419 105.352C301.813 105.509 302.358 105.683 303.054 105.874C303.73 106.057 304.321 106.274 304.827 106.524C305.332 106.773 305.723 107.102 305.999 107.509C306.281 107.909 306.422 108.438 306.422 109.094C306.422 109.836 306.209 110.441 305.782 110.907C305.355 111.366 304.8 111.705 304.118 111.921C303.441 112.138 302.719 112.246 301.951 112.246C301.005 112.246 300.191 112.108 299.508 111.833C298.832 111.557 298.264 111.219 297.804 110.818L298.848 109.616C299.255 109.951 299.721 110.224 300.247 110.434C300.772 110.637 301.34 110.739 301.951 110.739ZM312.019 101.619V108.927C312.019 109.584 312.154 110.056 312.423 110.345C312.692 110.628 313.102 110.769 313.654 110.769C314.186 110.769 314.691 110.615 315.171 110.306C315.65 109.997 316.024 109.63 316.294 109.203V101.619H318.185V112H316.56L316.422 110.631C316.028 111.15 315.532 111.55 314.934 111.833C314.337 112.108 313.733 112.246 313.122 112.246C312.117 112.246 311.366 111.974 310.867 111.429C310.374 110.884 310.128 110.129 310.128 109.163V101.619H312.019ZM322.038 112V110.601H323.614V103.017H322.038V101.619H325.062L325.407 104.051C325.801 103.191 326.283 102.531 326.854 102.072C327.432 101.606 328.181 101.372 329.1 101.372C329.402 101.372 329.668 101.395 329.898 101.441C330.134 101.487 330.374 101.546 330.617 101.619L330.056 103.273C329.839 103.208 329.642 103.162 329.465 103.135C329.287 103.109 329.084 103.096 328.854 103.096C328.072 103.096 327.403 103.378 326.845 103.943C326.286 104.508 325.84 105.338 325.505 106.435V110.601H327.613V112H322.038ZM328.864 105.263V102.879L329.08 101.619H330.617L330.321 105.263H328.864ZM333.751 112V101.619H335.376L335.514 103.017C335.941 102.485 336.46 102.078 337.07 101.796C337.688 101.514 338.302 101.372 338.912 101.372C339.91 101.372 340.646 101.645 341.119 102.19C341.591 102.728 341.828 103.48 341.828 104.445V112H339.937V105.608C339.937 104.951 339.897 104.419 339.818 104.012C339.746 103.598 339.592 103.3 339.356 103.116C339.119 102.932 338.761 102.84 338.282 102.84C337.908 102.84 337.553 102.922 337.218 103.086C336.883 103.25 336.581 103.457 336.312 103.707C336.049 103.956 335.826 104.216 335.642 104.485V112H333.751ZM353.216 109.616C353.216 110.03 353.282 110.332 353.413 110.523C353.544 110.706 353.751 110.844 354.033 110.936L353.59 112.236C353.117 112.177 352.707 112.036 352.359 111.813C352.011 111.59 351.752 111.248 351.581 110.789C351.207 111.268 350.734 111.632 350.163 111.882C349.591 112.125 348.971 112.246 348.301 112.246C347.257 112.246 346.433 111.951 345.829 111.36C345.225 110.769 344.923 109.991 344.923 109.025C344.923 107.942 345.343 107.111 346.183 106.534C347.03 105.956 348.245 105.667 349.828 105.667H351.335V104.879C351.335 104.163 351.121 103.654 350.694 103.352C350.274 103.05 349.687 102.899 348.931 102.899C348.59 102.899 348.183 102.942 347.71 103.027C347.237 103.113 346.735 103.247 346.203 103.431L345.72 102.052C346.364 101.809 346.978 101.635 347.562 101.53C348.153 101.425 348.705 101.372 349.217 101.372C350.557 101.372 351.558 101.678 352.221 102.288C352.884 102.893 353.216 103.723 353.216 104.78V109.616ZM348.833 110.828C349.319 110.828 349.785 110.703 350.232 110.454C350.678 110.204 351.046 109.856 351.335 109.41V106.898H349.956C348.859 106.898 348.081 107.085 347.621 107.459C347.162 107.827 346.932 108.333 346.932 108.976C346.932 109.58 347.09 110.04 347.405 110.355C347.72 110.67 348.196 110.828 348.833 110.828ZM364.358 101.372C364.719 101.372 365.054 101.451 365.362 101.609C365.671 101.766 365.921 102.055 366.111 102.476C366.301 102.889 366.397 103.49 366.397 104.278V112H364.673V104.554C364.673 103.95 364.634 103.516 364.555 103.254C364.483 102.984 364.272 102.85 363.924 102.85C363.636 102.85 363.35 102.938 363.068 103.116C362.785 103.293 362.506 103.589 362.23 104.002V112H360.576V104.554C360.576 103.95 360.536 103.516 360.457 103.254C360.385 102.984 360.175 102.85 359.827 102.85C359.532 102.85 359.243 102.938 358.96 103.116C358.685 103.293 358.409 103.589 358.133 104.002V112H356.409V101.619H357.867L357.985 102.781C358.274 102.374 358.593 102.039 358.941 101.776C359.295 101.507 359.725 101.372 360.231 101.372C360.625 101.372 360.989 101.468 361.324 101.658C361.666 101.848 361.915 102.203 362.073 102.722C362.355 102.321 362.677 101.996 363.038 101.747C363.399 101.497 363.839 101.372 364.358 101.372ZM370.713 107.45C370.752 108.211 370.907 108.835 371.176 109.321C371.445 109.8 371.796 110.155 372.23 110.385C372.663 110.608 373.142 110.72 373.668 110.72C374.186 110.72 374.662 110.641 375.096 110.483C375.529 110.326 375.969 110.096 376.416 109.794L377.273 110.986C376.787 111.373 376.225 111.682 375.588 111.911C374.951 112.135 374.291 112.246 373.609 112.246C372.571 112.246 371.688 112.02 370.959 111.567C370.237 111.107 369.685 110.47 369.304 109.656C368.93 108.842 368.743 107.896 368.743 106.819C368.743 105.775 368.93 104.843 369.304 104.022C369.685 103.201 370.22 102.554 370.91 102.082C371.599 101.609 372.42 101.372 373.372 101.372C374.265 101.372 375.033 101.579 375.677 101.993C376.327 102.407 376.826 102.998 377.174 103.766C377.522 104.528 377.696 105.44 377.696 106.504C377.696 106.681 377.693 106.852 377.686 107.016C377.68 107.18 377.67 107.325 377.657 107.45H370.713ZM373.392 102.85C372.656 102.85 372.043 103.113 371.55 103.638C371.064 104.163 370.785 104.974 370.713 106.071H375.874C375.854 105.02 375.624 104.222 375.185 103.677C374.751 103.126 374.154 102.85 373.392 102.85ZM303.753 133.619V142.562H306.639V144H298.7V142.562H301.862V135.057H298.799V133.619H303.753ZM302.345 128.655C302.739 128.655 303.054 128.776 303.29 129.019C303.533 129.262 303.655 129.557 303.655 129.905C303.655 130.267 303.533 130.572 303.29 130.821C303.054 131.064 302.739 131.186 302.345 131.186C301.957 131.186 301.642 131.064 301.399 130.821C301.163 130.572 301.045 130.267 301.045 129.905C301.045 129.557 301.163 129.262 301.399 129.019C301.642 128.776 301.957 128.655 302.345 128.655ZM313.762 142.739C314.517 142.739 315.112 142.601 315.545 142.326C315.985 142.05 316.205 141.676 316.205 141.203C316.205 140.901 316.146 140.641 316.028 140.425C315.916 140.208 315.68 140.011 315.319 139.834C314.964 139.656 314.426 139.476 313.703 139.292C313.001 139.115 312.387 138.908 311.861 138.671C311.336 138.435 310.929 138.126 310.64 137.746C310.358 137.365 310.217 136.872 310.217 136.268C310.217 135.677 310.381 135.165 310.709 134.732C311.044 134.298 311.513 133.963 312.117 133.727C312.728 133.491 313.437 133.372 314.245 133.372C315.099 133.372 315.841 133.487 316.471 133.717C317.108 133.94 317.646 134.216 318.086 134.545L317.279 135.776C316.878 135.506 316.438 135.287 315.959 135.116C315.486 134.945 314.928 134.86 314.284 134.86C313.516 134.86 312.968 134.978 312.639 135.214C312.318 135.444 312.157 135.749 312.157 136.13C312.157 136.413 312.236 136.649 312.393 136.839C312.557 137.023 312.836 137.194 313.23 137.352C313.624 137.509 314.169 137.683 314.865 137.874C315.542 138.057 316.133 138.274 316.638 138.524C317.144 138.773 317.535 139.102 317.81 139.509C318.093 139.909 318.234 140.438 318.234 141.094C318.234 141.836 318.021 142.441 317.594 142.907C317.167 143.366 316.612 143.705 315.929 143.921C315.253 144.138 314.531 144.246 313.762 144.246C312.817 144.246 312.003 144.108 311.32 143.833C310.643 143.557 310.075 143.219 309.616 142.818L310.66 141.616C311.067 141.951 311.533 142.224 312.058 142.434C312.584 142.637 313.152 142.739 313.762 142.739ZM328.943 137.145C328.943 136.002 328.824 135.09 328.588 134.407C328.352 133.717 328.04 133.198 327.652 132.85C327.271 132.502 326.848 132.269 326.382 132.151C325.922 132.033 325.462 131.974 325.003 131.974H323.555V142.473H325.022C325.502 142.473 325.975 142.398 326.441 142.247C326.907 142.096 327.327 141.827 327.701 141.439C328.076 141.052 328.375 140.51 328.598 139.814C328.828 139.118 328.943 138.228 328.943 137.145ZM331.011 137.145C331.011 138.274 330.889 139.236 330.646 140.031C330.41 140.825 330.082 141.482 329.662 142.001C329.248 142.519 328.775 142.926 328.243 143.222C327.711 143.511 327.15 143.714 326.559 143.833C325.968 143.944 325.384 144 324.806 144H321.605V130.427H324.589C325.39 130.427 326.172 130.516 326.933 130.693C327.701 130.864 328.391 131.189 329.002 131.668C329.619 132.148 330.108 132.827 330.469 133.707C330.83 134.587 331.011 135.733 331.011 137.145ZM335.278 139.45C335.317 140.211 335.472 140.835 335.741 141.321C336.01 141.8 336.361 142.155 336.795 142.385C337.228 142.608 337.707 142.72 338.233 142.72C338.751 142.72 339.228 142.641 339.661 142.483C340.094 142.326 340.534 142.096 340.981 141.794L341.838 142.986C341.352 143.373 340.79 143.682 340.153 143.911C339.516 144.135 338.857 144.246 338.174 144.246C337.136 144.246 336.253 144.02 335.524 143.567C334.802 143.107 334.25 142.47 333.869 141.656C333.495 140.842 333.308 139.896 333.308 138.819C333.308 137.775 333.495 136.843 333.869 136.022C334.25 135.201 334.785 134.554 335.475 134.082C336.164 133.609 336.985 133.372 337.937 133.372C338.83 133.372 339.599 133.579 340.242 133.993C340.892 134.407 341.391 134.998 341.739 135.766C342.087 136.528 342.261 137.44 342.261 138.504C342.261 138.681 342.258 138.852 342.251 139.016C342.245 139.18 342.235 139.325 342.222 139.45H335.278ZM337.957 134.85C337.221 134.85 336.608 135.113 336.115 135.638C335.629 136.163 335.35 136.974 335.278 138.071H340.439C340.419 137.02 340.189 136.222 339.75 135.677C339.316 135.126 338.719 134.85 337.957 134.85ZM354.408 133.619L350.685 144H348.478L344.775 133.619H346.784L349.631 142.355L352.467 133.619H354.408ZM358.901 139.45C358.941 140.211 359.095 140.835 359.364 141.321C359.633 141.8 359.985 142.155 360.418 142.385C360.851 142.608 361.331 142.72 361.856 142.72C362.375 142.72 362.851 142.641 363.284 142.483C363.718 142.326 364.158 142.096 364.604 141.794L365.461 142.986C364.975 143.373 364.414 143.682 363.777 143.911C363.14 144.135 362.48 144.246 361.797 144.246C360.759 144.246 359.876 144.02 359.147 143.567C358.425 143.107 357.874 142.47 357.493 141.656C357.118 140.842 356.931 139.896 356.931 138.819C356.931 137.775 357.118 136.843 357.493 136.022C357.874 135.201 358.409 134.554 359.098 134.082C359.788 133.609 360.608 133.372 361.561 133.372C362.454 133.372 363.222 133.579 363.865 133.993C364.515 134.407 365.014 134.998 365.362 135.766C365.71 136.528 365.884 137.44 365.884 138.504C365.884 138.681 365.881 138.852 365.875 139.016C365.868 139.18 365.858 139.325 365.845 139.45H358.901ZM361.58 134.85C360.845 134.85 360.231 135.113 359.738 135.638C359.252 136.163 358.973 136.974 358.901 138.071H364.062C364.043 137.02 363.813 136.222 363.373 135.677C362.939 135.126 362.342 134.85 361.58 134.85ZM373.451 129.442V141.321C373.451 141.82 373.605 142.175 373.914 142.385C374.223 142.588 374.62 142.69 375.106 142.69C375.414 142.69 375.707 142.657 375.982 142.592C376.258 142.526 376.534 142.441 376.81 142.335L377.302 143.685C377.013 143.829 376.652 143.957 376.219 144.069C375.785 144.187 375.296 144.246 374.751 144.246C373.779 144.246 373.004 143.974 372.427 143.429C371.849 142.884 371.56 142.135 371.56 141.183V130.881H368.398V129.442H373.451ZM385.046 133.372C386.037 133.372 386.868 133.596 387.538 134.042C388.214 134.489 388.723 135.119 389.065 135.933C389.413 136.741 389.587 137.696 389.587 138.799C389.587 139.87 389.409 140.815 389.055 141.636C388.707 142.45 388.195 143.091 387.518 143.557C386.842 144.016 386.011 144.246 385.026 144.246C384.041 144.246 383.207 144.023 382.525 143.576C381.848 143.13 381.336 142.5 380.988 141.685C380.64 140.871 380.466 139.916 380.466 138.819C380.466 137.742 380.64 136.797 380.988 135.983C381.343 135.162 381.861 134.522 382.544 134.062C383.227 133.602 384.061 133.372 385.046 133.372ZM385.046 134.879C384.192 134.879 383.549 135.201 383.115 135.845C382.682 136.482 382.465 137.473 382.465 138.819C382.465 140.152 382.679 141.14 383.106 141.784C383.532 142.421 384.173 142.739 385.026 142.739C385.88 142.739 386.52 142.421 386.947 141.784C387.374 141.14 387.587 140.146 387.587 138.799C387.587 137.46 387.374 136.472 386.947 135.835C386.527 135.198 385.893 134.879 385.046 134.879ZM397.636 133.372C398.555 133.372 399.29 133.599 399.842 134.052C400.394 134.499 400.791 135.129 401.034 135.943C401.277 136.751 401.398 137.703 401.398 138.799C401.398 139.85 401.25 140.786 400.955 141.607C400.66 142.427 400.216 143.074 399.625 143.547C399.034 144.013 398.292 144.246 397.399 144.246C396.277 144.246 395.377 143.852 394.701 143.064V147.979L392.81 148.206V133.619H394.435L394.573 135.017C394.96 134.485 395.416 134.078 395.942 133.796C396.467 133.514 397.032 133.372 397.636 133.372ZM397.153 134.86C396.615 134.86 396.139 135.024 395.725 135.352C395.311 135.674 394.97 136.042 394.701 136.455V141.479C394.963 141.866 395.285 142.171 395.666 142.395C396.047 142.611 396.47 142.72 396.936 142.72C397.751 142.72 398.365 142.404 398.778 141.774C399.192 141.137 399.399 140.146 399.399 138.799C399.399 137.9 399.317 137.161 399.153 136.583C398.988 135.999 398.739 135.566 398.404 135.283C398.076 135.001 397.659 134.86 397.153 134.86ZM406.148 139.45C406.187 140.211 406.342 140.835 406.611 141.321C406.88 141.8 407.231 142.155 407.665 142.385C408.098 142.608 408.577 142.72 409.103 142.72C409.621 142.72 410.097 142.641 410.531 142.483C410.964 142.326 411.404 142.096 411.851 141.794L412.708 142.986C412.222 143.373 411.66 143.682 411.023 143.911C410.386 144.135 409.726 144.246 409.044 144.246C408.006 144.246 407.123 144.02 406.394 143.567C405.672 143.107 405.12 142.47 404.739 141.656C404.365 140.842 404.178 139.896 404.178 138.819C404.178 137.775 404.365 136.843 404.739 136.022C405.12 135.201 405.655 134.554 406.345 134.082C407.034 133.609 407.855 133.372 408.807 133.372C409.7 133.372 410.468 133.579 411.112 133.993C411.762 134.407 412.261 134.998 412.609 135.766C412.957 136.528 413.131 137.44 413.131 138.504C413.131 138.681 413.128 138.852 413.121 139.016C413.115 139.18 413.105 139.325 413.092 139.45H406.148ZM408.827 134.85C408.091 134.85 407.478 135.113 406.985 135.638C406.499 136.163 406.22 136.974 406.148 138.071H411.309C411.289 137.02 411.059 136.222 410.619 135.677C410.186 135.126 409.589 134.85 408.827 134.85ZM416.531 144V142.601H418.107V135.017H416.531V133.619H419.555L419.9 136.051C420.294 135.191 420.776 134.531 421.348 134.072C421.926 133.606 422.674 133.372 423.593 133.372C423.895 133.372 424.161 133.395 424.391 133.441C424.628 133.487 424.867 133.546 425.11 133.619L424.549 135.273C424.332 135.208 424.135 135.162 423.958 135.135C423.781 135.109 423.577 135.096 423.347 135.096C422.566 135.096 421.896 135.378 421.338 135.943C420.78 136.508 420.333 137.338 419.998 138.435V142.601H422.106V144H416.531ZM423.357 137.263V134.879L423.574 133.619H425.11L424.815 137.263H423.357ZM303.753 165.619V174.562H306.639V176H298.7V174.562H301.862V167.057H298.799V165.619H303.753ZM302.345 160.655C302.739 160.655 303.054 160.776 303.29 161.019C303.533 161.262 303.655 161.557 303.655 161.905C303.655 162.267 303.533 162.572 303.29 162.821C303.054 163.064 302.739 163.186 302.345 163.186C301.957 163.186 301.642 163.064 301.399 162.821C301.163 162.572 301.045 162.267 301.045 161.905C301.045 161.557 301.163 161.262 301.399 161.019C301.642 160.776 301.957 160.655 302.345 160.655ZM313.762 174.739C314.517 174.739 315.112 174.601 315.545 174.326C315.985 174.05 316.205 173.676 316.205 173.203C316.205 172.901 316.146 172.641 316.028 172.425C315.916 172.208 315.68 172.011 315.319 171.834C314.964 171.656 314.426 171.476 313.703 171.292C313.001 171.115 312.387 170.908 311.861 170.671C311.336 170.435 310.929 170.126 310.64 169.746C310.358 169.365 310.217 168.872 310.217 168.268C310.217 167.677 310.381 167.165 310.709 166.732C311.044 166.298 311.513 165.963 312.117 165.727C312.728 165.491 313.437 165.372 314.245 165.372C315.099 165.372 315.841 165.487 316.471 165.717C317.108 165.94 317.646 166.216 318.086 166.545L317.279 167.776C316.878 167.506 316.438 167.287 315.959 167.116C315.486 166.945 314.928 166.86 314.284 166.86C313.516 166.86 312.968 166.978 312.639 167.214C312.318 167.444 312.157 167.749 312.157 168.13C312.157 168.413 312.236 168.649 312.393 168.839C312.557 169.023 312.836 169.194 313.23 169.352C313.624 169.509 314.169 169.683 314.865 169.874C315.542 170.057 316.133 170.274 316.638 170.524C317.144 170.773 317.535 171.102 317.81 171.509C318.093 171.909 318.234 172.438 318.234 173.094C318.234 173.836 318.021 174.441 317.594 174.907C317.167 175.366 316.612 175.705 315.929 175.921C315.253 176.138 314.531 176.246 313.762 176.246C312.817 176.246 312.003 176.108 311.32 175.833C310.643 175.557 310.075 175.219 309.616 174.818L310.66 173.616C311.067 173.951 311.533 174.224 312.058 174.434C312.584 174.637 313.152 174.739 313.762 174.739ZM328.943 169.145C328.943 168.002 328.824 167.09 328.588 166.407C328.352 165.717 328.04 165.198 327.652 164.85C327.271 164.502 326.848 164.269 326.382 164.151C325.922 164.033 325.462 163.974 325.003 163.974H323.555V174.473H325.022C325.502 174.473 325.975 174.398 326.441 174.247C326.907 174.096 327.327 173.827 327.701 173.439C328.076 173.052 328.375 172.51 328.598 171.814C328.828 171.118 328.943 170.228 328.943 169.145ZM331.011 169.145C331.011 170.274 330.889 171.236 330.646 172.031C330.41 172.825 330.082 173.482 329.662 174.001C329.248 174.519 328.775 174.926 328.243 175.222C327.711 175.511 327.15 175.714 326.559 175.833C325.968 175.944 325.384 176 324.806 176H321.605V162.427H324.589C325.39 162.427 326.172 162.516 326.933 162.693C327.701 162.864 328.391 163.189 329.002 163.668C329.619 164.148 330.108 164.827 330.469 165.707C330.83 166.587 331.011 167.733 331.011 169.145ZM335.278 171.45C335.317 172.211 335.472 172.835 335.741 173.321C336.01 173.8 336.361 174.155 336.795 174.385C337.228 174.608 337.707 174.72 338.233 174.72C338.751 174.72 339.228 174.641 339.661 174.483C340.094 174.326 340.534 174.096 340.981 173.794L341.838 174.986C341.352 175.373 340.79 175.682 340.153 175.911C339.516 176.135 338.857 176.246 338.174 176.246C337.136 176.246 336.253 176.02 335.524 175.567C334.802 175.107 334.25 174.47 333.869 173.656C333.495 172.842 333.308 171.896 333.308 170.819C333.308 169.775 333.495 168.843 333.869 168.022C334.25 167.201 334.785 166.554 335.475 166.082C336.164 165.609 336.985 165.372 337.937 165.372C338.83 165.372 339.599 165.579 340.242 165.993C340.892 166.407 341.391 166.998 341.739 167.766C342.087 168.528 342.261 169.44 342.261 170.504C342.261 170.681 342.258 170.852 342.251 171.016C342.245 171.18 342.235 171.325 342.222 171.45H335.278ZM337.957 166.85C337.221 166.85 336.608 167.113 336.115 167.638C335.629 168.163 335.35 168.974 335.278 170.071H340.439C340.419 169.02 340.189 168.222 339.75 167.677C339.316 167.126 338.719 166.85 337.957 166.85ZM349.197 174.739C349.952 174.739 350.547 174.601 350.98 174.326C351.42 174.05 351.64 173.676 351.64 173.203C351.64 172.901 351.581 172.641 351.463 172.425C351.351 172.208 351.115 172.011 350.754 171.834C350.399 171.656 349.861 171.476 349.138 171.292C348.436 171.115 347.822 170.908 347.296 170.671C346.771 170.435 346.364 170.126 346.075 169.746C345.793 169.365 345.652 168.872 345.652 168.268C345.652 167.677 345.816 167.165 346.144 166.732C346.479 166.298 346.948 165.963 347.552 165.727C348.163 165.491 348.872 165.372 349.68 165.372C350.534 165.372 351.276 165.487 351.906 165.717C352.543 165.94 353.081 166.216 353.521 166.545L352.714 167.776C352.313 167.506 351.873 167.287 351.394 167.116C350.921 166.945 350.363 166.86 349.719 166.86C348.951 166.86 348.403 166.978 348.074 167.214C347.753 167.444 347.592 167.749 347.592 168.13C347.592 168.413 347.671 168.649 347.828 168.839C347.992 169.023 348.271 169.194 348.665 169.352C349.059 169.509 349.604 169.683 350.3 169.874C350.977 170.057 351.568 170.274 352.073 170.524C352.579 170.773 352.97 171.102 353.245 171.509C353.528 171.909 353.669 172.438 353.669 173.094C353.669 173.836 353.456 174.441 353.029 174.907C352.602 175.366 352.047 175.705 351.364 175.921C350.688 176.138 349.966 176.246 349.197 176.246C348.252 176.246 347.438 176.108 346.755 175.833C346.078 175.557 345.51 175.219 345.051 174.818L346.095 173.616C346.502 173.951 346.968 174.224 347.493 174.434C348.019 174.637 348.587 174.739 349.197 174.739ZM362.811 165.619V174.562H365.697V176H357.759V174.562H360.92V167.057H357.857V165.619H362.811ZM361.403 160.655C361.797 160.655 362.112 160.776 362.349 161.019C362.591 161.262 362.713 161.557 362.713 161.905C362.713 162.267 362.591 162.572 362.349 162.821C362.112 163.064 361.797 163.186 361.403 163.186C361.016 163.186 360.7 163.064 360.457 162.821C360.221 162.572 360.103 162.267 360.103 161.905C360.103 161.557 360.221 161.262 360.457 161.019C360.7 160.776 361.016 160.655 361.403 160.655ZM377.755 164.417L378.307 166.091C377.873 166.229 377.407 166.318 376.908 166.357C376.416 166.397 375.871 166.416 375.273 166.416C375.884 166.692 376.343 167.047 376.652 167.48C376.961 167.914 377.115 168.432 377.115 169.036C377.115 169.719 376.954 170.327 376.632 170.859C376.317 171.39 375.861 171.807 375.263 172.109C374.672 172.412 373.96 172.563 373.126 172.563C372.798 172.563 372.519 172.549 372.289 172.523C372.066 172.49 371.846 172.441 371.629 172.375C371.484 172.474 371.363 172.609 371.264 172.779C371.172 172.95 371.127 173.131 371.127 173.321C371.127 173.551 371.218 173.748 371.402 173.912C371.586 174.07 371.944 174.148 372.476 174.148H374.318C375.033 174.148 375.67 174.273 376.229 174.523C376.793 174.772 377.236 175.11 377.558 175.537C377.88 175.964 378.041 176.45 378.041 176.995C378.041 178.026 377.601 178.817 376.721 179.369C375.841 179.927 374.594 180.206 372.978 180.206C371.836 180.206 370.936 180.088 370.279 179.851C369.629 179.615 369.166 179.263 368.891 178.797C368.621 178.331 368.487 177.747 368.487 177.044H370.191C370.191 177.431 370.266 177.75 370.417 177.999C370.568 178.249 370.844 178.436 371.245 178.561C371.645 178.686 372.223 178.748 372.978 178.748C373.727 178.748 374.331 178.686 374.791 178.561C375.25 178.436 375.588 178.252 375.805 178.009C376.022 177.766 376.13 177.471 376.13 177.123C376.13 176.663 375.923 176.312 375.51 176.069C375.096 175.826 374.567 175.705 373.924 175.705H372.102C371.169 175.705 370.483 175.508 370.043 175.114C369.61 174.713 369.393 174.253 369.393 173.735C369.393 173.393 369.488 173.062 369.679 172.74C369.876 172.418 370.161 172.136 370.536 171.893C369.931 171.571 369.485 171.177 369.196 170.711C368.914 170.245 368.773 169.677 368.773 169.007C368.773 168.291 368.95 167.661 369.304 167.116C369.666 166.571 370.165 166.144 370.801 165.835C371.438 165.527 372.171 165.372 372.998 165.372C373.858 165.372 374.561 165.333 375.106 165.254C375.657 165.169 376.133 165.057 376.534 164.919C376.941 164.775 377.348 164.607 377.755 164.417ZM373.008 166.712C372.233 166.712 371.655 166.929 371.274 167.362C370.893 167.789 370.703 168.337 370.703 169.007C370.703 169.683 370.897 170.238 371.284 170.671C371.672 171.098 372.259 171.312 373.047 171.312C373.743 171.312 374.275 171.111 374.643 170.711C375.011 170.304 375.194 169.729 375.194 168.987C375.194 168.239 375.011 167.674 374.643 167.293C374.275 166.906 373.73 166.712 373.008 166.712ZM380.998 176V165.619H382.623L382.761 167.017C383.188 166.485 383.706 166.078 384.317 165.796C384.934 165.514 385.548 165.372 386.159 165.372C387.157 165.372 387.892 165.645 388.365 166.19C388.838 166.728 389.074 167.48 389.074 168.445V176H387.183V169.608C387.183 168.951 387.144 168.419 387.065 168.012C386.993 167.598 386.839 167.3 386.602 167.116C386.366 166.932 386.008 166.84 385.529 166.84C385.154 166.84 384.8 166.922 384.465 167.086C384.13 167.25 383.828 167.457 383.559 167.707C383.296 167.956 383.073 168.216 382.889 168.485V176H380.998ZM394.336 171.45C394.376 172.211 394.53 172.835 394.799 173.321C395.068 173.8 395.42 174.155 395.853 174.385C396.286 174.608 396.766 174.72 397.291 174.72C397.81 174.72 398.286 174.641 398.719 174.483C399.153 174.326 399.592 174.096 400.039 173.794L400.896 174.986C400.41 175.373 399.849 175.682 399.212 175.911C398.575 176.135 397.915 176.246 397.232 176.246C396.194 176.246 395.311 176.02 394.582 175.567C393.86 175.107 393.309 174.47 392.928 173.656C392.553 172.842 392.366 171.896 392.366 170.819C392.366 169.775 392.553 168.843 392.928 168.022C393.309 167.201 393.844 166.554 394.533 166.082C395.223 165.609 396.043 165.372 396.996 165.372C397.889 165.372 398.657 165.579 399.3 165.993C399.95 166.407 400.449 166.998 400.797 167.766C401.145 168.528 401.319 169.44 401.319 170.504C401.319 170.681 401.316 170.852 401.31 171.016C401.303 171.18 401.293 171.325 401.28 171.45H394.336ZM397.015 166.85C396.28 166.85 395.666 167.113 395.173 167.638C394.687 168.163 394.408 168.974 394.336 170.071H399.497C399.478 169.02 399.248 168.222 398.808 167.677C398.374 167.126 397.777 166.85 397.015 166.85ZM404.72 176V174.601H406.296V167.017H404.72V165.619H407.743L408.088 168.051C408.482 167.191 408.965 166.531 409.536 166.072C410.114 165.606 410.862 165.372 411.782 165.372C412.084 165.372 412.35 165.395 412.58 165.441C412.816 165.487 413.056 165.546 413.299 165.619L412.737 167.273C412.52 167.208 412.323 167.162 412.146 167.135C411.969 167.109 411.765 167.096 411.535 167.096C410.754 167.096 410.084 167.378 409.526 167.943C408.968 168.508 408.522 169.338 408.187 170.435V174.601H410.294V176H404.72ZM411.545 169.263V166.879L411.762 165.619H413.299L413.003 169.263H411.545Z" fill="#A50665"/>
<path d="M263.876 191.532C264.487 191.532 265.055 191.584 265.58 191.689C266.105 191.788 266.562 191.955 266.949 192.192C267.336 192.428 267.622 192.75 267.806 193.157C267.996 193.564 268.059 194.076 267.993 194.693L267.609 198.298C267.563 198.758 267.625 199.139 267.796 199.441C267.973 199.743 268.282 199.969 268.722 200.12C269.168 200.271 269.776 200.347 270.544 200.347V201.864C269.782 201.864 269.178 201.943 268.732 202.1C268.285 202.251 267.973 202.481 267.796 202.79C267.625 203.092 267.563 203.469 267.609 203.922L267.993 207.517C268.059 208.135 267.996 208.647 267.806 209.054C267.622 209.461 267.336 209.783 266.949 210.019C266.568 210.262 266.112 210.433 265.58 210.531C265.055 210.63 264.487 210.679 263.876 210.679V209.241C264.349 209.241 264.769 209.195 265.137 209.103C265.511 209.018 265.8 208.863 266.004 208.64C266.207 208.417 266.289 208.112 266.25 207.724L265.856 203.863C265.797 203.253 265.839 202.763 265.984 202.396C266.128 202.021 266.375 201.736 266.723 201.539C267.071 201.342 267.524 201.204 268.082 201.125C267.537 201.033 267.087 200.882 266.732 200.672C266.384 200.455 266.135 200.16 265.984 199.786C265.839 199.411 265.797 198.932 265.856 198.348L266.25 194.487C266.289 194.099 266.207 193.797 266.004 193.58C265.8 193.357 265.511 193.2 265.137 193.108C264.769 193.016 264.349 192.97 263.876 192.97V191.532Z" fill="#0A9EF1"/>
<path d="M51.7075 335.651C52.2131 335.651 52.6826 335.565 53.116 335.395C53.5559 335.224 53.9663 335.007 54.3471 334.744L55.2533 335.976C54.8002 336.363 54.2519 336.672 53.6084 336.902C52.9649 337.131 52.3214 337.246 51.6779 337.246C50.6339 337.246 49.7409 337.023 48.9989 336.576C48.2635 336.13 47.702 335.503 47.3146 334.695C46.9272 333.888 46.7335 332.942 46.7335 331.859C46.7335 330.808 46.9272 329.869 47.3146 329.042C47.7086 328.214 48.2766 327.564 49.0186 327.091C49.7606 326.612 50.6569 326.372 51.7075 326.372C52.3904 326.372 53.024 326.477 53.6084 326.688C54.1994 326.891 54.7411 327.193 55.2336 327.594L54.3373 328.825C53.9105 328.529 53.4804 328.306 53.047 328.155C52.6136 327.998 52.1704 327.919 51.7173 327.919C50.8506 327.919 50.1414 328.241 49.5898 328.884C49.0383 329.528 48.7625 330.519 48.7625 331.859C48.7625 332.752 48.8873 333.477 49.1368 334.035C49.3929 334.593 49.7442 335.004 50.1907 335.266C50.6372 335.523 51.1428 335.651 51.7075 335.651ZM62.741 326.372C63.7325 326.372 64.5632 326.596 65.233 327.042C65.9093 327.489 66.4182 328.119 66.7596 328.933C67.1076 329.741 67.2816 330.696 67.2816 331.799C67.2816 332.87 67.1043 333.815 66.7498 334.636C66.4018 335.45 65.8896 336.091 65.2133 336.557C64.5369 337.016 63.7063 337.246 62.7213 337.246C61.7364 337.246 60.9025 337.023 60.2196 336.576C59.5432 336.13 59.0311 335.5 58.6831 334.685C58.335 333.871 58.161 332.916 58.161 331.819C58.161 330.742 58.335 329.797 58.6831 328.983C59.0376 328.162 59.5564 327.522 60.2393 327.062C60.9222 326.602 61.7561 326.372 62.741 326.372ZM62.741 327.879C61.8874 327.879 61.2439 328.201 60.8105 328.845C60.3772 329.482 60.1605 330.473 60.1605 331.819C60.1605 333.152 60.3739 334.14 60.8007 334.784C61.2275 335.421 61.8677 335.739 62.7213 335.739C63.575 335.739 64.2152 335.421 64.642 334.784C65.0688 334.14 65.2822 333.146 65.2822 331.799C65.2822 330.46 65.0688 329.472 64.642 328.835C64.2217 328.198 63.5881 327.879 62.741 327.879ZM70.5046 337V326.619H72.1297L72.2676 328.017C72.6944 327.485 73.2132 327.078 73.8238 326.796C74.4411 326.514 75.055 326.372 75.6657 326.372C76.6638 326.372 77.3992 326.645 77.872 327.19C78.3447 327.728 78.5811 328.48 78.5811 329.445V337H76.69V330.608C76.69 329.951 76.6506 329.419 76.5718 329.012C76.4996 328.598 76.3453 328.3 76.1089 328.116C75.8725 327.932 75.5147 327.84 75.0353 327.84C74.661 327.84 74.3065 327.922 73.9716 328.086C73.6367 328.25 73.3346 328.457 73.0654 328.707C72.8028 328.956 72.5795 329.216 72.3957 329.485V337H70.5046ZM85.9507 335.739C86.7058 335.739 87.3001 335.601 87.7334 335.326C88.1734 335.05 88.3933 334.676 88.3933 334.203C88.3933 333.901 88.3342 333.641 88.2161 333.425C88.1044 333.208 87.868 333.011 87.5069 332.834C87.1523 332.656 86.6139 332.476 85.8916 332.292C85.189 332.115 84.575 331.908 84.0497 331.671C83.5244 331.435 83.1173 331.126 82.8284 330.746C82.546 330.365 82.4049 329.872 82.4049 329.268C82.4049 328.677 82.569 328.165 82.8973 327.732C83.2322 327.298 83.7017 326.963 84.3058 326.727C84.9165 326.491 85.6256 326.372 86.4333 326.372C87.2869 326.372 88.0289 326.487 88.6593 326.717C89.2962 326.94 89.8346 327.216 90.2746 327.545L89.4669 328.776C89.0664 328.506 88.6264 328.287 88.1471 328.116C87.6743 327.945 87.1162 327.86 86.4727 327.86C85.7044 327.86 85.1562 327.978 84.8278 328.214C84.5061 328.444 84.3452 328.749 84.3452 329.13C84.3452 329.413 84.424 329.649 84.5816 329.839C84.7458 330.023 85.0248 330.194 85.4188 330.352C85.8128 330.509 86.3578 330.683 87.0538 330.874C87.7301 331.057 88.3211 331.274 88.8267 331.524C89.3323 331.773 89.723 332.102 89.9988 332.509C90.2812 332.909 90.4223 333.438 90.4223 334.094C90.4223 334.836 90.2089 335.441 89.7821 335.907C89.3553 336.366 88.8005 336.705 88.1176 336.921C87.4412 337.138 86.7189 337.246 85.9507 337.246C85.0051 337.246 84.1909 337.108 83.508 336.833C82.8317 336.557 82.2637 336.219 81.8041 335.818L82.8481 334.616C83.2552 334.951 83.7214 335.224 84.2467 335.434C84.772 335.637 85.34 335.739 85.9507 335.739ZM102.559 336.468C102.191 336.705 101.748 336.892 101.229 337.03C100.711 337.174 100.192 337.246 99.6731 337.246C98.5175 337.246 97.631 336.944 97.0138 336.34C96.4031 335.736 96.0978 334.951 96.0978 333.986V328.037H93.7438V326.619H96.0978V324.274L97.9889 324.048V326.619H101.535L101.318 328.037H97.9889V333.966C97.9889 334.538 98.1333 334.968 98.4223 335.257C98.7177 335.546 99.2069 335.69 99.8898 335.69C100.277 335.69 100.632 335.644 100.954 335.552C101.275 335.46 101.574 335.342 101.85 335.198L102.559 336.468Z" fill="#A50665"/>
<path d="M232.024 328.175V329.77H224.145V328.175H232.024ZM232.024 331.977V333.572H224.145V331.977H232.024ZM90.9247 387.427V396.578C90.9247 397.497 90.7375 398.308 90.3632 399.01C89.9955 399.706 89.4669 400.255 88.7775 400.655C88.0946 401.049 87.2771 401.246 86.325 401.246C85.3663 401.246 84.5455 401.049 83.8626 400.655C83.1797 400.261 82.6577 399.713 82.2965 399.01C81.9419 398.308 81.7647 397.497 81.7647 396.578V387.427H83.7148V396.43C83.7148 397.494 83.9348 398.291 84.3748 398.823C84.8147 399.355 85.4648 399.621 86.325 399.621C87.1983 399.621 87.8549 399.355 88.2948 398.823C88.7348 398.291 88.9548 397.494 88.9548 396.43V387.427H90.9247ZM102.126 387.427V388.954H99.1413V399.463H102.126V401H94.187V399.463H97.1714V388.954H94.187V387.427H102.126ZM124.754 394.145C124.754 393.002 124.636 392.09 124.4 391.407C124.163 390.717 123.851 390.198 123.464 389.85C123.083 389.502 122.66 389.269 122.193 389.151C121.734 389.033 121.274 388.974 120.814 388.974H119.367V399.473H120.834C121.313 399.473 121.786 399.398 122.252 399.247C122.719 399.096 123.139 398.827 123.513 398.439C123.887 398.052 124.186 397.51 124.409 396.814C124.639 396.118 124.754 395.228 124.754 394.145ZM126.823 394.145C126.823 395.274 126.701 396.236 126.458 397.031C126.222 397.825 125.893 398.482 125.473 399.001C125.06 399.519 124.587 399.926 124.055 400.222C123.523 400.511 122.962 400.714 122.371 400.833C121.78 400.944 121.195 401 120.617 401H117.416V387.427H120.401C121.202 387.427 121.983 387.516 122.745 387.693C123.513 387.864 124.203 388.189 124.813 388.668C125.431 389.148 125.92 389.827 126.281 390.707C126.642 391.587 126.823 392.733 126.823 394.145ZM131.09 396.45C131.129 397.211 131.283 397.835 131.552 398.321C131.822 398.8 132.173 399.155 132.606 399.385C133.04 399.608 133.519 399.72 134.044 399.72C134.563 399.72 135.039 399.641 135.473 399.483C135.906 399.326 136.346 399.096 136.792 398.794L137.649 399.986C137.163 400.373 136.602 400.682 135.965 400.911C135.328 401.135 134.668 401.246 133.985 401.246C132.948 401.246 132.065 401.02 131.336 400.567C130.613 400.107 130.062 399.47 129.681 398.656C129.307 397.842 129.12 396.896 129.12 395.819C129.12 394.775 129.307 393.843 129.681 393.022C130.062 392.201 130.597 391.554 131.287 391.082C131.976 390.609 132.797 390.372 133.749 390.372C134.642 390.372 135.41 390.579 136.054 390.993C136.704 391.407 137.203 391.998 137.551 392.766C137.899 393.528 138.073 394.44 138.073 395.504C138.073 395.681 138.07 395.852 138.063 396.016C138.056 396.18 138.047 396.325 138.033 396.45H131.09ZM133.769 391.85C133.033 391.85 132.419 392.113 131.927 392.638C131.441 393.163 131.162 393.974 131.09 395.071H136.251C136.231 394.02 136.001 393.222 135.561 392.677C135.128 392.126 134.53 391.85 133.769 391.85ZM145.009 399.739C145.764 399.739 146.358 399.601 146.792 399.326C147.232 399.05 147.452 398.676 147.452 398.203C147.452 397.901 147.393 397.641 147.274 397.425C147.163 397.208 146.926 397.011 146.565 396.834C146.211 396.656 145.672 396.476 144.95 396.292C144.247 396.115 143.633 395.908 143.108 395.671C142.583 395.435 142.176 395.126 141.887 394.746C141.604 394.365 141.463 393.872 141.463 393.268C141.463 392.677 141.627 392.165 141.956 391.732C142.291 391.298 142.76 390.963 143.364 390.727C143.975 390.491 144.684 390.372 145.492 390.372C146.345 390.372 147.087 390.487 147.718 390.717C148.355 390.94 148.893 391.216 149.333 391.545L148.525 392.776C148.125 392.506 147.685 392.287 147.205 392.116C146.733 391.945 146.174 391.86 145.531 391.86C144.763 391.86 144.214 391.978 143.886 392.214C143.564 392.444 143.404 392.749 143.404 393.13C143.404 393.413 143.482 393.649 143.64 393.839C143.804 394.023 144.083 394.194 144.477 394.352C144.871 394.509 145.416 394.683 146.112 394.874C146.788 395.057 147.379 395.274 147.885 395.524C148.391 395.773 148.781 396.102 149.057 396.509C149.339 396.909 149.481 397.438 149.481 398.094C149.481 398.836 149.267 399.441 148.84 399.907C148.414 400.366 147.859 400.705 147.176 400.921C146.5 401.138 145.777 401.246 145.009 401.246C144.063 401.246 143.249 401.108 142.566 400.833C141.89 400.557 141.322 400.219 140.862 399.818L141.906 398.616C142.314 398.951 142.78 399.224 143.305 399.434C143.83 399.637 144.398 399.739 145.009 399.739ZM158.623 390.619V399.562H161.509V401H153.57V399.562H156.732V392.057H153.669V390.619H158.623ZM157.215 385.655C157.609 385.655 157.924 385.776 158.16 386.019C158.403 386.262 158.525 386.557 158.525 386.905C158.525 387.267 158.403 387.572 158.16 387.821C157.924 388.064 157.609 388.186 157.215 388.186C156.827 388.186 156.512 388.064 156.269 387.821C156.033 387.572 155.914 387.267 155.914 386.905C155.914 386.557 156.033 386.262 156.269 386.019C156.512 385.776 156.827 385.655 157.215 385.655ZM173.567 389.417L174.118 391.091C173.685 391.229 173.219 391.318 172.72 391.357C172.227 391.397 171.682 391.416 171.085 391.416C171.695 391.692 172.155 392.047 172.464 392.48C172.772 392.914 172.927 393.432 172.927 394.036C172.927 394.719 172.766 395.327 172.444 395.859C172.129 396.39 171.673 396.807 171.075 397.109C170.484 397.412 169.772 397.563 168.938 397.563C168.609 397.563 168.33 397.549 168.1 397.523C167.877 397.49 167.657 397.441 167.441 397.375C167.296 397.474 167.175 397.609 167.076 397.779C166.984 397.95 166.938 398.131 166.938 398.321C166.938 398.551 167.03 398.748 167.214 398.912C167.398 399.07 167.756 399.148 168.288 399.148H170.129C170.845 399.148 171.482 399.273 172.04 399.523C172.605 399.772 173.048 400.11 173.37 400.537C173.692 400.964 173.853 401.45 173.853 401.995C173.853 403.026 173.413 403.817 172.533 404.369C171.653 404.927 170.405 405.206 168.79 405.206C167.647 405.206 166.748 405.088 166.091 404.851C165.441 404.615 164.978 404.263 164.702 403.797C164.433 403.331 164.299 402.747 164.299 402.044H166.002C166.002 402.431 166.078 402.75 166.229 402.999C166.38 403.249 166.656 403.436 167.056 403.561C167.457 403.686 168.035 403.748 168.79 403.748C169.538 403.748 170.143 403.686 170.602 403.561C171.062 403.436 171.4 403.252 171.617 403.009C171.833 402.766 171.942 402.471 171.942 402.123C171.942 401.663 171.735 401.312 171.321 401.069C170.908 400.826 170.379 400.705 169.735 400.705H167.913C166.981 400.705 166.295 400.508 165.855 400.114C165.421 399.713 165.205 399.253 165.205 398.735C165.205 398.393 165.3 398.062 165.49 397.74C165.687 397.418 165.973 397.136 166.347 396.893C165.743 396.571 165.297 396.177 165.008 395.711C164.725 395.245 164.584 394.677 164.584 394.007C164.584 393.291 164.761 392.661 165.116 392.116C165.477 391.571 165.976 391.144 166.613 390.835C167.25 390.527 167.982 390.372 168.81 390.372C169.67 390.372 170.372 390.333 170.917 390.254C171.469 390.169 171.945 390.057 172.346 389.919C172.753 389.775 173.16 389.607 173.567 389.417ZM168.819 391.712C168.045 391.712 167.467 391.929 167.086 392.362C166.705 392.789 166.515 393.337 166.515 394.007C166.515 394.683 166.708 395.238 167.096 395.671C167.483 396.098 168.071 396.312 168.859 396.312C169.555 396.312 170.087 396.111 170.454 395.711C170.822 395.304 171.006 394.729 171.006 393.987C171.006 393.239 170.822 392.674 170.454 392.293C170.087 391.906 169.542 391.712 168.819 391.712ZM176.81 401V390.619H178.435L178.573 392.017C178.999 391.485 179.518 391.078 180.129 390.796C180.746 390.514 181.36 390.372 181.971 390.372C182.969 390.372 183.704 390.645 184.177 391.19C184.65 391.728 184.886 392.48 184.886 393.445V401H182.995V394.608C182.995 393.951 182.956 393.419 182.877 393.012C182.805 392.598 182.65 392.3 182.414 392.116C182.177 391.932 181.82 391.84 181.34 391.84C180.966 391.84 180.611 391.922 180.277 392.086C179.942 392.25 179.64 392.457 179.37 392.707C179.108 392.956 178.884 393.216 178.701 393.485V401H176.81ZM192.65 397.631C193.129 397.631 193.529 397.792 193.851 398.114C194.173 398.436 194.334 398.83 194.334 399.296C194.334 399.559 194.298 399.825 194.226 400.094C194.16 400.357 194.042 400.668 193.871 401.03L192.305 404.615H190.719L191.674 400.675C191.464 400.524 191.297 400.327 191.172 400.084C191.047 399.834 190.985 399.569 190.985 399.286C190.985 398.827 191.143 398.436 191.458 398.114C191.78 397.792 192.177 397.631 192.65 397.631ZM89.398 423.653C89.398 422.983 89.2667 422.451 89.004 422.057C88.7414 421.657 88.3802 421.371 87.9206 421.2C87.4609 421.023 86.9291 420.934 86.325 420.934H84.5028V426.509H86.2954C86.8995 426.509 87.4347 426.424 87.9009 426.253C88.3671 426.082 88.7315 425.79 88.9942 425.377C89.2634 424.956 89.398 424.382 89.398 423.653ZM91.4664 423.633C91.4664 424.69 91.2398 425.544 90.7868 426.194C90.3403 426.838 89.7197 427.307 88.9252 427.602C88.1373 427.898 87.2278 428.046 86.1969 428.046H84.5028V433H82.5428V419.427H86.1378C87.7925 419.427 89.0927 419.772 90.0382 420.462C90.9903 421.145 91.4664 422.202 91.4664 423.633ZM94.2264 433V431.601H95.8023V424.017H94.2264V422.619H97.2502L97.5949 425.051C97.9889 424.191 98.4715 423.531 99.0428 423.072C99.6206 422.606 100.369 422.372 101.288 422.372C101.59 422.372 101.856 422.395 102.086 422.441C102.323 422.487 102.562 422.546 102.805 422.619L102.244 424.273C102.027 424.208 101.83 424.162 101.653 424.135C101.476 424.109 101.272 424.096 101.042 424.096C100.261 424.096 99.5911 424.378 99.0329 424.943C98.4748 425.508 98.0283 426.338 97.6934 427.435V431.601H99.8012V433H94.2264ZM101.052 426.263V423.879L101.269 422.619H102.805L102.51 426.263H101.052ZM109.988 422.372C110.979 422.372 111.81 422.596 112.48 423.042C113.156 423.489 113.665 424.119 114.006 424.933C114.354 425.741 114.528 426.696 114.528 427.799C114.528 428.87 114.351 429.815 113.996 430.636C113.648 431.45 113.136 432.091 112.46 432.557C111.784 433.016 110.953 433.246 109.968 433.246C108.983 433.246 108.149 433.023 107.466 432.576C106.79 432.13 106.278 431.5 105.93 430.685C105.582 429.871 105.408 428.916 105.408 427.819C105.408 426.742 105.582 425.797 105.93 424.983C106.284 424.162 106.803 423.522 107.486 423.062C108.169 422.602 109.003 422.372 109.988 422.372ZM109.988 423.879C109.134 423.879 108.491 424.201 108.057 424.845C107.624 425.482 107.407 426.473 107.407 427.819C107.407 429.152 107.621 430.14 108.047 430.784C108.474 431.421 109.114 431.739 109.968 431.739C110.822 431.739 111.462 431.421 111.889 430.784C112.315 430.14 112.529 429.146 112.529 427.799C112.529 426.46 112.315 425.472 111.889 424.835C111.468 424.198 110.835 423.879 109.988 423.879ZM126.32 421.417L126.872 423.091C126.438 423.229 125.972 423.318 125.473 423.357C124.981 423.397 124.436 423.416 123.838 423.416C124.449 423.692 124.908 424.047 125.217 424.48C125.526 424.914 125.68 425.432 125.68 426.036C125.68 426.719 125.519 427.327 125.197 427.859C124.882 428.39 124.426 428.807 123.828 429.109C123.237 429.412 122.525 429.563 121.691 429.563C121.363 429.563 121.084 429.549 120.854 429.523C120.631 429.49 120.411 429.441 120.194 429.375C120.049 429.474 119.928 429.609 119.829 429.779C119.738 429.95 119.692 430.131 119.692 430.321C119.692 430.551 119.783 430.748 119.967 430.912C120.151 431.07 120.509 431.148 121.041 431.148H122.883C123.599 431.148 124.235 431.273 124.794 431.523C125.358 431.772 125.801 432.11 126.123 432.537C126.445 432.964 126.606 433.45 126.606 433.995C126.606 435.026 126.166 435.817 125.286 436.369C124.406 436.927 123.159 437.206 121.543 437.206C120.401 437.206 119.501 437.088 118.844 436.851C118.194 436.615 117.732 436.263 117.456 435.797C117.187 435.331 117.052 434.747 117.052 434.044H118.756C118.756 434.431 118.831 434.75 118.982 434.999C119.133 435.249 119.409 435.436 119.81 435.561C120.21 435.686 120.788 435.748 121.543 435.748C122.292 435.748 122.896 435.686 123.356 435.561C123.815 435.436 124.153 435.252 124.37 435.009C124.587 434.766 124.695 434.471 124.695 434.123C124.695 433.663 124.488 433.312 124.075 433.069C123.661 432.826 123.132 432.705 122.489 432.705H120.667C119.734 432.705 119.048 432.508 118.608 432.114C118.175 431.713 117.958 431.253 117.958 430.735C117.958 430.393 118.053 430.062 118.244 429.74C118.441 429.418 118.726 429.136 119.101 428.893C118.496 428.571 118.05 428.177 117.761 427.711C117.479 427.245 117.338 426.677 117.338 426.007C117.338 425.291 117.515 424.661 117.869 424.116C118.231 423.571 118.73 423.144 119.367 422.835C120.003 422.527 120.736 422.372 121.563 422.372C122.423 422.372 123.126 422.333 123.671 422.254C124.222 422.169 124.698 422.057 125.099 421.919C125.506 421.775 125.913 421.607 126.32 421.417ZM121.573 423.712C120.798 423.712 120.22 423.929 119.839 424.362C119.458 424.789 119.268 425.337 119.268 426.007C119.268 426.683 119.462 427.238 119.849 427.671C120.237 428.098 120.824 428.312 121.612 428.312C122.308 428.312 122.84 428.111 123.208 427.711C123.576 427.304 123.759 426.729 123.759 425.987C123.759 425.239 123.576 424.674 123.208 424.293C122.84 423.906 122.295 423.712 121.573 423.712ZM129.661 433V431.601H131.237V424.017H129.661V422.619H132.685L133.03 425.051C133.424 424.191 133.906 423.531 134.478 423.072C135.056 422.606 135.804 422.372 136.723 422.372C137.025 422.372 137.291 422.395 137.521 422.441C137.758 422.487 137.997 422.546 138.24 422.619L137.679 424.273C137.462 424.208 137.265 424.162 137.088 424.135C136.911 424.109 136.707 424.096 136.477 424.096C135.696 424.096 135.026 424.378 134.468 424.943C133.91 425.508 133.463 426.338 133.128 427.435V431.601H135.236V433H129.661ZM136.487 426.263V423.879L136.704 422.619H138.24L137.945 426.263H136.487ZM149.028 430.616C149.028 431.03 149.093 431.332 149.225 431.523C149.356 431.706 149.563 431.844 149.845 431.936L149.402 433.236C148.929 433.177 148.519 433.036 148.171 432.813C147.823 432.59 147.563 432.248 147.393 431.789C147.018 432.268 146.545 432.632 145.974 432.882C145.403 433.125 144.782 433.246 144.113 433.246C143.069 433.246 142.245 432.951 141.64 432.36C141.036 431.769 140.734 430.991 140.734 430.025C140.734 428.942 141.155 428.111 141.995 427.534C142.842 426.956 144.057 426.667 145.639 426.667H147.146V425.879C147.146 425.163 146.933 424.654 146.506 424.352C146.086 424.05 145.498 423.899 144.743 423.899C144.402 423.899 143.994 423.942 143.522 424.027C143.049 424.113 142.547 424.247 142.015 424.431L141.532 423.052C142.176 422.809 142.79 422.635 143.374 422.53C143.965 422.425 144.517 422.372 145.029 422.372C146.368 422.372 147.37 422.678 148.033 423.288C148.696 423.893 149.028 424.723 149.028 425.78V430.616ZM144.645 431.828C145.13 431.828 145.597 431.703 146.043 431.454C146.49 431.204 146.857 430.856 147.146 430.41V427.898H145.767C144.671 427.898 143.893 428.085 143.433 428.459C142.973 428.827 142.744 429.333 142.744 429.976C142.744 430.58 142.901 431.04 143.216 431.355C143.532 431.67 144.008 431.828 144.645 431.828ZM160.169 422.372C160.531 422.372 160.865 422.451 161.174 422.609C161.483 422.766 161.732 423.055 161.923 423.476C162.113 423.889 162.208 424.49 162.208 425.278V433H160.485V425.554C160.485 424.95 160.445 424.516 160.366 424.254C160.294 423.984 160.084 423.85 159.736 423.85C159.447 423.85 159.162 423.938 158.879 424.116C158.597 424.293 158.318 424.589 158.042 425.002V433H156.387V425.554C156.387 424.95 156.348 424.516 156.269 424.254C156.197 423.984 155.987 423.85 155.639 423.85C155.343 423.85 155.054 423.938 154.772 424.116C154.496 424.293 154.22 424.589 153.945 425.002V433H152.221V422.619H153.679L153.797 423.781C154.086 423.374 154.404 423.039 154.752 422.776C155.107 422.507 155.537 422.372 156.043 422.372C156.437 422.372 156.801 422.468 157.136 422.658C157.477 422.848 157.727 423.203 157.884 423.722C158.167 423.321 158.488 422.996 158.85 422.747C159.211 422.497 159.651 422.372 160.169 422.372ZM171.981 422.372C172.342 422.372 172.677 422.451 172.986 422.609C173.294 422.766 173.544 423.055 173.734 423.476C173.925 423.889 174.02 424.49 174.02 425.278V433H172.296V425.554C172.296 424.95 172.257 424.516 172.178 424.254C172.106 423.984 171.896 423.85 171.548 423.85C171.259 423.85 170.973 423.938 170.691 424.116C170.408 424.293 170.129 424.589 169.854 425.002V433H168.199V425.554C168.199 424.95 168.16 424.516 168.081 424.254C168.008 423.984 167.798 423.85 167.45 423.85C167.155 423.85 166.866 423.938 166.584 424.116C166.308 424.293 166.032 424.589 165.756 425.002V433H164.033V422.619H165.49L165.609 423.781C165.897 423.374 166.216 423.039 166.564 422.776C166.918 422.507 167.349 422.372 167.854 422.372C168.248 422.372 168.613 422.468 168.947 422.658C169.289 422.848 169.538 423.203 169.696 423.722C169.978 423.321 170.3 422.996 170.661 422.747C171.022 422.497 171.462 422.372 171.981 422.372ZM182.246 422.619V431.562H185.132V433H177.194V431.562H180.355V424.057H177.292V422.619H182.246ZM180.838 417.655C181.232 417.655 181.547 417.776 181.783 418.019C182.026 418.262 182.148 418.557 182.148 418.905C182.148 419.267 182.026 419.572 181.783 419.821C181.547 420.064 181.232 420.186 180.838 420.186C180.451 420.186 180.135 420.064 179.892 419.821C179.656 419.572 179.538 419.267 179.538 418.905C179.538 418.557 179.656 418.262 179.892 418.019C180.135 417.776 180.451 417.655 180.838 417.655ZM188.621 433V422.619H190.246L190.384 424.017C190.811 423.485 191.33 423.078 191.94 422.796C192.558 422.514 193.172 422.372 193.782 422.372C194.78 422.372 195.516 422.645 195.989 423.19C196.461 423.728 196.698 424.48 196.698 425.445V433H194.807V426.608C194.807 425.951 194.767 425.419 194.688 425.012C194.616 424.598 194.462 424.3 194.226 424.116C193.989 423.932 193.631 423.84 193.152 423.84C192.778 423.84 192.423 423.922 192.088 424.086C191.753 424.25 191.451 424.457 191.182 424.707C190.919 424.956 190.696 425.216 190.512 425.485V433H188.621ZM209.002 421.417L209.553 423.091C209.12 423.229 208.654 423.318 208.155 423.357C207.662 423.397 207.117 423.416 206.52 423.416C207.13 423.692 207.59 424.047 207.899 424.48C208.207 424.914 208.362 425.432 208.362 426.036C208.362 426.719 208.201 427.327 207.879 427.859C207.564 428.39 207.107 428.807 206.51 429.109C205.919 429.412 205.207 429.563 204.373 429.563C204.044 429.563 203.765 429.549 203.535 429.523C203.312 429.49 203.092 429.441 202.875 429.375C202.731 429.474 202.61 429.609 202.511 429.779C202.419 429.95 202.373 430.131 202.373 430.321C202.373 430.551 202.465 430.748 202.649 430.912C202.833 431.07 203.191 431.148 203.723 431.148H205.564C206.28 431.148 206.917 431.273 207.475 431.523C208.04 431.772 208.483 432.11 208.805 432.537C209.127 432.964 209.287 433.45 209.287 433.995C209.287 435.026 208.848 435.817 207.968 436.369C207.088 436.927 205.84 437.206 204.225 437.206C203.082 437.206 202.183 437.088 201.526 436.851C200.876 436.615 200.413 436.263 200.137 435.797C199.868 435.331 199.734 434.747 199.734 434.044H201.437C201.437 434.431 201.513 434.75 201.664 434.999C201.815 435.249 202.091 435.436 202.491 435.561C202.892 435.686 203.47 435.748 204.225 435.748C204.973 435.748 205.578 435.686 206.037 435.561C206.497 435.436 206.835 435.252 207.052 435.009C207.268 434.766 207.377 434.471 207.377 434.123C207.377 433.663 207.17 433.312 206.756 433.069C206.343 432.826 205.814 432.705 205.17 432.705H203.348C202.416 432.705 201.73 432.508 201.29 432.114C200.856 431.713 200.64 431.253 200.64 430.735C200.64 430.393 200.735 430.062 200.925 429.74C201.122 429.418 201.408 429.136 201.782 428.893C201.178 428.571 200.732 428.177 200.443 427.711C200.16 427.245 200.019 426.677 200.019 426.007C200.019 425.291 200.196 424.661 200.551 424.116C200.912 423.571 201.411 423.144 202.048 422.835C202.685 422.527 203.417 422.372 204.245 422.372C205.105 422.372 205.807 422.333 206.352 422.254C206.904 422.169 207.38 422.057 207.781 421.919C208.188 421.775 208.595 421.607 209.002 421.417ZM204.254 423.712C203.48 423.712 202.902 423.929 202.521 424.362C202.14 424.789 201.95 425.337 201.95 426.007C201.95 426.683 202.143 427.238 202.531 427.671C202.918 428.098 203.506 428.312 204.294 428.312C204.99 428.312 205.522 428.111 205.889 427.711C206.257 427.304 206.441 426.729 206.441 425.987C206.441 425.239 206.257 424.674 205.889 424.293C205.522 423.906 204.977 423.712 204.254 423.712ZM216.273 429.631C216.752 429.631 217.153 429.792 217.475 430.114C217.796 430.436 217.957 430.83 217.957 431.296C217.957 431.559 217.921 431.825 217.849 432.094C217.783 432.357 217.665 432.668 217.494 433.03L215.928 436.615H214.342L215.298 432.675C215.088 432.524 214.92 432.327 214.795 432.084C214.671 431.834 214.608 431.569 214.608 431.286C214.608 430.827 214.766 430.436 215.081 430.114C215.403 429.792 215.8 429.631 216.273 429.631Z" fill="black"/>
<path d="M126.537 333.208C126.537 333.996 126.337 334.695 125.936 335.306C125.542 335.91 124.971 336.386 124.222 336.734C123.474 337.076 122.561 337.246 121.484 337.246C120.447 337.246 119.521 337.089 118.707 336.773C117.892 336.458 117.2 336.025 116.628 335.473L117.741 334.222C118.214 334.662 118.756 335.01 119.367 335.266C119.977 335.523 120.69 335.651 121.504 335.651C122.036 335.651 122.528 335.565 122.981 335.395C123.441 335.217 123.809 334.955 124.084 334.607C124.367 334.252 124.508 333.809 124.508 333.277C124.508 332.85 124.423 332.489 124.252 332.193C124.088 331.898 123.795 331.635 123.375 331.406C122.955 331.176 122.367 330.949 121.612 330.726C120.693 330.45 119.905 330.145 119.248 329.81C118.598 329.468 118.099 329.051 117.751 328.559C117.41 328.067 117.239 327.462 117.239 326.747C117.239 326.044 117.433 325.427 117.82 324.895C118.208 324.357 118.739 323.936 119.416 323.634C120.099 323.332 120.877 323.181 121.75 323.181C122.702 323.181 123.533 323.319 124.242 323.595C124.958 323.864 125.601 324.255 126.172 324.767L125.089 325.988C124.61 325.561 124.091 325.253 123.533 325.062C122.975 324.865 122.41 324.767 121.839 324.767C121.359 324.767 120.923 324.839 120.529 324.984C120.135 325.122 119.82 325.328 119.583 325.604C119.353 325.88 119.238 326.231 119.238 326.658C119.238 327.032 119.34 327.354 119.544 327.623C119.747 327.886 120.092 328.132 120.578 328.362C121.064 328.585 121.724 328.822 122.558 329.071C123.287 329.281 123.953 329.544 124.557 329.859C125.161 330.174 125.641 330.598 125.995 331.13C126.356 331.655 126.537 332.348 126.537 333.208ZM131.09 332.45C131.129 333.211 131.283 333.835 131.552 334.321C131.822 334.8 132.173 335.155 132.606 335.385C133.04 335.608 133.519 335.72 134.044 335.72C134.563 335.72 135.039 335.641 135.473 335.483C135.906 335.326 136.346 335.096 136.792 334.794L137.649 335.986C137.163 336.373 136.602 336.682 135.965 336.911C135.328 337.135 134.668 337.246 133.985 337.246C132.948 337.246 132.065 337.02 131.336 336.567C130.613 336.107 130.062 335.47 129.681 334.656C129.307 333.842 129.12 332.896 129.12 331.819C129.12 330.775 129.307 329.843 129.681 329.022C130.062 328.201 130.597 327.554 131.287 327.082C131.976 326.609 132.797 326.372 133.749 326.372C134.642 326.372 135.41 326.579 136.054 326.993C136.704 327.407 137.203 327.998 137.551 328.766C137.899 329.528 138.073 330.44 138.073 331.504C138.073 331.681 138.07 331.852 138.063 332.016C138.056 332.18 138.047 332.325 138.033 332.45H131.09ZM133.769 327.85C133.033 327.85 132.419 328.113 131.927 328.638C131.441 329.163 131.162 329.974 131.09 331.071H136.251C136.231 330.02 136.001 329.222 135.561 328.677C135.128 328.126 134.53 327.85 133.769 327.85ZM141.473 337V335.601H143.049V328.017H141.473V326.619H144.497L144.842 329.051C145.236 328.191 145.718 327.531 146.289 327.072C146.867 326.606 147.616 326.372 148.535 326.372C148.837 326.372 149.103 326.395 149.333 326.441C149.569 326.487 149.809 326.546 150.052 326.619L149.49 328.273C149.274 328.208 149.077 328.162 148.9 328.135C148.722 328.109 148.519 328.096 148.289 328.096C147.507 328.096 146.838 328.378 146.28 328.943C145.721 329.508 145.275 330.338 144.94 331.435V335.601H147.048V337H141.473ZM148.299 330.263V327.879L148.515 326.619H150.052L149.756 330.263H148.299ZM162.031 326.619L158.308 337H156.102L152.398 326.619H154.408L157.254 335.355L160.091 326.619H162.031ZM170.435 326.619V335.562H173.321V337H165.382V335.562H168.544V328.057H165.48V326.619H170.435ZM169.026 321.655C169.42 321.655 169.735 321.776 169.972 322.019C170.215 322.262 170.336 322.557 170.336 322.905C170.336 323.267 170.215 323.572 169.972 323.821C169.735 324.064 169.42 324.186 169.026 324.186C168.639 324.186 168.324 324.064 168.081 323.821C167.844 323.572 167.726 323.267 167.726 322.905C167.726 322.557 167.844 322.262 168.081 322.019C168.324 321.776 168.639 321.655 169.026 321.655ZM181.636 335.651C182.141 335.651 182.611 335.565 183.044 335.395C183.484 335.224 183.895 335.007 184.275 334.744L185.182 335.976C184.728 336.363 184.18 336.672 183.537 336.902C182.893 337.131 182.25 337.246 181.606 337.246C180.562 337.246 179.669 337.023 178.927 336.576C178.192 336.13 177.63 335.503 177.243 334.695C176.855 333.888 176.662 332.942 176.662 331.859C176.662 330.808 176.855 329.869 177.243 329.042C177.637 328.214 178.205 327.564 178.947 327.091C179.689 326.612 180.585 326.372 181.636 326.372C182.319 326.372 182.952 326.477 183.537 326.688C184.128 326.891 184.669 327.193 185.162 327.594L184.266 328.825C183.839 328.529 183.409 328.306 182.975 328.155C182.542 327.998 182.099 327.919 181.646 327.919C180.779 327.919 180.07 328.241 179.518 328.884C178.967 329.528 178.691 330.519 178.691 331.859C178.691 332.752 178.816 333.477 179.065 334.035C179.321 334.593 179.672 335.004 180.119 335.266C180.565 335.523 181.071 335.651 181.636 335.651ZM190.148 332.45C190.187 333.211 190.342 333.835 190.611 334.321C190.88 334.8 191.231 335.155 191.665 335.385C192.098 335.608 192.577 335.72 193.103 335.72C193.621 335.72 194.097 335.641 194.531 335.483C194.964 335.326 195.404 335.096 195.851 334.794L196.708 335.986C196.222 336.373 195.66 336.682 195.023 336.911C194.386 337.135 193.726 337.246 193.044 337.246C192.006 337.246 191.123 337.02 190.394 336.567C189.672 336.107 189.12 335.47 188.739 334.656C188.365 333.842 188.178 332.896 188.178 331.819C188.178 330.775 188.365 329.843 188.739 329.022C189.12 328.201 189.655 327.554 190.345 327.082C191.034 326.609 191.855 326.372 192.807 326.372C193.7 326.372 194.468 326.579 195.112 326.993C195.762 327.407 196.261 327.998 196.609 328.766C196.957 329.528 197.131 330.44 197.131 331.504C197.131 331.681 197.128 331.852 197.121 332.016C197.115 332.18 197.105 332.325 197.092 332.45H190.148ZM192.827 327.85C192.091 327.85 191.478 328.113 190.985 328.638C190.499 329.163 190.22 329.974 190.148 331.071H195.309C195.289 330.02 195.059 329.222 194.619 328.677C194.186 328.126 193.589 327.85 192.827 327.85ZM204.067 335.739C204.822 335.739 205.417 335.601 205.85 335.326C206.29 335.05 206.51 334.676 206.51 334.203C206.51 333.901 206.451 333.641 206.333 333.425C206.221 333.208 205.985 333.011 205.623 332.834C205.269 332.656 204.73 332.476 204.008 332.292C203.306 332.115 202.692 331.908 202.166 331.671C201.641 331.435 201.234 331.126 200.945 330.746C200.663 330.365 200.521 329.872 200.521 329.268C200.521 328.677 200.686 328.165 201.014 327.732C201.349 327.298 201.818 326.963 202.422 326.727C203.033 326.491 203.742 326.372 204.55 326.372C205.404 326.372 206.146 326.487 206.776 326.717C207.413 326.94 207.951 327.216 208.391 327.545L207.584 328.776C207.183 328.506 206.743 328.287 206.264 328.116C205.791 327.945 205.233 327.86 204.589 327.86C203.821 327.86 203.273 327.978 202.944 328.214C202.623 328.444 202.462 328.749 202.462 329.13C202.462 329.413 202.541 329.649 202.698 329.839C202.862 330.023 203.141 330.194 203.535 330.352C203.929 330.509 204.474 330.683 205.17 330.874C205.847 331.057 206.438 331.274 206.943 331.524C207.449 331.773 207.84 332.102 208.115 332.509C208.398 332.909 208.539 333.438 208.539 334.094C208.539 334.836 208.326 335.441 207.899 335.907C207.472 336.366 206.917 336.705 206.234 336.921C205.558 337.138 204.836 337.246 204.067 337.246C203.122 337.246 202.308 337.108 201.625 336.833C200.948 336.557 200.38 336.219 199.921 335.818L200.965 334.616C201.372 334.951 201.838 335.224 202.363 335.434C202.889 335.637 203.457 335.739 204.067 335.739Z" fill="#0090F9"/>
<path d="M249.334 339.295V320.916H254.456V322.482H251.117V337.749H254.456V339.295H249.334ZM96.356 367.424C96.356 367.089 96.4348 366.787 96.5924 366.518C96.75 366.242 96.9667 366.025 97.2425 365.868C97.5117 365.71 97.8137 365.631 98.1486 365.631C98.4966 365.631 98.8085 365.71 99.0843 365.868C99.3601 366.025 99.5768 366.242 99.7344 366.518C99.892 366.787 99.9708 367.089 99.9708 367.424C99.9708 367.759 99.892 368.068 99.7344 368.35C99.5768 368.626 99.3601 368.842 99.0843 369C98.8085 369.164 98.4966 369.246 98.1486 369.246C97.8137 369.246 97.5117 369.164 97.2425 369C96.9667 368.842 96.75 368.626 96.5924 368.35C96.4348 368.068 96.356 367.759 96.356 367.424ZM104.236 367.424C104.236 367.089 104.314 366.787 104.472 366.518C104.63 366.242 104.843 366.025 105.112 365.868C105.388 365.71 105.693 365.631 106.028 365.631C106.376 365.631 106.688 365.71 106.964 365.868C107.24 366.025 107.456 366.242 107.614 366.518C107.772 366.787 107.85 367.089 107.85 367.424C107.85 367.759 107.772 368.068 107.614 368.35C107.456 368.626 107.24 368.842 106.964 369C106.688 369.164 106.376 369.246 106.028 369.246C105.693 369.246 105.388 369.164 105.112 369C104.843 368.842 104.63 368.626 104.472 368.35C104.314 368.068 104.236 367.759 104.236 367.424ZM88.4765 367.424C88.4765 367.089 88.5552 366.787 88.7128 366.518C88.8704 366.242 89.0871 366.025 89.3629 365.868C89.6321 365.71 89.9342 365.631 90.2691 365.631C90.6171 365.631 90.929 365.71 91.2048 365.868C91.4805 366.025 91.6972 366.242 91.8548 366.518C92.0124 366.787 92.0912 367.089 92.0912 367.424C92.0912 367.759 92.0124 368.068 91.8548 368.35C91.6972 368.626 91.4805 368.842 91.2048 369C90.929 369.164 90.6171 369.246 90.2691 369.246C89.9342 369.246 89.6321 369.164 89.3629 369C89.0871 368.842 88.8704 368.626 88.7128 368.35C88.5552 368.068 88.4765 367.759 88.4765 367.424ZM121.78 365.631C122.259 365.631 122.66 365.792 122.981 366.114C123.303 366.436 123.464 366.83 123.464 367.296C123.464 367.559 123.428 367.825 123.356 368.094C123.29 368.357 123.172 368.668 123.001 369.03L121.435 372.615H119.849L120.805 368.675C120.594 368.524 120.427 368.327 120.302 368.084C120.177 367.834 120.115 367.569 120.115 367.286C120.115 366.827 120.273 366.436 120.588 366.114C120.91 365.792 121.307 365.631 121.78 365.631Z" fill="#FB0303"/>
<path d="M53.2834 448.916V467.295H48.1617V465.749H51.5006V450.482H48.1617V448.916H53.2834Z" fill="#FF0000"/>
</svg>
