<?xml version="1.0" encoding="utf-8"?>
<!-- Generator: Adobe Illustrator 27.2.0, SVG Export Plug-In . SVG Version: 6.00 Build 0)  -->
<svg version="1.1" id="Layer_1" xmlns="http://www.w3.org/2000/svg" xmlns:xlink="http://www.w3.org/1999/xlink" x="0px" y="0px"
	 viewBox="0 0 283.5 283.5" style="enable-background:new 0 0 283.5 283.5;" xml:space="preserve">
<style type="text/css">
	.st0{fill:#007ACC;}
	.st1{fill:#FFFFFF;}
</style>
<g>
	<polygon class="st0" points="0,141.7 0,283.5 141.7,283.5 283.5,283.5 283.5,141.7 283.5,0 141.7,0 0,0 	"/>
	<path class="st1" d="M62.7,142.7l-0.1,11.6H81h18.4v52.4v52.4h13h13v-52.4v-52.4H144h18.4v-11.4c0-6.3-0.1-11.6-0.3-11.7
		c-0.1-0.2-22.6-0.3-49.8-0.2l-49.5,0.1L62.7,142.7z"/>
	<path class="st1" d="M228.7,130.8c7.2,1.8,12.7,5,17.7,10.2c2.6,2.8,6.5,7.9,6.8,9.1c0.1,0.4-12.2,8.6-19.7,13.3
		c-0.3,0.2-1.3-1-2.6-2.8c-3.6-5.3-7.5-7.6-13.3-8c-8.6-0.6-14.1,3.9-14.1,11.4c0,2.2,0.3,3.5,1.2,5.3c1.9,3.9,5.4,6.3,16.4,11
		c20.3,8.7,29,14.5,34.4,22.7c6,9.1,7.4,23.7,3.3,34.6c-4.5,11.8-15.7,19.8-31.4,22.5c-4.9,0.9-16.4,0.7-21.6-0.2
		c-11.4-2-22.2-7.6-28.8-15c-2.6-2.9-7.7-10.4-7.4-10.9c0.1-0.2,1.3-0.9,2.6-1.7c1.3-0.7,6-3.5,10.5-6.1l8.1-4.7l1.7,2.5
		c2.4,3.6,7.6,8.6,10.8,10.3c9,4.8,21.5,4.1,27.6-1.4c2.6-2.4,3.7-4.9,3.7-8.5c0-3.3-0.4-4.7-2.1-7.2c-2.2-3.1-6.7-5.8-19.5-11.3
		c-14.6-6.3-20.9-10.2-26.7-16.4c-3.3-3.6-6.5-9.4-7.8-14.2c-1.1-4-1.3-14-0.5-18.1c3-14.1,13.7-24,29.1-26.9
		C212.2,129.2,223.8,129.6,228.7,130.8z"/>
</g>
</svg>
