<svg width="25" height="25" viewBox="0 0 25 25" fill="none" xmlns="http://www.w3.org/2000/svg">
<path d="M20.4639 6.84216C20.4689 6.47077 20.3988 6.10221 20.2579 5.75855C20.117 5.41489 19.9082 5.1032 19.6439 4.84216C19.1059 4.32633 18.3893 4.03833 17.6439 4.03833C16.8986 4.03833 16.182 4.32633 15.6439 4.84216L9.04395 11.4422H8.82395C7.6914 11.4726 6.61377 11.9367 5.81358 12.7388C5.01339 13.5408 4.55173 14.6195 4.52395 15.7522L4.46395 19.0122C4.46051 19.1471 4.48443 19.2814 4.53427 19.4068C4.58411 19.5323 4.65884 19.6464 4.75395 19.7422C4.94863 19.9176 5.20188 20.0139 5.46395 20.0122L8.72395 19.9522C9.85657 19.9244 10.9353 19.4627 11.7373 18.6625C12.5394 17.8623 13.0035 16.7847 13.0339 15.6522V15.4222L19.6439 8.82216C19.9067 8.56416 20.1147 8.25585 20.2556 7.91566C20.3964 7.57546 20.4673 7.21036 20.4639 6.84216ZM8.71395 17.9522L6.46395 18.0122V15.7822C6.47444 15.1526 6.73192 14.5524 7.18088 14.1109C7.62983 13.6694 8.2343 13.4221 8.86395 13.4222C9.14969 13.4221 9.43257 13.479 9.69606 13.5896C9.95955 13.7001 10.1984 13.8621 10.3985 14.066C10.5987 14.2699 10.7562 14.5116 10.8619 14.7771C10.9676 15.0426 11.0193 15.3265 11.0139 15.6122C10.9992 16.2213 10.7534 16.802 10.3263 17.2366C9.89915 17.6711 9.32274 17.927 8.71395 17.9522ZM18.2339 7.40216L12.3639 13.2722C12.2103 13.0435 12.0363 12.8293 11.8439 12.6322C11.6494 12.4369 11.4349 12.2626 11.2039 12.1122L17.0739 6.25216C17.2302 6.103 17.4379 6.01978 17.6539 6.01978C17.87 6.01978 18.0777 6.103 18.2339 6.25216C18.3099 6.33002 18.3695 6.42239 18.409 6.52375C18.4485 6.62512 18.4672 6.73341 18.4639 6.84216C18.4643 6.94604 18.4442 7.04897 18.4047 7.14507C18.3653 7.24116 18.3072 7.32852 18.2339 7.40216Z" fill="#3100BC"/>
</svg>
