<svg width="25" height="25" viewBox="0 0 25 25" fill="none" xmlns="http://www.w3.org/2000/svg">
<path d="M18.6077 3.01221H6.60767C5.81202 3.01221 5.04895 3.32828 4.48635 3.89089C3.92374 4.4535 3.60767 5.21656 3.60767 6.01221V18.0122C3.60767 18.8079 3.92374 19.5709 4.48635 20.1335C5.04895 20.6961 5.81202 21.0122 6.60767 21.0122H18.6077C19.4033 21.0122 20.1664 20.6961 20.729 20.1335C21.2916 19.5709 21.6077 18.8079 21.6077 18.0122V6.01221C21.6077 5.21656 21.2916 4.4535 20.729 3.89089C20.1664 3.32828 19.4033 3.01221 18.6077 3.01221ZM19.6077 18.0122C19.6077 18.2774 19.5023 18.5318 19.3148 18.7193C19.1272 18.9069 18.8729 19.0122 18.6077 19.0122H6.60767C6.34245 19.0122 6.0881 18.9069 5.90056 18.7193C5.71302 18.5318 5.60767 18.2774 5.60767 18.0122V11.0122H19.6077V18.0122ZM5.60767 9.01221V6.01221C5.60767 5.74699 5.71302 5.49264 5.90056 5.3051C6.0881 5.11756 6.34245 5.01221 6.60767 5.01221H18.6077C18.8729 5.01221 19.1272 5.11756 19.3148 5.3051C19.5023 5.49264 19.6077 5.74699 19.6077 6.01221V9.01221H5.60767Z" fill="#551BF9"/>
<path d="M8.60767 8.04224C9.15995 8.04224 9.60767 7.59452 9.60767 7.04224C9.60767 6.48995 9.15995 6.04224 8.60767 6.04224C8.05538 6.04224 7.60767 6.48995 7.60767 7.04224C7.60767 7.59452 8.05538 8.04224 8.60767 8.04224Z" fill="#551BF9"/>
<path d="M12.6077 8.04224C13.16 8.04224 13.6077 7.59452 13.6077 7.04224C13.6077 6.48995 13.16 6.04224 12.6077 6.04224C12.0554 6.04224 11.6077 6.48995 11.6077 7.04224C11.6077 7.59452 12.0554 8.04224 12.6077 8.04224Z" fill="#551BF9"/>
</svg>
